<?xml version="1.0" encoding="UTF-8"?>
<svg width="14px" height="14px" viewBox="0 0 14 14" version="1.1" xmlns="http://www.w3.org/2000/svg" xmlns:xlink="http://www.w3.org/1999/xlink">
    <title>add</title>
    <g id="Page-1" stroke="none" stroke-width="1" fill="none" fill-rule="evenodd">
        <g id="cog-svgrepo-com" transform="translate(-18.000000, 0.000000)" fill="#474747" fill-rule="nonzero">
            <g id="add" transform="translate(18.000000, 0.000000)">
                <path d="M12.75,5.75 L8.5,5.75 C8.36192881,5.75 8.25,5.63807119 8.25,5.5 L8.25,1.25 C8.25,0.559644063 7.69035594,0 7,0 C6.30964406,0 5.75,0.559644063 5.75,1.25 L5.75,5.5 C5.75,5.63807119 5.63807119,5.75 5.5,5.75 L1.25,5.75 C0.559644063,5.75 0,6.30964406 0,7 C0,7.69035594 0.559644063,8.25 1.25,8.25 L5.5,8.25 C5.63807119,8.25 5.75,8.36192881 5.75,8.5 L5.75,12.75 C5.75,13.4403559 6.30964406,14 7,14 C7.69035594,14 8.25,13.4403559 8.25,12.75 L8.25,8.5 C8.25,8.36192881 8.36192881,8.25 8.5,8.25 L12.75,8.25 C13.4403559,8.25 14,7.69035594 14,7 C14,6.30964406 13.4403559,5.75 12.75,5.75 Z" id="Path"></path>
            </g>
        </g>
    </g>
</svg>