<svg xmlns="http://www.w3.org/2000/svg" viewBox="0 0 18 16">
  <defs/>
  <g fill="#000" fill-rule="nonzero" opacity=".10026042">
    <path d="M5.10877681 12.7260638c-1.16263295 0-2.19680851-.7444148-2.57234042-1.8526595l-.02539891-.0835107c-.08856385-.293484-.12566492-.5402925-.12566492-.787234V5.05106383L.62353746 10.9321808c-.22659575.8650267.28976065 1.7618352 1.15611704 2.0007979l11.2299202 3.0074468c.1401596.0363032.2803192.0537234.418351.0537234.7232713 0 1.3841756-.4800532 1.569415-1.1875l.6542553-2.0805851H5.10877681zM7.10598427 5.10053191c.80106383 0 1.45239363-.65146277 1.45239363-1.4525266 0-.80106383-.6513298-1.45252657-1.45239363-1.45252657s-1.45252661.65146274-1.45252661 1.45252657.65146278 1.4525266 1.45252661 1.4525266z"/>
    <path d="M16.1839098.01675534H5.2902928c-1.00066492 0-1.81555854.81489361-1.81555854 1.81569147v7.98856385c0 1.00079784.81489362 1.81569144 1.81555854 1.81569144h10.893617c1.0007979 0 1.8156915-.8148936 1.8156915-1.81569144V1.83244681c0-1.00079786-.8148936-1.81569147-1.8156915-1.81569147zM5.2902928 1.4692819h10.893617c.2005319 0 .3631649.16263298.3631649.3631649v5.15558512l-2.2941489-2.67699469c-.2433511-.28537235-.5956117-.43789893-.9739362-.44654257-.3761968.00212766-.7291223.16914894-.9702128.4582447L9.61143642 7.56023935l-.8787234-.87659574c-.49667554-.49667551-1.30505321-.49667551-1.80106383 0l-2.00438833 2.0037234v-6.8549202c0-.20053192.16263299-.3631649.36303194-.3631649z"/>
  </g>
</svg>
