<?xml version="1.0" encoding="UTF-8"?>
<svg width="18px" height="16px" viewBox="0 0 18 16" version="1.1" xmlns="http://www.w3.org/2000/svg" xmlns:xlink="http://www.w3.org/1999/xlink">
    <title>Menu</title>
    <g id="Menu" stroke="none" stroke-width="1" fill="none" fill-rule="evenodd" opacity="0.100260417">
        <g id="image" transform="translate(0.570213, 0.000000)" fill="#000000" fill-rule="nonzero">
            <path d="M4.53856381,12.7260638 C3.37593086,12.7260638 2.3417553,11.981649 1.96622339,10.8734043 L1.94082448,10.7898936 C1.85226063,10.4964096 1.81515956,10.2496011 1.81515956,10.0026596 L1.81515956,5.05106383 L0.0533244596,10.9321808 C-0.173271285,11.7972075 0.343085106,12.694016 1.2094415,12.9329787 L12.4393617,15.9404255 C12.5795213,15.9767287 12.7196809,15.9941489 12.8577127,15.9941489 C13.580984,15.9941489 14.2418883,15.5140957 14.4271277,14.8066489 L15.081383,12.7260638 L4.53856381,12.7260638 Z" id="Path"></path>
            <path d="M6.53577127,5.10053191 C7.3368351,5.10053191 7.9881649,4.44906914 7.9881649,3.64800531 C7.9881649,2.84694148 7.3368351,2.19547874 6.53577127,2.19547874 C5.73470744,2.19547874 5.08324466,2.84694148 5.08324466,3.64800531 C5.08324466,4.44906914 5.73470744,5.10053191 6.53577127,5.10053191 Z" id="Path"></path>
            <path d="M15.6136968,0.0167553362 L4.7200798,0.0167553362 C3.71941488,0.0167553362 2.90452126,0.831648953 2.90452126,1.83244681 L2.90452126,9.82101066 C2.90452126,10.8218085 3.71941488,11.6367021 4.7200798,11.6367021 L15.6136968,11.6367021 C16.6144947,11.6367021 17.4293883,10.8218085 17.4293883,9.82101066 L17.4293883,1.83244681 C17.4293883,0.831648953 16.6144947,0.0167553362 15.6136968,0.0167553362 Z M4.7200798,1.46928191 L15.6136968,1.46928191 C15.8142287,1.46928191 15.9768617,1.63191489 15.9768617,1.83244681 L15.9768617,6.98803193 L13.6827128,4.31103724 C13.4393617,4.02566489 13.0871011,3.87313831 12.7087766,3.86449467 C12.3325798,3.86662233 11.9796543,4.03364361 11.7385638,4.32273937 L9.04122342,7.56023935 L8.16250002,6.68364361 C7.66582448,6.1869681 6.85744681,6.1869681 6.36143619,6.68364361 L4.35704786,8.68736701 L4.35704786,1.83244681 C4.35704786,1.63191489 4.51968085,1.46928191 4.7200798,1.46928191 Z" id="Shape"></path>
        </g>
    </g>
</svg>