<svg width="800" height="800" viewBox="0 0 800 800" fill="none" xmlns="http://www.w3.org/2000/svg">
<g clip-path="url(#clip0_1_2)">
<path d="M750 316.667H700V250C700 232.319 692.976 215.362 680.474 202.86C667.971 190.357 651.014 183.333 633.333 183.333H100C82.3189 183.333 65.362 190.357 52.8596 202.86C40.3572 215.362 33.3334 232.319 33.3334 250V550C33.3334 567.681 40.3572 584.638 52.8596 597.14C65.362 609.643 82.3189 616.667 100 616.667H633.333C651.014 616.667 667.971 609.643 680.474 597.14C692.976 584.638 700 567.681 700 550V483.333H750C752.253 483.601 754.538 483.355 756.682 482.612C758.826 481.869 760.774 480.649 762.378 479.045C763.983 477.44 765.202 475.493 765.945 473.349C766.688 471.205 766.935 468.92 766.667 466.667V333.333C766.935 331.08 766.688 328.795 765.945 326.651C765.202 324.507 763.983 322.56 762.378 320.955C760.774 319.351 758.826 318.131 756.682 317.388C754.538 316.645 752.253 316.399 750 316.667V316.667ZM100 550V250H633.333V550H100ZM133.333 283.333H200L266.667 516.667H133.333V283.333Z" fill="white"/>
</g>
<defs>
<clipPath id="clip0_1_2">
<rect width="800" height="800" fill="white"/>
</clipPath>
</defs>
</svg>
