<svg width="16" height="16" viewBox="0 0 16 16" xmlns="http://www.w3.org/2000/svg"><title>Artboard</title><g fill="#FFF" fill-rule="nonzero"><path d="M14.596 11.32c-.982-.894-1.546-1.683-1.546-3.068V6.3c0-2.463-1.7-4.502-3.9-4.844a3.215 3.215 0 00-.65-.048c-.29 0-.506.016-.65.048-2.202.342-3.9 2.38-3.9 4.844v1.952c0 1.385-.564 2.174-1.552 3.074a1.264 1.264 0 00-.398.93c0 .676.51 1.226 1.137 1.226h10.725c.628 0 1.138-.55 1.138-1.226 0-.358-.145-.697-.404-.935zM8.5 16c1.232 0 2.263-.86 2.5-2H6c.237 1.14 1.268 2 2.5 2z"/></g></svg>