<?xml version="1.0" encoding="UTF-8"?>
<svg width="16px" height="16px" viewBox="0 0 16 16" version="1.1" xmlns="http://www.w3.org/2000/svg" xmlns:xlink="http://www.w3.org/1999/xlink">
    <title>bin</title>
    <g id="bin" stroke="none" stroke-width="1" fill="none" fill-rule="evenodd">
        <g id="close" transform="translate(2.000000, 2.000000)" fill="#000000" fill-rule="nonzero">
            <path d="M7.32165854,6 L11.8082927,1.51287889 C11.9317073,1.38935866 11.9998049,1.22456745 12,1.04884871 C12,0.873032392 11.9319024,0.708046052 11.8082927,0.584720957 L11.415122,0.191622219 C11.2915122,0.0678092884 11.1267317,0 10.9508293,0 C10.7752195,0 10.610439,0.0678092884 10.4868293,0.191622219 L6.00019512,4.67845063 L1.51336585,0.191622219 C1.38995122,0.0678092884 1.22507317,0 1.04926829,0 C0.873658537,0 0.708780488,0.0678092884 0.585365854,0.191622219 L0.192,0.584720957 C-0.064,0.840737609 -0.064,1.25715494 0.192,1.51287889 L4.67873171,6 L0.192,10.486926 C0.0684878049,10.6106413 0.000487804878,10.7754325 0.000487804878,10.9511513 C0.000487804878,11.12687 0.0684878049,11.2916612 0.192,11.415279 L0.585268293,11.8083778 C0.708682927,11.9320931 0.873658537,12 1.04917073,12 C1.22497561,12 1.38985366,11.9320931 1.51326829,11.8083778 L6.00009756,7.3214518 L10.4867317,11.8083778 C10.6103415,11.9320931 10.775122,12 10.9507317,12 L10.9509268,12 C11.1266341,12 11.2914146,11.9320931 11.4150244,11.8083778 L11.8081951,11.415279 C11.9316098,11.2917588 11.9997073,11.12687 11.9997073,10.9511513 C11.9997073,10.7754325 11.9316098,10.6106413 11.8081951,10.4870235 L7.32165854,6 Z" id="Path"></path>
        </g>
    </g>
</svg>