<svg xmlns="http://www.w3.org/2000/svg" viewBox="0 0 16 16">
  <defs/>
  <path fill="#000" fill-rule="nonzero" d="M9.32165854 8l4.48663416-4.48712111c.1234146-.12352023.1915122-.28831144.1917073-.46403018 0-.17581632-.0680976-.34080266-.1917073-.46412775l-.3931707-.39309874C13.2915122 2.06780929 13.1267317 2 12.9508293 2c-.1756098 0-.3403903.06780929-.464.19162222L8.00019512 6.67845063 3.51336585 2.19162222C3.38995122 2.06780929 3.22507317 2 3.04926829 2c-.17560975 0-.3404878.06780929-.46390244.19162222L2.192 2.58472096c-.256.25601665-.256.67243398 0 .92815793L6.67873171 8 2.192 12.486926c-.1235122.1237153-.1915122.2885065-.1915122.4642253 0 .1757187.068.3405099.1915122.4641277l.3932683.3930988C2.70868292 13.9320931 2.87365853 14 3.04917072 14c.17580488 0 .34068293-.0679069.46409756-.1916222l4.48682927-4.486926 4.48663414 4.486926c.1236098.1237153.2883903.1916222.464.1916222h.0001951c.1757073 0 .3404878-.0679069.4640976-.1916222l.3931707-.3930988c.1234147-.1235202.1915122-.288409.1915122-.4641277 0-.1757188-.0680975-.34051-.1915122-.4641278L9.32165854 8z"/>
</svg>
