<?xml version="1.0" encoding="UTF-8"?>
<svg width="10px" height="15px" viewBox="0 0 10 15" version="1.1" xmlns="http://www.w3.org/2000/svg" xmlns:xlink="http://www.w3.org/1999/xlink">
    <title>right-chevron</title>
    <g id="Page-1" stroke="none" stroke-width="1" fill="none" fill-rule="evenodd">
        <g id="right-chevron" fill="#000000" fill-rule="nonzero">
            <path d="M9.6094306,6.63074157 L2.98519573,0.365662921 C2.74124555,0.121853933 2.43661922,0 2.07071174,0 C1.70480427,0 1.40017794,0.121988764 1.15622776,0.365662921 L0.38405694,1.08755056 C0.133380783,1.32495506 0.00804270463,1.61352809 0.00804270463,1.95357303 C0.00804270463,2.28717978 0.133345196,2.57919101 0.38405694,2.82933708 L5.32188612,7.49696629 L0.383843416,12.1742022 C0.133238434,12.4116067 0.00790035587,12.7001798 0.00790035587,13.0402584 C0.00790035587,13.3738315 0.133202847,13.6659438 0.383843416,13.9159888 L1.15608541,14.6377753 C1.40672598,14.8751798 1.7116726,14.9938652 2.0705694,14.9938652 C2.42960854,14.9938652 2.73448399,14.8751798 2.98505338,14.6377753 L9.6094306,8.37269663 C9.86017794,8.12248315 9.98562278,7.83053933 9.98562278,7.49693258 C9.98562278,7.15688764 9.86017794,6.86814607 9.6094306,6.63074157 Z" id="Path"></path>
        </g>
    </g>
</svg>