<?xml version="1.0" encoding="UTF-8"?>
<svg version="1.1" viewBox="0 0 16 16" xmlns="http://www.w3.org/2000/svg">
<title>cog-svgrepo-com</title>
<g fill="none" fill-rule="evenodd">
<g fill="#474747" fill-rule="nonzero">
<path d="m7.0025 0l-0.99751 2.3741c-0.1995 0.05985-0.37905 0.1596-0.5586 0.25935l-2.3741-0.99751-1.4364 1.4364 0.99751 2.3741c-0.099751 0.1995-0.17955 0.3591-0.25935 0.5586l-2.3741 0.99751v1.995l2.3741 0.99751c0.0798 0.1995 0.1596 0.3591 0.25935 0.5586l-0.99751 2.3741 1.4364 1.4364 2.3741-0.99751c0.17955 0.0798 0.3591 0.17955 0.5586 0.25935l0.99751 2.3741h1.995l0.99751-2.3741c0.17955-0.0798 0.37905-0.1596 0.5586-0.25935l2.3741 0.99751 1.4364-1.4364-0.99751-2.3741c0.0798-0.17955 0.17955-0.37905 0.25935-0.5586l2.3741-0.99751v-1.995l-2.3741-0.99751c-0.05985-0.17955-0.1596-0.37905-0.25935-0.5586l0.99751-2.3741-1.4364-1.4364-2.3741 0.99751c-0.17955-0.0798-0.37905-0.17955-0.5586-0.25935l-0.99751-2.3741h-1.995zm0.99751 5c1.66 0 3 1.34 3 3s-1.34 3-3 3-3-1.34-3-3 1.34-3 3-3z"/>
</g>
</g>
</svg>
