<?xml version="1.0" encoding="UTF-8"?><svg version="1.1" width="440px" height="440px" viewBox="0 0 440.0 440.0" xmlns="http://www.w3.org/2000/svg" xmlns:xlink="http://www.w3.org/1999/xlink"><defs><clipPath id="i0"><path d="M440,0 L440,440 L0,440 L0,0 L440,0 Z"></path></clipPath><clipPath id="i1"><path d=""></path></clipPath></defs><g clip-path="url(#i0)"><g transform="translate(28.0 43.5)"><g transform="translate(0.0 96.5)"><path d="M28.87,0 L355.13,0 C371.074461,2.53941019e-14 384,12.9255393 384,28.87 L384,227.13 C384,243.074461 371.074461,256 355.13,256 L28.87,256 C12.9255393,256 5.50534696e-15,243.074461 0,227.13 L0,28.87 C-9.05806064e-15,12.9255393 12.9255393,6.4816636e-15 28.87,0 Z" stroke="#FFFFFF" stroke-width="32" fill="none" stroke-linejoin="round"></path></g><g transform="translate(80.0 0.0)"><g clip-path="url(#i1)"><polygon points="0,0.5 224,0.5 224,0.5 0,0.5 0,0.5" stroke="none" fill="#FFFFFF"></polygon></g><path d="M0,0.5 L224,0.5" stroke="#FFFFFF" stroke-width="32" fill="none" stroke-linecap="round" stroke-miterlimit="10"></path></g><g transform="translate(48.0 48.0)"><g clip-path="url(#i1)"><polygon points="0,0.5 288,0.5 288,0.5 0,0.5 0,0.5" stroke="none" fill="#FFFFFF"></polygon></g><path d="M0,0.5 L288,0.5" stroke="#FFFFFF" stroke-width="32" fill="none" stroke-linecap="round" stroke-miterlimit="10"></path></g></g></g></svg>