<svg width="33" height="33" viewBox="0 0 33 33" xmlns="http://www.w3.org/2000/svg"><title>Icon</title><defs><linearGradient x1="87.389%" y1="64.44%" x2="33.859%" y2="46.407%" id="a"><stop stop-color="#FFF" stop-opacity=".499" offset="0%"/><stop stop-color="#FFF" offset="100%"/></linearGradient><linearGradient x1="12.671%" y1="35.593%" x2="66.18%" y2="53.611%" id="b"><stop stop-color="#FFF" stop-opacity=".501" offset="0%"/><stop stop-color="#FFF" offset="100%"/></linearGradient></defs><g fill-rule="nonzero" fill="none"><path d="M.908 19.84c-.259.457-.55.987-.797 1.41-.22.404-.102.925.267 1.172l5.179 3.45a.745.745 0 00.608.103.805.805 0 00.495-.397c.207-.375.474-.862.765-1.384 2.052-3.664 4.115-3.216 7.836-1.293l5.135 2.643c.194.1.418.11.62.03a.827.827 0 00.451-.461l2.466-6.036c.174-.432-.003-.934-.398-1.13a605.718 605.718 0 01-5.179-2.665c-6.98-3.669-12.91-3.431-17.448 4.558z" fill="url(#a)" transform="translate(4 3)"/><path d="M23.093 6.17c.258-.456.55-.985.796-1.407.22-.404.102-.925-.267-1.171L18.447.147a.747.747 0 00-.624-.125.805.805 0 00-.51.41c-.208.374-.474.86-.765 1.381-2.05 3.66-4.112 3.212-7.83 1.292L3.602.478a.741.741 0 00-.62-.03.826.826 0 00-.45.461L.066 6.937c-.174.43.003.933.398 1.128 1.083.551 3.237 1.65 5.175 2.661 6.99 3.66 12.918 3.415 17.453-4.555z" fill="url(#b)" transform="translate(4 3)"/></g></svg>