<?xml version="1.0" encoding="UTF-8"?>
<svg width="28px" height="28px" viewBox="0 0 28 28" version="1.1" xmlns="http://www.w3.org/2000/svg" xmlns:xlink="http://www.w3.org/1999/xlink">
    <title>copy</title>
    <g id="copy" stroke="none" stroke-width="1" fill="none" fill-rule="evenodd">
        <g id="content_copy-24px">
            <polygon id="Path" points="0 0 28 0 28 28 0 28"></polygon>
            <path d="M18.2105263,1 L4.31578947,1 C3.04210526,1 2,2.06363636 2,3.36363636 L2,19.9090909 L4.31578947,19.9090909 L4.31578947,3.36363636 L18.2105263,3.36363636 L18.2105263,1 Z M21.6842105,5.72727273 L8.94736842,5.72727273 C7.67368421,5.72727273 6.63157895,6.79090909 6.63157895,8.09090909 L6.63157895,24.6363636 C6.63157895,25.9363636 7.67368421,27 8.94736842,27 L21.6842105,27 C22.9578947,27 24,25.9363636 24,24.6363636 L24,8.09090909 C24,6.79090909 22.9578947,5.72727273 21.6842105,5.72727273 Z M21.6842105,24.6363636 L8.94736842,24.6363636 L8.94736842,8.09090909 L21.6842105,8.09090909 L21.6842105,24.6363636 Z" id="Shape" fill="#FFFFFF" fill-rule="nonzero"></path>
        </g>
    </g>
</svg>