<?xml version="1.0" encoding="UTF-8"?>
<svg width="16px" height="16px" viewBox="0 0 16 16" version="1.1" xmlns="http://www.w3.org/2000/svg" xmlns:xlink="http://www.w3.org/1999/xlink">
    <title>Artboard</title>
    <g id="Artboard" stroke="none" stroke-width="1" fill="none" fill-rule="evenodd">
        <g id="sheet" transform="translate(1.000000, 0.000000)" fill="#474747" fill-rule="nonzero">
            <path d="M9.56521617,3 L1.43478383,3 C0.642374017,3 -1.77635684e-15,3.70077165 -1.77635684e-15,4.56521872 L-1.77635684e-15,13.4347813 C-1.77635684e-15,14.2992283 0.642374017,15 1.43478383,15 L9.56521617,15 C10.357626,15 11,14.2992283 11,13.4347813 L11,4.56521872 C11,3.70077165 10.357626,3 9.56521617,3 Z M10.0833333,13.4348119 C10.0833333,13.7229711 9.86733078,13.9565616 9.60086827,13.9565616 L1.39913173,13.9565616 C1.13266922,13.9565616 0.916666667,13.7229711 0.916666667,13.4348119 L0.916666667,4.56521872 C0.916666667,4.27705951 1.13266922,4.04346896 1.39913173,4.04346896 L9.60086827,4.04346896 C9.86733078,4.04346896 10.0833333,4.27705951 10.0833333,4.56521872 L10.0833333,13.4348119 Z" id="Shape"></path>
            <path d="M12.5,0 L3.5,0 C2.67157227,0 2,0.727534845 2,1.62499603 C2,1.92416034 2.22385742,2.16667196 2.5,2.16667196 C2.77616211,2.16667196 3,1.92416034 3,1.62499603 C3,1.32583172 3.22384766,1.08332011 3.5,1.08332011 L12.5,1.08332011 C12.7761523,1.08332011 13,1.32583172 13,1.62499603 L13,11.3749722 C13,11.6741365 12.7761523,11.9166482 12.5,11.9166482 C12.2238477,11.9166482 12,12.1591598 12,12.4583241 C12,12.7574884 12.2238477,13 12.5,13 C13.3284277,13 14,12.2724652 14,11.375004 L14,1.62499603 C14,0.727534845 13.3284277,0 12.5,0 Z" id="Path"></path>
        </g>
    </g>
</svg>