<svg xmlns="http://www.w3.org/2000/svg" viewBox="0 0 16 16">
  <defs/>
  <g fill="#474747" fill-rule="nonzero">
    <path d="M10.4347813 3H1.56521872C.70077165 3 0 3.75916929 0 4.69565361v9.60869279C0 15.2408307.70077166 16 1.56521872 16h8.86956258C11.2992283 16 12 15.2408307 12 14.3043464V4.69565361C12 3.75916929 11.2992283 3 10.4347813 3zM11 14.3043795c0 .3121725-.2356391.5652289-.5263255.5652289H1.52632553C1.23563915 14.8696084 1 14.616552 1 14.3043795V4.69565361c0-.31217248.23563915-.56522891.52632553-.56522891h8.94734897c.2906864 0 .5263255.25305643.5263255.56522891v9.60872589z"/>
    <path d="M13.375 0h-9.75C2.72753662 0 2 .78349906 2 1.74999573c0 .32217695.24251221.5833433.54167725.5833433s.5416455-.26116635.5416455-.5833433.24251221-.5833433.54167725-.5833433h9.75c.299165 0 .5416772.26116635.5416772.5833433V12.2499701c0 .3221769-.2425122.5833433-.5416772.5833433-.299165 0-.5416772.2611663-.5416772.5833433 0 .3221769.2425122.5833433.5416772.5833433.8974634 0 1.625-.7834991 1.625-1.7499957V1.74999573C15 .78349906 14.2724634 0 13.375 0z"/>
  </g>
</svg>
