<?xml version="1.0" encoding="UTF-8"?>
<svg width="126px" height="126px" viewBox="0 0 126 126" version="1.1" xmlns="http://www.w3.org/2000/svg" xmlns:xlink="http://www.w3.org/1999/xlink">
    <title>Artboard</title>
    <g id="Artboard" stroke="none" stroke-width="1" fill="none" fill-rule="evenodd">
        <g id="server" transform="translate(10.000000, 0.000000)" fill="#FFFFFF" fill-rule="nonzero">
            <path d="M53.5,117 C51.016,117 49,115.06464 49,112.68 L49,94.32 C49,91.93536 51.016,90 53.5,90 C55.984,90 58,91.93536 58,94.32 L58,112.68 C58,115.06464 55.984,117 53.5,117 Z" id="Path"></path>
            <path d="M58.8125,127 L48.1875,127 C46.428,127 45,125.572 45,123.8125 L45,113.1875 C45,111.428 46.428,110 48.1875,110 L58.8125,110 C60.572,110 62,111.428 62,113.1875 L62,123.8125 C62,125.572 60.572,127 58.8125,127 Z" id="Path"></path>
            <path d="M47.5428571,123 L17.4571429,123 C14.9968,123 13,120.984 13,118.5 C13,116.016 14.9968,114 17.4571429,114 L47.5428571,114 C50.0032,114 52,116.016 52,118.5 C52,120.984 50.0032,123 47.5428571,123 Z" id="Path"></path>
            <path d="M88.5428571,123 L58.4571429,123 C55.9968,123 54,120.984 54,118.5 C54,116.016 55.9968,114 58.4571429,114 L88.5428571,114 C91.0032,114 93,116.016 93,118.5 C93,120.984 91.0032,123 88.5428571,123 Z" id="Path"></path>
            <path d="M90.5416667,34 L15.4583333,34 C6.93416667,34 0,40.9528571 0,49.5 C0,58.0471429 6.93416667,65 15.4583333,65 L90.5416667,65 C99.0658333,65 106,58.0471429 106,49.5 C106,40.9528571 99.0658333,34 90.5416667,34 Z M15.4583333,56.1428571 C11.8013333,56.1428571 8.83333333,53.1668571 8.83333333,49.5 C8.83333333,45.8331429 11.8013333,42.8571429 15.4583333,42.8571429 C19.1153333,42.8571429 22.0833333,45.8331429 22.0833333,49.5 C22.0833333,53.1668571 19.1153333,56.1428571 15.4583333,56.1428571 Z M37.5416667,56.1428571 C33.8846667,56.1428571 30.9166667,53.1668571 30.9166667,49.5 C30.9166667,45.8331429 33.8846667,42.8571429 37.5416667,42.8571429 C41.1986667,42.8571429 44.1666667,45.8331429 44.1666667,49.5 C44.1666667,53.1668571 41.1986667,56.1428571 37.5416667,56.1428571 Z" id="Shape"></path>
            <path d="M90.5416667,0 L15.4583333,0 C6.93416667,0 0,6.95285714 0,15.5 C0,24.0471429 6.93416667,31 15.4583333,31 L90.5416667,31 C99.0658333,31 106,24.0471429 106,15.5 C106,6.95285714 99.0658333,0 90.5416667,0 Z M15.4583333,22.1428571 C11.8013333,22.1428571 8.83333333,19.1668571 8.83333333,15.5 C8.83333333,11.8331429 11.8013333,8.85714286 15.4583333,8.85714286 C19.1153333,8.85714286 22.0833333,11.8331429 22.0833333,15.5 C22.0833333,19.1668571 19.1153333,22.1428571 15.4583333,22.1428571 Z M37.5416667,22.1428571 C33.8846667,22.1428571 30.9166667,19.1668571 30.9166667,15.5 C30.9166667,11.8331429 33.8846667,8.85714286 37.5416667,8.85714286 C41.1986667,8.85714286 44.1666667,11.8331429 44.1666667,15.5 C44.1666667,19.1668571 41.1986667,22.1428571 37.5416667,22.1428571 Z" id="Shape"></path>
            <path d="M90.5416667,70 L15.4583333,70 C6.93416667,70 0,76.9528571 0,85.5 C0,94.0471429 6.93416667,101 15.4583333,101 L90.5416667,101 C99.0658333,101 106,94.0471429 106,85.5 C106,76.9528571 99.0658333,70 90.5416667,70 Z M15.4583333,92.1428571 C11.8013333,92.1428571 8.83333333,89.1668571 8.83333333,85.5 C8.83333333,81.8331429 11.8013333,78.8571429 15.4583333,78.8571429 C19.1153333,78.8571429 22.0833333,81.8331429 22.0833333,85.5 C22.0833333,89.1668571 19.1153333,92.1428571 15.4583333,92.1428571 Z M37.5416667,92.1428571 C33.8846667,92.1428571 30.9166667,89.1668571 30.9166667,85.5 C30.9166667,81.8331429 33.8846667,78.8571429 37.5416667,78.8571429 C41.1986667,78.8571429 44.1666667,81.8331429 44.1666667,85.5 C44.1666667,89.1668571 41.1986667,92.1428571 37.5416667,92.1428571 Z" id="Shape"></path>
        </g>
    </g>
</svg>