<svg xmlns="http://www.w3.org/2000/svg" width="47" height="47" viewBox="0 0 47 47">
  <path fill="#474747" d="M35.25,8.53710938 L24.234375,0.275390625 C24.0004766,0.0999667969 23.7043398,0 23.4082031,0 L1.37695313,0 C0.616507812,0 0,0.616507812 0,1.37695312 L0,45.6230469 C0,46.3834922 0.616507812,47 1.37695313,47 L34.4238281,47 C35.1842734,47 35.8007933,46.3834922 35.8007933,45.6230469 L35.8007933,9.64840234 C35.8025254,9.24624023 35.614709,8.81066406 35.25,8.53710938 Z M24.7851563,4.13085938 L30.2929688,8.26171875 L24.7851563,8.26171875 L24.7851563,4.13085938 Z M2.75390625,44.2460938 L2.75390625,2.75390625 L22.03125,2.75390625 L22.03125,9.63867188 C22.03125,10.3991172 22.6477578,11.015625 23.4082031,11.015625 L33.046875,11.015625 L33.046875,44.2460938 L2.75390625,44.2460938 Z" transform="translate(6)"/>
</svg>
