<svg xmlns="http://www.w3.org/2000/svg" viewBox="0 0 33 33"><defs/><defs><linearGradient id="a" x1="50%" x2="50%" y1="0%" y2="100%"><stop offset="0%" stop-color="#68D59B"/><stop offset="100%" stop-color="#37AB62"/></linearGradient></defs><g fill="none" fill-rule="evenodd"><path fill="#FFF" fill-rule="nonzero" d="M27 12h-2v-2c0-5-4-9-8-9-5 0-9 4-9 9v2H6l-1 1v16c0 1 1 2 3 2h17c2 0 3-1 3-3V13l-1-1zm-9 13v1h-3v-4l-1-2c0-2 1-3 3-3 1 0 2 1 2 3l-1 2v3zm4-13H11v-2c0-3 3-5 6-5 2 0 5 2 5 5v2z"/><circle cx="16.5" cy="16.5" r="16.5" fill="url(#a)"/></g></svg>