<svg xmlns="http://www.w3.org/2000/svg" viewBox="0 0 16 16">
  <defs/>
  <g fill="#000" fill-rule="nonzero">
    <path d="M11.9551193 7.68525c-.0810006-.16408333-.2590019-.26858333-.4550034-.26858333H9.50010137V1.45833333c0-.253-.22400163-.45833333-.50000364-.45833333H7.00008316c-.27600201 0-.50000364.20533333-.50000364.45833333v5.95833334H4.50006495c-.19600143 0-.37400272.10541666-.45500331.26858333-.0820006.16408333-.05000037.35566667.07900057.49133333L7.62408771 11.84325c.09500069.0999167.23200168.15675.37600273.15675.14400105 0 .28100205-.05775.37600274-.15675l3.50002552-3.66666667c.1300009-.13475.1600011-.32725.0790006-.49133333z"/>
    <path d="M14.7617314 10v3.5947468H1.24139101V10H0v4c0 .553.47786667 1 1.06666667 1H14.9333333C15.5232 15 16 14.553 16 14v-4h-1.2382686z"/>
  </g>
</svg>
