<?xml version="1.0" encoding="UTF-8"?>
<svg width="16px" height="16px" viewBox="0 0 16 16" version="1.1" xmlns="http://www.w3.org/2000/svg" xmlns:xlink="http://www.w3.org/1999/xlink">
    <title>download</title>
    <g id="download" stroke="none" stroke-width="1" fill="none" fill-rule="evenodd">
        <g transform="translate(0.000000, 1.000000)" fill="#000000" fill-rule="nonzero" id="Path">
            <path d="M11.9551193,6.68525 C11.8741187,6.52116667 11.6961174,6.41666667 11.5001159,6.41666667 L9.50010137,6.41666667 L9.50010137,0.458333333 C9.50010137,0.205333333 9.27609974,0 9.00009773,0 L7.00008316,0 C6.72408115,0 6.50007952,0.205333333 6.50007952,0.458333333 L6.50007952,6.41666667 L4.50006495,6.41666667 C4.30406352,6.41666667 4.12606223,6.52208333 4.04506164,6.68525 C3.96306104,6.84933333 3.99506127,7.04091667 4.12406221,7.17658333 L7.62408771,10.84325 C7.7190884,10.9431667 7.85608939,11 8.00009044,11 C8.14409149,11 8.28109249,10.94225 8.37609318,10.84325 L11.8761187,7.17658333 C12.0061196,7.04183333 12.0361198,6.84933333 11.9551193,6.68525 Z"></path>
            <path d="M14.7617314,9 L14.7617314,12.5947468 L1.24139101,12.5947468 L1.24139101,9 L0,9 L0,13 C0,13.553 0.477866667,14 1.06666667,14 L14.9333333,14 C15.5232,14 16,13.553 16,13 L16,9 L14.7617314,9 Z"></path>
        </g>
    </g>
</svg>