<?xml version="1.0" encoding="UTF-8"?>
<svg width="33px" height="33px" viewBox="0 0 33 33" version="1.1" xmlns="http://www.w3.org/2000/svg" xmlns:xlink="http://www.w3.org/1999/xlink">
    <!-- Generator: Sketch 63.1 (92452) - https://sketch.com -->
    <title>Icon</title>
    <desc>Created with Sketch.</desc>
    <g id="Icon" stroke="none" stroke-width="1" fill="none" fill-rule="evenodd">
        <g id="paintbrush" transform="translate(3.000000, 3.000000)" fill="#FFFFFF" fill-rule="nonzero">
            <path d="M27.7192932,11.0598028 C28.0935689,10.68559 28.0935689,10.078748 27.7192932,9.70447135 L26.2810342,8.2662087 C25.9557632,7.94093683 25.4450794,7.89269871 25.0646701,8.15120391 L22.040563,10.206595 L24.0834901,7.16203496 C24.3386084,6.78181635 24.2891564,6.27413411 23.965291,5.95039563 L20.8454747,2.83057131 C20.5574523,2.54254821 20.1189019,2.46798677 19.7520375,2.64477468 L19.2126026,2.90449383 L19.4709154,2.33138664 C19.6346691,1.96816318 19.5565938,1.5416232 19.2748967,1.25986148 L18.2955695,0.2806596 C17.9213577,-0.0935532001 17.3145173,-0.0935532001 16.9402416,0.2806596 L9.33333333,7.88752349 L20.1124488,18.6666667 L27.7192932,11.0598028 Z" id="XMLID_503_"></path>
            <path d="M8.14355809,9.33333333 L5.99377764,11.4831138 C5.81831973,11.6585717 5.71970652,11.8965283 5.71970652,12.1446518 C5.71970652,12.3927754 5.81825736,12.6307944 5.99377764,12.8061899 L8.03303146,14.8454437 C8.42592495,15.2383372 8.61647736,15.7805539 8.55584988,16.3329999 C8.49528478,16.8850717 8.19139891,17.3732102 7.72215971,17.6723557 C1.73001938,21.4920114 1.17146069,22.0506324 0.987956538,22.234199 C-0.329318846,23.551412 -0.329318846,25.6947055 0.987956538,27.0120432 C2.30654177,28.3306285 4.44996008,28.3280087 5.76580087,27.0120432 C5.94942977,26.8284767 6.50817558,26.2696685 10.3275818,20.2778401 C10.6259788,19.8097237 11.1139302,19.5065239 11.6662515,19.4458341 C12.2203193,19.3853937 12.7624736,19.5750105 13.1544315,19.966906 L15.1936853,22.0061598 C15.5590095,22.371484 16.1514996,22.371484 16.5168238,22.0061598 L18.6666667,19.856317 L8.14355809,9.33333333 Z M4.36931057,25.5008473 C3.85285429,26.0173035 3.01554643,26.0173035 2.49915252,25.5008473 C1.98269624,24.984391 1.98269624,24.1470831 2.49915252,23.6306892 C3.0156088,23.114233 3.85291666,23.114233 4.36931057,23.6306892 C4.88576685,24.1470831 4.88576685,24.984391 4.36931057,25.5008473 Z" id="XMLID_1199_"></path>
        </g>
    </g>
</svg>