<?xml version="1.0" encoding="UTF-8"?>
<svg width="216px" height="216px" viewBox="0 0 216 216" version="1.1" xmlns="http://www.w3.org/2000/svg" xmlns:xlink="http://www.w3.org/1999/xlink">
    <title>Artboard</title>
    <g id="Artboard" stroke="none" stroke-width="1" fill="none" fill-rule="evenodd">
        <g id="search" fill="#474747" fill-rule="nonzero">
            <path d="M158.512338,139.422657 C169.141443,124.907581 175.499214,107.078484 175.499214,87.7503273 C175.499214,39.3664614 136.132982,0 87.7493977,0 C39.3658134,0 0,39.3664614 0,87.7503273 C0,136.134193 39.3662323,175.500655 87.7498167,175.500655 C107.077861,175.500655 124.90853,169.142008 139.423522,158.512842 L196.910346,216 L216,196.910235 C216,196.909816 158.512338,139.422657 158.512338,139.422657 L158.512338,139.422657 Z M87.7498167,148.500393 C54.2503307,148.500393 27.0001047,121.250008 27.0001047,87.7503273 C27.0001047,54.2506464 54.2503307,27.0002619 87.7498167,27.0002619 C121.249303,27.0002619 148.499529,54.2506464 148.499529,87.7503273 C148.499529,121.250008 121.248884,148.500393 87.7498167,148.500393 Z" id="Shape"></path>
        </g>
    </g>
</svg>