<svg xmlns="http://www.w3.org/2000/svg" viewBox="0 0 16 16">
  <defs/>
  <path fill="#474747" d="M14.8577218 1.128H1.14430444C.51161907 1.128 0 1.64973592 0 2.29402031V13.9619797C0 14.6052299.51161907 15.128 1.14430444 15.128H14.8577218C15.4868613 15.128 16 14.6052299 16 13.9619797V2.29402031C16 1.64973591 15.4868613 1.128 14.8577218 1.128zm-9.39302225.87593721c.31558285 0 .57037928.25957526.57037928.5832687 0 .3221422-.25479643.58171745-.57037928.58171745s-.57189894-.25957525-.57189894-.58171745c0-.32369344.25631609-.5832687.57189894-.5832687zm-1.74963591 0c.31558285 0 .57189894.25957526.57189894.5832687 0 .3221422-.25631609.58171745-.57189894.58171745-.31659596 0-.57291205-.26009234-.57291205-.58171745 0-.32369344.25631609-.5832687.57291205-.5832687zm-1.71569683 0c.31558285 0 .57189894.25957526.57189894.5832687 0 .3221422-.25631609.58171745-.57189894.58171745-.31456975 0-.57037928-.26009234-.57037928-.58171745 0-.32369344.25580953-.5832687.57037928-.5832687zM14.8577218 13.9619797H1.14430444V4.05778763H14.8577218v9.90419207zm0-11.07124655H6.85670867v-.5832687h8.00101313v.5832687z"/>
</svg>
