<svg xmlns="http://www.w3.org/2000/svg" width="16" height="16" viewBox="0 0 16 16">
  <path fill="#474747" d="M14.8577218,0.128 L1.14430444,0.128 C0.511619072,0.128 0,0.649735919 0,1.29402031 L0,12.9619797 C0,13.6052299 0.511619072,14.128 1.14430444,14.128 L14.8577218,14.128 C15.4868613,14.128 16,13.6052299 16,12.9619797 L16,1.29402031 C16,0.649735919 15.4868613,0.128 14.8577218,0.128 Z M5.46469955,1.00393721 C5.7802824,1.00393721 6.03507883,1.26351247 6.03507883,1.58720591 C6.03507883,1.90934811 5.7802824,2.16892336 5.46469955,2.16892336 C5.1491167,2.16892336 4.89280061,1.90934811 4.89280061,1.58720591 C4.89280061,1.26351247 5.1491167,1.00393721 5.46469955,1.00393721 Z M3.71506364,1.00393721 C4.03064649,1.00393721 4.28696258,1.26351247 4.28696258,1.58720591 C4.28696258,1.90934811 4.03064649,2.16892336 3.71506364,2.16892336 C3.39846768,2.16892336 3.14215159,1.90883102 3.14215159,1.58720591 C3.14215159,1.26351247 3.39846768,1.00393721 3.71506364,1.00393721 Z M1.99936681,1.00393721 C2.31494966,1.00393721 2.57126575,1.26351247 2.57126575,1.58720591 C2.57126575,1.90934811 2.31494966,2.16892336 1.99936681,2.16892336 C1.68479706,2.16892336 1.42898753,1.90883102 1.42898753,1.58720591 C1.42898753,1.26351247 1.68479706,1.00393721 1.99936681,1.00393721 Z M14.8577218,12.9619797 L1.14430444,12.9619797 L1.14430444,3.05778763 L14.8577218,3.05778763 C14.8577218,3.05778763 14.8577218,12.9619797 14.8577218,12.9619797 Z M14.8577218,1.89073315 L6.85670867,1.89073315 L6.85670867,1.30746445 L14.8577218,1.30746445 C14.8577218,1.30746445 14.8577218,1.89073315 14.8577218,1.89073315 Z" transform="translate(0 1)"/>
</svg>
