<?xml version="1.0" encoding="UTF-8"?>
<svg width="33px" height="33px" viewBox="0 0 33 33" version="1.1" xmlns="http://www.w3.org/2000/svg" xmlns:xlink="http://www.w3.org/1999/xlink">
    <title>Icon</title>
    <g id="Icon" stroke="none" stroke-width="1" fill="none" fill-rule="evenodd">
        <g id="interface" transform="translate(1.000000, 4.000000)" fill="#FFFFFF" fill-rule="nonzero">
            <path d="M23.4543826,15.5452673 L22.3633867,15.5452673 C22.2040418,15.5452673 22.0732943,15.5941864 21.9715619,15.6924824 C21.8689937,15.7902062 21.8179484,15.9154506 21.8179484,16.0679868 L21.8179484,21.2952387 C21.8179484,22.0140352 21.5510801,22.6292147 21.0170449,23.1411204 C20.4830098,23.6529118 19.8408541,23.9086072 19.0908168,23.9086072 L4.90894437,23.9086072 C4.15896676,23.9086072 3.51687081,23.6529118 2.98271625,23.1411204 C2.44868108,22.6292719 2.18169335,22.0140924 2.18169335,21.2952387 L2.18169335,7.70424637 C2.18169335,6.9855071 2.44862138,6.37038484 2.98271625,5.85853628 C3.51687081,5.34663051 4.15896676,5.09082067 4.90894437,5.09082067 L16.9087056,5.09082067 C17.0680504,5.09082067 17.198798,5.04167268 17.3009483,4.94377721 C17.4030985,4.84576731 17.4541438,4.72063733 17.4541438,4.56804398 L17.4541438,3.52243339 C17.4541438,3.37012612 17.4030985,3.24476728 17.3009483,3.14692903 C17.198798,3.04891913 17.0680504,3 16.9087056,3 L4.90894437,3 C3.55681151,3 2.4005015,3.46012587 1.44013373,4.38032041 C0.48012418,5.30045772 0,6.40860469 0,7.70441802 L0,21.2954675 C0,22.5912237 0.48012418,23.6995423 1.44019343,24.6193935 C2.4005612,25.5396453 3.55687121,26 4.90900407,26 L19.0908168,26 C20.44289,26 21.5993194,25.5396453 22.5595678,24.6193935 C23.5198758,23.6995423 24,22.5912809 24,21.2954675 L24,16.0683873 C24,15.9156795 23.948895,15.7903779 23.8463268,15.6924824 C23.7440572,15.5941864 23.6133096,15.5452673 23.4543826,15.5452673 Z" id="Path"></path>
            <path d="M30.6736938,0.326074988 C30.4562566,0.108631546 30.1984819,0 29.9012115,0 L21.1136687,0 C20.8162179,0 20.5586235,0.108631546 20.3413666,0.326074988 C20.1239294,0.543398196 20.0150605,0.800879608 20.0150605,1.09839899 C20.0150605,1.39591837 20.1239294,1.6534599 20.3413666,1.87090334 L23.361983,4.89166588 L12.1716895,16.0825186 C12.0571096,16.1969214 12,16.3285778 12,16.4770669 C12,16.6260971 12.0572899,16.7576934 12.1716895,16.8720962 L14.1283241,18.8285461 C14.2427237,18.9429489 14.3743763,19 14.5231017,19 C14.6718271,19 14.8035398,18.943009 14.9178793,18.8285461 L26.108233,7.63787375 L29.1290898,10.6586363 C29.3463467,10.8760797 29.6038809,10.9848315 29.9013918,10.9848315 C30.1989027,10.9848315 30.4564369,10.8760797 30.6739343,10.6586363 C30.8913715,10.441253 31,10.1838317 31,9.88631229 L31,1.09839899 C31,0.800699256 30.8909507,0.543398196 30.6736938,0.326074988 Z" id="Path"></path>
        </g>
    </g>
</svg>