<?xml version="1.0" encoding="UTF-8"?>
<svg width="16px" height="16px" viewBox="0 0 16 16" version="1.1" xmlns="http://www.w3.org/2000/svg" xmlns:xlink="http://www.w3.org/1999/xlink">
    <title>Artboard</title>
    <g id="Artboard" stroke="none" stroke-width="1" fill="none" fill-rule="evenodd">
        <g id="sign" transform="translate(0.000000, 1.000000)" fill="#474747" fill-rule="nonzero">
            <path d="M12.7044573,8.09080325 L12.1135011,8.09080325 C12.0271893,8.09080325 11.9563677,8.1184532 11.9012627,8.17401179 C11.8457049,8.229247 11.8180554,8.30003731 11.8180554,8.38625339 L11.8180554,11.3407871 C11.8180554,11.7470634 11.6735017,12.0947735 11.3842327,12.3841115 C11.0949636,12.6733849 10.7471293,12.8179084 10.3408591,12.8179084 L2.65901153,12.8179084 C2.25277366,12.8179084 1.90497169,12.6733849 1.61563797,12.3841115 C1.32636892,12.0948058 1.18175056,11.7470957 1.18175056,11.3407871 L1.18175056,3.65892186 C1.18175056,3.25267793 1.32633658,2.90500012 1.61563797,2.61569442 C1.90497169,2.32635638 2.25277366,2.1817682 2.65901153,2.1817682 L9.15888218,2.1817682 C9.24519398,2.1817682 9.31601558,2.15398891 9.37134698,2.09865668 C9.42667837,2.04325978 9.4543279,1.97253414 9.4543279,1.88628573 L9.4543279,1.29528844 C9.4543279,1.20920172 9.42667837,1.13834673 9.37134698,1.08304684 C9.31601558,1.02764994 9.24519398,1 9.15888218,1 L2.65901153,1 C1.92660623,1 1.30027164,1.26007115 0.780072439,1.7801811 C0.260067264,2.30025871 0,2.92660265 0,3.65901888 L0,11.3409164 C0,12.0733003 0.260067264,12.6997413 0.780104777,13.2196572 C1.30030398,13.7397995 1.92663857,14 2.65904387,14 L10.3408591,14 C11.0732321,14 11.6996313,13.7397995 12.2197659,13.2196572 C12.7399327,12.6997413 13,12.0733327 13,11.3409164 L13,8.38647976 C13,8.30016667 12.9723181,8.22934401 12.9167604,8.17401179 C12.8613643,8.1184532 12.7905427,8.09080325 12.7044573,8.09080325 Z" id="Path"></path>
            <path d="M15.8282599,0.171618415 C15.7138193,0.0571744977 15.5781484,0 15.4216903,0 L10.7966677,0 C10.6401147,0 10.5045387,0.0571744977 10.390193,0.171618415 C10.2757523,0.285999051 10.2184529,0.421515583 10.2184529,0.57810473 C10.2184529,0.734693878 10.2757523,0.87024205 10.390193,0.984685967 L11.9799911,2.57456099 L6.09036288,8.46448347 C6.03005768,8.52469546 6,8.59398829 6,8.67214048 C6,8.75057744 6.0301526,8.81983863 6.09036288,8.88005062 L7.1201706,9.90976111 C7.18038088,9.96997311 7.24967174,10 7.32794826,10 C7.40622479,10 7.47554729,9.97000475 7.53572592,9.90976111 L13.4253858,4.01993355 L15.0153104,5.60980857 C15.1296562,5.72425249 15.2652005,5.78149027 15.4217852,5.78149027 C15.5783699,5.78149027 15.7139142,5.72425249 15.8283865,5.60980857 C15.9428271,5.4953963 16,5.35991141 16,5.20332226 L16,0.57810473 C16,0.421420661 15.9426057,0.285999051 15.8282599,0.171618415 Z" id="Path"></path>
        </g>
    </g>
</svg>