<svg xmlns="http://www.w3.org/2000/svg" viewBox="0 0 16 16">
  <defs/>
  <g fill="#474747" fill-rule="nonzero">
    <path d="M12.7044573 9.09080325h-.5909562c-.0863118 0-.1571334.02764995-.2122384.08320854-.0555578.05523521-.0832073.12602552-.0832073.2122416v2.95453371c0 .4062763-.1445537.7539864-.4338227 1.0433244-.2892691.2892734-.6371034.4337969-1.0433736.4337969H2.65901153c-.40623787 0-.75403984-.1445235-1.04337356-.4337969-.28926905-.2893057-.43388741-.6370158-.43388741-1.0433244V4.65892186c0-.40624393.14458602-.75392174.43388741-1.04322744.28933372-.28933804.63713569-.43392622 1.04337356-.43392622h6.49987065c.0863118 0 .1571334-.02777929.2124648-.08311152.05533139-.0553969.08298092-.12612254.08298092-.21237095v-.59099729c0-.08608672-.02764953-.15694171-.08298092-.2122416C9.31601558 2.02764994 9.24519398 2 9.15888218 2H2.65901153c-.7324053 0-1.35873989.26007115-1.8789391.7801811C.26006727 3.30025871 0 3.92660265 0 4.65901888v7.68189752c0 .7323839.26006726 1.3588249.78010478 1.8787408C1.30030398 14.7397995 1.92663857 15 2.65904387 15h7.68181523c.732373 0 1.3587722-.2602005 1.8789068-.7803428C12.7399327 13.6997413 13 13.0733327 13 12.3409164V9.38647976c0-.08631309-.0276819-.15713575-.0832396-.21246797-.0553961-.05555859-.1262177-.08320854-.2123031-.08320854z"/>
    <path d="M15.8282599 1.17161841C15.7138193 1.0571745 15.5781484 1 15.4216903 1h-4.6250226c-.156553 0-.292129.0571745-.4064747.17161841-.1144407.11438064-.1717401.24989717-.1717401.40648632s.0572994.29213732.1717401.40658124l1.5897981 1.58987502-5.88962822 5.88992248C6.03005768 9.52469546 6 9.59398829 6 9.67214048c0 .07843696.0301526.14769815.09036288.20791014l1.02980772 1.02971049C7.18038088 10.96997311 7.24967174 11 7.32794826 11c.07827653 0 .14759903-.02999525.20777766-.09023889l5.88965988-5.88982756 1.5899246 1.58987502c.1143458.11444392.2498901.1716817.4064748.1716817.1565847 0 .292129-.05723778.4066013-.1716817C15.9428271 6.4953963 16 6.35991141 16 6.20332226V1.57810473c0-.15668407-.0573943-.29210568-.1717401-.40648631z"/>
  </g>
</svg>
