<svg width="16" height="16" viewBox="0 0 16 16" xmlns="http://www.w3.org/2000/svg"><title>Artboard</title><g fill="#000" fill-rule="nonzero"><path d="M12.277 10.157h-.571a.274.274 0 00-.205.082.285.285 0 00-.08.208v2.907c0 .4-.14.742-.42 1.027-.28.284-.616.427-1.008.427H2.569c-.392 0-.728-.143-1.008-.427a1.412 1.412 0 01-.419-1.027V5.796c0-.4.14-.742.42-1.026.279-.285.615-.427 1.008-.427h6.28a.275.275 0 00.286-.29V3.47a.275.275 0 00-.285-.29H2.57c-.708 0-1.313.255-1.816.767A2.543 2.543 0 000 5.796v7.558c0 .721.251 1.337.754 1.849a2.453 2.453 0 001.816.768h7.423c.707 0 1.313-.256 1.815-.768a2.542 2.542 0 00.754-1.849v-2.906a.285.285 0 00-.08-.21.275.275 0 00-.205-.081z"/><path d="M15.819 2.19a.544.544 0 00-.402-.173H10.85a.544.544 0 00-.401.173.564.564 0 00-.17.409c0 .157.057.294.17.409l1.57 1.598L6.2 10.53a.29.29 0 000 .418l1.017 1.036c.06.06.128.09.205.09a.28.28 0 00.205-.09l5.817-5.923 1.57 1.599a.544.544 0 00.402.172.544.544 0 00.402-.172.564.564 0 00.17-.41V2.6a.564.564 0 00-.17-.409z"/></g></svg>