<svg xmlns="http://www.w3.org/2000/svg" width="16" height="16" viewBox="0 0 16 16">
  <path fill="#474747" d="M15.53125,2.51037597 L12.4853516,2.51037597 L12.4853516,1.66711425 L13.3522949,0.800170906 C13.5354004,0.6171875 13.5354004,0.3203125 13.3522949,0.137329094 C13.1691894,-0.045776375 12.8724365,-0.045776375 12.6893311,0.137329094 L12.0166016,0.809936531 L11.3439941,0.137329094 C11.1610108,-0.045776375 10.8641358,-0.045776375 10.6810303,0.137329094 C10.4980469,0.3203125 10.4980469,0.6171875 10.6810303,0.800170906 L11.5478516,1.66711425 L11.5478516,2.51037597 L0.46875,2.51037597 C0.209838875,2.51037597 0,2.72033691 0,2.97912597 L0,10.0083008 C0,10.2672119 0.209838875,10.4770508 0.46875,10.4770508 L11.5478516,10.4770508 L11.5478516,11.3204346 L10.6810303,12.1872559 C10.4980469,12.3703613 10.4980469,12.6671143 10.6810303,12.8502197 C10.8641357,13.0333252 11.1608887,13.0333252 11.3439941,12.8502197 L12.0166016,12.1774903 L12.6893311,12.8502197 C12.8724365,13.0333252 13.1693115,13.0332031 13.3522949,12.8502197 C13.5354004,12.6671143 13.5354004,12.3703613 13.3522949,12.1872559 L12.4853516,11.3204346 L12.4853516,10.4771728 L15.53125,10.4771728 C15.7901611,10.4771728 16,10.2672119 16,10.0084228 L16,2.97912597 C16,2.72021484 15.7901611,2.51037597 15.53125,2.51037597 Z M0.9375,9.53955078 L0.9375,3.44787597 L11.5478516,3.44787597 L11.5478516,6.02502441 L11.5146484,6.02502441 C11.2557373,6.02502441 11.0458984,6.23486328 11.0458984,6.49377441 C11.0458984,6.75256347 11.2557373,6.96252441 11.5146484,6.96252441 L11.5478516,6.96252441 L11.5478516,9.53955078 L0.9375,9.53955078 Z M15.0625,9.53955078 L12.4853516,9.53955078 L12.4853516,6.96252441 L12.5186767,6.96252441 C12.7775879,6.96252441 12.9874267,6.75256347 12.9874267,6.49377441 C12.9874267,6.23486328 12.7775879,6.02502441 12.5186767,6.02502441 L12.4853516,6.02502441 L12.4853516,3.44787597 L15.0625,3.44787597 L15.0625,9.53955078 Z" transform="matrix(-1 0 0 1 16 2)"/>
</svg>
