<svg xmlns="http://www.w3.org/2000/svg" viewBox="0 0 16 16">
  <defs/>
  <path fill="#474747" d="M.46875 4.51037597h3.0458984v-.84326172l-.8669433-.86694334c-.1831055-.18298341-.1831055-.47985841 0-.66284182.1831055-.18310547.4798584-.18310547.6629638 0l.6727295.67260744.6726075-.67260744c.1829833-.18310547.4798583-.18310547.6629638 0 .1829834.18298341.1829834.47985841 0 .66284182l-.8668213.86694334v.84326172H15.53125c.25891113 0 .46875.20996094.46875.46875v7.02917483c0 .2589111-.20983888.46875-.46875.46875H4.4521484v.8433838l.8668213.8668213c.1829834.1831054.1829834.4798584 0 .6629638-.1831054.1831055-.4798584.1831055-.6629638 0l-.6726075-.6727294-.6727295.6727294c-.1831054.1831055-.4799804.1829834-.6629638 0-.1831055-.1831054-.1831055-.4798584 0-.6629638l.8669433-.8668213v-.8432618H.46875c-.2589111 0-.46875-.2099609-.46875-.46875V4.97912597c0-.25891113.2098389-.46875.46875-.46875zm14.59375 7.02917481V5.44787597H4.4521484v2.57714844h.0332032c.2589111 0 .46875.20983887.46875.46875 0 .25878906-.2098389.46875-.46875.46875h-.0332032v2.57702637H15.0625zm-14.125 0h2.5771484V8.96252441h-.0333251c-.2589112 0-.46875-.20996094-.46875-.46875 0-.25891113.2098388-.46875.46875-.46875h.0333251V5.44787597H.9375v6.09167481z"/>
</svg>
