<svg xmlns="http://www.w3.org/2000/svg" width="16" height="16" viewBox="0 0 16 16">
  <g fill="#474747">
    <path d="M8,0 C3.58875,0 0,3.58875 0,8 C0,12.41125 3.58875,16 8,16 C12.41125,16 16,12.41125 16,8 C16,3.58875 12.41125,0 8,0 Z M8,14.8349375 C4.23125,14.8349375 1.1650625,11.76875 1.1650625,8 C1.1650625,4.23125 4.23125,1.1650625 8,1.1650625 C11.76875,1.1650625 14.8349375,4.23125 14.8349375,8 C14.8349375,11.76875 11.76875,14.8349375 8,14.8349375 Z"/>
    <polygon points=".777 7.436 15.222 7.436 15.222 8.601 .777 8.601" transform="rotate(-45 8 8.019)"/>
  </g>
</svg>
