<svg id="Capa_1" enable-background="new 0 0 510 510" height="512" viewBox="0 0 510 510" width="512" xmlns="http://www.w3.org/2000/svg" xmlns:xlink="http://www.w3.org/1999/xlink"><linearGradient id="SVGID_1_" gradientUnits="userSpaceOnUse" x1="179.548" x2="179.548" y1="16.564" y2="79.544"><stop offset="0" stop-color="#ff9100"/><stop offset="1" stop-color="#e63950"/></linearGradient><linearGradient id="SVGID_2_" gradientUnits="userSpaceOnUse" x1="134.718" x2="134.718" y1="16.564" y2="79.544"><stop offset="0" stop-color="#fdbf00"/><stop offset="1" stop-color="#ff9100"/></linearGradient><linearGradient id="SVGID_3_" gradientUnits="userSpaceOnUse" x1="58.115" x2="356.085" y1="35.005" y2="332.976"><stop offset="0" stop-color="#ffda2d"/><stop offset="1" stop-color="#fdbf00"/></linearGradient><linearGradient id="lg1"><stop offset="0" stop-color="#76e2f8"/><stop offset="1" stop-color="#48b2e3"/></linearGradient><linearGradient id="SVGID_4_" gradientUnits="userSpaceOnUse" x1="378.706" x2="393.086" xlink:href="#lg1" y1="109.598" y2="120.555"/><linearGradient id="SVGID_5_" gradientUnits="userSpaceOnUse" x1="418.837" x2="433.217" xlink:href="#lg1" y1="109.598" y2="120.555"/><linearGradient id="SVGID_6_" gradientUnits="userSpaceOnUse" x1="458.967" x2="473.348" xlink:href="#lg1" y1="109.598" y2="120.555"/><linearGradient id="lg2"><stop offset="0" stop-color="#ff9100" stop-opacity="0"/><stop offset="1" stop-color="#ff9100"/></linearGradient><linearGradient id="SVGID_7_" gradientUnits="userSpaceOnUse" x1="255" x2="255" xlink:href="#lg2" y1="342.315" y2="425.163"/><linearGradient id="SVGID_8_" gradientUnits="userSpaceOnUse" x1="491.052" x2="213.044" xlink:href="#lg2" y1="281.648" y2="281.648"/><linearGradient id="SVGID_9_" gradientUnits="userSpaceOnUse" x1="181.415" x2="458.936" y1="284.586" y2="562.107"><stop offset="0" stop-color="#b9dd39"/><stop offset="1" stop-color="#0b799d"/></linearGradient><linearGradient id="SVGID_10_" gradientUnits="userSpaceOnUse" x1="274.399" x2="-89.601" y1="349.158" y2="91.158"><stop offset="0" stop-color="#0b799d" stop-opacity="0"/><stop offset=".3645" stop-color="#096380" stop-opacity=".365"/><stop offset=".76" stop-color="#084f67" stop-opacity=".76"/><stop offset="1" stop-color="#07485e"/></linearGradient><g><g><path d="m266.783 79.505h-174.47v-49.69c0-16.467 13.348-29.815 29.814-29.815h114.841c16.466 0 29.815 13.348 29.815 29.815z" fill="url(#SVGID_1_)"/><path d="m221.953 79.505h-174.471v-49.69c0-16.467 13.349-29.815 29.815-29.815h114.841c16.466 0 29.815 13.348 29.815 29.815z" fill="url(#SVGID_2_)"/><path d="m174.47 56.592v-26.777c0-16.467-13.348-29.815-29.814-29.815h-114.841c-16.467 0-29.815 13.348-29.815 29.815v321.925c0 23.458 19.017 42.475 42.475 42.475h425.05c23.458 0 42.475-19.017 42.475-42.475v-239.698c0-23.458-19.017-42.475-42.475-42.475h-280.08c-7.166 0-12.975-5.809-12.975-12.975z" fill="url(#SVGID_3_)"/><g><path d="m387.317 128h-10.229c-5.867 0-10.623-4.756-10.623-10.623v-10.229c0-5.867 4.756-10.623 10.623-10.623h10.229c5.867 0 10.623 4.756 10.623 10.623v10.229c0 5.867-4.756 10.623-10.623 10.623z" fill="url(#SVGID_4_)"/><path d="m427.448 128h-10.229c-5.867 0-10.623-4.756-10.623-10.623v-10.229c0-5.867 4.756-10.623 10.623-10.623h10.229c5.867 0 10.623 4.756 10.623 10.623v10.229c0 5.867-4.756 10.623-10.623 10.623z" fill="url(#SVGID_5_)"/><path d="m467.579 128h-10.229c-5.867 0-10.623-4.756-10.623-10.623v-10.229c0-5.867 4.756-10.623 10.623-10.623h10.229c5.867 0 10.623 4.756 10.623 10.623v10.229c0 5.867-4.756 10.623-10.623 10.623z" fill="url(#SVGID_6_)"/></g><path d="m0 304.771v46.969c0 23.458 19.017 42.475 42.475 42.475h425.05c23.458 0 42.475-19.017 42.475-42.475v-46.969z" fill="url(#SVGID_7_)"/></g><path d="m488.469 388.687-211.242-207.24c-13.321-17.307-34.334-16.453-46.278 2.592l-100.919 162.502c-9.347 14.903-6.628 31.919 5.667 41.375 1.679 2.179 7.095 6.145 7.218 6.298h324.611c7.617 0 14.761-2.015 20.943-5.527z" fill="url(#SVGID_8_)"/><g><path d="m356.92 394.442h-29.641v90.304c0 13.947-11.307 25.254-25.254 25.254h-88.095c-13.947 0-25.254-11.307-25.254-25.254v-90.304h-35.596c-25.104 0-40.392-27.634-27.053-48.901l101.92-162.502c12.516-19.955 41.59-19.955 54.106 0l101.92 162.502c13.339 21.267-1.949 48.901-27.053 48.901z" fill="url(#SVGID_9_)"/><path d="m356.92 394.442h-29.641v90.304c0 13.947-11.307 25.254-25.254 25.254h-47.025v-341.927c10.398 0 20.795 4.989 27.053 14.966l101.92 162.502c13.339 21.267-1.949 48.901-27.053 48.901z" fill="url(#SVGID_10_)"/></g></g></svg>