<?xml version="1.0" encoding="UTF-8"?>
<svg width="16px" height="16px" viewBox="0 0 16 16" version="1.1" xmlns="http://www.w3.org/2000/svg" xmlns:xlink="http://www.w3.org/1999/xlink">
    <title>grid</title>
    <g id="grid" stroke="none" stroke-width="1" fill="none" fill-rule="evenodd">
        <g id="menu" transform="translate(0.000000, 3.000000)" fill="#000000" fill-rule="nonzero">
            <path d="M4.19514681,-2.22044605e-15 L0.490238227,-2.22044605e-15 C0.234459834,-2.22044605e-15 0.0271246537,0.20733518 0.0271246537,0.463113573 L0.0271246537,4.16802216 C0.0271246537,4.42380055 0.234459834,4.63113573 0.490238227,4.63113573 L4.19514681,4.63113573 C4.45092521,4.63113573 4.65826039,4.42380055 4.65826039,4.16802216 L4.65826039,0.463113573 C4.65826039,0.20733518 4.45092521,-2.22044605e-15 4.19514681,-2.22044605e-15 Z" id="Path"></path>
            <path d="M9.82628255,-2.22044605e-15 L6.12137396,-2.22044605e-15 C5.86559557,-2.22044605e-15 5.65826039,0.20733518 5.65826039,0.463113573 L5.65826039,4.16802216 C5.65826039,4.42380055 5.86559557,4.63113573 6.12137396,4.63113573 L9.82628255,4.63113573 C10.0820609,4.63113573 10.2893961,4.42380055 10.2893961,4.16802216 L10.2893961,0.463113573 C10.2893961,0.20733518 10.0820609,-2.22044605e-15 9.82628255,-2.22044605e-15 Z" id="Path"></path>
            <path d="M4.19514681,5.63113573 L0.490238227,5.63113573 C0.234459834,5.63113573 0.0271246537,5.83847091 0.0271246537,6.09424931 L0.0271246537,9.79915789 C0.0271246537,10.0549363 0.234459834,10.2622715 0.490238227,10.2622715 L4.19514681,10.2622715 C4.45092521,10.2622715 4.65826039,10.0549363 4.65826039,9.79915789 L4.65826039,6.09424931 C4.65826039,5.83847091 4.45092521,5.63113573 4.19514681,5.63113573 Z" id="Path"></path>
            <path d="M9.82628255,5.63113573 L6.12137396,5.63113573 C5.86559557,5.63113573 5.65826039,5.83847091 5.65826039,6.09424931 L5.65826039,9.79915789 C5.65826039,10.0549363 5.86559557,10.2622715 6.12137396,10.2622715 L9.82628255,10.2622715 C10.0820609,10.2622715 10.2893961,10.0549363 10.2893961,9.79915789 L10.2893961,6.09424931 C10.2893961,5.83847091 10.0820609,5.63113573 9.82628255,5.63113573 Z" id="Path"></path>
            <path d="M15.4574183,-2.22044605e-15 L11.7525097,-2.22044605e-15 C11.4967313,-2.22044605e-15 11.2893961,0.20733518 11.2893961,0.463113573 L11.2893961,4.16802216 C11.2893961,4.42380055 11.4967313,4.63113573 11.7525097,4.63113573 L15.4574183,4.63113573 C15.7131967,4.63113573 15.9205319,4.42380055 15.9205319,4.16802216 L15.9205319,0.463113573 C15.9205319,0.20733518 15.7131524,-2.22044605e-15 15.4574183,-2.22044605e-15 Z" id="Path"></path>
            <path d="M15.4574183,5.63113573 L11.7525097,5.63113573 C11.4967313,5.63113573 11.2893961,5.83847091 11.2893961,6.09424931 L11.2893961,9.79915789 C11.2893961,10.0549363 11.4967313,10.2622715 11.7525097,10.2622715 L15.4574183,10.2622715 C15.7131967,10.2622715 15.9205319,10.0549363 15.9205319,9.79915789 L15.9205319,6.09424931 C15.9205319,5.83847091 15.7131524,5.63113573 15.4574183,5.63113573 Z" id="Path"></path>
        </g>
    </g>
</svg>