<svg xmlns="http://www.w3.org/2000/svg" viewBox="0 0 16 16">
  <defs/>
  <g fill="#000" fill-rule="nonzero">
    <path d="M4.19514681 3H.49023823c-.2557784 0-.46311358.20733518-.46311358.46311357v3.70490859c0 .25577839.20733518.46311357.46311358.46311357H4.1951468c.2557784 0 .46311358-.20733518.46311358-.46311357V3.46311357C4.65826039 3.20733518 4.45092521 3 4.19514681 3zM9.82628255 3H6.12137396c-.25577839 0-.46311357.20733518-.46311357.46311357v3.70490859c0 .25577839.20733518.46311357.46311357.46311357h3.70490859c.25577835 0 .46311355-.20733518.46311355-.46311357V3.46311357C10.2893961 3.20733518 10.0820609 3 9.82628255 3zM4.19514681 8.63113573H.49023823c-.2557784 0-.46311358.20733518-.46311358.46311358v3.70490858c0 .25577841.20733518.46311361.46311358.46311361H4.1951468c.2557784 0 .46311358-.2073352.46311358-.46311361V9.09424931c0-.2557784-.20733518-.46311358-.46311358-.46311358zM9.82628255 8.63113573H6.12137396c-.25577839 0-.46311357.20733518-.46311357.46311358v3.70490858c0 .25577841.20733518.46311361.46311357.46311361h3.70490859c.25577835 0 .46311355-.2073352.46311355-.46311361V9.09424931c0-.2557784-.2073352-.46311358-.46311355-.46311358zM15.4574183 3h-3.7049086c-.2557784 0-.4631136.20733518-.4631136.46311357v3.70490859c0 .25577839.2073352.46311357.4631136.46311357h3.7049086c.2557784 0 .4631136-.20733518.4631136-.46311357V3.46311357C15.9205319 3.20733518 15.7131524 3 15.4574183 3zM15.4574183 8.63113573h-3.7049086c-.2557784 0-.4631136.20733518-.4631136.46311358v3.70490858c0 .25577841.2073352.46311361.4631136.46311361h3.7049086c.2557784 0 .4631136-.2073352.4631136-.46311361V9.09424931c0-.2557784-.2073795-.46311358-.4631136-.46311358z"/>
  </g>
</svg>
