<svg width="33" height="33" viewBox="0 0 33 33" xmlns="http://www.w3.org/2000/svg"><title>Icon</title><g fill="#FFF" fill-rule="nonzero"><path d="M18.2 5c-.652 0-1.248.245-1.7.648A2.547 2.547 0 0014.8 5H2v22h29V5H18.2zm-2.55 20.309H3.7v-1.694h11.1c.469 0 .85.38.85.847v.847zm0-3.239a2.55 2.55 0 00-.85-.146H3.7V6.691h11.1c.469 0 .85.38.85.847V22.07zm13.65 3.239H17.35v-.847a.85.85 0 01.85-.847h11.1v1.694zm0-3.385H18.2c-.298 0-.584.052-.85.146V7.538a.85.85 0 01.85-.847h11.1v15.233z"/><path d="M24.333 17.201V13H21v1.799h1.667v2.402H21V19h5v-1.799zM22 10h2v2h-2zM5 9h9v2H5zM5 12h9v2H5zM5 15h9v2H5zM5 18h9v2H5z"/></g></svg>