<svg xmlns="http://www.w3.org/2000/svg" viewBox="0 0 128 128"><defs/><g fill="none" fill-rule="nonzero"><g fill="#EE3524"><path d="M67 111c6-1 11-2 16-5 12-7 19-18 20-32v-1h17c-1-9-4-17-9-23L94 61c5 8 5 17 1 26-4 10-15 20-28 24"/><path d="M120 76h-14c-1 14-9 26-21 33a53 53 0 01-41 2c7 4 15 7 24 7 15 0 29-8 37-22v-1l10 6a48 48 0 005-25"/><path d="M67 121h-1c-15 0-30-8-40-22 8 17 25 29 44 29s35-10 43-25l-8-5c-8 14-22 23-38 23"/></g><path fill="#FFCE44" d="M34 76c5 4 5 12 0 17-4 5-18 11-23 6s1-19 6-23c5-5 13-5 17 0z"/><path fill="#DEB957" d="M21 73v1c0 8 7 15 15 15h1c2-4 1-10-2-14-4-3-10-4-14-2z"/><path fill="#EE3524" d="M59 50c15 14 18 35 4 49l-7 7c-13 14-4-20-19-34-14-15-48-5-34-19l7-7c14-14 35-11 49 4z"/><path fill="#EAEAEA" d="M107 2c5 4 3 32-24 59-18 17-29 23-29 23-11 8-17 3-24-5-8-7-13-13-5-24 0 0 6-11 23-29C75-1 103-3 107 2z"/><path fill="#FFCE44" d="M59 81c-12 9-18 3-26-5-7-8-13-14-5-26l2-2-5 7c-8 12-3 18 5 25 7 8 13 13 24 5l14-10-9 6z"/><path fill="#4989F4" d="M78 31a11 11 0 11-16 16 11 11 0 0116-16z"/><path fill="#EE3524" d="M54 56c3 2-2 9-12 20-11 11-17 14-19 11-2-2 0-8 11-19 11-10 18-15 20-12z"/><path fill="#2C62BB" d="M70 31a8 8 0 018 8l-2 6a8 8 0 01-14-6l2-6 6-2m0-3c-3 0-6 1-8 3-4 5-4 11 0 16 2 2 5 3 8 3s6-1 8-3c4-5 4-11 0-16-2-2-5-3-8-3z"/><path fill="#EE3524" d="M81 4c1 6 4 12 9 17 4 4 9 7 15 8 5-14 5-25 2-27-2-3-13-3-26 2z"/></g></svg>