<svg xmlns="http://www.w3.org/2000/svg" viewBox="0 0 16 16">
  <defs/>
  <path fill="var(--accent)" fill-rule="nonzero" d="M8 0c4.4219687 0 8 3.578625 8 8 0 4.4219687-3.578625 8-8 8-4.42196875 0-8-3.578625-8-8 0-4.42196875 3.578625-8 8-8zm0 11.046875c-.43147246 0-.78125.3497775-.78125.78125s.34977754.78125.78125.78125.78125-.3497775.78125-.78125-.34977754-.78125-.78125-.78125zm0-7.03125c-1.3785 0-2.5 1.1215-2.5 2.5 0 .3451875.2798125.625.625.625s.625-.2798125.625-.625c0-.68925.56075-1.25 1.25-1.25s1.25.56075 1.25 1.25-.56075 1.25-1.25 1.25c-.3451875 0-.625.2798125-.625.625v1.5625l.00677639.0923601c.0446389.3013899.30441679.5326399.61822361.5326399.3451875 0 .625-.2798125.625-.625V8.93653125l.16766726-.04968483C9.78384557 8.55465789 10.5 7.61720724 10.5 6.515625c0-1.3785-1.1215-2.5-2.5-2.5z"/>
</svg>
