<?xml version="1.0" encoding="UTF-8"?>
<svg width="16px" height="16px" viewBox="0 0 16 16" version="1.1" xmlns="http://www.w3.org/2000/svg" xmlns:xlink="http://www.w3.org/1999/xlink">
    <title>Artboard</title>
    <g id="Artboard" stroke="none" stroke-width="1" fill="none" fill-rule="evenodd">
        <g id="information-(1)" fill="#474747" fill-rule="nonzero">
            <g id="Group" transform="translate(5.000000, 0.000000)">
                <path d="M3.78936098,15.595053 C3.21926396,15.6963616 2.08488398,15.9493893 1.50883557,16.0002388 C1.02123392,16.0432803 0.561100212,15.7457472 0.280606803,15.3186502 C-0.000619084562,14.891602 -0.0680070882,14.3450916 0.0989521844,13.8547986 L2.36720858,7.20619849 L0.00885735345,7.20619849 C0.00684303813,5.82081726 0.981680096,4.8021675 2.2284955,4.41123126 C2.82349678,4.22462032 3.93205691,3.96925029 4.50874623,4.00838783 C4.85424709,4.0318118 5.45648159,4.26287947 5.736975,4.68997646 C6.01820089,5.11702466 6.08558889,5.66353508 5.91862962,6.15382798 L3.65037322,12.8024281 L6.00799197,12.8024281 C6.00844977,14.186199 5.06996195,15.3675477 3.78936098,15.595053 L3.78936098,15.595053 Z" id="Path"></path>
                <path d="M4.508791,3.004373 C3.68034601,3.004373 3.008791,2.33272643 3.008791,1.504373 C3.008791,0.675928013 3.68034601,0.004373 4.508791,0.004373 C5.33723599,0.004373 6.008791,0.675928013 6.008791,1.504373 C6.008791,2.33277221 5.33728177,3.004373 4.508791,3.004373 Z" id="Path"></path>
            </g>
        </g>
    </g>
</svg>