<svg xmlns="http://www.w3.org/2000/svg" viewBox="0 0 16 16">
  <defs/>
  <g fill="#474747" fill-rule="nonzero">
    <path d="M8.78936098 15.595053c-.57009702.1013086-1.704477.3543363-2.28052541.4051858-.48760165.0430415-.94773536-.2544916-1.22822877-.6815886-.28122588-.4270482-.34861389-.9735586-.18165462-1.4638516l2.2682564-6.64860011H5.00885735C5.00684304 5.82081726 5.9816801 4.8021675 7.2284955 4.41123126c.59500128-.18661094 1.70356141-.44198097 2.28025073-.40284343.34550086.02342397.94773536.25449164 1.22822877.68158863.28122589.4270482.34861389.97355862.18165462 1.46385152l-2.2682564 6.64860012h2.35761875c.0004578 1.3837709-.93803002 2.5651196-2.21863099 2.7926249zM9.508791 3.004373c-.82844499 0-1.5-.67164657-1.5-1.5 0-.82844499.67155501-1.5 1.5-1.5s1.5.67155501 1.5 1.5c0 .82839921-.67150923 1.5-1.5 1.5z"/>
  </g>
</svg>
