<?xml version="1.0" encoding="UTF-8"?>
<svg width="467px" height="366px" viewBox="0 0 467 366" version="1.1" xmlns="http://www.w3.org/2000/svg" xmlns:xlink="http://www.w3.org/1999/xlink">
    <title>intro</title>
    <defs>
        <filter id="filter-1">
            <feColorMatrix in="SourceGraphic" type="matrix" values="0 0 0 0 1.000000 0 0 0 0 1.000000 0 0 0 0 1.000000 0 0 0 1.000000 0"></feColorMatrix>
        </filter>
    </defs>
    <g id="intro" stroke="none" stroke-width="1" fill="none" fill-rule="evenodd">
        <text id="Welcome-to-Sitecore" transform="translate(227.938192, 247.785898) rotate(-354.000000) translate(-227.938192, -247.785898) " font-family="OrionChalkSolidDemoVersion, Orion Chalk Solid Demo Version" font-size="73" font-weight="normal" letter-spacing="3" fill="#FFFFFF">
            <tspan x="134.056844" y="189.785898">Welcome to</tspan>
            <tspan x="33.3051351" y="237.785898">Sitecore Author Toolbox</tspan>
            <tspan x="15.3315023" y="285.785898">Click the user icon to see</tspan>
            <tspan x="114.954549" y="333.785898">more options...</tspan>
        </text>
        <g filter="url(#filter-1)" id="up-arrow">
            <g transform="translate(379.683013, 88.790708) rotate(-330.000000) translate(-379.683013, -88.790708) translate(348.683013, -8.209292)">
                <path d="M38.2061132,2.29723446 C36.7475309,-0.312750203 32.0071384,-0.312750203 30.5485561,2.29723446 C18.1506064,22.5246156 6.84659356,43.0782448 0.282973177,65.2631144 C-0.446317977,68.5255952 3.56478337,71.788076 6.84659356,69.8305876 C14.1395051,65.2631144 20.3384799,59.716897 25.8081636,53.1919353 C24.3495813,98.8666669 17.4213153,146.172639 29.4546193,191.194874 C30.1839105,194.457355 36.3822895,193.804859 36.0176439,190.541845 C29.4546193,143.888369 34.5596574,97.5611415 35.2883527,50.9076657 C41.4873275,55.8013869 47.6863024,60.6951082 53.5206316,65.5888294 C56.0731506,67.872566 61.5434301,66.5675736 61.1787845,62.6525967 C58.2610241,41.1207563 50.2388214,20.8933752 38.2061132,2.29723446 Z M34.1950118,41.1207563 C32.0071384,38.1845235 25.8081636,38.8370197 25.8081636,43.4044929 C25.8081636,43.7307409 25.8081636,44.056989 25.8081636,44.056989 C21.4324166,47.971966 17.4213153,51.886943 12.6809228,55.80192 C18.515252,40.7945082 25.8081636,26.7658407 34.194416,12.7371731 C41.4873275,25.4608483 46.9570112,38.5107716 49.8741758,52.5394392 C45.8630745,49.2769584 41.4873275,46.0144775 37.4756304,42.4257486 C36.7475309,41.1207563 35.2883527,40.7945082 34.1950118,41.1207563 Z" id="Shape" fill="#000000" fill-rule="nonzero"></path>
            </g>
        </g>
    </g>
</svg>