<svg xmlns="http://www.w3.org/2000/svg" width="16" height="16">
    <path fill="#474747" d="M8 1C4.15 1 1 4.15 1 8s3.15 7 7 7 7-3.15 7-7-3.15-7-7-7zm4.83 4.2H10.8c-.21-.91-.56-1.68-.98-2.52 1.26.49 2.38 1.33 3.01 2.52zM8 2.4c.56.84 1.05 1.75 1.33 2.8H6.67c.28-.98.77-1.96 1.33-2.8zm-5.39 7c-.14-.42-.21-.91-.21-1.4 0-.49.07-.98.21-1.4h2.38c-.07.49-.07.91-.07 1.4 0 .49.07.91.07 1.4H2.61zm.56 1.4H5.2c.21.91.56 1.68.98 2.52-1.26-.49-2.38-1.33-3.01-2.52zM5.2 5.2H3.17c.7-1.19 1.75-2.03 3.01-2.52-.42.84-.77 1.61-.98 2.52zM8 13.6c-.56-.84-1.05-1.75-1.33-2.8h2.66c-.28.98-.77 1.96-1.33 2.8zm1.61-4.2H6.39c-.07-.49-.14-.91-.14-1.4 0-.49.07-.91.14-1.4h3.29c.07.49.14.91.14 1.4 0 .49-.14.91-.21 1.4zm.21 3.92c.42-.77.77-1.61.98-2.52h2.03c-.63 1.19-1.75 2.03-3.01 2.52zm1.26-3.92c.07-.49.07-.91.07-1.4 0-.49-.07-.91-.07-1.4h2.38c.14.42.21.91.21 1.4 0 .49-.07.98-.21 1.4h-2.38z"/>
</svg>
