<?xml version="1.0" encoding="UTF-8"?>
<svg width="16px" height="16px" viewBox="0 0 16 16" version="1.1" xmlns="http://www.w3.org/2000/svg" xmlns:xlink="http://www.w3.org/1999/xlink">
    <title>list</title>
    <g id="list" stroke="none" stroke-width="1" fill="none" fill-rule="evenodd">
        <g id="open-menu" transform="translate(0.000000, 2.000000)" fill="#000000" fill-rule="nonzero">
            <path d="M14.5275938,0.00834375 L1.47240625,0.00834375 C0.66053125,0.00834375 -8.8817842e-16,0.66884375 -8.8817842e-16,1.48175 C-8.8817842e-16,2.293625 0.66053125,2.95415625 1.47240625,2.95415625 L14.5275938,2.95415625 C15.3394688,2.95415625 16,2.293625 16,1.48175 C16,0.66884375 15.3394688,0.00834375 14.5275938,0.00834375 Z" id="Path"></path>
            <path d="M14.5275938,4.52709375 L1.47240625,4.52709375 C0.66053125,4.52709375 -8.8817842e-16,5.18759375 -8.8817842e-16,6.0005 C-8.8817842e-16,6.812375 0.66053125,7.47290625 1.47240625,7.47290625 L14.5275938,7.47290625 C15.3394688,7.47290625 16,6.812375 16,6.0005 C16,5.18759375 15.3394688,4.52709375 14.5275938,4.52709375 L14.5275938,4.52709375 Z" id="Path"></path>
            <path d="M14.5275938,9.04584375 L1.47240625,9.04584375 C0.66053125,9.04584375 -8.8817842e-16,9.706375 -8.8817842e-16,10.51925 C-8.8817842e-16,11.331125 0.66053125,11.9916563 1.47240625,11.9916563 L14.5275938,11.9916563 C15.3394688,11.9916563 16,11.331125 16,10.51925 C16,9.706375 15.3394688,9.04584375 14.5275938,9.04584375 Z" id="Path"></path>
        </g>
    </g>
</svg>