<svg xmlns="http://www.w3.org/2000/svg" viewBox="0 0 16 16">
  <defs/>
  <g fill="#000" fill-rule="nonzero">
    <path d="M14.5275938 2.00834375H1.47240625C.66053125 2.00834375 0 2.66884375 0 3.48175c0 .811875.66053125 1.47240625 1.47240625 1.47240625H14.5275938C15.3394688 4.95415625 16 4.293625 16 3.48175c0-.81290625-.6605312-1.47340625-1.4724062-1.47340625zM14.5275938 6.52709375H1.47240625C.66053125 6.52709375 0 7.18759375 0 8.0005c0 .811875.66053125 1.47240625 1.47240625 1.47240625H14.5275938C15.3394688 9.47290625 16 8.812375 16 8.0005c0-.81290625-.6605312-1.47340625-1.4724062-1.47340625zM14.5275938 11.04584375H1.47240625C.66053125 11.04584375 0 11.706375 0 12.51925c0 .811875.66053125 1.4724063 1.47240625 1.4724063H14.5275938C15.3394688 13.9916563 16 13.331125 16 12.51925c0-.812875-.6605312-1.47340625-1.4724062-1.47340625z"/>
  </g>
</svg>
