<svg xmlns="http://www.w3.org/2000/svg" viewBox="0 0 16 16">
  <defs/>
  <path fill="#474747" d="M12.35 6V4.55C12.35 2.041 10.387 0 7.975 0S3.6 2.041 3.6 4.55V6h8.75zM5.677 6V4.546c0-1.324 1.08-2.398 2.32-2.398 1.242 0 2.277 1.074 2.277 2.398V6H5.677zm7.99 0H2.333A.333.333 0 002 6.333v8.334C2 15.402 2.598 16 3.333 16h9.334c.735 0 1.333-.598 1.333-1.333V6.333A.333.333 0 0013.667 6zm-4.544 7.603a.347.347 0 01-.094.278.384.384 0 01-.279.119h-1.5a.384.384 0 01-.28-.119.347.347 0 01-.093-.278l.237-2.026A1.393 1.393 0 016.5 10.43C6.5 9.64 7.173 9 8 9s1.5.64 1.5 1.429c0 .461-.23.882-.614 1.148l.237 2.026z"/>
</svg>
