<svg xmlns="http://www.w3.org/2000/svg" viewBox="0 0 33 33">
  <defs/>
  <path fill="#FFF" fill-rule="nonzero" d="M27.3610911 12.25h-1.9166666V9.74998047C25.4444245 4.92519531 21.4320625 1 16.5 1S7.55557552 4.92519531 7.55557552 9.74998047V12.25H5.63890885C5.28576302 12.25 5 12.5295508 5 12.8750195v15.6250196C5 29.8788086 6.14610677 31 7.55557552 31H25.4444844C26.8538932 31 28 29.8788086 28 28.4999805v-15.624961c0-.3454687-.285763-.6250195-.6389089-.6250195zm-8.948138 13.0560352c.0199453.1763671-.0380338.3533789-.1590833.4858593-.1210495.1324219-.2945078.208125-.4760521.208125h-2.5555755c-.1815443 0-.35500262-.0757031-.4760521-.208125-.12104947-.1324218-.17908854-.3094336-.15908333-.4858593l.40303906-3.5455079c-.65448177-.4657031-1.04566145-1.2024023-1.04566145-2.0105273 0-1.3787695 1.14610672-2.5000195 2.55557552-2.5000195 1.4094687 0 2.5555755 1.1211914 2.5555755 2.5000195 0 .808125-.3911797 1.5448242-1.0456614 2.0105273l.4029791 3.5455079zM21.6110911 12.25H11.38890885V9.74998047C11.38890885 6.99302734 13.68178125 4.75 16.5 4.75c2.8182187 0 5.1110911 2.24302734 5.1110911 4.99998047V12.25z"/>
</svg>
