<?xml version="1.0" encoding="UTF-8"?>
<svg width="33px" height="33px" viewBox="0 0 33 33" version="1.1" xmlns="http://www.w3.org/2000/svg" xmlns:xlink="http://www.w3.org/1999/xlink">
    <!-- Generator: Sketch 64 (93537) - https://sketch.com -->
    <title>Icon</title>
    <desc>Created with Sketch.</desc>
    <g id="Icon" stroke="none" stroke-width="1" fill="none" fill-rule="evenodd">
        <g id="lock" transform="translate(5.000000, 1.000000)" fill="#FFFFFF" fill-rule="nonzero">
            <path d="M22.3610911,11.25 L20.4444245,11.25 L20.4444245,8.74998047 C20.4444245,3.92519531 16.4320625,0 11.5,0 C6.5679375,0 2.55557552,3.92519531 2.55557552,8.74998047 L2.55557552,11.25 L0.638908854,11.25 C0.285763021,11.25 0,11.5295508 0,11.8750195 L0,27.5000391 C0,28.8788086 1.14610677,30 2.55557552,30 L20.4444844,30 C21.8538932,30 23,28.8788086 23,27.4999805 L23,11.8750195 C23,11.5295508 22.714237,11.25 22.3610911,11.25 Z M13.4129531,24.3060352 C13.4328984,24.4824023 13.3749193,24.6594141 13.2538698,24.7918945 C13.1328203,24.9243164 12.959362,25.0000195 12.7778177,25.0000195 L10.2222422,25.0000195 C10.0406979,25.0000195 9.86723958,24.9243164 9.7461901,24.7918945 C9.62514063,24.6594727 9.56710156,24.4824609 9.58710677,24.3060352 L9.99014583,20.7605273 C9.33566406,20.2948242 8.94448438,19.558125 8.94448438,18.75 C8.94448438,17.3712305 10.0905911,16.2499805 11.5000599,16.2499805 C12.9095286,16.2499805 14.0556354,17.3711719 14.0556354,18.75 C14.0556354,19.558125 13.6644557,20.2948242 13.009974,20.7605273 L13.4129531,24.3060352 Z M16.6110911,11.25 L6.38890885,11.25 L6.38890885,8.74998047 C6.38890885,5.99302734 8.68178125,3.75 11.5,3.75 C14.3182187,3.75 16.6110911,5.99302734 16.6110911,8.74998047 L16.6110911,11.25 L16.6110911,11.25 Z" id="Shape"></path>
        </g>
    </g>
</svg>