<?xml version="1.0" encoding="UTF-8"?>
<svg width="16px" height="16px" viewBox="0 0 16 16" version="1.1" xmlns="http://www.w3.org/2000/svg" xmlns:xlink="http://www.w3.org/1999/xlink">
    <title>Artboard</title>
    <g id="Artboard" stroke="none" stroke-width="1" fill="none" fill-rule="evenodd">
        <g id="24px" transform="translate(-2.000000, -2.000000)">
            <polygon id="Path" points="0 0 22 0 22 22 0 22"></polygon>
            <path d="M13.4351058,12.0628931 L12.7124071,12.0628931 L12.4562607,11.8158948 C13.352773,10.7730132 13.89251,9.41909663 13.89251,7.946255 C13.89251,4.66209262 11.2304174,2 7.946255,2 C4.66209262,2 2,4.66209262 2,7.946255 C2,11.2304174 4.66209262,13.89251 7.946255,13.89251 C9.41909663,13.89251 10.7730132,13.352773 11.8158948,12.4562607 L12.0628931,12.7124071 L12.0628931,13.4351058 L16.6369354,18 L18,16.6369354 L13.4351058,12.0628931 Z M7.946255,12.0628931 C5.66838193,12.0628931 3.82961692,10.2241281 3.82961692,7.946255 C3.82961692,5.66838193 5.66838193,3.82961692 7.946255,3.82961692 C10.2241281,3.82961692 12.0628931,5.66838193 12.0628931,7.946255 C12.0628931,10.2241281 10.2241281,12.0628931 7.946255,12.0628931 Z" id="Shape" fill="#BCBCBC" fill-rule="nonzero"></path>
        </g>
    </g>
</svg>