<?xml version="1.0" encoding="UTF-8"?>
<svg width="178px" height="150px" viewBox="0 0 178 150" version="1.1" xmlns="http://www.w3.org/2000/svg" xmlns:xlink="http://www.w3.org/1999/xlink">
    <title>media_folder</title>
    <g id="media_folder" stroke="none" stroke-width="1" fill="none" fill-rule="evenodd">
        <g id="folder" transform="translate(25.333333, 19.000000)" fill="#000000" fill-rule="nonzero">
            <path d="M125.391655,34.5805114 C123.154883,32.2709706 120.124354,31 116.861822,31 L12.4690587,31 C9.20802702,31 6.1774976,32.2724667 3.93922587,34.5805114 C1.72495437,36.8633711 0.562943091,39.8721078 0.673944169,43.1359363 L3.76222415,100.800148 C3.9842263,106.975963 9.27702769,112 15.5615887,112 L113.631791,112 C119.799851,112 124.977401,107.145526 125.424155,100.882685 L128.659937,43.0516538 C128.766438,39.8736039 127.605926,36.8646178 125.391655,34.5805114 Z M117.013574,100.350309 C116.882822,102.166623 115.397808,103.591696 113.631791,103.591696 L15.5615887,103.591696 C13.7925715,103.591696 12.2470565,102.174851 12.1840559,100.424617 L9.09702594,42.7716263 C9.06752565,41.8901507 9.38777876,41.0577984 10.0005347,40.4256794 C10.6355409,39.7698716 11.5137994,39.4083045 12.4705587,39.4083045 L12.4705587,39.4098006 L116.861822,39.4098006 C117.818581,39.4098006 118.69684,39.7713677 119.333346,40.4271756 C119.945852,41.0577984 120.266355,41.8916469 120.241105,42.679115 L117.013574,100.350309 Z" id="Shape"></path>
            <path d="M111.815997,9.65965624 L65.4389748,9.65965624 L54.2401608,1.8996477 C52.8539557,0.687270916 50.9894899,0 49.0544118,0 L18.5173362,0 C13.0854457,0 8.66666667,4.45891605 8.66666667,9.93964628 L8.66666667,34.9987545 L17.1100977,34.9987545 L17.1100977,9.93964628 C17.1100977,9.07576243 17.7278303,8.39970108 18.5173362,8.39970108 L48.8771298,8.39970108 C48.9715299,8.48090815 49.0714389,8.55514039 49.1741022,8.6263834 L61.6985249,17.3060745 C62.4079033,17.7975517 63.2492416,18.0606028 64.1118638,18.0606028 L111.815997,18.0606028 C112.605503,18.0606028 113.223236,18.7366642 113.223236,19.600548 L113.223236,35 L121.666667,35 L121.666667,19.5990534 C121.666667,14.1185723 117.246636,9.65965624 111.815997,9.65965624 Z" id="Path"></path>
        </g>
    </g>
</svg>