<?xml version="1.0" encoding="UTF-8"?>
<svg width="178px" height="150px" viewBox="0 0 178 150" version="1.1" xmlns="http://www.w3.org/2000/svg" xmlns:xlink="http://www.w3.org/1999/xlink">
    <title>media_folder</title>
    <g id="media_folder" stroke="none" stroke-width="1" fill="none" fill-rule="evenodd">
        <g transform="translate(20.000000, 19.000000)" fill-rule="nonzero" id="Path">
            <path d="M110.219242,112 L3.72395872,112 C1.27327524,112 -0.508823723,109.665419 0.131209148,107.290258 L24.3192172,40.7594839 C24.7570092,39.1314839 26.2297986,38 27.9119668,38 L134.40725,38 C136.857934,38 138,40.3489032 138,42.7097419 L113.811992,109.240516 C113.3742,110.868516 111.901411,112 110.219242,112 Z" fill="#EFCE4A"></path>
            <path d="M119.869846,16.6854059 L59.6153846,16.6854059 L47.6923077,0 L4.13015385,0 C1.85046154,0 0,1.8473128 0,4.12844614 L0,105.976164 C0.164538462,105.980931 0.329076923,105.990465 0.488846154,106 L24.3707692,40.8935462 C24.8095385,39.2655273 26.2856154,38.1380706 27.9715385,38.1380706 L124,38.1380706 L124,20.813852 C124,18.5327187 122.149538,16.6854059 119.869846,16.6854059 Z" fill="#EBBA16"></path>
        </g>
    </g>
</svg>