<?xml version="1.0" encoding="UTF-8"?>
<svg width="33px" height="33px" viewBox="0 0 33 33" version="1.1" xmlns="http://www.w3.org/2000/svg" xmlns:xlink="http://www.w3.org/1999/xlink">
    <!-- Generator: Sketch 64 (93537) - https://sketch.com -->
    <title>Icon</title>
    <desc>Created with Sketch.</desc>
    <g id="Icon" stroke="none" stroke-width="1" fill="none" fill-rule="evenodd">
        <g id="photo" transform="translate(0.000000, 2.000000)" fill="#FFFFFF" fill-rule="nonzero">
            <path d="M8.59291073,24.0943909 C6.3916855,24.0943909 4.43367001,22.6849823 3.72267148,20.586731 L3.67458345,20.4286194 C3.50690459,19.8729629 3.43666073,19.4056778 3.43666073,18.9381409 L3.43666073,9.56323242 L0.100959762,20.6980133 C-0.328056352,22.3357773 0.64956665,24.0337143 2.28984834,24.486145 L23.5515747,30.1801758 C23.8169403,30.248909 24.0823059,30.2818909 24.3436432,30.2818909 C25.7130203,30.2818909 26.9643173,29.3730011 27.315033,28.0335846 L28.5537415,24.0943909 L8.59291073,24.0943909 Z" id="Path"></path>
            <path d="M12.3742447,9.65689087 C13.8909073,9.65689087 15.1240769,8.42346953 15.1240769,6.90680693 C15.1240769,5.39014433 13.8909073,4.15672305 12.3742447,4.15672305 C10.8575821,4.15672305 9.62416073,5.39014433 9.62416073,6.90680693 C9.62416073,8.42346953 10.8575821,9.65689087 12.3742447,9.65689087 Z" id="Path"></path>
            <path d="M29.5615769,0.0317230547 L8.93657686,0.0317230547 C7.04200741,0.0317230547 5.49916073,1.57456973 5.49916073,3.46939087 L5.49916073,18.5942231 C5.49916073,20.4890442 7.04200741,22.0318909 8.93657686,22.0318909 L29.5615769,22.0318909 C31.456398,22.0318909 32.9992447,20.4890442 32.9992447,18.5942231 L32.9992447,3.46939087 C32.9992447,1.57456973 31.456398,0.0317230547 29.5615769,0.0317230547 Z M8.93657686,2.78180693 L29.5615769,2.78180693 C29.941246,2.78180693 30.2491607,3.08972168 30.2491607,3.46939087 L30.2491607,13.2305146 L25.9056244,8.16213228 C25.4448853,7.62183379 24.7779465,7.33305362 24.0616607,7.31668852 C23.3494034,7.32071684 22.6812058,7.63693999 22.2247467,8.18428804 L17.1178437,14.3138809 L15.4541474,12.6542129 C14.5137863,11.713852 12.9832764,11.713852 12.0441742,12.6542129 L8.24924467,16.4478836 L8.24924467,3.46939087 C8.24924467,3.08972168 8.55715942,2.78180693 8.93657686,2.78180693 Z" id="Shape"></path>
        </g>
    </g>
</svg>