<?xml version="1.0" encoding="UTF-8"?>
<svg width="18px" height="16px" viewBox="0 0 18 16" version="1.1" xmlns="http://www.w3.org/2000/svg" xmlns:xlink="http://www.w3.org/1999/xlink">
    <title>Menu</title>
    <g id="Menu" stroke="none" stroke-width="1" fill="none" fill-rule="evenodd">
        <g id="menu-symbol-of-three-parallel-lines" fill="#000000" fill-rule="nonzero">
            <path d="M0,1 C0,0.448 0.375624217,0 1.17853331,0 L16.9724095,0 C17.7753186,0 18,0.448 18,1 C18,1.552 17.7753186,2 16.9724095,2 L1.17853331,2 C0.375624217,2 0,1.552 0,1 Z" id="Shape"></path>
            <path d="M0,6.5 C0,5.948 0.375624217,5.5 1.17853331,5.5 L16.9724095,5.5 C17.7753186,5.5 18,5.948 18,6.5 C18,7.052 17.7753186,7.5 16.9724095,7.5 L1.17853331,7.5 C0.375624217,7.5 0,7.052 0,6.5 Z" id="Shape"></path>
            <path d="M0,12 C0,11.448 0.375624217,11 1.17853331,11 L16.9724095,11 C17.7753186,11 18,11.448 18,12 C18,12.552 17.7753186,13 16.9724095,13 L1.17853331,13 C0.375624217,13 0,12.552 0,12 Z" id="Shape"></path>
        </g>
    </g>
</svg>