<svg xmlns="http://www.w3.org/2000/svg" viewBox="0 0 18 16">
  <defs/>
  <g fill="#000" fill-rule="nonzero">
    <path d="M0 1c0-.552.37562422-1 1.17853331-1H16.9724095C17.7753186 0 18 .448 18 1s-.2246814 1-1.0275905 1H1.17853331C.37562421 2 0 1.552 0 1zM0 6.5c0-.552.37562422-1 1.17853331-1H16.9724095C17.7753186 5.5 18 5.948 18 6.5s-.2246814 1-1.0275905 1H1.17853331C.37562421 7.5 0 7.052 0 6.5zM0 12c0-.552.37562422-1 1.17853331-1H16.9724095C17.7753186 11 18 11.448 18 12s-.2246814 1-1.0275905 1H1.17853331C.37562421 13 0 12.552 0 12z"/>
  </g>
</svg>
