<svg xmlns="http://www.w3.org/2000/svg" viewBox="0 0 16 16">
  <defs/>
  <path fill="#000" fill-rule="nonzero" d="M14.8233438 9.06329114c-.2649842 1.6835443-1.1041009 3.18987346-2.340694 4.25316456-2.7381703 2.3481013-6.88958986 2.1708861-9.45110406-.3544304-2.6940063-2.70253163-2.6940063-7.08860758-.08832807-9.83544302C4.17981073 1.88607595 5.85804416 1.08860759 7.75709779 1.0443038L8.8170347 1l-.66246057.84177215C6.829653 3.65822785 7.00630915 6.2278481 8.59621451 7.82278481c1.41324921 1.46202532 3.70977919 1.7278481 5.47634069.70886076L15 8l-.1766562 1.06329114zm-3.0031545 3.45569616c.7949527-.7088607 1.4132492-1.59493667 1.7665615-2.61392401-2.0315458.66455696-4.23974765.13291139-5.74132493-1.37341772-1.6340694-1.63924051-2.07570978-4.20886076-1.05993691-6.37974684-1.19242902.26582279-2.25236593.88607595-3.09148265 1.72784811-2.25236593 2.30379746-2.2082019 6.02531645.04416404 8.32911396 2.20820189 2.170886 5.74132492 2.3037974 8.08201895.3101265z"/>
</svg>
