<svg xmlns="http://www.w3.org/2000/svg" viewBox="0 0 16 16">
  <defs/>
  <path fill="#474747" d="M15.4008992 6.5955969c.7803721.78037209.7803721 2.0456124 0 2.8259845-.7803721.78037209-2.0456124.78037209-2.8259845 0-.7803721-.7803721-.7803721-2.04561241 0-2.8259845.7803721-.7803721 2.0456124-.7803721 2.8259845 0m-5.99479067 0c.78037207.78037209.78037207 2.0456124 0 2.8259845-.7803721.78037209-2.04561241.78037209-2.8259845 0-.78037209-.7803721-.78037209-2.04561241 0-2.8259845.78037209-.7803721 2.0456124-.7803721 2.8259845 0m-5.99482171 0c.78037209.78037209.78037209 2.0456124 0 2.8259845-.78037209.78037209-2.0456124.78037209-2.8259845 0-.78037209-.7803721-.78037209-2.04561241 0-2.8259845.7803721-.7803721 2.04561241-.7803721 2.8259845 0"/>
</svg>
