<svg xmlns="http://www.w3.org/2000/svg" width="16" height="16" viewBox="0 0 16 16">
  <path fill="#474747" d="M15.4008992.595596899C16.1812713 1.37596899 16.1812713 2.6412093 15.4008992 3.4215814 14.6205271 4.20195349 13.3552868 4.20195349 12.5749147 3.4215814 11.7945426 2.6412093 11.7945426 1.37596899 12.5749147.595596899 13.3552868-.184775194 14.6205271-.184775194 15.4008992.595596899M9.40610853.595596899C10.1864806 1.37596899 10.1864806 2.6412093 9.40610853 3.4215814 8.62573643 4.20195349 7.36049612 4.20195349 6.58012403 3.4215814 5.79975194 2.6412093 5.79975194 1.37596899 6.58012403.595596899 7.36049612-.184775194 8.62573643-.184775194 9.40610853.595596899M3.41128682.595596899C4.19165891 1.37596899 4.19165891 2.6412093 3.41128682 3.4215814 2.63091473 4.20195349 1.36567442 4.20195349.585302326 3.4215814-.195069767 2.6412093-.195069767 1.37596899.585302326.595596899 1.36567442-.184775194 2.63091473-.184775194 3.41128682.595596899" transform="translate(0 6)"/>
</svg>
