<svg xmlns="http://www.w3.org/2000/svg" width="16" height="16" viewBox="0 0 16 16">
  <g fill="#474747" transform="translate(2)">
    <path d="M11,0 L2.0625,0 C0.92521875,0 0,0.92521875 0,2.0625 L0,13.75 C0,14.9906563 1.00934375,16 2.25,16 L11,16 C11.2761562,16 11.5,15.776125 11.5,15.5 C11.5,15.223875 11.2761562,15 11,15 L2.25,15 C1.56075,15 1,14.43925 1,13.75 C1,13.06075 1.56075,12.5 2.25,12.5 L11,12.5 C11.2761562,12.5 11.5,12.276125 11.5,12 L11.5,0.5 C11.5,0.223875 11.2761562,0 11,0 Z M1,11.6072187 L1,2.0625 C1,1.4756875 1.4756875,1 2.0625,1 L2.09375,1 C2.18003125,1 2.25,1.06996875 2.25,1.15625 L2.25,11.348875 C2.25,11.4305937 2.18709375,11.499375 2.1055625,11.5045937 C1.79040625,11.5246875 1.49271875,11.61 1.2258125,11.7470937 C1.12259375,11.8000938 1,11.7232187 1,11.6072187 L1,11.6072187 Z"/>
    <path d="M11,13.25 L2.25,13.25 C1.97384375,13.25 1.75,13.473875 1.75,13.75 C1.75,14.026125 1.97384375,14.25 2.25,14.25 L11,14.25 C11.2761562,14.25 11.5,14.026125 11.5,13.75 C11.5,13.473875 11.2761562,13.25 11,13.25 Z"/>
  </g>
</svg>
