<svg xmlns="http://www.w3.org/2000/svg" viewBox="0 0 16 16">
  <defs/>
  <g fill="#474747">
    <path d="M13 0H4.0625C2.92521875 0 2 .92521875 2 2.0625V13.75C2 14.9906563 3.00934375 16 4.25 16H13c.2761562 0 .5-.223875.5-.5s-.2238438-.5-.5-.5H4.25C3.56075 15 3 14.43925 3 13.75s.56075-1.25 1.25-1.25H13c.2761562 0 .5-.223875.5-.5V.5c0-.276125-.2238438-.5-.5-.5zM3 11.6072187V2.0625C3 1.4756875 3.4756875 1 4.0625 1h.03125c.08628125 0 .15625.06996875.15625.15625v10.192625c0 .0817187-.06290625.1505-.1444375.1557187-.31515625.0200938-.61284375.1054063-.87975.2425C3.12259375 11.8000938 3 11.7232187 3 11.6072187z"/>
    <path d="M13 13.25H4.25c-.27615625 0-.5.223875-.5.5s.22384375.5.5.5H13c.2761562 0 .5-.223875.5-.5s-.2238438-.5-.5-.5z"/>
  </g>
</svg>
