<?xml version="1.0" encoding="UTF-8"?>
<svg width="16px" height="16px" viewBox="0 0 16 16" version="1.1" xmlns="http://www.w3.org/2000/svg" xmlns:xlink="http://www.w3.org/1999/xlink">
    <title>owl</title>
    <g id="owl" stroke="none" stroke-width="1" fill="none" fill-rule="evenodd">
        <g transform="translate(1.000000, 0.000000)" fill="#000000" fill-rule="nonzero">
            <polygon id="Path" points="3 4 4 4 4 5 3 5"></polygon>
            <polygon id="Path" points="10 4 11 4 11 5 10 5"></polygon>
            <path d="M12.1561981,13.2876213 L12.1561981,6.45648938 C12.6821454,5.87248457 13,5.11670485 13,4.29202107 C13,3.1577916 12.3989004,2.15371838 11.4816866,1.54810173 C11.8717269,1.31063282 12.2124436,0.997615793 12.4784432,0.621144326 L11.4911004,0 C11.0730164,0.591805979 10.3734673,0.945135237 9.61976901,0.945135237 C9.61976901,0.945135237 9.50913694,0.945135237 9.45336603,0.945135237 C8.22249031,0.945135237 7.1362234,1.54003929 6.5,2.4410177 C5.8637766,1.54000196 4.77750969,0.945135237 3.54663397,0.945135237 C3.49082351,0.945135237 3.38019144,0.945135237 3.38019144,0.945135237 C2.62649316,0.945135237 1.92690452,0.591805979 1.5088205,0 L0.521556839,0.621144326 C0.78751681,0.997615793 1.12827308,1.31067014 1.51831342,1.54810173 C0.601060043,2.15371838 0,3.15782892 0,4.29202107 C0,5.11666752 0.3178546,5.87248457 0.843801914,6.45645206 L0.843801914,7.80146225 C0.843801914,9.84783065 1.63309865,11.7796078 3.07546871,13.2876213 L4.38347441,14.4074055 C5.86658492,15.4412277 7.65354798,16 9.53160351,16 L12.1561585,16 L12.1561585,14.4074055 L12.1561981,13.2876213 Z M8.32655644,11.7955461 L7.13994146,11.7955461 C7.13994146,12.9779636 7.66003481,14.0477308 8.49545131,14.8123568 C4.84791551,14.3346195 2.0304169,11.3729395 2.0304169,7.80146225 L2.0304169,7.31719289 C2.49042797,7.52334517 3.00446958,7.6389069 3.54667352,7.6389069 C3.99770588,7.6389069 4.42927775,7.55887966 4.82647734,7.41334503 C4.90851198,7.82676938 5.14061388,8.23325106 5.51111463,8.60475815 C5.8338739,8.92845045 6.15287556,9.1187018 6.18815758,9.13934315 L6.50055375,9.32186799 L6.81291037,9.13923117 C6.84819239,9.11858982 7.16695673,8.92833847 7.48951823,8.60460885 C7.859663,8.23313908 8.09160668,7.82673205 8.17356222,7.41334503 C8.57076181,7.55887966 9.00233368,7.6389069 9.45336603,7.6389069 C9.99553042,7.6389069 10.509572,7.52334517 10.9695831,7.31719289 L10.9695831,14.8228081 C9.46554861,14.54652 8.32655644,13.2944519 8.32655644,11.7955461 L8.32655644,11.7955461 Z M11.813385,4.29202107 C11.813385,5.52005114 10.7546871,6.51915998 9.45332648,6.51915998 C8.72763231,6.51915998 8.07768373,6.20827054 7.64441104,5.72045519 C7.63883395,5.71399777 7.63294043,5.707615 7.62728423,5.7011949 C7.29376632,5.31703425 7.09326794,4.82627014 7.09326794,4.2920584 C7.09326794,3.06402833 8.15200538,2.06491949 9.45332648,2.06491949 C10.7546476,2.06491949 11.813385,3.063991 11.813385,4.29202107 Z M6.49932758,6.20297023 C6.79993671,6.47560037 7.02076576,6.78746028 7.02076576,7.0790521 C7.02076576,7.41577123 6.74982201,7.7375599 6.50185903,7.95442478 C6.26497113,7.74916833 5.97915513,7.42894736 5.97915513,7.0790521 C5.97919468,6.74229565 6.25049442,6.42028303 6.49932758,6.20297023 Z M5.36725734,5.70765233 C5.36705957,5.70787628 5.3668618,5.70810024 5.36666403,5.70828687 C4.9334309,6.20319418 4.27837988,6.51912265 3.54659441,6.51912265 C2.24527332,6.51912265 1.18653588,5.52005114 1.18653588,4.29198374 C1.18653588,3.06391635 2.24531287,2.06491949 3.54663397,2.06491949 C4.84795507,2.06491949 5.90665295,3.063991 5.90665295,4.2920584 C5.90665295,4.82918158 5.70409778,5.32255852 5.36725734,5.70765233 L5.36725734,5.70765233 Z" id="Shape"></path>
        </g>
    </g>
</svg>