<svg xmlns="http://www.w3.org/2000/svg" viewBox="0 0 16 16">
  <defs/>
  <path fill="#000" fill-rule="nonzero" d="M3.47081432 6.8630465c.08470853-.08092911.17660082-.14923098.27328228-.20863638L10.21187714.45357607c.63097378-.60467243 1.65465989-.60495942 2.28593299.00028699.63127307.60495941.63127307 1.58615308 0 2.19168647L6.92770054 7.9860096l5.59884463 5.3682974c.63127313.6049594.63127313 1.5858661 0 2.1916865C12.21075896 15.8490471 11.79679467 16 11.38372834 16c-.41306632 0-.82732994-.1509529-1.14281683-.4540065l-6.4968149-6.22953235c-.09668147-.05940541-.18917241-.12770728-.2732823-.20863639-.32267064-.30936729-.47831882-.71688265-.47053642-1.12238913-.0077824-.40550648.14786578-.81273485.47053643-1.12238913z"/>
</svg>
