<?xml version="1.0" encoding="UTF-8"?>
<svg width="16px" height="16px" viewBox="0 0 16 16" version="1.1" xmlns="http://www.w3.org/2000/svg" xmlns:xlink="http://www.w3.org/1999/xlink">
    <title>parent</title>
    <g id="parent" stroke="none" stroke-width="1" fill="none" fill-rule="evenodd">
        <g id="back" transform="translate(3.000000, 0.000000)" fill="#000000" fill-rule="nonzero">
            <path d="M0.470814317,6.8630465 C0.555522846,6.78211739 0.647415137,6.71381552 0.744096602,6.65441012 L7.21187714,0.453576073 C7.84285092,-0.151096363 8.86653703,-0.151383346 9.49781013,0.453863055 C10.1290832,1.05882247 10.1290832,2.04001614 9.49781013,2.64554953 L3.92770054,7.9860096 L9.52654517,13.354307 C10.1578183,13.9592664 10.1578183,14.9401731 9.52654517,15.5459935 C9.21075896,15.8490471 8.79679467,16 8.38372834,16 C7.97066202,16 7.5563984,15.8490471 7.24091151,15.5459935 L0.744096602,9.31646115 C0.647415137,9.25705574 0.554924199,9.18875387 0.470814317,9.10782476 C0.148143666,8.79845747 -0.0075045143,8.39094211 0.000277894717,7.98543563 C-0.0075045143,7.57992915 0.148143666,7.17270078 0.470814317,6.8630465 Z" id="Path"></path>
        </g>
    </g>
</svg>