<?xml version="1.0" encoding="UTF-8"?>
<svg width="16px" height="16px" viewBox="0 0 16 16" version="1.1" xmlns="http://www.w3.org/2000/svg" xmlns:xlink="http://www.w3.org/1999/xlink">
    <title>password</title>
    <g id="password" stroke="none" stroke-width="1" fill="none" fill-rule="evenodd" opacity="0.5">
        <g id="padlock" transform="translate(2.000000, 0.000000)" fill="#000000" fill-rule="nonzero">
            <path d="M10.5,16 L1.5,16 C0.673333333,16 0,15.3273333 0,14.5 L0,7.5 C0,6.67266667 0.673333333,6 1.5,6 L10.5,6 C11.3266667,6 12,6.67266667 12,7.5 L12,14.5 C12,15.3273333 11.3266667,16 10.5,16 Z M1.5,7 C1.22466667,7 1,7.224 1,7.5 L1,14.5 C1,14.776 1.22466667,15 1.5,15 L10.5,15 C10.7753333,15 11,14.776 11,14.5 L11,7.5 C11,7.224 10.7753333,7 10.5,7 L1.5,7 Z" id="Shape"></path>
            <path d="M9.5,7 C9.224,7 9,6.776 9,6.5 L9,4 C9,2.346 7.654,1 6,1 C4.346,1 3,2.346 3,4 L3,6.5 C3,6.776 2.776,7 2.5,7 C2.224,7 2,6.776 2,6.5 L2,4 C2,1.794 3.794,0 6,0 C8.206,0 10,1.794 10,4 L10,6.5 C10,6.776 9.776,7 9.5,7 Z" id="Path"></path>
            <path d="M6,11.3333333 C5.26466667,11.3333333 4.66666667,10.7353333 4.66666667,10 C4.66666667,9.26466667 5.26466667,8.66666667 6,8.66666667 C6.73533333,8.66666667 7.33333333,9.26466667 7.33333333,10 C7.33333333,10.7353333 6.73533333,11.3333333 6,11.3333333 Z M6,9.66666667 C5.81666667,9.66666667 5.66666667,9.816 5.66666667,10 C5.66666667,10.184 5.81666667,10.3333333 6,10.3333333 C6.18333333,10.3333333 6.33333333,10.184 6.33333333,10 C6.33333333,9.816 6.18333333,9.66666667 6,9.66666667 Z" id="Shape"></path>
            <path d="M6,13.3333333 C5.724,13.3333333 5.5,13.1093333 5.5,12.8333333 L5.5,11 C5.5,10.724 5.724,10.5 6,10.5 C6.276,10.5 6.5,10.724 6.5,11 L6.5,12.8333333 C6.5,13.1093333 6.276,13.3333333 6,13.3333333 Z" id="Path"></path>
        </g>
    </g>
</svg>