<svg xmlns="http://www.w3.org/2000/svg" viewBox="0 0 24 24">
  <defs/>
  <path fill="#474747" fill-rule="nonzero" d="M16.5037716 2.51498438c3.2786497 1.55001562 5.6334801 4.725 5.9899503 8.48498442H24C23.4878654 4.83998438 18.3163419 0 12 0c-.2259417 0-.4418573.02001562-.667799.03501563l3.8309831 3.81496875 1.3405875-1.335zm-6.2811798-.76996876c-.58744845-.585-1.54144028-.585-2.12888875 0L1.70209428 8.10998438c-.58744847.585-.58744847 1.53501562 0 2.12001562L13.7724186 22.2500156c.5874485.585 1.5414403.585 2.1288888 0L22.2929162 15.885c.5874484-.585.5874484-1.5350156 0-2.1200156L10.2225918 1.74501562zM14.841829 21.1899844L2.76651512 9.17001563 9.15817097 2.805 21.2284953 14.8250156l-6.3866663 6.3649688zm-7.34560058.2950312c-3.27864968-1.5500156-5.63348017-4.725-5.9899503-8.4850312H0C.51213456 19.1600156 5.68365806 24 12 24c.2259417 0 .4418573-.0200156.667799-.0350156l-3.83098305-3.8149688-1.34058753 1.335z"/>
</svg>
