<?xml version="1.0" encoding="UTF-8"?>
<svg width="16px" height="16px" viewBox="0 0 16 16" version="1.1" xmlns="http://www.w3.org/2000/svg" xmlns:xlink="http://www.w3.org/1999/xlink">
    <title>profiles</title>
    <g id="profiles" stroke="none" stroke-width="1" fill="none" fill-rule="evenodd">
        <g id="perm_contact_calendar-24px" transform="translate(1.000000, 0.000000)" fill="#474747" fill-rule="nonzero">
            <path d="M12.4444444,1.5 L11.6666667,1.5 L11.6666667,0 L10.1111111,0 L10.1111111,1.5 L3.88888889,1.5 L3.88888889,0 L2.33333333,0 L2.33333333,1.5 L1.55555556,1.5 C0.692222222,1.5 0,2.175 0,3 L0,13.5 C0,14.325 0.692222222,15 1.55555556,15 L12.4444444,15 C13.3,15 14,14.325 14,13.5 L14,3 C14,2.175 13.3,1.5 12.4444444,1.5 Z M7,3.75 C8.29111111,3.75 9.33333333,4.755 9.33333333,6 C9.33333333,7.245 8.29111111,8.25 7,8.25 C5.70888889,8.25 4.66666667,7.245 4.66666667,6 C4.66666667,4.755 5.70888889,3.75 7,3.75 Z M11.6666667,12.75 L2.33333333,12.75 L2.33333333,12 C2.33333333,10.5 5.44444444,9.675 7,9.675 C8.55555556,9.675 11.6666667,10.5 11.6666667,12 L11.6666667,12.75 Z" id="Shape"></path>
        </g>
    </g>
</svg>