<svg width="16" height="16" viewBox="0 0 16 16" xmlns="http://www.w3.org/2000/svg"><title>Artboard</title><g fill="#FFF" fill-rule="nonzero"><path d="M11.644 15.47v-1.497H8.816a.833.833 0 01-.832-.832v-1.663c0-.459.374-.832.832-.832h2.828V9.149a.5.5 0 01.843-.362l3.327 3.16a.5.5 0 010 .724l-3.327 3.16a.5.5 0 01-.843-.361z"/><path d="M7.984 0C3.582 0 0 3.582 0 7.984c0 4.403 3.582 7.985 7.984 7.985.814 0 1.6-.124 2.34-.352-.01-.13-.01-.045-.01-.314H9.63c-1.315 0-1.36-.078-1.36-.078a2.2 2.2 0 01-1.504-1.428c-.304-.421-.584-.989-.815-1.669.233-.032.462-.069.702-.09v-.56c0-.278.058-.541.153-.785-.408.03-.808.076-1.2.135a13.804 13.804 0 01-.262-2.178h1.974v1.274a2.15 2.15 0 011.33-.592V8.65h1.735c.082-.29.268-.602.538-.849.296-.269.614-.429 1.039-.471a1.826 1.826 0 011.44.49l.873.83h.32c-.01.092-.018.183-.031.275l1.136 1.079c.17-.646.27-1.321.27-2.02C15.969 3.582 12.387 0 7.984 0zm-6.62 7.319a6.613 6.613 0 011.107-3.055c.544.249 1.157.453 1.813.618-.15.754-.243 1.572-.276 2.437H1.365zm2.007-4.12A6.66 6.66 0 015.364 1.87a8.433 8.433 0 00-.75 1.726A9.798 9.798 0 013.371 3.2zM7.32 1.588v2.388c-.468-.02-.926-.063-1.37-.124.367-1.086.858-1.882 1.37-2.264zm1.33 0c.513.382 1.003 1.178 1.37 2.264a14.57 14.57 0 01-1.37.125v-2.39zm1.95.28c.747.32 1.422.777 1.998 1.333a9.63 9.63 0 01-1.245.396 8.45 8.45 0 00-.753-1.729zM5.36 14.091a6.672 6.672 0 01-1.987-1.323c.383-.153.802-.28 1.243-.39.205.645.455 1.22.744 1.713zm-1.076-3.005c-.654.163-1.264.368-1.808.614a6.591 6.591 0 01-1.11-3.05h2.642c.033.864.127 1.683.276 2.436zM5.338 7.32c.034-.78.129-1.508.265-2.173.555.082 1.13.136 1.716.16v2.013h-1.98zm3.312 0V5.306a16.014 16.014 0 001.716-.16c.136.665.23 1.394.265 2.173H8.65zm3.31 0a15.468 15.468 0 00-.28-2.436c.658-.164 1.272-.37 1.818-.62.602.89.994 1.932 1.106 3.055h-2.643v.001z"/></g></svg>