<svg xmlns="http://www.w3.org/2000/svg" viewBox="0 0 16 16">
  <defs/>
  <path fill="#000" fill-rule="nonzero" d="M14.5125356 3.3801841c-.0002678-.00515481-.0008369-.01030962-.0017071-.01543096-.0199833-.0285523-.0445523-.05312134-.0651381-.0811046-.1492887-.20338076-.3073473-.39912971-.4741423-.58728034-.0456904-.05141423-.0914142-.10225941-.1382427-.15253556-.1717489-.18393306-.3518995-.35933055-.5404184-.52612553-.0348452-.03086192-.0674142-.06282845-.1022594-.09312134-.4646025-.3980251-.9733222-.74152301-1.5161506-1.02369874-.0217239-.01141423-.0445523-.02112134-.0668452-.03256904-.2417406-.12284519-.4896067-.23327197-.7426611-.33077824-.0571381-.0205523-.1091213-.04-.1633807-.05713808-.2250712-.0811046-.45359-.15213389-.6855231-.21308786-.06855226-.01827615-.13710456-.03712134-.20679493-.05312134-.22851883-.05312134-.45700419-.09369038-.69067783-.12682845-.07082845-.01027615-.14051883-.024-.21194979-.03256904-.60180753-.07313808-1.21024268-.07313808-1.81208368 0-.07139749.00856904-.14108787.02229289-.21194979.03256904-.23364017.03313807-.46443515.07370711-.69067783.12682845-.06969037.016-.13824267.03484519-.20679497.05312134-.23347281.0609205-.46195816.13194979-.68552302.21308786-.05713807.01941423-.10912134.03886193-.16338075.05713808-.25302092.09750627-.5009205.20789958-.74266109.33077824-.02229289.01141423-.04512134.02112134-.06684519.03256904-.54463598.28187448-1.05506276.62533891-1.52130544 1.02369874-.03484518.03025942-.06741422.06225942-.10225941.09312134-.19042678.16756486-.37057741.34296235-.54041841.52612553-.04682845.05027615-.0925523.10112133-.13824268.15253556-.16719665.18774895-.32525523.38349791-.47414226.58724686-.0205523.02798327-.04512134.0525523-.06513807.08110461-.00261088.00498744-.0049205.01014225-.00686193.01543096-1.97041004 2.76140586-1.97041004 6.46918828 0 9.23056067.00194143.0052887.00421758.0104435.00686193.015431.01998326.0285523.0445523.0531213.06513807.0811046.1489205.2033807.30694561.3991297.47414226.5872803.04569038.0514142.09141423.1022594.13824268.1525356.17215063.183933.35226778.3593305.54041841.5261255.03484519.0308619.06741423.0628284.10225941.0931213.46460251.3980251.97332218.741523 1.51615063 1.0236988.02172385.0114142.0445523.0211213.06684519.032569.24174059.1228452.48960669.233272.74266109.3307782.05713807.0205523.10912134.04.16338075.0571381.22507113.0811046.45358996.1521339.68552301.2130879.0685523.0182761.13710461.0371213.20679498.0531213.22851883.0531214.45700419.0936904.69067783.1268285.07082845.0102761.14051883.024.21194979.032569.60180753.0731381 1.21024268.0731381 1.81208368 0 .07139749-.008569.14108787-.0222929.21194979-.032569.23364017-.0331381.46443515-.0737071.69067782-.1268285.06969038-.016.13824268-.0348452.20679495-.0531213.233841-.0609205.4623599-.1319498.685523-.2130879.0571381-.0194142.1091214-.0388619.1633808-.0571381.2530209-.0975062.5009205-.2078995.7426611-.3307782.0222929-.0114142.0451213-.0211213.0668452-.032569.5428284-.2822092 1.0515481-.6256737 1.5161506-1.0236988.0348452-.0302929.0674142-.0622594.1022594-.0931213.1904268-.1671967.3705774-.3425607.5404184-.5261255.0468285-.0502762.0925523-.1011214.1382427-.1525356.1671967-.1881506.3252552-.3838996.4741423-.5872803.0205523-.0279833.0451213-.0525523.065138-.0811046.0026109-.0049875.0049205-.0101423.006862-.015431 1.97041-2.76133892 1.97041-6.46912134 0-9.2305272zm-.6518159 1.08087029c.5463431.89978243.876251 1.91414226.9637154 2.96317992h-3.4218912c-.0419079-.68070293-.1490209-1.35578243-.3198995-2.016.9665941-.18102092 1.9021924-.50001674 2.7780753-.94717992zM9.45164854 1.29790795c.032.00743096.06282845.01770711.09482845.02513808.20451883.048.40733054.10282845.60555651.17138075.0302929.01027615.0599832.02229289.0897071.03313807.1965188.0685523.390159.14453557.5798494.22851883.033138.01543096.0657071.03256904.0988451.048.181657.08646025.3591298.17994979.5324185.28050209l.1142426.06912134c.1645189.1005523.3244854.20813389.4798661.32277825.04.02912133.0799666.05713807.1193975.0891046.1523348.11424268.2982092.23668619.43759.36733054.0365523.03313808.0742761.06570712.1102594.09998327.1462427.13881171.2856234.28562343.4204519.43758995.0171381.01998327.0354142.03825942.0525523.05713808-.773523.36863598-1.5929707.63186611-2.4364519.78262761-.3907615-1.0742092-.9069456-2.09854393-1.537841-3.05171548.07933055.01425942.16046862.02225942.23872804.03936402zM5.73382427 7.42420084c.04505439-.61810879.15029288-1.23035984.3142092-1.82805021.6472636.07688703 1.29851046.11501255 1.95032636.11424268.65241841-.00020084 1.30426779-.03929708 1.95203348-.11712134.16361509.59866108.26828449 1.21188284.31246859 1.83092887H5.73382427zm4.52903763 1.14256067c-.0450544.61810878-.1502929 1.23035983-.31420918 1.82805019-.6472636-.076887-1.29851046-.1150125-1.95032636-.1142427-.65238494-.0007364-1.30420084.0373892-1.95203347.1142427-.1634477-.59772383-.26808368-1.20997488-.3125021-1.82805019h4.52907111zM7.99832636 1.5127364c.65010879.92140586 1.18480335 1.91906276 1.59213389 2.97061088-.52883682.05616736-1.06028452.08438494-1.59213389.0845523-.53124686-.00063598-1.06212552-.02902092-1.59042678-.08512134.40783264-1.05084519.94189121-2.04816736 1.59042678-2.97004184zM2.86262762 3.46989121c.13425941-.15196652.2742092-.29877824.42045188-.43758995.03598326-.03427616.07370711-.06684519.11025941-.09998327.1409205-.12833473.28679498-.25077824.43758996-.36733054.03943096-.03029289.07939749-.05713808.11939749-.0891046.15538075-.11424268.31534728-.22185775.47986611-.32277825l.11424268-.06912134c.1732887-.1012887.3507615-.19481171.53241841-.28050209.03313807-.01543096.06570711-.03256904.09884518-.048.18965691-.08569038.38333055-.16167364.57984938-.22851883.02969037-.01084519.05713807-.02286192.08967364-.03313807.19822594-.06627615.39989958-.1211046.60555648-.17138076.032-.00743096.06282845-.01770711.09539749-.02456903.07825942-.01713808.15939749-.02513808.23879498-.03943097-.63116318.95333892-1.14751464 1.97787448-1.53844351 3.05228452-.84348117-.1507615-1.66296235-.41399163-2.43645189-.78262761.01713808-.01994979.03541423-.03822594.05255231-.05820921zm-.72666109.99116318c.87568201.44712971 1.8110795.76612553 2.77750627.94717992-.17067782.66025105-.27762343 1.33533054-.31933054 2.016H1.17225105c.0874979-1.04903766.41740585-2.06339749.96371548-2.96317992zm0 7.06888701c-.5463431-.8997824-.87625105-1.91414224-.96371548-2.96317989h3.42189121c.04190795.68070293.14902092 1.35578242.31989958 2.01599999-.96659414.1809875-1.90219247.4999833-2.77807531.9471799zm4.40907113 3.163113c-.032-.007431-.06282845-.0177071-.09482845-.0251381-.20451883-.048-.40733055-.1028284-.60555649-.1713807-.03029289-.0102762-.05998326-.0222929-.08970711-.0331381-.19651883-.0685523-.390159-.1445356-.57984938-.2285188-.03313807-.015431-.06570711-.0325691-.09884518-.048-.18165691-.0864603-.35912971-.1799498-.53241841-.2805021l-.11424268-.0691214c-.16451883-.1005523-.32448536-.2081339-.47986611-.3227782-.04-.0291214-.07996653-.0571381-.11939749-.0891046-.15233473-.1142427-.29820921-.2366862-.43758996-.3673306-.0365523-.033138-.07427615-.0657071-.11025941-.0999832-.14624268-.1388117-.28562343-.2856235-.42045189-.43759-.01713807-.0199832-.03541422-.0382594-.0525523-.0571381.77352302-.3686359 1.59297071-.6318661 2.43645189-.7826276.3907615 1.0742092.9069456 2.098544 1.537841 3.0517155-.07936402-.0142259-.16046862-.0222259-.23872803-.039364zm1.4532887-.214795c-.65010879-.9214058-1.18480335-1.9190627-1.59213389-2.9706109 1.05797489-.1138744 2.12512134-.1138744 3.18309623 0l-.00056903.0005691c-.4077657 1.0508117-.94182427 2.0481339-1.59039331 2.9700418zm5.13573224-1.9571883c-.1342594.1519666-.2742092.2987783-.4204519.43759-.0359833.0342761-.0737071.0668452-.1102594.0999833-.1409205.1287364-.286795.2511799-.43759.3673305-.0394309.0302594-.0793975.0599833-.1193975.0891046-.1553807.1142427-.3153472.2218577-.4798661.3227782l-.1142427.0691214c-.1729205.1009205-.3503933.19441-.5324184.2805021-.033138.0154309-.0657071.032569-.0988452.048-.1896569.0856903-.3833305.1616736-.5798493.2285188-.0296904.0108452-.0571381.0228619-.0896737.0331381-.19822591.0662761-.39989955.1211046-.60555645.1713807-.032.007431-.06282845.0177071-.09539749.0245691-.07825941.017138-.15939749.025138-.23879498.0394309.6308954-.9531715 1.14711302-1.9775062 1.53784102-3.0517155.8434812.1507616 1.6629623.4139917 2.4364519.7826277-.0165356.0193807-.0348117.0376569-.0519498.0576401zm.7266611-.9911297c-.875682-.4471297-1.8110795-.7661255-2.7775063-.9471799.1706778-.66025104.2776234-1.33533054.3193305-2.01599999h3.4218912c-.0874979 1.04900418-.4174058 2.06336399-.9637154 2.96317989z"/>
</svg>
