<?xml version="1.0" encoding="UTF-8"?>
<svg width="33px" height="33px" viewBox="0 0 33 33" version="1.1" xmlns="http://www.w3.org/2000/svg" xmlns:xlink="http://www.w3.org/1999/xlink">
    <!-- Generator: Sketch 64 (93537) - https://sketch.com -->
    <title>Icon</title>
    <desc>Created with Sketch.</desc>
    <g id="Icon" stroke="none" stroke-width="1" fill="none" fill-rule="evenodd">
        <g id="global" transform="translate(1.000000, 1.000000)" fill="#FFFFFF" fill-rule="nonzero">
            <path d="M15.5,0 C6.95344531,0 0,6.95344531 0,15.5 C0,24.0465547 6.95344531,31 15.5,31 C24.0465547,31 31,24.0465547 31,15.5 C31,6.95344531 24.0465547,0 15.5,0 Z M15.5,28.4166465 C11.9812578,28.4166465 8.79019531,26.9987598 6.45835352,24.708877 L6.45835352,22.6041465 C6.45835352,21.9898379 6.73335742,21.5944063 7.05122852,21.1364902 C7.37854492,20.6654355 7.75,20.1312305 7.75,19.375 C7.75,18.1432344 6.63805664,18.0183867 6.04015625,17.951543 C5.61251367,17.9035898 5.2089082,17.8581797 4.9774375,17.626709 C4.80209375,17.4513652 4.62675,17.1328887 4.44135547,16.7960664 C4.07316992,16.1261758 3.57408203,15.2403145 2.62391992,14.6977539 C3.04163281,7.9495625 8.64833398,2.58335352 15.5,2.58335352 C15.854502,2.58335352 16.2030098,2.60841992 16.5504277,2.63657422 C16.479709,2.68301367 16.3930664,2.71455859 16.3350625,2.7725625 C16.2095488,2.89807617 16.1408281,3.07027148 16.1458535,3.24809766 C16.1515449,3.42531836 16.2297109,3.59309375 16.3621875,3.71164453 C16.5942637,3.91786719 16.6390684,4.02194727 16.6479082,4.02194727 C16.633377,4.05282617 16.5148262,4.25529492 15.8538359,4.5908457 C14.7627207,5.14394141 13.5026191,6.27604688 13.3152871,7.45422852 C13.2294922,7.98903906 13.3846738,8.48540234 13.751709,8.85249805 C13.8728027,8.9735918 14.0367637,9.04170703 14.2083535,9.04170703 C15.1052344,9.04170703 15.7983145,8.7099707 16.46875,8.38955664 C17.1568652,8.0609082 17.8070781,7.75 18.7291465,7.75 C21.2639414,7.75 23.25,8.31762695 23.25,9.04164648 C23.25,9.30714453 23.1673535,9.38851953 23.1358691,9.41879297 C22.8186035,9.73097266 21.7382656,9.71081055 20.7884062,9.6962793 C20.5367734,9.69185937 20.2794492,9.68743945 20.0208535,9.68743945 C19.1441953,9.68743945 18.8723398,9.55938281 18.5576172,9.41055859 C18.1911875,9.23775781 17.7761992,9.04158594 16.7916465,9.04158594 C15.7270508,9.04158594 13.7485605,9.23394336 12.460002,10.5224414 C11.406123,11.5757148 11.5177109,12.8358164 11.5909121,13.669002 C11.6079258,13.8607539 11.625,14.0423945 11.625,14.2082324 C11.625,15.4803223 12.9248809,16.1457324 14.2083535,16.1457324 C16.1824238,16.1457324 17.8891191,16.5140391 18.0833535,16.7915859 C18.0833535,17.5143945 18.298416,18.0082148 18.4712168,18.404252 C18.6150156,18.7353828 18.7291465,18.9964609 18.7291465,19.3748789 C18.7291465,19.667502 18.6811934,19.7299863 18.5519258,19.8964902 C18.3053184,20.2169043 18.083293,20.5656543 18.083293,21.3123789 C18.083293,22.6715352 19.3920137,24.162502 19.5408379,24.3284004 C19.6650801,24.4659023 19.8404238,24.5415859 20.020793,24.5415859 C20.074377,24.5415859 20.1280215,24.5352891 20.181,24.5214238 C20.5612949,24.4236406 23.895793,23.5059922 23.895793,21.3124395 C23.895793,20.6249902 24.109584,20.4395352 24.433752,20.1582344 C24.751623,19.881959 25.1874395,19.504207 25.1874395,18.7290859 C25.1874395,18.2112891 26.1063594,16.8748379 26.9578301,15.9332129 C27.0783184,15.8001309 27.1381992,15.6223047 27.122457,15.4431465 C27.1067148,15.2640488 27.0171055,15.0994219 26.8752441,14.9896504 C26.3731895,14.6005156 24.9869082,13.3334512 24.5227559,12.1042285 C24.7857715,12.2417305 25.1149648,12.4656328 25.376709,12.727377 C25.5917715,12.9437109 25.8800352,13.047125 26.207957,13.0339258 C26.7310215,13.0040762 27.3524141,12.5907832 27.941293,12.0752871 C28.2425137,13.167916 28.416707,14.3128574 28.416707,15.5 C28.416707,22.6224316 22.6224316,28.4166465 15.5,28.4166465 Z" id="Shape"></path>
        </g>
    </g>
</svg>