<svg xmlns="http://www.w3.org/2000/svg" viewBox="0 0 16 16">
  <defs/>
  <path fill="#000" fill-rule="nonzero" d="M2.72289308 12.95946002C.75382488 10.40336498.8125534 6.77421481 2.86509196 4.28369866c2.6825062-3.25774465 7.51355095-3.39279928 10.38404361-.4861254l1.35294605-1.30652481c.07516366-.07258471.20582525-.01719076.2200913.09159403l.64430976 4.7614186c.01013247.08100137-.0579846.14678127-.13858302.13382806l-4.73603197-.81008837c-.10822065-.0180539-.15667197-.15283739-.08385716-.22315383l1.35059717-1.30425653c-2.0266954-2.03289622-5.38050979-1.98982928-7.3442985.17893792-1.69059507 1.86409346-1.73407988 4.75223349-.1048729 6.66965575 1.72650091 2.03227483 4.66545282 2.33990357 6.75534434.8845932.3880579-.27033904.91587386-.21263127 1.24250506.12560524.40602073.42044677.35010936 1.1099431-.12915133 1.4456591-2.97138388 2.07959218-7.20225923 1.5669803-9.5552413-1.4853816z"/>
</svg>
