<?xml version="1.0" encoding="UTF-8"?>
<svg width="16px" height="16px" viewBox="0 0 16 16" version="1.1" xmlns="http://www.w3.org/2000/svg" xmlns:xlink="http://www.w3.org/1999/xlink">
    <title>refresh</title>
    <g id="refresh" stroke="none" stroke-width="1" fill="none" fill-rule="evenodd">
        <g id="refresh-(2)" transform="translate(8.971429, 8.000000) scale(-1, 1) rotate(-46.000000) translate(-8.971429, -8.000000) translate(2.000000, 0.000000)" fill="#000000" fill-rule="nonzero">
            <path d="M7.7444898,15.939951 C10.9510204,15.5807673 13.5208163,13.017502 13.8865306,9.81097143 C14.3665306,5.61831837 11.1077551,2.04933878 7.02285714,2.00362449 L7.02285714,0.122808163 C7.02285714,0.0183183673 6.8922449,-0.0371918367 6.80408163,0.0281142857 L2.93142857,2.87219592 C2.86612245,2.92117551 2.86612245,3.01586939 2.93142857,3.06484898 L6.80408163,5.90893061 C6.8922449,5.97423673 7.02285714,5.91546122 7.02285714,5.81423673 L7.02285714,3.93668571 C9.89306122,3.9824 12.1918367,6.42484898 11.9959184,9.34403265 C11.8293878,11.8550531 9.78204082,13.8926041 7.27102041,14.0526041 C4.60979592,14.2224 2.34693878,12.3219918 1.94204082,9.80770612 C1.86693878,9.34076735 1.45877551,9.00117551 0.988571429,9.00117551 C0.404081633,9.00117551 -0.0530612245,9.52035918 0.0383673469,10.0983184 C0.606530612,13.6803592 3.91428571,16.3677061 7.7444898,15.939951 Z" id="Path"></path>
        </g>
    </g>
</svg>