<?xml version="1.0" encoding="UTF-8"?>
<svg width="28px" height="28px" viewBox="0 0 28 28" version="1.1" xmlns="http://www.w3.org/2000/svg" xmlns:xlink="http://www.w3.org/1999/xlink">
    <title>reminder</title>
    <g id="reminder" stroke="none" stroke-width="1" fill="none" fill-rule="evenodd">
        <g id="set-alarm" transform="translate(0.271318, 0.000000)" fill="#FFFFFF" fill-rule="nonzero">
            <path d="M27.7042636,5.39651163 L21.3391473,0 L19.5403101,2.0755814 L25.9054264,7.47209302 L27.7042636,5.39651163 Z M8.19379845,2.21395349 L6.39496124,0.138372093 L0.0298449612,5.39651163 L1.82868217,7.47209302 L8.19379845,2.21395349 Z M14.5589147,8.57906977 L12.4833333,8.57906977 L12.4833333,16.8813953 L18.9868217,20.8942403 L20.0937984,19.2336667 L14.5589147,15.9127907 L14.5589147,8.57906977 L14.5589147,8.57906977 Z M13.8670543,3.04418605 C6.94844961,3.04418605 1.41356589,8.57906977 1.41356589,15.4976744 C1.41356589,22.4162791 6.94844961,27.9511628 13.8670543,27.9511628 C20.7856589,27.9511628 26.3205426,22.4162791 26.3205426,15.4976744 C26.3205426,8.57906977 20.7856589,3.04418605 13.8670543,3.04418605 Z M13.8670543,25.1837209 C8.47054264,25.1837209 4.18100775,20.8942403 4.18100775,15.4976744 C4.18100775,10.1011628 8.47054264,5.81162791 13.8670543,5.81162791 C19.2635659,5.81162791 23.5531008,10.1011628 23.5531008,15.4976744 C23.5531008,20.8942403 19.2635659,25.1837209 13.8670543,25.1837209 Z" id="Shape"></path>
        </g>
    </g>
</svg>