<svg xmlns="http://www.w3.org/2000/svg" viewBox="0 0 16 16">
  <defs/>
  <path fill="#000" fill-rule="nonzero" d="M.46875 4.31727013h3.0458984v-.77839544l-.8669433-.80025539c-.1831055-.16890776-.1831055-.44294622 0-.61185399.1831055-.16902043.4798584-.16902043.6629638 0l.6727295.62086841.6726075-.6208684c.1829833-.16902044.4798583-.16902044.6629638 0 .1829834.16890776.1829834.44294622 0 .61185398l-.8668213.80025539v.77839544H15.53125c.2589111 0 .46875.19381009.46875.4326923v6.48846908c0 .23899486-.2098389.43269231-.46875.43269231H4.4521484v.77850808l.8668213.8001428c.1829834.1690203.1829834.4429462 0 .6119666-.1831054.1690204-.4798584.1690204-.6629638 0l-.6726075-.620981-.6727295.620981c-.1831054.1690204-.4799804.1689077-.6629638 0-.1831055-.1690204-.1831055-.4429463 0-.6119666l.8669433-.8001428v-.77839547H.46875c-.2589111 0-.46875-.19381006-.46875-.43269231V4.74996243c0-.23899489.2098389-.4326923.46875-.4326923zm14.59375 6.48846905V5.18265474H4.4521484v2.37890625h.0332032c.2589111 0 .46875.19369742.46875.43269231 0 .23888221-.2098389.43269231-.46875.43269231h-.0332032v2.37879357H15.0625zm-14.125 0h2.5771484V8.42694561h-.0333251c-.2589112 0-.46875-.1938101-.46875-.43269231 0-.23899489.2098388-.43269231.46875-.43269231h.0333251V5.18265474H.9375v5.62308444z"/>
</svg>
