<?xml version="1.0" encoding="UTF-8"?>
<svg width="16px" height="16px" viewBox="0 0 16 16" version="1.1" xmlns="http://www.w3.org/2000/svg" xmlns:xlink="http://www.w3.org/1999/xlink">
    <title>rename</title>
    <g id="rename" stroke="none" stroke-width="1" fill="none" fill-rule="evenodd">
        <g id="fields" transform="translate(0.000000, 2.000000)" fill="#000000" fill-rule="nonzero">
            <path d="M0.46875,2.31727013 L3.5146484,2.31727013 L3.5146484,1.53887469 L2.6477051,0.738619302 C2.4645996,0.569711538 2.4645996,0.295673077 2.6477051,0.126765314 C2.8308106,-0.04225512 3.1275635,-0.04225512 3.3106689,0.126765314 L3.9833984,0.74763372 L4.6560059,0.126765314 C4.8389892,-0.04225512 5.1358642,-0.04225512 5.3189697,0.126765314 C5.5019531,0.295673077 5.5019531,0.569711538 5.3189697,0.738619302 L4.4521484,1.53887469 L4.4521484,2.31727013 L15.53125,2.31727013 C15.7901611,2.31727013 16,2.51108022 16,2.74996243 L16,9.23843151 C16,9.47742637 15.7901611,9.67112382 15.53125,9.67112382 L4.4521484,9.67112382 L4.4521484,10.4496319 L5.3189697,11.2497747 C5.5019531,11.418795 5.5019531,11.6927209 5.3189697,11.8617413 C5.1358643,12.0307617 4.8391113,12.0307617 4.6560059,11.8617413 L3.9833984,11.2407603 L3.3106689,11.8617413 C3.1275635,12.0307617 2.8306885,12.030649 2.6477051,11.8617413 C2.4645996,11.6927209 2.4645996,11.418795 2.6477051,11.2497747 L3.5146484,10.4496319 L3.5146484,9.67123643 L0.46875,9.67123643 C0.2098389,9.67123643 0,9.47742637 0,9.23854412 L0,2.74996243 C0,2.51096754 0.2098389,2.31727013 0.46875,2.31727013 Z M15.0625,8.80573918 L15.0625,3.18265474 L4.4521484,3.18265474 L4.4521484,5.56156099 L4.4853516,5.56156099 C4.7442627,5.56156099 4.9541016,5.75525841 4.9541016,5.9942533 C4.9541016,6.23313551 4.7442627,6.42694561 4.4853516,6.42694561 L4.4521484,6.42694561 L4.4521484,8.80573918 L15.0625,8.80573918 L15.0625,8.80573918 Z M0.9375,8.80573918 L3.5146484,8.80573918 L3.5146484,6.42694561 L3.4813233,6.42694561 C3.2224121,6.42694561 3.0125733,6.23313551 3.0125733,5.9942533 C3.0125733,5.75525841 3.2224121,5.56156099 3.4813233,5.56156099 L3.5146484,5.56156099 L3.5146484,3.18265474 L0.9375,3.18265474 L0.9375,8.80573918 Z" id="Shape"></path>
        </g>
    </g>
</svg>