<?xml version="1.0" encoding="UTF-8"?>
<svg width="24px" height="24px" viewBox="0 0 24 24" version="1.1" xmlns="http://www.w3.org/2000/svg" xmlns:xlink="http://www.w3.org/1999/xlink">
    <title>rocket_blue</title>
    <g id="rocket_blue" stroke="none" stroke-width="1" fill="none" fill-rule="evenodd">
        <g id="rocket" transform="translate(0.000000, 1.000000)">
            <path d="M17.6322551,0.681153466 C17.92236,1.75322285 18.5782331,2.84953956 19.5668758,3.7861039 C20.447723,4.60452153 21.4464789,5.18499018 22.4474892,5.49733938 C22.1712334,6.44830926 21.1755856,8.95286202 17.7986364,12.3109941 L17.7986364,12.3109941 L17.3387058,12.7597764 C16.4840035,13.5844746 15.7057091,14.2833731 15.0156292,14.869693 C15.1453023,17.1924924 14.6312289,19.0636177 13.1471776,20.5367622 L13.1471776,20.5367622 L11.7329433,21.9406026 C11.53928,22.1328426 11.3741006,22.2779921 11.2293726,22.3753255 C10.6787275,22.053047 10.6756247,21.3349575 10.5714658,20.5745561 C10.4891804,19.9738392 10.3973537,19.3061001 10.2558748,18.6271554 C10.2212218,18.4608587 10.1841065,18.2963681 10.1453654,18.1342526 C9.33021965,18.27641 8.99075851,18.2178777 8.67042875,18.0861507 C8.44826646,17.9947924 8.24433144,17.8719387 8.06078763,17.7060215 C8.08308182,17.9492141 8.06021661,18.1894565 7.99803068,18.41649 C7.90830332,18.7440741 7.73412591,19.0536039 7.47611081,19.3096262 C6.96359039,19.8181651 5.88580867,20.4054453 4.8839313,20.6674298 C4.2606615,20.8304109 3.61745556,20.926901 3.27919992,20.5912731 C3.15187053,20.4649329 3.10053531,20.2822331 3.08029138,20.079644 C3.04834514,19.7599453 3.10228019,19.3891557 3.20370097,19.0073066 C3.46745758,18.0142632 4.05887125,16.9459619 4.57088931,16.4379445 C4.77045304,16.2399222 5.00126996,16.0915072 5.24796019,15.9928594 L5.24796019,15.9928594 L5.87142634,15.7435444 L5.45388519,15.2176856 C5.00808312,14.6562346 4.71552081,14.0858488 4.80076379,13.3750963 C4.7401318,12.8896517 4.56900617,12.8559685 4.39508603,12.8238635 C3.75474723,12.7056595 3.14215487,12.6209647 2.58916167,12.5446449 C1.7326915,12.4264416 1.00128289,12.3848458 0.640926822,12.1876654 C0.701268881,11.7729039 0.845652958,11.5859306 1.06839502,11.3648255 L1.06839502,11.3648255 L2.48262368,9.96099052 C4.04507798,8.41006792 6.05144537,7.92605385 8.02495211,8.3246716 L8.02495211,8.3246716 L8.70215996,7.55570389 C9.29986175,6.88786538 9.99506985,6.1492534 10.7968292,5.35061681 C13.1615729,3.00641867 15.5549289,1.53542397 17.6322551,0.681153466 Z" id="Combined-Shape" stroke="#171D52" fill-rule="nonzero"></path>
            <path d="M14.6120558,15.2327724 C14.6319718,15.2371724 14.6519711,15.2461234 14.6715798,15.2539761 C15.1182856,17.2399778 14.2093518,18.8917141 12.755004,20.3373703 L12.755004,20.3373703 L11.7839677,21.239228 C11.5924917,21.4277945 11.4405265,21.6463002 11.3232319,21.7840282 L11.306,21.803 L11.30468,21.7768908 C11.3004891,21.6777677 11.2994472,21.5658774 11.2989901,21.4426627 L11.2984223,21.2495276 C11.2957507,20.5515858 11.2899821,19.6033921 11.070512,18.5501744 L11.070512,18.5501744 L11.0495456,18.4495587 L10.8290594,18.2329482 C10.8134367,18.2176 10.7972921,18.195093 10.7818634,18.1697882 C10.7751144,18.1587189 10.7680201,18.1469811 10.7614637,18.134714 L10.747,18.102 L10.8209206,18.0662601 C11.5274012,17.6913188 13.5521292,16.1937366 14.4812124,15.3536342 Z" id="Combined-Shape-path" stroke="#171D52" fill="#171D52" fill-rule="nonzero"></path>
            <path d="M3.05205519,10.3944858 C4.49973567,8.95752449 4.89198599,8.50055313 6.67030887,8.77741239 L6.67030887,8.77741239 L7.3188744,9.02856092 C6.6304575,9.72805633 5.51002448,10.9667004 5.05123905,12.0410745 L5.05123905,12.0410745 L3.51019457,12.0410745 C2.63338621,11.8841044 1.91175163,11.8711382 1.38979292,11.8728174 C1.24676662,11.6688274 1.78120856,11.4118029 1.78120856,11.4118029 L1.78120856,11.4118029 Z" id="Combined-Shape-path" stroke="#171D52" fill="#171D52" fill-rule="nonzero"></path>
            <path d="M11.8843053,11.2158061 C11.4155304,10.7504582 9.82888314,11.6095795 7.61122096,13.7931244 C5.41159559,15.9766693 4.83464542,17.3011384 5.28538345,17.7485812 C5.73612148,18.2139291 7.0702987,17.6233372 9.26996988,15.4397469 C11.469641,13.2561566 12.3350434,11.663249 11.8843053,11.2158061 Z" id="Combined-Shape-path" fill="#171D52" fill-rule="nonzero"></path>
            <path d="M15.4285519,5.63977306 C15.9571696,5.63977306 16.4871889,5.83286698 16.8913526,6.24795897 C17.2964454,6.64752059 17.4999752,7.16913694 17.4999752,7.69125342 C17.4999752,8.2133633 17.2964499,8.73496379 16.8841672,9.14174249 C16.4871889,9.54960111 15.9571696,9.74269505 15.4285519,9.74269505 C14.896214,9.74269505 14.3646824,9.52797296 13.9657512,9.13450917 C13.5606584,8.73494754 13.3571286,8.21333119 13.3571286,7.6912147 C13.3571286,7.16910482 13.5606539,6.64750434 13.9729366,6.24072563 C14.369915,5.83286698 14.8999343,5.63977306 15.4285519,5.63977306 Z" id="Combined-Shape-path" stroke="#171D52" fill-rule="nonzero"></path>
            <path d="M15.4285519,5.74966658 C15.9438676,5.74966658 16.4385623,5.95294721 16.8096357,6.31893494 C17.1806567,6.68487105 17.3868144,7.17283748 17.3868144,7.68109067 C17.3868144,8.18934388 17.180709,8.67725866 16.8096357,9.04324644 C16.4386147,9.4091825 15.9438676,9.6125148 15.4285519,9.6125148 C14.9132362,9.6125148 14.4185415,9.40923412 14.0474681,9.04324644 C13.6764471,8.67731029 13.4702894,8.18934388 13.4702894,7.68109067 C13.4702894,7.17283748 13.6763948,6.68492267 14.0474681,6.31893494 C14.4184891,5.95294721 14.9132362,5.74966658 15.4285519,5.74966658 Z" id="Combined-Shape-path" fill="#8B8EA8" fill-rule="nonzero"></path>
            <path d="M20.9766346,-0.123396576 C22.0261214,-0.205652112 22.7470178,-0.0397951701 23.0158223,0.226927904 C23.2959841,0.504658297 23.4686246,1.24303442 23.3610171,2.3119205 C23.2844945,3.0720337 23.070777,3.99917832 22.6674022,5.03191103 C21.1940038,5.06806571 20.3310818,4.56459194 19.5705464,3.84907358 C18.6974612,3.01156519 18.1292742,2.02099222 17.9123036,1.06109979 C19.2820171,0.121467081 20.2156517,-0.0637530821 20.9766346,-0.123396576 Z" id="Path" stroke="#171D51" fill="#171D52"></path>
        </g>
    </g>
</svg>