<?xml version="1.0" encoding="UTF-8"?>
<svg width="33px" height="33px" viewBox="0 0 33 33" version="1.1" xmlns="http://www.w3.org/2000/svg" xmlns:xlink="http://www.w3.org/1999/xlink">
    <!-- Generator: Sketch 63.1 (92452) - https://sketch.com -->
    <title>Icon</title>
    <desc>Created with Sketch.</desc>
    <g id="Icon" stroke="none" stroke-width="1" fill="none" fill-rule="evenodd">
        <g id="rocket" transform="translate(3.000000, 3.000000)" fill-rule="nonzero">
            <path d="M21.0014866,0.956670617 C21.1925787,2.3221027 21.9627847,3.77244744 23.2251122,4.97767079 C24.3376683,6.0194626 25.6213994,6.71400776 26.8837268,7 C27.6712259,5.13160834 27.9862666,3.50468194 27.999559,2.32116509 C28.0319053,5.1479121 26.4508665,10.5626852 21.172488,15.8526799 L20.6335633,16.382643 C19.6263612,17.362091 18.709165,18.1920936 17.8959588,18.8884324 C18.2746102,21.2607352 17.6251679,23.6443666 15.7493469,25.5209699 L14.0994035,27.1716012 C11.7212417,29.5507547 12.0987327,26.3861342 11.39413,22.9783532 C10.8472198,23.0423092 10.3565853,22.9578898 9.89365211,22.7660315 C9.76286439,23.247258 9.5091205,23.7020604 9.13300127,24.0781946 C7.97700297,25.2341866 4.57085699,26.7411431 3.41485869,25.5851511 C2.25886039,24.4291591 3.76577271,21.0230318 4.92182342,19.8670398 C5.21189835,19.5769534 5.54746819,19.3596583 5.90602713,19.215154 C5.2804206,18.4210896 4.9031438,17.6093495 5.02170452,16.6130608 L4.65088742,16.5407928 C1.38831805,15.9371043 -1.47035502,16.2089703 0.835493568,13.9021602 L2.48543689,12.2515288 C4.36821325,10.3680264 6.76153979,9.72049058 9.14236438,10.1071285 L9.71785406,9.44857733 C10.4217412,8.65593991 11.2404321,7.77927921 12.1856362,6.83039265 C15.2601282,3.75876724 18.3770155,1.93614296 21.0014866,0.956670617 Z M13.8650372,14.144181 C13.318132,13.5970264 11.4670397,14.6071785 8.87976185,17.1745839 C6.31352699,19.7419893 5.64041708,21.299296 6.16627919,21.8253979 C6.6921413,22.3725525 8.24868459,21.6781364 10.8149729,19.1106776 C13.3812611,16.5432188 14.3908993,14.670283 13.8650372,14.144181 Z M18,7 C17.230453,7 16.4609059,7.28684437 15.8837609,7.88444692 C14.705413,9.0557382 14.705413,10.9442011 15.8837609,12.1155531 C16.4609059,12.6892418 17.230453,13 18,13 C18.769547,13 19.5390941,12.7131556 20.1162391,12.1155531 C21.294587,10.9442618 21.294587,9.0557989 20.1162391,7.88444692 C19.5390941,7.28684437 18.769547,7 18,7 Z M18,7.71711092 C18.6012029,7.71711092 19.1783479,7.95612766 19.6112677,8.38645491 C20.0441265,8.81672146 20.2846443,9.39047089 20.2846443,9.98807344 C20.2846443,10.585676 20.0441875,11.1593647 19.6112677,11.589692 C19.178409,12.0199585 18.6012029,12.259036 18,12.259036 C17.3987971,12.259036 16.8216521,12.0200192 16.3887323,11.589692 C15.9558735,11.1594254 15.7153557,10.585676 15.7153557,9.98807344 C15.7153557,9.39047089 15.9558125,8.81678216 16.3887323,8.38645491 C16.821591,7.95612766 17.3987971,7.71711092 18,7.71711092 Z" id="Combined-Shape" fill="#FFFFFF"></path>
            <path d="M21.5688397,1.28311853 C21.8299332,2.43280826 22.5211292,3.6142359 23.5703912,4.61603229 C24.490061,5.47717784 25.5367641,6.089467 26.5859004,6.40473071 C27.0924697,5.11386522 27.3632449,3.95539629 27.4593619,3.00511582 C27.5691595,1.91957839 27.495097,1.09395084 27.1957933,0.798633128 C26.9078746,0.514280783 26.0961507,0.442917416 25.0207829,0.526807025 C24.0612388,0.60166121 22.8844709,0.83613994 21.5688397,1.28311853 Z" id="Path" stroke="#FFFFFF"></path>
        </g>
    </g>
</svg>