<?xml version="1.0" encoding="UTF-8"?>
<svg width="75px" height="75px" viewBox="0 0 75 75" version="1.1" xmlns="http://www.w3.org/2000/svg" xmlns:xlink="http://www.w3.org/1999/xlink">
    <title>rocket</title>
    <g id="Page-1" stroke="none" stroke-width="1" fill="none" fill-rule="evenodd">
        <g id="Artboard" fill-rule="nonzero">
            <g id="rocket">
                <path d="M56.2539045,3 C56.7657572,6.63531829 58.8288049,10.4967075 62.2100322,13.7054871 C65.190087,16.4791474 68.6286454,18.3283003 72.0098726,19.0897244 C74.1192409,14.1153295 74.9630982,9.78381026 74.9987028,6.63282202 C75.0853445,14.1587365 70.8504278,28.5749964 56.7119431,42.6590468 L55.2683977,44.0700175 C52.5705405,46.6776942 50.1137698,48.8874881 47.9355436,50.7414163 C48.9497861,57.0574213 47.2102122,63.4035874 42.1857019,68.3998448 L37.7662199,72.794476 C31.3961566,79.1287202 32.4072912,70.7032533 30.5199663,61.6303972 C29.0550314,61.8006734 27.7408344,61.5759157 26.5008374,61.0651133 C26.1505139,62.3463278 25.4708441,63.5571911 24.463384,64.5586086 C21.3669663,67.6363148 12.2433797,71.6484268 9.14696207,68.5707206 C6.0505444,65.4930145 10.0869084,56.4245612 13.1834665,53.346855 C13.9604513,52.5745305 14.8592972,51.9960055 15.819721,51.6112779 C14.1439926,49.4971656 13.1334319,47.3359937 13.4510046,44.6834806 L12.4577465,44.4910745 C3.71873935,42.8838178 -3.93840496,43.6076324 2.23796252,37.4659947 L6.6574445,33.0713636 C11.7005851,28.0567379 18.1112681,26.3327424 24.4884637,27.362125 L26.0299507,25.6088021 C27.9153587,23.498489 30.1082763,21.1644727 32.6400678,18.6381628 C40.8752974,10.4602855 49.2240856,5.60774137 56.2539045,3 Z M37.1384542,38.1103496 C35.6735327,36.6536084 30.7152599,39.3430314 23.7850655,46.1784763 C16.9112362,53.0139212 15.108267,57.1600853 16.5168233,58.5607761 C17.9253796,60.0175172 22.0946835,58.1687078 28.9686558,51.3331207 C35.8426281,44.4975336 38.5470105,39.5110403 37.1384542,38.1103496 Z M48.2142247,19.0897244 C46.1529422,19.0897244 44.0916598,19.8534171 42.5457388,21.4444706 C39.3894563,24.5629096 39.3894563,29.590742 42.5457388,32.7093426 C44.0916598,34.2367281 46.1529422,35.0640888 48.2142247,35.0640888 C50.2755072,35.0640888 52.3367896,34.3003961 53.8827106,32.7093426 C57.0389931,29.5909036 57.0389931,24.5630712 53.8827106,21.4444706 C52.3367896,19.8534171 50.2755072,19.0897244 48.2142247,19.0897244 Z M48.2142247,20.9989562 C49.8245863,20.9989562 51.3705073,21.635313 52.5301115,22.7810137 C53.6895522,23.9265528 54.333795,25.4540999 54.333795,27.0451534 C54.333795,28.6362069 53.6897158,30.1635924 52.5301115,31.3092931 C51.3706708,32.4548322 49.8245863,33.0913506 48.2142247,33.0913506 C46.6038631,33.0913506 45.0579422,32.4549938 43.8983379,31.3092931 C42.7388972,30.163754 42.0946544,28.6362069 42.0946544,27.0451534 C42.0946544,25.4540999 42.7387336,23.9267144 43.8983379,22.7810137 C45.0577786,21.635313 46.6038631,20.9989562 48.2142247,20.9989562 Z" id="Combined-Shape" fill="#FFFFFF"></path>
                <path d="M56.8106489,3.33049128 C57.3761902,6.80086701 58.9535557,10.1453078 62.1621589,13.2087629 C64.9846709,15.8517179 68.7833611,17.8126181 72.041828,18.6423289 C72.2634506,17.977608 72.4680208,17.3243546 72.6565132,16.6839152 C73.7625946,12.9257893 74.3150301,9.61092397 74.4210734,6.99845686 C74.5312151,4.28502036 74.200295,2.32830171 73.4191685,1.55757783 C72.5760659,0.724918268 70.3592156,0.462621872 67.2505636,0.78177381 C64.4277661,1.0715783 60.8673465,1.87962376 56.8106489,3.33049128 Z" id="Path" stroke="#FFFFFF"></path>
            </g>
        </g>
    </g>
</svg>