<?xml version="1.0" encoding="UTF-8"?>
<svg width="34px" height="34px" viewBox="0 0 34 34" version="1.1" xmlns="http://www.w3.org/2000/svg" xmlns:xlink="http://www.w3.org/1999/xlink">
    <title>Sitecore start</title>
    <g id="Sitecore-start" stroke="none" stroke-width="1" fill="none" fill-rule="evenodd">
        <g id="sitecore" fill="#FFFFFF" fill-rule="nonzero">
            <path d="M17,0 C26.384,0 34,7.616 34,17 C34,26.384 26.384,34 17,34 C7.616,34 0,26.3925 0,17 C0,7.616 7.616,0 17,0 Z M17,4.267 C10.0385,4.267 4.267,10.047 4.267,17 C4.267,23.9615 9.5115,29.733 17,29.733 C24.4885,29.733 29.767,23.8595 29.767,16.898 C29.767,9.945 23.953,4.267 17,4.267 Z M6.43243243,21.1351351 C8.03877434,24.0154905 10.4281239,26.2223991 16.1612187,26.2223991 C22.1505552,26.2223991 24.3996019,21.8413132 24.3996019,21.8413132 L26.6486486,23.3019479 L26.6212126,23.3460965 C26.2792473,23.8851891 22.7305203,29.1670937 15.4118165,28.4129421 C7.93963818,27.6347552 6.50636449,21.5205463 6.43243243,21.1351351 Z M28.2938852,15.6216216 C28.2938852,15.6216216 29.0647222,20.2910617 27.522184,22.6170604 L24.4379718,21.069011 C24.4379718,21.069011 21.3537596,25.7297297 15.9639496,25.7297297 C9.99860439,25.7297297 8.36273615,22.8045706 8.27027027,22.6257818 C11.2188083,25.5928037 15.2613818,25.2936595 18.2773248,24.1738311 C25.0307904,21.6768929 24.4379718,15.6216216 24.4379718,15.6216216 L28.2938852,15.6216216 Z M24.7628006,9.18918919 C24.7628006,9.18918919 28.3145727,12.2675047 28.4864865,15.1574545 L24.0183973,15.1574545 C24.0183973,15.1566173 24.3455342,21.2069264 18.81425,23.3660169 C15.9008956,24.507095 13.0693254,23.4480607 12.8648649,23.3660169 C12.8648649,23.3660169 15.0580174,23.7603293 16.5802054,23.3660169 C19.5586534,22.6192512 20.9665104,21.2805984 21.7843527,19.6388859 C23.9290355,15.3359081 21.2768071,12.4178558 21.0611973,12.1912964 L21.0474601,12.1770892 L21.0474601,12.1770892 L24.7628006,9.18918919 Z" id="Combined-Shape"></path>
        </g>
    </g>
</svg>