<?xml version="1.0" encoding="UTF-8"?>
<svg width="24px" height="24px" viewBox="0 0 24 24" version="1.1" xmlns="http://www.w3.org/2000/svg" xmlns:xlink="http://www.w3.org/1999/xlink">
    <title>sitecore_tree</title>
    <defs>
        <filter id="filter-1">
            <feColorMatrix in="SourceGraphic" type="matrix" values="0 0 0 0 0.000000 0 0 0 0 0.000000 0 0 0 0 0.000000 0 0 0 1.000000 0"></feColorMatrix>
        </filter>
    </defs>
    <g id="sitecore_tree" stroke="none" stroke-width="1" fill="none" fill-rule="evenodd">
        <g filter="url(#filter-1)" id="sitecore">
            <g transform="translate(1.000000, 1.000000)">
                <path d="M11,0 C17.072,0 22,4.928 22,11 C22,17.072 17.072,22 11,22 C4.928,22 0,17.0775 0,11 C0,4.928 4.928,0 11,0 Z M11,2.761 C6.4955,2.761 2.761,6.501 2.761,11 C2.761,15.5045 6.1545,19.239 11,19.239 C15.8455,19.239 19.261,15.4385 19.261,10.934 C19.261,6.435 15.499,2.761 11,2.761 Z M4.16216216,13.6756757 C5.20155987,15.539435 6.7476096,16.9674347 10.4572592,16.9674347 C14.1232283,16.9674347 15.6235803,14.4307986 15.7750692,14.1565676 L15.7879777,14.1326144 L15.7879777,14.1326144 L17.2432432,15.077731 C17.2432432,15.077731 14.9616783,18.8989671 9.97235186,18.3848449 C5.13741294,17.8813122 4.21000055,13.9250594 4.16216216,13.6756757 Z M18.3078081,10.1081081 C18.3078081,10.1081081 18.806585,13.1295105 17.808472,14.6345685 L15.8128053,13.6328895 C15.8128053,13.6328895 13.8171385,16.6486486 10.3296144,16.6486486 C6.46968519,16.6486486 5.41118221,14.7558986 5.35135135,14.6402117 C7.25922889,16.5600494 9.87501174,16.3664856 11.8265043,15.6418907 C16.1963938,14.0262248 15.8128053,10.1081081 15.8128053,10.1081081 L18.3078081,10.1081081 Z M16.0229886,5.94594595 C16.0229886,5.94594595 18.3211941,7.93779719 18.4324324,9.80776469 L15.5413159,9.80776469 C15.5413159,9.80722298 15.5429165,9.83682529 15.543486,9.89180028 L15.543238,9.99276356 C15.5320431,10.7856661 15.286158,13.9043539 12.1739265,15.1191874 C10.2888148,15.8575321 8.45662234,15.1722746 8.32432432,15.1191874 C8.32432432,15.1191874 9.743423,15.3743307 10.7283682,15.1191874 C12.6555992,14.6359861 13.5665656,13.769799 14.0957576,12.7075144 C15.5413159,9.80722298 13.6189448,7.87929299 13.6189448,7.87929299 L16.0229886,5.94594595 Z" id="Combined-Shape" fill="#FFFFFF" fill-rule="nonzero"></path>
            </g>
        </g>
    </g>
</svg>