<svg width="50" height="40" viewBox="0 0 50 40" fill="none" xmlns="http://www.w3.org/2000/svg">
<rect width="50" height="40" fill="#171D52"/>
<path d="M15 13H35V15H15V13Z" fill="white"/>
<path d="M15 19H35V21H15V19Z" fill="white"/>
<path d="M35 25H15V27H35V25Z" fill="white"/>
<rect width="50" height="40" fill="#DC291E"/>
<path d="M24.3107 26.879C25.4806 26.7329 26.6087 26.378 27.6533 25.7934C30.1811 24.3738 31.6435 21.9521 31.7689 18.9667L31.7898 18.7162H35.2995C35.0906 16.9834 34.4221 15.3342 33.3984 13.9146L29.8051 16.1901C30.8914 17.902 31.0377 19.8018 30.202 21.7016C29.2201 23.9563 26.9012 25.9187 24.3107 26.879Z" fill="white"/>
<path d="M35.3412 19.2378H32.291C32.0821 22.2649 30.4944 24.8119 27.9039 26.2524C26.3997 27.0666 24.7284 27.505 23.0153 27.4841C21.6573 27.4841 20.2994 27.2336 19.025 26.7534C20.5501 27.7346 22.3468 28.2566 24.1643 28.2566H24.1852C27.4651 28.2566 30.4735 26.482 32.0612 23.601L32.2075 23.3505L34.2548 24.6449C34.986 23.2044 35.383 21.5969 35.383 19.9685C35.3621 19.7388 35.3621 19.4883 35.3412 19.2378Z" fill="white"/>
<path d="M24.1851 28.7996C20.9051 28.7996 17.8341 27.1712 15.6405 24.3946C18.0848 29.572 24.2477 31.7849 29.4288 29.3632C31.3508 28.4655 32.9386 26.9833 34.004 25.1461L32.4163 24.144C30.6823 27.0459 27.5486 28.8204 24.1851 28.7996Z" fill="white"/>
<path d="M25 30.8872C18.9833 30.8872 14.0947 26.0021 14.0947 19.9895C14.0947 13.977 18.9833 9.09185 25 9.09185C31.0167 9.09185 35.9053 13.977 35.9053 19.9895C35.9053 26.0021 31.0376 30.8872 25 30.8872ZM25 5C16.727 5 10 11.7014 10 19.9895C10 28.2776 16.7061 34.9791 25 35C33.2939 35.0208 40 28.2776 40 20.0104C40 20.0104 40 20.0104 40 19.9895C40 11.7014 33.2939 5 25 5Z" fill="white"/>
</svg>
