<svg xmlns="http://www.w3.org/2000/svg" viewBox="0 0 28 28">
  <defs/>
  <path fill="#FFF" fill-rule="nonzero" d="M25.412 5.919a.234.234 0 00-.003-.027c-.035-.05-.078-.093-.114-.142a14.348 14.348 0 00-1.072-1.296c-.301-.322-.616-.629-.947-.92-.06-.055-.118-.11-.179-.164a14.02 14.02 0 00-2.655-1.792c-.038-.02-.078-.037-.117-.057a13.913 13.913 0 00-1.3-.58c-.1-.036-.191-.07-.286-.1a14.144 14.144 0 00-1.2-.373c-.12-.032-.24-.065-.363-.093-.4-.093-.8-.164-1.21-.222-.123-.018-.245-.042-.37-.057a13.152 13.152 0 00-3.174 0c-.125.015-.247.04-.37.057-.41.058-.814.13-1.21.222-.122.028-.242.061-.362.093a13.53 13.53 0 00-1.2.373c-.1.034-.192.068-.287.1-.443.171-.877.364-1.3.58-.04.02-.08.036-.117.057A14.024 14.024 0 004.912 3.37c-.061.053-.118.109-.18.163a13.01 13.01 0 00-1.188 1.188c-.293.33-.57.672-.83 1.029-.036.049-.08.092-.114.142a.227.227 0 00-.012.027 13.912 13.912 0 000 16.162c.003.01.007.019.012.027.035.05.078.093.114.142a13.987 13.987 0 002.019 2.217c.06.054.118.11.179.163a14.02 14.02 0 002.655 1.792c.038.02.078.037.117.057.423.216.857.409 1.3.58.1.036.191.07.286.1.394.142.795.266 1.2.373.12.032.24.065.363.093.4.093.8.164 1.21.222.123.018.245.042.37.057 1.054.128 2.12.128 3.174 0 .125-.015.247-.04.37-.057.41-.058.814-.13 1.21-.222.122-.028.242-.061.362-.093.41-.107.81-.231 1.2-.373.1-.034.192-.068.287-.1.443-.171.877-.364 1.3-.58.04-.02.08-.036.117-.057a14.023 14.023 0 002.655-1.792c.061-.053.118-.109.18-.163a12.736 12.736 0 001.188-1.188c.293-.33.57-.673.83-1.029.036-.049.08-.092.114-.142a.227.227 0 00.012-.027 13.912 13.912 0 000-16.162zM24.271 7.81A11.902 11.902 0 0125.958 13h-5.992a18.664 18.664 0 00-.56-3.53 17.977 17.977 0 004.865-1.659zM16.55 2.273c.056.013.11.03.166.044.358.084.713.18 1.06.3.053.018.105.039.158.058.344.12.683.253 1.015.4.058.027.115.057.173.084.318.151.629.315.932.491l.2.121c.288.176.569.365.84.565.07.051.14.1.21.156.267.2.522.415.766.644.064.058.13.115.193.175.256.243.5.5.736.766.03.035.062.067.092.1a16.78 16.78 0 01-4.266 1.37 25.434 25.434 0 00-2.693-5.343c.139.025.28.039.418.069zM10.04 13c.079-1.083.263-2.155.55-3.201 1.133.134 2.274.201 3.415.2 1.143 0 2.284-.069 3.418-.205.287 1.048.47 2.122.548 3.206H10.04zm7.93 2a16.689 16.689 0 01-.55 3.201 28.668 28.668 0 00-3.415-.2 28.742 28.742 0 00-3.418.2 16.662 16.662 0 01-.547-3.2h7.93zM14.006 2.65a24.159 24.159 0 012.788 5.201c-.926.099-1.857.148-2.788.148-.93 0-1.86-.05-2.785-.149a24.35 24.35 0 012.785-5.2zM5.012 6.076c.235-.266.48-.523.736-.766.063-.06.13-.117.193-.175.247-.225.502-.44.766-.644.07-.053.14-.1.21-.156.272-.2.552-.388.84-.565l.2-.12c.303-.178.614-.342.932-.492.058-.027.115-.057.173-.084.332-.15.672-.283 1.016-.4.052-.02.1-.04.157-.058.347-.116.7-.212 1.06-.3.056-.013.11-.031.167-.043.137-.03.28-.044.418-.07a25.436 25.436 0 00-2.694 5.345 16.78 16.78 0 01-4.266-1.37c.03-.035.062-.067.092-.102zM3.739 7.81A17.974 17.974 0 008.603 9.47a18.664 18.664 0 00-.56 3.53H2.053c.153-1.837.73-3.613 1.687-5.189zm0 12.378A11.902 11.902 0 012.052 15h5.992c.073 1.192.26 2.374.56 3.53A17.973 17.973 0 003.74 20.19zm7.721 5.538c-.056-.013-.11-.03-.166-.044-.358-.084-.713-.18-1.06-.3-.053-.018-.105-.039-.157-.058-.345-.12-.684-.253-1.016-.4-.058-.027-.115-.057-.173-.084a12.92 12.92 0 01-.932-.491l-.2-.121a11.63 11.63 0 01-.84-.565c-.07-.051-.14-.1-.21-.156a9.127 9.127 0 01-.766-.643c-.064-.059-.13-.116-.193-.176-.256-.243-.5-.5-.736-.766-.03-.035-.062-.067-.092-.1a16.78 16.78 0 014.266-1.37 25.434 25.434 0 002.693 5.343c-.139-.025-.28-.039-.418-.069zm2.545-.376a24.159 24.159 0 01-2.788-5.201c1.853-.2 3.721-.2 5.574 0h-.001a24.344 24.344 0 01-2.785 5.201zm8.993-3.427c-.235.266-.48.523-.736.767-.063.06-.129.117-.193.175a11.922 11.922 0 01-1.816 1.364l-.2.121c-.303.177-.613.34-.932.491-.058.027-.115.057-.173.084-.332.15-.671.283-1.016.4-.052.02-.1.04-.157.058-.347.116-.7.212-1.06.3-.056.013-.11.031-.167.043-.137.03-.28.044-.418.07a25.431 25.431 0 002.693-5.344 16.78 16.78 0 014.266 1.37l-.09.101zm1.273-1.735a17.974 17.974 0 00-4.864-1.659c.299-1.156.486-2.338.56-3.53h5.991a11.904 11.904 0 01-1.687 5.189z"/>
</svg>
