<?xml version="1.0" encoding="UTF-8"?>
<svg width="28px" height="28px" viewBox="0 0 28 28" version="1.1" xmlns="http://www.w3.org/2000/svg" xmlns:xlink="http://www.w3.org/1999/xlink">
    <title>site</title>
    <g id="site" stroke="none" stroke-width="1" fill="none" fill-rule="evenodd">
        <g id="language-24px" transform="translate(-1.000000, -1.000000)">
            <polygon id="Path" points="0 0 31 0 31 31 0 31"></polygon>
            <path d="M14.987,2 C7.811,2 2,7.824 2,15 C2,22.176 7.811,28 14.987,28 C22.176,28 28,22.176 28,15 C28,7.824 22.176,2 14.987,2 Z M23.996,9.8 L20.161,9.8 C19.745,8.175 19.147,6.615 18.367,5.172 C20.759,5.991 22.748,7.655 23.996,9.8 Z M15,4.652 C16.079,6.212 16.924,7.941 17.483,9.8 L12.517,9.8 C13.076,7.941 13.921,6.212 15,4.652 Z M4.938,17.6 C4.73,16.768 4.6,15.897 4.6,15 C4.6,14.103 4.73,13.232 4.938,12.4 L9.332,12.4 C9.228,13.258 9.15,14.116 9.15,15 C9.15,15.884 9.228,16.742 9.332,17.6 L4.938,17.6 Z M6.004,20.2 L9.839,20.2 C10.255,21.825 10.853,23.385 11.633,24.828 C9.241,24.009 7.252,22.358 6.004,20.2 L6.004,20.2 Z M9.839,9.8 L6.004,9.8 C7.252,7.642 9.241,5.991 11.633,5.172 C10.853,6.615 10.255,8.175 9.839,9.8 L9.839,9.8 Z M15,25.348 C13.921,23.788 13.076,22.059 12.517,20.2 L17.483,20.2 C16.924,22.059 16.079,23.788 15,25.348 Z M18.042,17.6 L11.958,17.6 C11.841,16.742 11.75,15.884 11.75,15 C11.75,14.116 11.841,13.245 11.958,12.4 L18.042,12.4 C18.159,13.245 18.25,14.116 18.25,15 C18.25,15.884 18.159,16.742 18.042,17.6 Z M18.367,24.828 C19.147,23.385 19.745,21.825 20.161,20.2 L23.996,20.2 C22.748,22.345 20.759,24.009 18.367,24.828 L18.367,24.828 Z M20.668,17.6 C20.772,16.742 20.85,15.884 20.85,15 C20.85,14.116 20.772,13.258 20.668,12.4 L25.062,12.4 C25.27,13.232 25.4,14.103 25.4,15 C25.4,15.897 25.27,16.768 25.062,17.6 L20.668,17.6 Z" id="Shape" fill="#FFFFFF" fill-rule="nonzero"></path>
        </g>
    </g>
</svg>