<svg xmlns="http://www.w3.org/2000/svg" viewBox="0 0 16 16">
  <defs/>
  <g fill="#000" fill-rule="nonzero">
    <path d="M8 13.1428571c-2.84032157 0-5.14285714-2.3025355-5.14285714-5.1428571 0-2.84032157 2.30253557-5.14285714 5.14285714-5.14285714 2.8403216 0 5.1428571 2.30253557 5.1428571 5.14285714 0 1.36397052-.5418351 2.6720764-1.5063079 3.6365492C10.6720764 12.601022 9.36397052 13.1428571 8 13.1428571zM8 4C5.790861 4 4 5.790861 4 8s1.790861 4 4 4 4-1.790861 4-4c0-1.06086596-.4214274-2.07828161-1.1715729-2.82842712C10.0782816 4.42142736 9.06086596 4 8 4zM15.4285714 8.57142857h-.5714285c-.3155913 0-.5714286-.25583728-.5714286-.57142857s.2558373-.57142857.5714286-.57142857h.5714285C15.7441627 7.42857143 16 7.68440871 16 8s-.2558373.57142857-.5714286.57142857zM1.14285714 8.57142857H.57142857C.2558373 8.57142857 0 8.31559129 0 8s.25583729-.57142857.57142857-.57142857h.57142857c.31559129 0 .57142857.25583728.57142857.57142857s-.25583728.57142857-.57142857.57142857zM12.8514286 3.72000956c-.1518874.00086859-.297875-.05876012-.4057143-.16572385-.2215564-.22287854-.2215564-.58283574 0-.80571428l.4057143-.40571429c.1396513-.16307209.3589248-.23410397.567668-.1838915.2087431.05021246.3717253.21319462.4219378.4219378.0502124.20874319-.0208195.42801663-.1838915.56766799l-.4057143.40571428c-.1064347.1055681-.2500915.16508308-.4.16572385zM2.74857143 13.8228667c-.15188742.0008686-.29787496-.0587601-.40571429-.1657238-.22155634-.2228786-.22155634-.5828358 0-.8057143l.40571429-.4057143c.13965136-.1630721.3589248-.234104.56766798-.1838915.20874319.0502124.37172535.2131946.42193781.4219378.05021246.2087432-.02081941.4280166-.18389151.567668l-.40571428.4057143c-.10643465.1055681-.2500915.165083-.4.1657238zM8 1.71428571c-.31559129 0-.57142857-.25583728-.57142857-.57142857V.57142857C7.42857143.2558373 7.68440871 0 8 0s.57142857.25583729.57142857.57142857v.57142857c0 .31559129-.25583728.57142857-.57142857.57142857zM8 16c-.31559129 0-.57142857-.2558373-.57142857-.5714286v-.5714285c0-.3155913.25583728-.5714286.57142857-.5714286s.57142857.2558373.57142857.5714286v.5714285C8.57142857 15.7441627 8.31559129 16 8 16zM13.2514286 13.8228667c-.1499085-.0006408-.2935654-.0601557-.4-.1657238l-.4057143-.4057143c-.1630721-.1396514-.234104-.3589248-.1838915-.567668.0502124-.2087432.2131946-.3717254.4219378-.4219378.2087432-.0502125.4280166.0208194.567668.1838915l.4057143.4057143c.2215563.2228785.2215563.5828357 0 .8057143-.1078394.1069637-.2538269.1665924-.4057143.1657238zM3.14857143 3.72000956c-.1499085-.00064077-.29356535-.06015575-.4-.16572385l-.40571429-.40571428c-.19415817-.22672016-.18110415-.56468239.02996388-.77575041.21106802-.21106803.54903025-.22412205.77575041-.02996388l.40571428.40571429c.22155634.22287854.22155634.58283574 0 .80571428-.10783933.10696373-.25382686.16659244-.40571428.16572385z"/>
  </g>
</svg>
