<?xml version="1.0" encoding="UTF-8"?>
<svg width="33px" height="33px" viewBox="0 0 33 33" version="1.1" xmlns="http://www.w3.org/2000/svg" xmlns:xlink="http://www.w3.org/1999/xlink">
    <!-- Generator: Sketch 64 (93537) - https://sketch.com -->
    <title>Icon</title>
    <desc>Created with Sketch.</desc>
    <g id="Icon" stroke="none" stroke-width="1" fill="none" fill-rule="evenodd">
        <g id="transfer" transform="translate(1.000000, 1.000000)" fill="#FFFFFF" fill-rule="nonzero">
            <path d="M15,3.62537764 C15,1.62646338 13.3246077,0 11.2655602,0 C10.3402165,0 9.43480942,0.331146163 8.73362938,0.960394622 L0,5.81925039 L0,20 L15,20 L15,3.62537764 Z M7.53233595,3.7179003 C7.54862552,4.34313631 7.72853994,4.92966393 8.03220629,5.43806647 L4.44048237,5.43806647 L7.53233595,3.7179003 Z M13.1327801,18.1873112 L1.86721992,18.1873112 L1.86721992,7.25075529 L11.2655602,7.25075529 L11.2655602,5.43806647 C10.2359148,5.43806647 9.39834025,4.62495281 9.39834025,3.62537764 C9.39834025,2.59677112 10.2833247,1.81268882 11.2655602,1.81268882 C12.2952055,1.81268882 13.1327801,2.62580248 13.1327801,3.62537764 L13.1327801,18.1873112 Z" id="Shape"></path>
            <path d="M31,14.6253776 C31,12.6264634 29.3246077,11 27.2655602,11 C26.3402165,11 25.4348094,11.3311462 24.7336294,11.9603946 L16,16.8192504 L16,31 L31,31 L31,14.6253776 Z M23.532336,14.7179003 C23.5483824,15.3431363 23.7285399,15.9296639 24.0322063,16.4380665 L20.4402393,16.4380665 L23.532336,14.7179003 Z M29.1327801,29.1873112 L17.8672199,29.1873112 L17.8672199,18.2507553 L27.2655602,18.2507553 L27.2655602,16.4380665 C26.2359148,16.4380665 25.3983402,15.6249528 25.3983402,14.6253776 C25.3983402,13.5967711 26.2833247,12.8126888 27.2655602,12.8126888 C28.2952055,12.8126888 29.1327801,13.6258025 29.1327801,14.6253776 L29.1327801,29.1873112 Z" id="Shape"></path>
            <path d="M15,26.5 L9.11764706,22 L9.11764706,23.8 L5.52941176,23.8 C4.55629594,23.8 3.76470588,22.9925781 3.76470588,22 L2,22 L2,25.6 C2,27.5851563 3.58318012,29.2 5.52941176,29.2 L9.11810659,29.2 L9.11810659,31 L15,26.5 Z M5.52941176,27.4 C4.55629594,27.4 3.76470588,26.5925781 3.76470588,25.6 L3.76470588,25.1169531 C4.28400735,25.4239844 4.88694853,25.6 5.52941176,25.6 L10.8823529,25.6 L12.0588235,26.5 L10.8823529,27.4 L5.52941176,27.4 Z" id="Shape"></path>
            <path d="M16,4.5 L21.8823529,9 L21.8823529,7.2 L25.4705882,7.2 C26.4437041,7.2 27.2352941,8.00742186 27.2352941,9 L29,9 L29,5.4 C29,3.41507814 27.4165901,1.8 25.4705882,1.8 L21.8816636,1.8 L21.8818934,0 L16,4.5 Z M25.4705882,3.6 C26.4437041,3.6 27.2352941,4.40742186 27.2352941,5.4 L27.2352941,5.88328128 C26.7157629,5.57601564 26.1128217,5.4 25.4705882,5.4 L20.1176471,5.4 L18.9411765,4.5 L20.1176471,3.6 L25.4705882,3.6 Z" id="Shape"></path>
        </g>
    </g>
</svg>