<svg xmlns="http://www.w3.org/2000/svg" viewBox="0 0 24 24">
  <defs/>
  <path fill="#E5E5E5" fill-rule="nonzero" d="M22.1393673.03485621c-1.216174-.0764434-2.4818479-.02703023-3.761678.14705396-1.0621895.14454062-2.1483318.37690578-3.2282866.69088328-.7310638.21249558-1.267596.81251934-1.4002524 1.56599896-.1328909.75466516.166219 1.50639018.7805638 1.96173106 1.0224391.75788982 1.9921907 1.59890946 2.8823016 2.49972756.0842344.08526379.1676721.17161827.2508285.2583047l-1.6602215 1.66937775c-.129422.13012449-.1372971.33939541-.0180469.47909903.9955797 1.16652059 1.7970498 2.53837609 2.3175976 3.96690019.1183127.3246948-.0555001.6971903-.378235.8159337-.3249381.1195495-.6969387-.0520688-.8159544-.3790872-.4571728-1.2560997-1.1264082-2.4193007-1.9890503-3.4573091-.1285783-.1546888-.3701255-.1660226-.5109383-.0230943l-1.6926121 1.7015769c-.129469.1301719-.137344.3394903-.0180469.4791939.9959547 1.1664731 1.7973311 2.5380915 2.3175976 3.9666157.1184065.325074-.0550783.6968109-.3780007.8162655-.3239536.1198341-.696798-.0530645-.8158607-.3797036-.4517351-1.2394548-1.1397207-2.4347127-1.9895189-3.45674-.1286252-.1546889-.3699381-.1662597-.5108915-.0230469l-1.69214343 1.7015769c-.12946897.130172-.13729711.3394902-.01795316.479194.99590789 1.1659988 1.79728419 2.5375698 2.31759759 3.966663.1185471.3255483-.0560626.6966213-.3787506.8163131-.3235787.1199763-.6962824-.0536811-.8151108-.3797986-.4577351-1.2563367-1.12711119-2.4195379-1.989472-3.4571668-.12857834-.1546888-.36993811-.1663072-.51093834-.0231417l-.39961004.401802c-.13612523.136811-.13682835.3594547-.00154688.4971667.13532835.1377118.35535996.1383757.49143831.0015649l.12689084-.1275638c.68962614.8923296 1.2502052 1.9052047 1.63097141 2.9502789.2483442.6815886 1.0267517 1.0493421 1.7059716.797297.6762199-.2509544 1.0395017-1.0406639.7922357-1.7197868-.5118758-1.4060463-1.2815646-2.7591228-2.2348162-3.9323298l1.192502-1.1990991c.6892511.8915235 1.2497833 1.9042562 1.6309714 2.9500891.2484848.681731 1.0265642 1.0482514 1.7060653.7971548.6775793-.2503853 1.040533-1.0377713.7920952-1.7199291-.5119228-1.405572-1.2815647-2.7586486-2.2348163-3.9321876l1.1929239-1.1991939c.6898136.8926142 1.2502052 1.9053944 1.6306432 2.9506582.1916255.5255247.6937513.8786249 1.2495022.8786249.5091571 0 .9927204-.3105157 1.2074083-.7781862.1488751-.3243154.1637346-.6876586.0416719-1.0234026-.5122509-1.4058092-1.2819397-2.7590281-2.2348632-3.93256703l1.4201743-1.42800251c.5304853.58508601 1.0361737 1.19729709 1.5089088 1.82999424.38386.5137641.9660016.8017072 1.5828776.8017072.1370627 0 .2759535-.0142264.4146569-.0433432.7550168-.1585299 1.3365022-.7261174 1.5175806-1.48125677.179766-.74963848.3326725-1.50648502.4545945-2.24953192.2495161-1.52113825.3779069-3.03601687.3816705-4.50262044.0027053-1.05052766-.8146087-1.92488459-1.860626-1.99065816zm.7933138 6.37799703c-.1191096.72611743-.2685942 1.46589225-.4443289 2.19883837-.118922.49588623-.4865633.85425023-.9833922.95853002-.4974383.10461175-.9962361-.08483699-1.3018616-.49384711-1.4932993-1.99843527-3.2620835-3.76037971-5.2625712-5.24310658-.40486-.30008302-.5944228-.77534091-.5070946-1.27127457.0870939-.49465327.4265164-.87355076.9079702-1.0134915 1.0474705-.30444579 2.100191-.52979258 3.1289584-.66973331C19.697035.71189243 20.8868183.66048756 22.096289.736599c.6795481.04277416 1.210502.60799058 1.2087761 1.28687623-.0037116 1.42880867-.1290086 2.90556043-.372384 4.389378zM7.5106868 15.0191374c-1.03167358-.8667695-2.1881755-1.5395852-3.43753695-1.9996683-.32296928-.118933-.49659457-.4901482-.37790687-.8159337.12046895-.3306224.48679768-.5009129.81632948-.3795139 1.42050235.5230113 2.78508274 1.3290339 3.94627216 2.331002.13762523.1187907.34228182.1109188.47048515-.018115l1.69214343-1.7015769c.1436721-.1429283.1317658-.3898045-.0229688-.5197867-1.03228295-.8673385-2.18878486-1.5402017-3.43753693-2.00014244-.32292241-.11893303-.49612582-.4896266-.37743813-.81555431.12042208-.33071728.48637581-.50096034.81586073-.37946655 1.42200236.52348553 2.78658273 1.3294133 3.94622533 2.3304804.1375783.1187907.3422349.1109662.470532-.0180676l1.6921434-1.70157694c.1436253-.14288087.1317659-.38970958-.022875-.51973923-1.0309705-.86662723-2.1873786-1.53944294-3.4369276-1.99962081-.32306302-.11898045-.49696956-.48991113-.37814124-.81617079.12046895-.3307647.48665704-.50100775.81632944-.37946654 1.4216743.52339068 2.7860672 1.3294607 3.9457097 2.33095457.1375784.11879076.3422818.11096622.4706258-.01802016l.8972827-.9021459c.1361252-.13685834.1367815-.35945469.0015-.49716662-.1353284-.13771192-.35536-.13837582-.4914852-.00151748l-.6729855.67660942c-1.1670956-.95947845-2.5135823-1.73420288-3.9128033-2.24938965-.6884543-.25384709-1.45387743.10371074-1.7063466.79701252-.12210957.33508006-.1075783.69818619.0410157 1.02245415.14943774.32621225.41625069.57389454.7514075.6975223 1.0390798.38264378 2.0454409.9454417 2.931708 1.63751052l-1.1918458 1.19848264c-1.1671425-.95905168-2.51381662-1.73363385-3.91327206-2.24886804-.68807927-.25370482-1.45340866.10371074-1.70583095.7969651-.1222502.33541201-.10762518.69880268.04110944 1.02316548.14943775.32592776.41615694.57323066.750845.69633676 1.03837672.3823592 2.04478463.9452994 2.93208298 1.6380322l-1.19184573 1.1984826c-1.16836131-.9598578-2.51508229-1.7346297-3.91341273-2.2494845-.68831364-.2532781-1.45364303.1043746-1.70620595.7974393-.12196896.3357914-.10706268.6993717.04190632 1.0237345.14957837.3256906.41620381.5728039.75061062.6958626 1.03884547.3825489 2.04530026.9453468 2.93212985 1.6376053-.19171906.1945704-1.06678301 1.0324601-1.19775198 1.261648-.72229807-.0199169-1.46550243.0205335-2.21587867.1226319-.74887624.1018613-1.51467439.2657025-2.2760194.4870184-.55050091.1600948-.95456408.6120689-1.05450175 1.1797038-.10007829.568441.12510959 1.1345584.58771973 1.4774631.71175118.5275637 1.3869398 1.113124 2.00676895 1.7403676.5565478.5632247 1.08042366 1.1723061 1.5571432 1.8102196.35681309.4774866.93773593.6895079 1.50333062.5708121.56859469-.1193599 1.00654854-.5469118 1.14300189-1.1157797.12646896-.5274215.23414102-1.0601067.31992241-1.5832129.17568779-1.0710137.26610981-2.1377596.26873482-3.1707412.0016875-.6537523-.41821944-1.2165977-1.00828292-1.4206047l1.13193937-1.1384471c.14362524-.1428808.13162522-.3898044-.02301566-.5197392zm-.79569917 3.076989c-.00253653.9951393-.08981792 2.0238057-.25936508 3.0574514-.08301576.5061766-.18721906 1.0218376-.30970364 1.5325668-.07359387.3068168-.30117237.5285121-.60876663.5931001-.31326614.065584-.61518852-.0487492-.80765759-.3063426-.49589144-.6636633-1.04095485-1.2973089-1.62004956-1.8833908-.64486044-.6525667-1.34718973-1.2616954-2.08753471-1.8104091-.25078166-.1858921-.3682506-.4800949-.31420364-.7870066.05385946-.3060108.26404731-.5404625.56221968-.6271489.72890746-.2118316 1.4612368-.3686545 2.17673798-.4659158.8584233-.1167992 1.7061122-.1499942 2.51934793-.0988738.42107882.0265086.75004811.3760996.74897526.7959693zM21.4731787 3.51853169h-1.1135176V2.39198743c0-.19419089-.1555783-.35158273-.3475318-.35158273-.1919534 0-.3475318.15739184-.3475318.35158273v1.12649684h-1.1135644c-.1919064 0-.3475316.15739183-.3475316.35158272s.1555783.35158273.3475316.35158273h1.1135644v1.12654426c0 .19419089.1555784.35158272.3475318.35158272.1919535 0 .3475318-.15739183.3475318-.35158272V4.22164972h1.1135176c.1919066 0 .3475318-.15739184.3475318-.35158273-.0000469-.19419089-.1556252-.3515353-.3475318-.3515353z"/>
</svg>
