<svg xmlns="http://www.w3.org/2000/svg" viewBox="0 0 16 16">
  <defs/>
  <path fill="#474747" d="M14.7595625.05265625C13.9487812.00228125 13.105.03484375 12.2517813.1495625c-.7081251.09525-1.4322188.248375-2.1521875.45528125-.48737505.14003125-.84506255.5354375-.93350005 1.03196875-.08859375.4973125.1108125.9926875.520375 1.29275C10.3680937 3.429 11.0145937 3.98321875 11.608 4.57684375c.0561562.0561875.1117812.11309375.1672187.17021875l-1.1068125 1.10009375c-.0862812.08575-.0915312.22365625-.0120312.31571875.6637187.76871875 1.1980312 1.67275 1.5450625 2.614125.078875.21396875-.037.4594375-.2521563.5376875-.216625.07878125-.464625-.0343125-.5439687-.2498125-.3047813-.82775-.7509375-1.59428125-1.3260313-2.2783125-.0857187-.1019375-.24674995-.10940625-.34062495-.01521875L8.61025 7.89265625c-.0863125.08578125-.0915625.22371875-.01203125.31578125C9.2621875 8.977125 9.7964375 9.881 10.1432813 10.822375c.0789375.2142187-.0367188.4591875-.25200005.5379062-.21596875.0789688-.46453125-.0349687-.54390625-.2502187-.30115625-.8167813-.7598125-1.6044375-1.32634375-2.2779375-.08575-.1019375-.246625-.1095625-.34059375-.0151875L6.55234375 9.93825c-.0863125.0857813-.09153125.2237187-.01196875.3157813.6639375.7683749 1.1981875 1.6722187 1.5450625 2.6139687.07903125.2145312-.037375.4590625-.2525.5379375-.21571875.0790625-.4641875-.035375-.54340625-.2502813-.30515625-.8279062-.75140625-1.5944375-1.3263125-2.2782187-.08571875-.1019375-.246625-.1095938-.340625-.01525l-.26640625.2647812c-.09075.0901563-.09121875.236875-.00103125.3276251.09021875.0907499.23690625.0911874.327625.0010312l.08459375-.0840625c.45975.5880312.83346875 1.2555 1.0873125 1.9441875.1655625.4491562.6845.6915 1.1373125.5254062.4508125-.165375.693-.6857812.52815625-1.1333125-.34125-.9265625-.854375-1.8182187-1.489875-2.5913437l.795-.7901875c.4595.5875.8331875 1.254875 1.0873125 1.9440625.16565625.44925.684375.6907812 1.13737495.5253125.4517188-.165.6936875-.683875.5280626-1.1334063-.3412813-.92624995-.85437505-1.8179062-1.48987505-2.59124995l.79528125-.79025c.459875.58821875.8334688 1.255625 1.0870937 1.9444375.1277501.3463125.4625001.579.8330001.579.3394375 0 .6618125-.204625.8049375-.5128125.0992499-.21371875.1091562-.45315625.0277812-.67440625-.3415-.92640625-.854625-1.81815625-1.4899063-2.5915l.9467813-.94103125c.3536563.3855625.6907813.789 1.0059375 1.2059375.2559063.3385625.644.5283125 1.05525.5283125.091375 0 .1839687-.009375.2764375-.0285625.5033437-.10446875.891-.4785 1.0117187-.976125.1198438-.494.2217813-.99275.3030625-1.48240625.1663438-1.00240625.2519375-2.0006875.2544421-2.96715625C16.0017813.6721875 15.4569062.096 14.7595625.05265625zm.528875 4.203c-.0794063.4785-.1790625.966-.2962188 1.449-.0792812.32678125-.324375.5629375-.6555937.63165625-.331625.0689375-.6641563-.05590625-.8679063-.3254375C12.4731875 4.6939375 11.294 3.53284375 9.96034375 2.55575c-.26990625-.19775-.39628125-.5109375-.3380625-.83775.0580625-.32596875.28434375-.57565625.60531245-.667875C10.9259062.8495 11.6277187.701 12.3135625.60878125c.8177812-.10996875 1.6109687-.14384375 2.4172812-.0936875.4530313.0281875.807.40065625.8058466.84803125-.0024716.9415625-.0860028 1.91471875-.2482528 2.89253125zM5.007125 9.9270625C4.31934375 9.355875 3.54834375 8.9125 2.7154375 8.6093125c-.2153125-.078375-.3310625-.323-.2519375-.5376875.0803125-.217875.32453125-.33009375.54421875-.25009375.947.34465625 1.85671875.8758125 2.63084375 1.53609375.09175.07828125.2281875.07309375.31365625-.0119375L7.0803125 8.224375c.09578125-.0941875.08784375-.256875-.0153125-.34253125-.6881875-.5715625-1.4591875-1.01496875-2.2916875-1.3180625-.21528125-.078375-.33075-.32265625-.251625-.5374375.08028125-.2179375.32425-.330125.54390625-.2500625.948.34496875 1.85771875.8760625 2.6308125 1.53575.09171875.07828125.22815625.073125.3136875-.01190625L9.1381875 6.1788125c.09575-.09415625.08784375-.2568125-.01525-.3425-.6873125-.57109375-1.45825-1.01446875-2.29128125-1.31771875-.215375-.07840625-.3313125-.32284375-.25209375-.53784375.0803125-.21796875.3244375-.33015625.54421875-.2500625.94778125.34490625 1.857375.87609375 2.63046875 1.5360625.09171875.07828125.2281875.073125.31375-.011875l.5981875-.5945c.09075-.0901875.0911875-.236875.001-.327625-.0902188-.09075-.2369063-.0911875-.3276563-.001l-.4486562.445875c-.7780625-.63228125-1.67571875-1.1428125-2.60853125-1.4823125-.45896875-.16728125-.96925.06834375-1.1375625.52521875-.08140625.2208125-.07171875.46009375.02734375.67378125.099625.21496875.2775.3781875.5009375.45965625C7.36578125 5.206125 8.0366875 5.577 8.62753125 6.0330625l-.7945625.78978125c-.77809375-.632-1.675875-1.1424375-2.60884375-1.48196875-.45871875-.1671875-.9689375.06834375-1.13721875.5251875-.0815.22103125-.07175.4605.02740625.67425.099625.21478125.2774375.37775.5005625.458875.69225.25196875 1.3631875.6229375 1.95471875 1.0794375l-.7945625.78978125C4.996125 8.235875 4.0983125 7.7253125 3.16609375 7.38603125c-.458875-.16690625-.96909375.06878125-1.13746875.5255-.0813125.22128125-.071375.460875.0279375.674625.09971875.214625.27746875.37746875.50040625.4585625.6925625.25209375 1.36353125.62296875 1.95475 1.07915625-.1278125.1282188-.7111875.680375-.7985.8314062-.48153125-.0131249-.977.0135313-1.47725.0808125-.49925.067125-1.00978125.1750938-1.51734375.3209375-.367.1055-.636375.4033438-.703.7774063-.06671875.3745937.08340625.7476562.3918125.973625.4745.3476562.924625.7335313 1.33784375 1.146875.37103125.3711562.72028125.7725313 1.03809375 1.1929063.237875.3146562.62515625.4543749 1.00221875.3761562.3790625-.0786563.67103125-.3604063.762-.7352813.0843125-.3475625.15609375-.6985937.21328125-1.0433125.117125-.7057812.17740625-1.40875.17915625-2.0894687.001125-.4308125-.2788125-.8017188-.6721875-.9361562l.754625-.7502188c.09575-.0941562.08775-.256875-.01534375-.3425zM4.47665801 11.95475c-.00168926.6557812-.05987676 1.3336562-.17290801 2.0148125-.05534375.3335625-.1248125.673375-.20646875 1.0099375-.0490625.2021875-.20078125.3482812-.40584375.3908437-.20884375.0432188-.410125-.032125-.5384375-.201875-.33059375-.4373437-.69396875-.8549062-1.08003125-1.241125-.42990625-.4300312-.898125-.8314375-1.3916875-1.1930312-.1671875-.1225-.2455-.316375-.20946875-.518625.03590625-.2016563.17603125-.3561563.3748125-.4132813.4859375-.1395937.97415625-.2429375 1.45115625-.3070312.57228125-.0769688 1.13740625-.0988438 1.6795625-.0651563.28071875.0174688.50003125.2478438.49931426.5245313zm9.83877949-9.60640625h-.7423438v-.742375c0-.12796875-.1037187-.2316875-.2316875-.2316875-.1279687 0-.2316875.10371875-.2316875.2316875v.74234375h-.742375c-.1279374 0-.2316874.10371875-.2316874.2316875s.1037187.2316875.2316874.2316875h.742375v.742375c0 .12796875.1037188.2316875.2316875.2316875.1279688 0 .2316875-.10371875.2316875-.2316875v-.742375h.7423438c.1279375 0 .2316875-.10371875.2316875-.2316875-.0000313-.12796875-.10375-.23165625-.2316875-.23165625z"/>
</svg>
