<?xml version="1.0" encoding="UTF-8"?>
<svg width="33px" height="33px" viewBox="0 0 33 33" version="1.1" xmlns="http://www.w3.org/2000/svg" xmlns:xlink="http://www.w3.org/1999/xlink">
    <!-- Generator: Sketch 63.1 (92452) - https://sketch.com -->
    <title>Icon</title>
    <desc>Created with Sketch.</desc>
    <g id="Icon" stroke="none" stroke-width="1" fill="none" fill-rule="evenodd">
        <g id="subject" transform="translate(1.500000, 1.500000)" fill="#FFFFFF" fill-rule="nonzero">
            <polygon id="Path" points="8.711087 8.5 8.288913 8.5 7.5 11.5 9.5 11.5"></polygon>
            <path d="M22.5,15.5 C22.8866712,16.3005613 23.4009791,16.9485932 23.9701504,17.5 C24.5393218,16.9485932 25.1133288,16.3005153 25.5,15.5 L22.5,15.5 Z" id="Path"></path>
            <path d="M27.1609229,5.5 L17.4780275,5.5 L19.4970149,23.267924 C19.5327248,23.9946508 19.3515763,24.6788504 18.9191069,25.2144893 L15.5,29.5 L27.1609229,29.5 C28.450742,29.5 29.5,28.3492542 29.5,26.9346793 L29.5,8.12232779 C29.5,6.70775297 28.450742,5.5 27.1609229,5.5 Z M27.8723326,15.7857267 L27.6453554,15.7857267 C27.1617682,17.3504753 26.3948845,18.5748797 25.5979146,19.5401404 C26.2222436,20.1157996 26.8898602,20.5880299 27.553624,21.1169461 C27.9196431,21.4124329 27.9794187,21.9514634 27.6855835,22.3214648 C27.3931082,22.6908947 26.8565445,22.7507806 26.491262,22.454551 C25.7700456,21.8804346 25.0930802,21.3998614 24.4161148,20.7733448 C23.7391494,21.3998614 23.1188433,21.8804346 22.3976269,22.454551 C22.0323444,22.7507806 21.4957807,22.6908947 21.2033054,22.3214648 C20.9094702,21.9514634 20.9692458,21.4124329 21.3352649,21.1169461 C21.9990287,20.5880299 22.609986,20.1157996 23.2343149,19.5401404 C22.4373451,18.5749369 21.727064,17.3505324 21.2435335,15.7857267 L21.0165563,15.7857267 C20.546794,15.7857267 20.1666667,15.4023539 20.1666667,14.9285808 C20.1666667,14.4548076 20.546794,14.0714348 21.0165563,14.0714348 L23.5662252,14.0714348 L23.5662252,13.2142888 C23.5662252,12.7405157 23.9463525,12.3571429 24.4161148,12.3571429 C24.8858771,12.3571429 25.2660044,12.7405157 25.2660044,13.2142888 L25.2660044,14.0714348 L27.8723326,14.0714348 C28.3420949,14.0714348 28.7222222,14.4548076 28.7222222,14.9285808 C28.7222222,15.4023539 28.3420949,15.7857267 27.8723326,15.7857267 Z" id="Shape"></path>
            <path d="M14.8254069,2.74183886 C14.6612447,1.4638673 13.534522,0.5 12.2058529,0.5 L3.14020621,0.5 C1.68433783,0.5 0.5,1.64801896 0.5,3.05924171 L0.5,21.9407583 C0.5,23.351981 1.68433783,24.5 3.14020621,24.5 C8.40125711,24.5 12.1859634,24.5 17.0189488,24.5 C17.2756942,24.2155261 17.4909004,24.0374028 17.5,23.6660853 C17.5022239,23.5729858 14.8373171,2.83419905 14.8254069,2.74183886 Z M11.7223999,17.6250935 C11.2754051,17.7186271 10.8226219,17.4235707 10.730458,16.9529889 L10.1916927,14.2136041 L7.80830094,14.2136041 L7.26953561,16.9529889 C7.17900145,17.4166571 6.73936849,17.7213125 6.27759372,17.6250935 C5.82155109,17.5321885 5.52516553,17.0810905 5.61654265,16.6165652 L7.30241114,8.04598866 C7.38142481,7.64591415 7.72720796,7.35714286 8.12890762,7.35714286 L9.87102979,7.35714286 C10.2727294,7.35714286 10.6185126,7.64591415 10.6975263,8.04598866 L12.383451,16.6165652 C12.4748281,17.0810905 12.1784987,17.5321885 11.7223999,17.6250935 Z" id="Shape"></path>
            <path d="M9.5,26.5 L9.66317785,27.6137507 C9.77196308,28.3596244 10.3525313,29.1202175 11.3075085,29.5 C13.1096918,27.8065101 12.0193671,28.8310244 14.5,26.5 L9.5,26.5 Z" id="Path"></path>
        </g>
    </g>
</svg>