<?xml version="1.0" encoding="UTF-8"?>
<svg width="16px" height="16px" viewBox="0 0 16 16" version="1.1" xmlns="http://www.w3.org/2000/svg" xmlns:xlink="http://www.w3.org/1999/xlink">
    <title>treemenu_collapsed</title>
    <g id="treemenu_collapsed" stroke="none" stroke-width="1" fill="none" fill-rule="evenodd">
        <g id="right-chevron" transform="translate(5.000000, 3.000000)" fill="#000000" fill-rule="nonzero">
            <path d="M5.77378073,3.98007275 L1.79036572,0.219487521 C1.64366881,0.0731422739 1.46048492,0 1.24045025,0 C1.02041559,0 0.837231697,0.0732232059 0.690534785,0.219487521 L0.226197864,0.652797324 C0.0754563547,0.795298302 8.55999486e-05,0.968512965 8.55999486e-05,1.17262341 C8.55999486e-05,1.37286935 0.0754349547,1.54814778 0.226197864,1.69829683 L3.19551028,4.50002023 L0.226069464,7.30751004 C0.0753707547,7.45001102 0,7.62322568 0,7.82735636 C0,8.02758207 0.0753493547,8.20292119 0.226069464,8.35300955 L0.690449185,8.78625865 C0.841169295,8.92875963 1.02454578,9 1.24036465,9 C1.45626913,9 1.63960281,8.92875963 1.79028012,8.78625865 L5.77378073,5.02567342 C5.92456504,4.87548391 6,4.70024594 6,4.5 C6,4.29588955 5.92456504,4.12257373 5.77378073,3.98007275 Z" id="Path"></path>
        </g>
    </g>
</svg>