<?xml version="1.0" encoding="UTF-8"?>
<svg width="33px" height="33px" viewBox="0 0 33 33" version="1.1" xmlns="http://www.w3.org/2000/svg" xmlns:xlink="http://www.w3.org/1999/xlink">
    <!-- Generator: Sketch 64 (93537) - https://sketch.com -->
    <title>Icon</title>
    <desc>Created with Sketch.</desc>
    <g id="Icon" stroke="none" stroke-width="1" fill="none" fill-rule="evenodd">
        <g id="unicorn" transform="translate(-1.000000, 0.000000)" fill="#FFFFFF" fill-rule="nonzero" stroke="#FFFFFF" stroke-width="0.5">
            <g id="Group">
                <g transform="translate(0.000000, 2.934971)" id="Group-2">
                    <g transform="translate(0.129795, 0.147027)">
                        <path d="M22.0941486,0.00891072891 L24.1630292,2.51035958 L23.6573028,5.7832833 L33.8407928,0.429715208 L27.9789645,6.46124608 L27.9559769,6.4846241 L24.8526561,9.59390164 L28.4387157,18.3372836 L28.4387157,21.1192688 L27.3812879,22.5687064 L22.7378004,22.7323526 L22.4619496,21.4231831 L22.4159745,21.4933172 L16.7150591,16.2098832 L17.6345616,20.6517082 L26.2548974,28.4833472 L25.6112456,28.8573956 L8.78435016,13.5681662 L5.52011635,14.4799092 L7.08327057,25.4675817 L6.32468102,25.0000212 L6.07181784,23.2232912 L5.01438998,24.2051683 L4.37073824,23.8077418 L5.95688003,22.3349262 L4.85347705,14.6669334 L4.30177556,14.8305796 L1.70418104,22.218036 L1.10650443,21.8439876 L3.49721088,15.0409818 L0.899616368,15.7657007 L0.899616368,14.6669334 L10.0256785,3.67926091 L9.97970339,4.33384565 L17.5426113,3.32859051 L17.5655989,3.30521248 L20.5999571,2.90778603 L22.0941486,0.00891072891 Z M22.2550615,1.29470219 L20.025268,5.61963712 L20.2321561,3.70263893 L17.8184621,4.02993131 L9.65787752,9.78092586 L9.31306409,13.1006056 L16.8299969,19.9269894 L15.9104944,15.4617863 L15.5426934,13.6850563 L16.7610342,11.9550823 L17.3127357,12.3525088 L16.2782954,13.8253245 L16.5311586,15.0877379 L22.3010367,20.417928 L21.9102481,18.5944419 L23.335477,22.0310118 L27.059462,21.8907436 L27.795064,20.9088665 L27.795064,18.5009298 L22.8757257,6.4846241 L23.4734023,2.74413984 L22.2550615,1.29470219 Z M9.19812628,5.80666133 L1.70418104,14.8305796 L8.62343723,12.9135814 L9.19812628,5.80666133 Z M21.9177159,10.311941 L23.5466752,12.3725471 L21.4878517,11.3535661 L21.9177159,10.311941 Z M25.4963078,5.61963712 L23.6343153,6.57813621 L24.5997929,8.91593887 L27.220375,6.22746581 L25.4963078,5.61963712 Z M16.301283,4.21695552 L9.93372827,5.05856448 L9.63488996,8.91593887 L16.301283,4.21695552 Z M30.2777207,3.09481024 L26.3468476,5.15207659 L27.7720764,5.66639317 L30.2777207,3.09481024 Z" id="Combined-Shape"></path>
                    </g>
                </g>
            </g>
        </g>
    </g>
</svg>