<svg xmlns="http://www.w3.org/2000/svg" viewBox="0 0 16 16">
  <defs/>
  <path fill="#474747" d="M15.667 6H4.333A.333.333 0 004 6.333v8.334C4 15.402 4.598 16 5.333 16h9.334c.735 0 1.333-.598 1.333-1.333V6.333A.333.333 0 0015.667 6zm-4.544 7.603a.347.347 0 01-.094.278.384.384 0 01-.279.119h-1.5a.384.384 0 01-.28-.119.347.347 0 01-.093-.278l.237-2.026A1.393 1.393 0 018.5 10.43C8.5 9.64 9.173 9 10 9s1.5.64 1.5 1.429c0 .461-.23.882-.614 1.148l.237 2.026zM8.75 6V4.55C8.75 2.041 6.787 0 4.375 0S0 2.041 0 4.55V6h8.75zM2.077 6V4.546c0-1.324 1.08-2.398 2.32-2.398 1.242 0 2.277 1.074 2.277 2.398V6H2.077z"/>
</svg>
