<svg xmlns="http://www.w3.org/2000/svg" viewBox="0 0 33 33">
  <defs/>
  <path fill="#FFF" fill-rule="nonzero" d="M24.1666865 12.2499927H10.74997026v-1.87498906c0-3.10180291 2.57923634-5.62502546 5.75002974-5.62502546 3.1707934 0 5.7500297 2.52316436 5.7500297 5.62502546h3.8333135C26.0833432 5.20595281 21.783922 1 16.5 1c-5.28392204 0-9.58334325 4.20595281-9.58334325 9.37500364v2.39654356C5.77642979 13.4219336 5 14.6179651 5 16.0000291v11.2499927C5 29.3182008 6.71917365 31 8.83331351 31H24.1666865C26.2808263 31 28 29.3182008 28 27.2500218V16.0000291c0-2.068179-1.7191737-3.7500364-3.8333135-3.7500364zm-5.7500297 10.5201191v2.6049209h-3.83331355v-2.6049209c-.58424067-.5147462-.95832838-1.2528828-.95832838-2.08261 0-1.5533163 1.28714963-2.8124836 2.87498513-2.8124836 1.5878355 0 2.8749851 1.2591673 2.8749851 2.8124836 0 .8297272-.3740877 1.5678638-.9583283 2.08261z"/>
</svg>
