<?xml version="1.0" encoding="UTF-8"?>
<svg width="33px" height="33px" viewBox="0 0 33 33" version="1.1" xmlns="http://www.w3.org/2000/svg" xmlns:xlink="http://www.w3.org/1999/xlink">
    <!-- Generator: Sketch 64 (93537) - https://sketch.com -->
    <title>Icon</title>
    <desc>Created with Sketch.</desc>
    <g id="Icon" stroke="none" stroke-width="1" fill="none" fill-rule="evenodd">
        <g id="unlock" transform="translate(5.000000, 1.000000)" fill="#FFFFFF" fill-rule="nonzero">
            <path d="M19.1666865,11.2499927 L5.74997026,11.2499927 L5.74997026,9.37500364 C5.74997026,6.27320073 8.3292066,3.74997818 11.5,3.74997818 C14.6707934,3.74997818 17.2500297,6.27314254 17.2500297,9.37500364 L21.0833432,9.37500364 C21.0833432,4.20595281 16.783922,0 11.5,0 C6.21607796,0 1.91665675,4.20595281 1.91665675,9.37500364 L1.91665675,11.7715472 C0.776429787,12.4219336 0,13.6179651 0,15.0000291 L0,26.2500218 C0,28.3182008 1.71917365,30 3.83331351,30 L19.1666865,30 C21.2808263,30 23,28.3182008 23,26.2500218 L23,15.0000291 C23,12.9318501 21.2808263,11.2499927 19.1666865,11.2499927 Z M13.4166568,21.7701118 L13.4166568,24.3750327 L9.58334325,24.3750327 L9.58334325,21.7701118 C8.99910258,21.2553656 8.62501487,20.517229 8.62501487,19.6875018 C8.62501487,18.1341855 9.9121645,16.8750182 11.5,16.8750182 C13.0878355,16.8750182 14.3749851,18.1341855 14.3749851,19.6875018 C14.3749851,20.517229 14.0008974,21.2553656 13.4166568,21.7701118 Z" id="Shape"></path>
        </g>
    </g>
</svg>