<svg xmlns="http://www.w3.org/2000/svg" viewBox="0 0 16 16">
  <defs/>
  <g fill="#474747">
    <path d="M15.7 11.354a.888.888 0 00-.652-.27H10.95c-.134.359-.36.653-.677.884a1.76 1.76 0 01-1.06.345H6.756a1.76 1.76 0 01-1.06-.345 1.894 1.894 0 01-.677-.883H.921a.888.888 0 00-.652.269.888.888 0 00-.269.652v3.07c0 .257.09.475.269.653.179.18.396.269.652.269h14.127c.256 0 .473-.09.652-.269a.888.888 0 00.269-.652v-3.071a.888.888 0 00-.269-.652zm-3.598 3.233a.591.591 0 01-.432.183.59.59 0 01-.432-.183.59.59 0 01-.182-.431c0-.167.06-.31.182-.432a.59.59 0 01.432-.183c.166 0 .31.061.432.183a.59.59 0 01.182.432.59.59 0 01-.182.431zm2.456 0a.59.59 0 01-.432.183.59.59 0 01-.431-.183.59.59 0 01-.183-.431c0-.167.061-.31.183-.432a.59.59 0 01.431-.183.59.59 0 01.432.183.59.59 0 01.183.432.59.59 0 01-.183.431z"/>
    <path d="M3.685 6.171h2.457v4.3c0 .166.06.31.182.431a.59.59 0 00.432.183h2.457a.59.59 0 00.432-.183.59.59 0 00.182-.431v-4.3h2.457c.269 0 .458-.128.566-.384.109-.25.064-.47-.134-.662l-4.3-4.3a.57.57 0 00-.432-.182.57.57 0 00-.431.183l-4.3 4.299c-.198.192-.243.413-.134.662.109.256.297.384.566.384z"/>
  </g>
</svg>
