<svg width="16" height="16" viewBox="0 0 16 16" xmlns="http://www.w3.org/2000/svg"><title>Artboard</title><g fill="#FFF" fill-rule="nonzero"><path d="M13.078 4.785L8.391.16c-.178-.213-.604-.213-.782 0L2.92 4.785a.469.469 0 00.36.769h2.344v5.227c0 .26.21.469.469.469h3.812c.26 0 .469-.21.469-.469V5.554h2.344a.469.469 0 00.36-.77z"/><path d="M15.531 9.438h-.875c-.259 0-.469.21-.469.468v4.281H1.813v-4.28c0-.26-.21-.47-.47-.47H.47c-.26 0-.469.21-.469.47v4.687C0 15.369.63 16 1.406 16h13.188c.775 0 1.406-.63 1.406-1.406V9.906c0-.259-.21-.469-.469-.469z"/></g></svg>