<?xml version="1.0" encoding="UTF-8"?>
<svg width="33px" height="33px" viewBox="0 0 33 33" version="1.1" xmlns="http://www.w3.org/2000/svg" xmlns:xlink="http://www.w3.org/1999/xlink">
    <!-- Generator: Sketch 64 (93537) - https://sketch.com -->
    <title>Icon</title>
    <desc>Created with Sketch.</desc>
    <g id="Icon" stroke="none" stroke-width="1" fill="none" fill-rule="evenodd">
        <g id="user-(1)" transform="translate(2.000000, 1.500000)" fill="#FFFFFF" fill-rule="nonzero">
            <path d="M26.8611857,20.5908031 L26.5554809,20.5908031 L26.5554809,18.6817228 C26.5554809,16.9280816 25.1842855,15.5 23.5,15.5 C21.8157145,15.5 20.4445191,16.9280816 20.4445191,18.6817228 L20.4445191,20.5908031 L20.1388143,20.5908031 C18.9594116,20.5908031 18,21.5898543 18,22.8182189 L18,27.2725842 C18,28.5009488 18.9594116,29.5 20.1388143,29.5 L26.8611857,29.5 C28.0405884,29.5 29,28.5009488 29,27.2725842 L29,22.8182189 C29,21.5898543 28.0405884,20.5908031 26.8611857,20.5908031 L26.8611857,20.5908031 Z M22.2778524,18.6817228 C22.2778524,17.9804994 22.8265991,17.4090803 23.5,17.4090803 C24.1734009,17.4090803 24.7221476,17.9804994 24.7221476,18.6817228 L24.7221476,20.5908031 L22.2778524,20.5908031 L22.2778524,18.6817228 Z" id="Shape"></path>
            <path d="M16.141221,23.1667481 C16.141221,21.3666993 17.1301247,19.8212891 18.5325859,19.1667481 L18.5325859,18.8332519 C18.5325859,18.0227051 18.7081672,17.2626953 19,16.5732422 C18.0960408,15.8972168 17.0103703,15.5 15.8423824,15.5 L5.67924549,15.5 C2.54789946,15.5 0,18.3413086 0,21.8332519 L0,26.5 C0,27.0520019 0.401735318,27.5 0.896734498,27.5 L16.141221,27.5 L16.141221,23.1667481 Z" id="Path"></path>
            <path d="M19,7.00011904 C19,10.5899786 16.3136558,13.5 13,13.5 C9.68634418,13.5 7,10.5899786 7,7.00011904 C7,3.41025943 9.68634418,0.5 13,0.5 C16.3136558,0.5 19,3.41025943 19,7.00011904 Z" id="Path"></path>
        </g>
    </g>
</svg>