<svg xmlns="http://www.w3.org/2000/svg" viewBox="0 0 33 33">
  <defs/>
  <g fill="#FFF" fill-rule="nonzero">
    <path d="M28.8611857 22.0908031h-.3057048v-1.9090803C28.5554809 18.4280816 27.1842855 17 25.5 17s-3.0554809 1.4280816-3.0554809 3.1817228v1.9090803h-.3057048C20.9594116 22.0908031 20 23.0898543 20 24.3182189v4.4543653C20 30.0009488 20.9594116 31 22.1388143 31h6.7223714C30.0405884 31 31 30.0009488 31 28.7725842v-4.4543653c0-1.2283646-.9594116-2.2274158-2.1388143-2.2274158zm-4.5833333-1.9090803c0-.7012234.5487467-1.2726425 1.2221476-1.2726425s1.2221476.5714191 1.2221476 1.2726425v1.9090803h-2.4442952v-1.9090803zM18.141221 24.6667481c0-1.8000488.9889037-3.345459 2.3913649-4v-.3334962c0-.8105468.1755813-1.5705566.4674141-2.2600097C20.0960408 17.3972168 19.0103703 17 17.8423824 17H7.67924549C4.54789946 17 2 19.8413086 2 23.3332519V28c0 .5520019.40173532 1 .8967345 1H18.141221v-4.3332519zM21 8.50011904C21 12.0899786 18.3136558 15 15 15c-3.31365582 0-6-2.9100214-6-6.49988096C9 4.91025943 11.68634418 2 15 2c3.3136558 0 6 2.91025943 6 6.50011904z"/>
  </g>
</svg>
