<?xml version="1.0" encoding="UTF-8"?>
<svg width="33px" height="33px" viewBox="0 0 33 33" version="1.1" xmlns="http://www.w3.org/2000/svg" xmlns:xlink="http://www.w3.org/1999/xlink">
    <!-- Generator: Sketch 64 (93537) - https://sketch.com -->
    <title>Icon</title>
    <desc>Created with Sketch.</desc>
    <g id="Icon" stroke="none" stroke-width="1" fill="none" fill-rule="evenodd">
        <g id="clock" transform="translate(0.000000, 2.000000)" fill="#FFFFFF" fill-rule="nonzero">
            <polygon id="Path" points="17.2857388 7.85716741 17.2857388 15.7142612 24.011404 19.7057143 25.1428326 17.7964286 19.6428817 14.5356897 19.6428817 7.85716741"></polygon>
            <path d="M18.8492612,0 C11.0314286,0 4.71428571,6.33283259 4.71428571,14.1428571 L0,14.1428571 L6.12068973,20.2635469 L6.23066518,20.4913795 L12.5714531,14.1428571 L7.85716741,14.1428571 C7.85716741,8.06931027 12.783596,3.1428817 18.8571429,3.1428817 C24.9306897,3.1428817 29.8571183,8.06931027 29.8571183,14.1428571 C29.8571183,20.216404 24.9306897,25.1428326 18.8571429,25.1428326 C15.8164286,25.1428326 13.0742612,23.9014286 11.0864531,21.9135469 L8.86285714,24.1371429 C11.4164531,26.6985469 14.9442857,28.2857143 18.8492612,28.2857143 C26.6671674,28.2857143 33,21.9528817 33,14.1428571 C33,6.33283259 26.6671674,0 18.8492612,0 Z" id="Path"></path>
        </g>
    </g>
</svg>