<svg xmlns="http://www.w3.org/2000/svg" viewBox="0 0 29 29">
  <defs/>
  <g fill="none" fill-rule="evenodd">
    <path fill="#FAB005" fill-rule="nonzero" d="M21.0014866 1.95667062c.1910921 1.36543208.9612981 2.81577682 2.2236256 4.02100017C24.3376683 7.0194626 25.6213994 7.71400776 26.8837268 8c.7874991-1.86839166 1.1025398-3.49531806 1.1158322-4.67883491.0323463 2.82674701-1.5486925 8.24152011-6.827071 13.53151481l-.5389247.5299631c-1.0072021.979448-1.9243983 1.8094506-2.7376045 2.5057894.3786514 2.3723028-.2707909 4.7559342-2.1466119 6.6325375l-1.6499434 1.6506313c-2.3781618 2.3791535-2.0006708-.785467-2.7052735-4.193248-.5469102.063956-1.0375447-.0204634-1.50047789-.2123217-.13078772.4812265-.38453161.9360289-.76065084 1.3121631-1.1559983 1.155992-4.56214428 2.6629485-5.71814258 1.5069565-1.1559983-1.155992.35091402-4.5621193 1.50696473-5.7181113.29007493-.2900864.62564477-.5073815.98420371-.6518858-.62560653-.7940644-1.00288333-1.6058045-.88432261-2.6020932l-.3708171-.072268c-3.26256937-.6036885-6.12124244-.3318225-3.81539385-2.6386326l1.64994332-1.6506314c1.88277636-1.8835024 4.2761029-2.53103822 6.65692749-2.1444003l.57548968-.65855117c.70388714-.79263742 1.52257804-1.66929812 2.46778214-2.61818468 3.074492-3.07162541 6.1913793-4.89424969 8.8158504-5.87372203zM13.8650372 15.144181c-.5469052-.5471546-2.3979975.4629975-4.98527535 3.0304029-2.56623486 2.5674054-3.23934477 4.1247121-2.71348266 4.650814.52586211.5471546 2.0824054-.1472615 4.64869371-2.7147203 2.5662882-2.5674588 3.5759264-4.4403946 3.0500643-4.9664966zM18 8c-.769547 0-1.5390941.28684437-2.1162391.88444692-1.1783479 1.17129128-1.1783479 3.05975418 0 4.23110618C16.4609059 13.6892418 17.230453 14 18 14s1.5390941-.2868444 2.1162391-.8844469c1.1783479-1.1712913 1.1783479-3.0597542 0-4.23110618C19.5390941 8.28684437 18.769547 8 18 8zm0 .71711092c.6012029 0 1.1783479.23901674 1.6112677.66934399.4328588.43026655.6733766 1.00401598.6733766 1.60161853 0 .59760256-.2404568 1.17129126-.6733766 1.60161856-.4328587.4302665-1.0100648.669344-1.6112677.669344-.6012029 0-1.1783479-.2390168-1.6112677-.669344-.4328588-.4302666-.6733766-1.004016-.6733766-1.60161856 0-.59760255.2404568-1.17129128.6733766-1.60161853C16.821591 8.95612766 17.3987971 8.71711092 18 8.71711092z"/>
    <path stroke="#FAB005" d="M21.5688397 2.28311853c.2610935 1.14968973.9522895 2.33111737 2.0015515 3.33291376.9196698.86114555 1.9663729 1.47343471 3.0155092 1.78869842.5065693-1.29086549.7773445-2.44933442.8734615-3.39961489.1097976-1.08553743.0357351-1.91116498-.2635686-2.2064827-.2879187-.28435234-1.0996426-.3557157-2.1750104-.2718261-.9595441.07485419-2.136312.30933292-3.4519432.75631151z"/>
  </g>
</svg>
