<?xml version="1.0" encoding="UTF-8"?>
<svg width="33px" height="33px" viewBox="0 0 33 33" version="1.1" xmlns="http://www.w3.org/2000/svg" xmlns:xlink="http://www.w3.org/1999/xlink">
    <!-- Generator: Sketch 64 (93537) - https://sketch.com -->
    <title>Icon</title>
    <desc>Created with Sketch.</desc>
    <g id="Icon" stroke="none" stroke-width="1" fill="none" fill-rule="evenodd">
        <g id="cabinet-(1)" transform="translate(2.000000, 2.000000)" fill="#FFFFFF" fill-rule="nonzero">
            <path d="M11.3928571,20.7142857 L17.6071429,20.7142857 C17.8931475,20.7142857 18.125,20.4824332 18.125,20.1964286 L18.125,19.1607143 C18.125,18.8747097 18.3568525,18.6428571 18.6428571,18.6428571 L25.375,18.6428571 L25.375,12.4285714 L3.625,12.4285714 L3.625,18.6428571 L10.3571429,18.6428571 C10.6431475,18.6428571 10.875,18.8747097 10.875,19.1607143 L10.875,20.1964286 C10.875,20.4824332 11.1068525,20.7142857 11.3928571,20.7142857 Z" id="Path"></path>
            <path d="M2.58928571,18.6428571 L2.58928571,11.9107143 C2.58928571,11.6247097 2.82113825,11.3928571 3.10714286,11.3928571 L4.14285714,11.3928571 L4.14285714,5.69642857 C4.14285714,5.41042397 4.37470968,5.17857143 4.66071429,5.17857143 L5.69642857,5.17857143 L5.69642857,2.07142857 L4.03514286,2.07142857 L0.136196429,18.6428571 L2.58928571,18.6428571 Z" id="Path"></path>
            <polygon id="Path" points="6.73214286 0 22.2678571 0 22.2678571 5.17857143 6.73214286 5.17857143"></polygon>
            <path d="M28.8638036,18.6428571 L24.9648571,2.07142857 L23.3035714,2.07142857 L23.3035714,5.17857143 L24.3392857,5.17857143 C24.6252903,5.17857143 24.8571429,5.41042397 24.8571429,5.69642857 L24.8571429,11.3928571 L25.8928571,11.3928571 C26.1788617,11.3928571 26.4107143,11.6247097 26.4107143,11.9107143 L26.4107143,18.6428571 L28.8638036,18.6428571 Z" id="Path"></path>
            <polygon id="Path" points="5.17857143 6.21428571 23.8214286 6.21428571 23.8214286 11.3928571 5.17857143 11.3928571"></polygon>
            <polygon id="Path" points="10.875 24.8571429 18.125 24.8571429 18.125 25.8928571 10.875 25.8928571"></polygon>
            <path d="M19.1607143,19.6785714 L19.1607143,20.1964286 C19.1607143,21.0544424 18.4651567,21.75 17.6071429,21.75 L11.3928571,21.75 C10.5348433,21.75 9.83928571,21.0544424 9.83928571,20.1964286 L9.83928571,19.6785714 L0,19.6785714 L0,29 L29,29 L29,19.6785714 L19.1607143,19.6785714 Z M19.1607143,26.4107143 C19.1607143,26.6967189 18.9288617,26.9285714 18.6428571,26.9285714 L10.3571429,26.9285714 C10.0711383,26.9285714 9.83928571,26.6967189 9.83928571,26.4107143 L9.83928571,24.3392857 C9.83928571,24.0532811 10.0711383,23.8214286 10.3571429,23.8214286 L18.6428571,23.8214286 C18.9288617,23.8214286 19.1607143,24.0532811 19.1607143,24.3392857 L19.1607143,26.4107143 Z" id="Shape"></path>
        </g>
    </g>
</svg>