<svg xmlns="http://www.w3.org/2000/svg" viewBox="0 0 33 33">
  <defs/>
  <g fill="#FFF" fill-rule="nonzero">
    <path d="M13.3928571 22.7142857h6.2142858c.2860046 0 .5178571-.2318525.5178571-.5178571v-1.0357143c0-.2860046.2318525-.5178572.5178571-.5178572H27.375v-6.2142857H5.625v6.2142857h6.7321429c.2860046 0 .5178571.2318526.5178571.5178572v1.0357143c0 .2860046.2318525.5178571.5178571.5178571z"/>
    <path d="M4.58928571 20.6428571v-6.7321428c0-.2860046.23185254-.5178572.51785715-.5178572h1.03571428V7.69642857c0-.2860046.23185254-.51785714.51785715-.51785714h1.03571428V4.07142857H6.03514286L2.13619643 20.6428571H4.5892857zM8.73214286 2H24.2678571v5.17857143H8.73214286zM30.8638036 20.6428571L26.9648571 4.07142857h-1.6612857v3.10714286h1.0357143c.2860046 0 .5178572.23185254.5178572.51785714v5.69642853h1.0357142c.2860046 0 .5178572.2318526.5178572.5178572v6.7321428h2.4530893z"/>
    <path d="M7.17857143 8.21428571H25.8214286v5.17857139H7.17857143zM12.875 26.8571429h7.25v1.0357142h-7.25z"/>
    <path d="M21.1607143 21.6785714v.5178572c0 .8580138-.6955576 1.5535714-1.5535714 1.5535714h-6.2142858c-.8580138 0-1.55357139-.6955576-1.55357139-1.5535714v-.5178572H2V31h29v-9.3214286h-9.8392857zm0 6.7321429c0 .2860046-.2318526.5178571-.5178572.5178571h-8.2857142c-.2860046 0-.51785719-.2318525-.51785719-.5178571v-2.0714286c0-.2860046.23185259-.5178571.51785719-.5178571h8.2857142c.2860046 0 .5178572.2318525.5178572.5178571v2.0714286z"/>
  </g>
</svg>
