<svg enable-background="new 0 0 512.001 512.001" viewBox="0 0 512.001 512.001" xmlns="http://www.w3.org/2000/svg"><path d="m0 136.198h512v-39.094c0-4.875-3.953-8.828-8.828-8.828h-494.344c-4.875 0-8.828 3.953-8.828 8.828z" fill="#73af00"/><path d="m0 136.2h512v47.923h-512z" fill="#f5f5f5"/><path d="m0 184.12h512v47.923h-512z" fill="#73af00"/><path d="m0 232.04h512v47.923h-512z" fill="#f5f5f5"/><path d="m0 279.97h512v47.923h-512z" fill="#73af00"/><path d="m0 327.88h512v47.923h-512z" fill="#f5f5f5"/><path d="m8.828 423.724h494.345c4.875 0 8.828-3.953 8.828-8.828v-39.094h-512.001v39.094c0 4.876 3.953 8.828 8.828 8.828z" fill="#73af00"/><path d="m8.828 232.04h238.344c4.875 0 8.828-3.953 8.828-8.828v-126.108c0-4.875-3.953-8.828-8.828-8.828h-238.344c-4.875 0-8.828 3.953-8.828 8.828v126.108c0 4.875 3.953 8.828 8.828 8.828z" fill="#ff4b55"/><g fill="#f5f5f5"><path d="m135.749 220.69h-14.233c-1.294 0-2.453-.806-2.902-2.02l-4.583-12.372c-1.789-4.83-2.592-9.97-2.362-15.115l1.596-35.735c.041-.907.623-1.7 1.476-2.01 1.464-.533 3.014.552 3.014 2.111v16.273c0 .455.369.824.824.824.439 0 .801-.344.823-.783l1.279-25.948c.052-1.054.844-1.922 1.888-2.071 1.294-.185 2.464.792 2.513 2.1l.883 24.191c.018.486.448.852.93.791.408-.051.717-.394.725-.806l.531-26.881c.029-1.468 1.473-2.487 2.866-2.023.853.285 1.443 1.063 1.486 1.961l1.312 27.17c.014.302.191.573.461.708.546.274 1.192-.111 1.21-.723l.658-21.052c.05-1.59 1.715-2.605 3.151-1.921.725.345 1.205 1.058 1.252 1.86l1.532 25.838 4.099 11.957c.231.672 1.174.684 1.418.018 1.161-3.169 3.796-9.087 8.024-11.693.749-.461 1.709-.402 2.413.126 1.035.777 1.156 2.274.271 3.217-2.061 2.194-5.066 6.805-4.849 14.912.028 1.032-.271 2.046-.881 2.879l-11.55 15.778c-1.156 1.58-1.898 3.425-2.157 5.366l-.052.387c-.202 1.538-1.514 2.686-3.066 2.686z"/><path d="m128.671 100.366 2.319 6.954 7.33.056c.568.004.803.729.346 1.067l-5.897 4.354 2.211 6.989c.171.542-.445.99-.907.659l-5.964-4.263-5.964 4.263c-.462.33-1.078-.118-.907-.659l2.211-6.989-5.897-4.354c-.457-.338-.222-1.063.346-1.067l7.33-.056 2.319-6.954c.181-.539.944-.539 1.124 0z"/><path d="m94.188 110.372 2.319 6.954 7.33.056c.568.004.803.729.346 1.067l-5.897 4.354 2.211 6.989c.171.542-.445.99-.907.659l-5.964-4.263-5.964 4.263c-.462.33-1.078-.118-.907-.659l2.211-6.989-5.897-4.354c-.457-.338-.222-1.063.346-1.067l7.33-.056 2.319-6.954c.183-.54.944-.54 1.124 0z"/><path d="m163.992 110.372 2.319 6.954 7.33.056c.568.004.803.729.346 1.067l-5.897 4.354 2.211 6.989c.171.542-.445.99-.907.659l-5.964-4.263-5.964 4.263c-.462.33-1.078-.118-.907-.659l2.211-6.989-5.897-4.354c-.457-.338-.222-1.063.346-1.067l7.33-.056 2.319-6.954c.183-.54.944-.54 1.124 0z"/><path d="m187.118 136.666 2.319 6.954 7.33.056c.568.004.803.729.346 1.067l-5.897 4.354 2.211 6.989c.171.542-.445.99-.907.659l-5.964-4.263-5.964 4.263c-.462.33-1.078-.118-.907-.659l2.211-6.989-5.897-4.354c-.457-.338-.222-1.063.346-1.067l7.33-.056 2.319-6.954c.183-.539.944-.539 1.124 0z"/><path d="m69.139 136.666 2.319 6.954 7.33.056c.568.004.803.729.346 1.067l-5.897 4.354 2.211 6.989c.171.542-.445.99-.907.659l-5.964-4.263-5.964 4.263c-.462.33-1.078-.118-.907-.659l2.211-6.989-5.897-4.354c-.457-.338-.222-1.063.346-1.067l7.33-.056 2.319-6.954c.181-.539.944-.539 1.124 0z"/><path d="m193.77 171.157 2.319 6.954 7.33.056c.568.004.803.729.346 1.067l-5.897 4.354 2.211 6.989c.171.542-.445.99-.907.659l-5.964-4.263-5.964 4.263c-.462.33-1.078-.118-.907-.659l2.211-6.989-5.897-4.354c-.457-.338-.222-1.063.346-1.067l7.33-.056 2.319-6.954c.181-.539.944-.539 1.124 0z"/><path d="m60.152 171.157 2.319 6.954 7.33.056c.568.004.803.729.346 1.067l-5.897 4.354 2.211 6.989c.171.542-.445.99-.907.659l-5.964-4.263-5.964 4.263c-.462.33-1.078-.118-.907-.659l2.211-6.989-5.897-4.354c-.457-.338-.222-1.063.346-1.067l7.33-.056 2.319-6.954c.182-.539.944-.539 1.124 0z"/></g></svg>