<svg enable-background="new 0 0 512.001 512.001" viewBox="0 0 512.001 512.001" xmlns="http://www.w3.org/2000/svg"><path d="m512 256h-512v-158.896c0-4.875 3.953-8.828 8.828-8.828h494.345c4.875 0 8.828 3.953 8.828 8.828z" fill="#ff4b55"/><path d="m0 256h512v158.896c0 4.875-3.953 8.828-8.828 8.828h-494.344c-4.875 0-8.828-3.953-8.828-8.828z" fill="#464655"/><g fill="#ffe15a"><path d="m235.903 182.293 6.036 18.096 19.076.148c1.478.011 2.091 1.898.902 2.775l-15.346 11.332 5.754 18.188c.446 1.409-1.159 2.574-2.361 1.716l-15.52-11.093-15.52 11.093c-1.203.86-2.807-.307-2.361-1.716l5.754-18.188-15.346-11.332c-1.188-.878-.576-2.764.902-2.775l19.076-.148 6.036-18.096c.468-1.401 2.451-1.401 2.918 0z"/><path d="m317.487 335.944s-109.206-82.384-112.43-85.092c-4.983-4.185-8.828-11.586-9.012-20.598 0 0-11.777 12.064-9.471 24.552 2.667 14.436 10.943 19.586 21.61 26.574 7.496 4.911 67.087 42.495 101.875 64.419z"/><path d="m350.161 360.091c-1.423-1.016-12.861-9.47-28.73-21.227l-5.759 10.472c11.651 7.341 19.409 12.227 19.409 12.227s1.103 14.345 12.69 11.954c4.176-.862 7.539-9.747 2.39-13.426z"/><path d="m255.863 322.053c-8.256 2.905-17.097 4.567-26.346 4.567-23.442 0-44.445-10.212-58.987-26.36l-12.928 11.635c4.333 4.812 8.96 9.347 14.175 13.217l-2.574 4.459 19.112 11.034 2.53-4.383c8.634 3.755 17.916 6.282 27.638 7.383v5.084h22.069v-5.084c9.722-1.101 19.004-3.628 27.638-7.383l2.53 4.383 7.595-4.385c-7.417-4.677-15.015-9.47-22.452-14.167z"/><path d="m325.95 236.138c-1.101-9.722-3.628-19.004-7.383-27.637l4.383-2.53-11.034-19.113-4.459 2.574c-5.708-7.691-12.509-14.492-20.201-20.2l2.574-4.459-19.112-11.034-2.53 4.383c-7.162-3.115-14.788-5.327-22.723-6.639l-2.9 17.404c37.656 6.237 66.4 38.862 66.4 78.286 0 21.228-8.377 40.464-21.942 54.717 4.692 3.543 9.349 7.059 13.953 10.535 2.23-2.442 4.504-4.847 6.482-7.511l4.459 2.574 11.034-19.112-4.383-2.53c3.755-8.634 6.282-17.916 7.383-27.637h5.082v-22.069h-5.084z"/></g></svg>