<svg enable-background="new 0 0 512.001 512.001" viewBox="0 0 512.001 512.001" xmlns="http://www.w3.org/2000/svg"><path d="m0 311.908h512v102.988c0 4.875-3.953 8.828-8.828 8.828h-494.344c-4.875 0-8.828-3.953-8.828-8.828z" fill="#73af00"/><path d="m8.828 88.276h494.345c4.875 0 8.828 3.953 8.828 8.828v102.988h-512.001v-102.988c0-4.875 3.953-8.828 8.828-8.828z" fill="#82afff"/><path d="m0 200.09h512v111.81h-512z" fill="#ff4b55"/><g fill="#f5f5f5"><path d="m268.04 292.608c-19.81 0-35.881-16.071-35.881-35.898 0-19.792 16.071-35.898 35.881-35.898 7.371 0 14.168 2.266 19.832 6.103.867.588 1.857-.553 1.131-1.308-8.466-8.801-20.448-14.172-33.732-13.718-22.824.779-41.718 19.077-43.177 41.868-1.671 26.104 18.999 47.798 44.735 47.798 12.676 0 24.069-5.3 32.206-13.773.718-.748-.274-1.871-1.132-1.289-5.67 3.846-12.479 6.115-19.863 6.115z"/><path d="m299.452 234.611 3.723 10.467 10.034-4.769c.756-.36 1.545.429 1.185 1.185l-4.769 10.034 10.467 3.723c.789.28.789 1.396 0 1.676l-10.467 3.723 4.769 10.034c.36.756-.429 1.545-1.185 1.185l-10.034-4.769-3.723 10.467c-.28.789-1.396.789-1.676 0l-3.723-10.467-10.034 4.769c-.756.36-1.545-.429-1.185-1.185l4.769-10.034-10.467-3.723c-.789-.28-.789-1.396 0-1.676l10.467-3.723-4.769-10.034c-.36-.756.429-1.545 1.185-1.185l10.034 4.769 3.723-10.467c.281-.788 1.396-.788 1.676 0z"/></g></svg>