<svg enable-background="new 0 0 512.001 512.001" viewBox="0 0 512.001 512.001" xmlns="http://www.w3.org/2000/svg"><path d="m0 125.548h512v-28.444c0-4.875-3.953-8.828-8.828-8.828h-494.344c-4.875 0-8.828 3.953-8.828 8.828z" fill="#ffe15a"/><path d="m0 125.55h512v37.27h-512z" fill="#ff4b55"/><path d="m0 162.82h512v37.27h-512z" fill="#ffe15a"/><path d="m0 200.09h512v37.27h-512z" fill="#ff4b55"/><path d="m0 237.36h512v37.27h-512z" fill="#ffe15a"/><path d="m8.828 423.724h494.345c4.875 0 8.828-3.953 8.828-8.828v-28.445h-512.001v28.445c0 4.876 3.953 8.828 8.828 8.828z" fill="#ffe15a"/><path d="m0 274.641h512v37.27h-512z" fill="#ff4b55"/><path d="m0 311.91h512v37.27h-512z" fill="#ffe15a"/><path d="m0 349.18h512v37.27h-512z" fill="#ff4b55"/><path d="m247.172 256h-238.344c-4.875 0-8.828-3.953-8.828-8.828v-150.068c0-4.875 3.953-8.828 8.828-8.828h238.344c4.875 0 8.828 3.953 8.828 8.828v150.069c-.001 4.876-3.952 8.827-8.828 8.827z" fill="#64466e"/><path d="m235.441 162.614h-20.327v-23.231h2.904v-5.807h-2.904-23.231-2.904v5.807h2.904v23.231h-11.615v-23.231h2.903v-5.807h-2.904-23.231-2.904v5.807h2.904v23.231h-17.422v-29.038h2.904v-5.807h-29.038v5.807h2.904v29.038h-17.423v-23.231h2.904v-5.807h-2.904-23.23-2.904v5.807h2.904v23.231h-11.615v-23.231h2.904v-5.807h-2.904-23.23-2.904v5.807h2.904v23.231h-20.327-2.904v5.807h2.904v52.268h20.327 20.327v-17.422c0-3.208 2.6-5.807 5.807-5.807 3.208 0 5.807 2.601 5.807 5.807v17.422h2.904 23.231 2.904v-17.422c0-3.208 2.6-5.807 5.807-5.807 3.208 0 5.807 2.601 5.807 5.807v17.422h2.904 2.904v-20.327c0-4.811 3.901-8.712 8.712-8.712s8.712 3.901 8.712 8.712v20.327h2.904 2.904v-17.422c0-3.208 2.6-5.807 5.807-5.807s5.807 2.601 5.807 5.807v17.422h2.904 23.231 2.9v-17.422c0-3.208 2.6-5.807 5.807-5.807 3.208 0 5.807 2.601 5.807 5.807v17.422h20.327 20.327v-52.268h2.904v-5.807zm-177.133 23.23h-11.615v-17.422c0-3.208 2.6-5.807 5.807-5.807s5.807 2.601 5.807 5.807c.001 0 .001 17.422.001 17.422zm34.846 0h-11.615v-17.422c0-3.208 2.6-5.807 5.807-5.807 3.208 0 5.807 2.601 5.807 5.807zm40.653-17.422h-11.615v-11.615c0-3.208 2.6-5.807 5.807-5.807s5.807 2.601 5.807 5.807zm40.653 17.422h-11.615v-17.422c0-3.208 2.6-5.807 5.807-5.807 3.208 0 5.807 2.601 5.807 5.807zm34.846 0h-11.615v-17.422c0-3.208 2.6-5.807 5.807-5.807s5.807 2.601 5.807 5.807z" fill="#f5f5f5"/></svg>