<svg enable-background="new 0 0 512 512" viewBox="0 0 512 512" xmlns="http://www.w3.org/2000/svg"><path d="m503.172 423.724h-494.344c-4.875 0-8.828-3.953-8.828-8.828v-79.448h512v79.448c0 4.876-3.953 8.828-8.828 8.828z" fill="#73af00"/><path d="m503.172 88.276h-494.344c-4.875 0-8.828 3.953-8.828 8.828v238.344h512v-238.344c0-4.875-3.953-8.828-8.828-8.828z" fill="#ff4b55"/><path d="m70.621 423.724h-61.793c-4.875 0-8.828-3.953-8.828-8.828v-317.792c0-4.875 3.953-8.828 8.828-8.828h61.793z" fill="#f5f5f5"/><path d="m8.833 409.063h3.122v-8.75h-3.122zm24.918 0h3.123v-8.75h-3.123zm24.934 0h3.108v-8.75h-3.108zm-37.377-23.46h3.091v-7.292h-3.091zm24.933 0h3.108v-7.292h-3.108zm-37.408-19.022h3.122v-8.75h-3.122zm24.918 0h3.123v-8.75h-3.123zm24.934 0h3.108v-8.75h-3.108zm-43.591 11.73h3.091v-7.357h3.123v-7.292h3.091v7.292h3.139v7.357h3.091v7.292h-3.091v7.354h-3.139v7.354h-3.091v-7.354h-3.123v-7.354h-3.091zm24.919 0h3.122v-7.357h3.107v-7.292h3.108v7.292h3.107v7.357h3.122v7.292h-3.122v7.354h-3.107v7.354h-3.108v-7.354h-3.107v-7.354h-3.122zm6.228-29.294v7.292h-3.137v7.354h-3.091v7.292h-3.139v7.357h-3.123v-7.357h-3.123v-7.292h-3.091v-7.354h-3.139v-7.292h-3.091v7.292h-3.123v7.354h-3.091v7.292h-3.139v7.357h-3.121v7.292h3.122v7.354h3.139v7.354h3.091v7.292h3.123v7.293h3.123v-7.293h3.107v-7.292h3.091v-7.354h3.123v-7.354h3.123v7.354h3.139v7.354h3.122v7.292h3.107v7.293h3.108v-7.293h3.107v-7.292h3.122v-7.354h3.123v-7.354h3.091v-7.292h-3.108v-7.357h-3.106v-7.292h-3.122v-7.354h-3.107v-7.292zm7.72-7.29h1.554v-2.916h1.569v2.916h1.569v2.915h-1.569v2.98h-1.569v-2.98h-1.554zm0-10.21v4.313h-1.537v4.438h-1.569v5.834h1.569v4.374h1.537v4.374h4.693v-4.374h1.554v-4.374h1.537v-5.834h-1.537v-4.438h-1.554v-4.313zm-42.006 10.145h1.569v-2.915h1.569v2.915h1.521v2.98h-1.521v2.916h-1.569v-2.916h-1.569zm0-10.209v4.376h-1.554v4.374h-1.568v5.897h1.568v4.374h1.554v4.374h4.66v-4.374h1.569v-4.374h1.523v-5.897h-1.523v-4.374h-1.569v-4.376zm17.135 10.209h1.537v-2.915h1.586v2.915h1.537v2.98h-1.537v2.916h-1.586v-2.916h-1.537zm7.784 0h1.569v-2.915h1.569v2.915h1.537v2.98h-1.537v2.916h-1.569v-2.916h-1.569zm0-10.209v4.376h-3.123v-4.376h-4.66v4.376h-1.554v4.374h-1.569v5.897h1.569v4.374h1.554v4.374h4.66v-4.374h3.123v4.374h4.676v-4.374h1.585v-4.374h1.523v-5.897h-1.523v-4.374h-1.585v-4.376zm-28.041-2.98h3.122v-8.749h-3.122zm24.918 0h3.123v-8.749h-3.123zm24.934 0h3.108v-8.749h-3.108zm-49.852-36.586h3.122v-5.832h-3.122zm49.852 0h3.108v-5.832h-3.108zm-24.934-20.48h3.123v-7.292h-3.123zm-24.918-19.781v4.374.063 4.374h3.122v-4.374-.063-4.374zm17.134 0v4.374.063 4.374h3.123v-4.374-.063-4.374zm15.583 0v4.374.063 4.374h3.107v-4.374-.063-4.374zm17.135 0v4.374.063 4.374h3.108v-4.374-.063-4.374zm-20.242-5.135v2.916h-1.569v2.219h-3.123v-2.219h-1.537v-2.916h-3.123v4.374h1.537v2.219h1.586v2.916.063 2.854h-1.586v2.219h-1.537v4.374h3.123v-2.915h1.537v-2.157h3.123v2.157h1.569v2.915h3.107v-4.374h-1.537v-2.219h-1.569v-2.854-.063-2.916h1.569v-2.219h1.537v-4.374zm-4.692 1.456h3.123v-7.292h-3.123zm-24.918-21.939h3.122v-5.832h-3.122zm49.852 0h3.108v-5.832h-3.108zm-49.852-33.668h3.122v-8.812h-3.122zm24.918 0h3.123v-8.812h-3.123zm24.934 0h3.108v-8.812h-3.108zm-37.377 63.787v-.19-2.854h3.091v-5.073h3.139v-5.897h4.676v-6.91h1.537v-3.361h1.57 1.553v3.297h1.569v6.975h4.691v2.916 2.98h3.107v5.073h3.108v2.917 2.916h-3.108v5.199h-3.107v2.916 2.916h-4.691v6.912h-1.569v3.297h-1.553-1.57v-3.297h-1.537v-6.912h-4.676v-5.834h-3.139v-5.199h-3.091zm24.933-81.413v7.354h-3.137v7.292h-3.091v7.357h-3.139v5.832 1.459h-3.123v-7.292h-3.123v-7.357h-3.091v-7.292h-3.139v-7.354h-3.091v7.354h-3.123v7.292h-3.123v7.357h-3.107v5.832 1.459h-3.121v7.354h3.122v7.354h3.107v7.292h3.123v7.293h3.123v-7.293h3.091v-7.292h3.139v-7.354h-3.139v-8.814h3.139v1.459 4.438h3.091v11.731h1.586v7.228l-4.676.063v5.834h-3.139v4.374h-3.091v7.354h-3.123v-7.354h-3.123v-4.374h-3.107v-4.376h-3.123v13.188h3.122v5.897h3.107v5.073h3.123v2.918.063 2.854h-3.123v5.199h-3.107v5.834h-3.122v13.188h3.122v-4.439h3.107v-4.374h3.123v-7.292h3.123v7.292h3.091v4.374h3.139v5.897l4.676.063v7.228h-1.586v11.731h-3.091v4.374 1.523h-3.139v-8.877h3.139v-7.292h-3.139v-7.292h-3.091v-7.357h-3.123v7.357h-3.123v7.292h-3.107v7.292h-3.121v7.354h3.122v1.523 5.769h3.139v7.357h3.091v7.354h3.123v7.292h3.091v-7.292h3.139v-7.354h3.091v-7.357h3.123v-7.292h3.123v1.523 5.769h3.139v7.357h3.122v7.354h3.107v7.292h3.108v-7.292h3.107v-7.354h3.122v-7.357h3.106v-7.292h3.107v-7.354h-3.108v-7.292h-3.106v-7.292h-3.122v-7.357h-3.107v7.357h-3.108v7.292h-3.137v7.292h3.137v7.354 1.523h-3.137v-1.523-4.374h-3.091v-11.731h-.445-1.124v-7.292h1.124.841 1.141 1.585v-5.897h3.107v-4.374h3.108v-7.292h3.107v7.292h3.122v4.374h3.123v4.439h3.091v-13.188h-3.092v-5.834h-3.123v-5.199h-3.122v-2.853-.063-2.916h3.122v-5.073h3.123v-5.897h3.092v-13.188h-3.092v4.376h-3.123v4.374h-3.122v7.354h-3.107v-7.354h-3.108v-4.374h-3.107v-5.834h-1.585-1.141-.841-1.124v-7.292h1.124.445v-11.731h3.091v-4.438-1.459h3.137v1.459 7.354h-3.137v7.354h3.137v7.292h3.108v7.293h3.107v-7.293h3.122v-7.292h3.106v-7.354h3.11v-7.354h-3.108v-7.292h-3.106v-7.357h-3.122v-7.292h-3.107v-7.354h-3.11zm-34.286-7.292h1.539v-2.916h1.6v2.916h1.521v2.916h-1.521v2.98h-1.6v-2.98h-1.539zm0-5.897h-1.554v4.438h-1.568v5.834h1.568v4.438h1.554v4.376h4.66v-4.376h1.569v-4.438h1.523v-5.834h-1.523v-4.438h-1.569v-4.311h-4.66zm17.135 5.897h1.537v-2.916h1.586v2.916h1.537v2.916h-1.537v2.98h-1.586v-2.98h-1.537zm7.784 0h1.569v-2.916h1.569v2.916h1.537v2.916h-1.537v2.98h-1.569v-2.98h-1.569zm-7.784-5.897h-1.554v4.438h-1.569v5.834h1.569v4.438h1.554v4.376h4.66v-4.376h3.123v4.376h4.676v-4.376h1.585v-4.438h1.523v-5.834h-1.523v-4.438h-1.585v-4.311h-4.676v4.311h-3.123v-4.311h-4.66zm24.871 5.834h1.554v-2.854h1.569v2.854h1.569v2.98h-1.569v2.915h-1.569v-2.915h-1.554zm0-10.208v4.374h-1.537v4.438h-1.569v5.834h1.569v4.374h1.537v4.376h4.693v-4.376h1.554v-4.374h1.537v-5.834h-1.537v-4.438h-1.554v-4.374zm-45.128-2.917h3.122v-8.75h-3.122zm24.918 0h3.123v-8.75h-3.123zm24.934 0h3.108v-8.75h-3.108zm-37.377-20.48h3.091v-7.357h-3.091zm24.933 0h3.108v-7.357h-3.108zm-37.408-22.002h3.122v-8.75h-3.122zm24.918 0h3.123v-8.75h-3.123zm24.934 0h3.108v-8.75h-3.108zm-43.591 14.646h3.091v-7.292h3.123v-7.354h3.091v7.354h3.139v7.292h3.091v7.357h-3.091v7.292h-3.139v7.354h-3.091v-7.354h-3.123v-7.292h-3.091zm24.919 0h3.122v-7.292h3.107v-7.354h3.108v7.354h3.107v7.292h3.122v7.357h-3.122v7.292h-3.107v7.354h-3.108v-7.354h-3.107v-7.292h-3.122zm6.228-29.294v7.357h-3.107v7.292h-3.122v7.354h-3.139v7.292h-3.123v-7.292h-3.123v-7.354h-3.091v-7.292h-3.106v-7.357h-3.123v7.357h-3.123v7.292h-3.091v7.354h-3.139v7.292h-3.121v7.357h3.122v7.292h3.139v7.354h3.091v7.354h3.123v7.292h3.091v-7.292h3.139v-7.354h3.091v-7.354h3.123v-7.292h3.123v7.292h3.139v7.354h3.091v7.354h3.137v7.292h3.108v-7.292h3.107v-7.354h3.122v-7.354h3.106v-7.292h3.108v-7.357h-3.092v-7.292h-3.123v-7.354h-3.122v-7.292h-3.107v-7.357z" fill="#ff4b55"/></svg>