<svg enable-background="new 0 0 512.001 512.001" viewBox="0 0 512.001 512.001" xmlns="http://www.w3.org/2000/svg"><path d="m512 123.586h-512v-26.482c0-4.875 3.953-8.828 8.828-8.828h494.345c4.875 0 8.828 3.953 8.828 8.828z" fill="#ff4b55"/><path d="m0 388.414h512v26.483c0 4.875-3.953 8.828-8.828 8.828h-494.344c-4.875 0-8.828-3.953-8.828-8.828z" fill="#ff4b55"/><path d="m0 123.59h512v264.83h-512z" fill="#41479b"/><circle cx="256" cy="256" fill="#f5f5f5" r="114.76"/><path d="m233.979 316.344-17.704 2.951c-2.231.372-4.263-1.348-4.263-3.612v-6.661h21.966z" fill="#82afff"/><path d="m277.913 316.344 17.704 2.951c2.231.372 4.263-1.348 4.263-3.612v-6.661h-21.966v7.322z" fill="#82afff"/><path d="m252.285 197.248h-1.53c-1.837 0-3.489-1.023-4.312-2.664l-2.708-5.417 2.456-1.23 2.708 5.417c.354.708 1.066 1.148 1.856 1.148h1.53z" fill="#965032"/><path d="m219.894 195.376h10.149v2.746h-10.149z" fill="#965032" transform="matrix(.4472 .8944 -.8944 .4472 300.3374 -92.4574)"/><path d="m260.98 239.462-7.502-7.501c-1.63-1.63-2.566-3.886-2.566-6.193v-2.525c0-.926-.22-1.856-.634-2.685l-1.87-3.74c-.39-.779-1.174-1.266-2.047-1.266h-6.457c-1.92 0-3.645-1.066-4.503-2.782l-2.649-5.299 2.456-1.23 2.649 5.299c.39.779 1.174 1.266 2.047 1.266h6.457c1.92 0 3.645 1.066 4.503 2.782l1.87 3.74c.605 1.212.925 2.563.925 3.915v2.525c0 1.583.642 3.132 1.761 4.247l2.816 2.817v-12.792c0-3.468-1.194-6.868-3.361-9.578-2.554-3.197-3.961-7.204-3.961-11.294v-10.615h2.745v10.615c0 3.468 1.194 6.868 3.361 9.578 2.555 3.197 3.961 7.204 3.961 11.294v19.422z" fill="#965032"/><path d="m254.448 232.361h-4.076c-2.514 0-4.789-1.583-5.665-3.936l-1.032-2.782 2.574-.958 1.032 2.782c.478 1.287 1.719 2.148 3.091 2.148h4.076z" fill="#965032"/><path d="m257.837 183.26h2.747v38.301h-2.747z" fill="#965032" transform="matrix(.915 .4035 -.4035 .915 103.7082 -87.3814)"/><path d="m271.963 215.553h-13.271v-2.745h10.526v-13.271h2.745z" fill="#965032"/><path d="m246.793 228.825h-10.983c-3.033 0-5.492-2.458-5.492-5.492 0-3.033 2.458-5.492 5.492-5.492h10.984c3.033 0 5.492 2.458 5.492 5.492-.001 3.034-2.46 5.492-5.493 5.492z" fill="#73af00"/><path d="m272.421 228.825h-10.984c-3.033 0-5.492-2.458-5.492-5.492 0-3.033 2.458-5.492 5.492-5.492h10.984c3.033 0 5.492 2.458 5.492 5.492 0 3.034-2.46 5.492-5.492 5.492z" fill="#73af00"/><path d="m283.404 217.842h-14.644c-3.033 0-5.492-2.458-5.492-5.492 0-3.033 2.458-5.492 5.492-5.492h14.644c3.033 0 5.492 2.458 5.492 5.492-.001 3.033-2.459 5.492-5.492 5.492z" fill="#73af00"/><path d="m287.065 203.198h-25.628c-3.033 0-5.492-2.458-5.492-5.492 0-3.033 2.458-5.492 5.492-5.492h25.628c3.033 0 5.492 2.458 5.492 5.492 0 3.032-2.459 5.492-5.492 5.492z" fill="#73af00"/><path d="m272.421 188.553h-7.322c-3.033 0-5.492-2.458-5.492-5.492 0-3.033 2.458-5.492 5.492-5.492h7.322c3.033 0 5.492 2.458 5.492 5.492 0 3.033-2.46 5.492-5.492 5.492z" fill="#73af00"/><path d="m224.827 195.875h-3.661c-3.033 0-5.492-2.458-5.492-5.492 0-3.033 2.458-5.492 5.492-5.492h3.661c3.033 0 5.492 2.458 5.492 5.492-.001 3.034-2.46 5.492-5.492 5.492z" fill="#73af00"/><path d="m250.455 192.214h-10.984c-3.033 0-5.492-2.458-5.492-5.492 0-3.033 2.458-5.492 5.492-5.492h10.984c3.033 0 5.492 2.458 5.492 5.492-.002 3.034-2.46 5.492-5.492 5.492z" fill="#73af00"/><path d="m246.793 210.519h-21.966c-3.033 0-5.492-2.458-5.492-5.492 0-3.033 2.458-5.492 5.492-5.492h21.966c3.033 0 5.492 2.458 5.492 5.492 0 3.034-2.459 5.492-5.492 5.492z" fill="#73af00"/><path d="m310.862 287.055h-109.833c-4.044 0-7.322 3.278-7.322 7.322s3.278 7.322 7.322 7.322h29.289c0 4.044 3.278 7.322 7.322 7.322h36.611c4.044 0 7.322-3.278 7.322-7.322h29.289c4.044 0 7.322-3.278 7.322-7.322 0-4.043-3.278-7.322-7.322-7.322z" fill="#73af00"/><path d="m328.938 222.071c-.274-.55-1.701.103-2.593-.228-11.06-4.111-25.91-11.601-35.616-16.707l-1.949-3.085-18.398-8.941c-1.171-.569-2.582-.131-3.225 1l-.907 1.594c-.692 1.217-.235 2.765 1.006 3.411l17.518 9.114 4.95-.366 19.241 9.892s13.073 6.687 13.768 7.178 1.094 3.242 2.39 3.012c.93-.165 4.999-3.495 3.815-5.874z" fill="#be7855"/><path d="m207.589 292.547s1.22 5.416.076 6.026-7.246.61-7.093-.686c.152-1.297.992-5.873.992-5.873z" fill="#ffbe3c"/><path d="m217.733 289.648s-.992 4.042.992 4.195c1.983.152 13.195.076 13.501-.228s.686-1.068.686-1.068l-10.374-2.899z" fill="#ffbe3c"/><path d="m206.35 239.233s-2.727 6.483-3.719 28.946c-.264 5.976.458 4.576-2.517 23.797l3.53 1.843c1.028.536 2.262.498 3.254-.104l3.436-2.082s-1.678-21.508 3.814-33.865c0 0 2.899 5.34 2.899 9.305 0 3.966-.152 23.034-.152 23.034s6.407 1.068 9.305.763c0 0-1.831-41.378-3.661-51.122z" fill="#eaf3f5"/><path d="m206.864 236.487s-1.087.801-.515 2.745c0 0 8.352 3.604 16.189.515 0 0 .858-1.259-.228-2.803z" fill="#965032"/><path d="m195.691 216.657c-4.753 1.767-11.975 6.178-11.517 9.687s2.944 2.653 3.72 1.791 3.002-3.626 3.698-4.117 11.937-6.263 11.937-6.263l29.765-15.304s.228-1.487-1.545-2.689c-.001 0-18.21 10.259-36.058 16.895z" fill="#965032"/><path d="m209.724 199.419-.172 1.259s-.458 8.066 2.174 10.24c0 0 .572 1.658-.343 2.46s-9.953 5.377-9.953 5.377-2.346 4.863-2.289 7.608c0 0-2.231-.858-2.002-1.945.228-1.087 1.545-3.947 1.144-5.32s-1.888-.972-1.888-.972-.744.801.458 1.315l-.401 1.716-4.863 2.86 1.087 1.315s.057 10.068 6.006 11.383c0 0 3.146.228 6.865-6.865 0 0 2.002 3.546 1.315 6.636 0 0 6.521 3.546 15.445.458l.115-6.178s1.373 9.496 6.063 8.58c0 0 12.994-5.002 10.83-6.903-5.034-4.424-11.113-.685-11.113-.685-.295-6.426-.832-14.738-1.663-15.637-1.373-1.487-5.606-.686-6.445-2.593s-.61-5.262.305-9.153c.915-3.89-3.737-6.636-3.737-6.636z" fill="#ffbe3c"/><path d="m209.553 200.677s4.672 1.182 8.333-.267l1.602 3.966h.915s2.206-7.34-.723-7.254c0 0-.011-2.383-5.126-2.283-4.393.086-5.916 2.94-5.001 5.838z" fill="#464655"/><path d="m304.906 292.547s-1.22 5.416-.076 6.026 7.246.61 7.093-.686-.992-5.873-.992-5.873z" fill="#965032"/><path d="m294.762 289.648s.992 4.042-.992 4.195c-1.983.152-13.195.076-13.501-.228-.306-.305-.686-1.068-.686-1.068l10.374-2.899z" fill="#965032"/><path d="m306.146 239.233s2.727 6.483 3.719 28.946c.264 5.976-.458 4.576 2.517 23.797l-3.53 1.843c-1.028.536-2.262.498-3.254-.104l-3.436-2.082s1.678-21.508-3.814-33.865c0 0-2.899 5.34-2.899 9.305 0 3.966.152 23.034.152 23.034s-6.407 1.068-9.305.763c0 0 1.831-41.378 3.661-51.122z" fill="#eaf3f5"/><path d="m305.631 236.487s1.087.801.515 2.745c0 0-8.352 3.604-16.189.515 0 0-.858-1.259.228-2.803z" fill="#be7855"/><path d="m302.771 199.419.172 1.259s.458 8.066-2.174 10.24c0 0-.572 1.658.343 2.46s9.953 5.377 9.953 5.377 2.345 4.863 2.289 7.608c0 0 2.231-.858 2.002-1.945-.228-1.087-1.545-3.947-1.144-5.32s1.888-.972 1.888-.972.744.801-.458 1.315l.401 1.716 4.863 2.86-1.087 1.315s-.057 10.068-6.006 11.383c0 0-3.146.228-6.865-6.865 0 0-2.002 3.546-1.315 6.636 0 0-6.521 3.546-15.445.458l-.115-6.178s-1.373 9.496-6.063 8.58c0 0-12.994-5.002-10.83-6.903 5.034-4.424 11.113-.685 11.113-.685.295-6.426.832-14.738 1.663-15.637 1.373-1.487 5.605-.686 6.445-2.593s.61-5.262-.305-9.153c-.915-3.89 3.737-6.636 3.737-6.636z" fill="#965032"/><path d="m302.942 200.677s-4.672 1.182-8.333-.267l-1.602 3.966h-.915s-2.206-7.34.723-7.254c0 0 .011-2.383 5.125-2.283 4.394.086 5.918 2.94 5.002 5.838z" fill="#464655"/><path d="m224.461 203.734c-.382-.929.258-1.184.258-1.184s4.63-2.541 5.169-2.498c.89.072 1.982 1.636 1.982 2.972 0 1.335 1.739 4.801 5.314 5.663 0 0-4.462 6.063-10.655 5.235 0-.002.415-4.15-2.068-10.188z" fill="#eaf3f5"/><path d="m230.95 232.139c-1.372 0-2.484 1.186-2.484 2.649v30.3c0 7.322 3.433 32.95 27.458 40.271 24.025-7.322 27.458-32.95 27.458-40.271v-30.3c0-1.463-1.112-2.649-2.484-2.649z" fill="#82afff"/><path d="m283.383 265.089v-30.3c0-1.463-1.112-2.649-2.484-2.649h-24.974v25.628l24.135 24.135c2.672-7.054 3.323-13.647 3.323-16.814z" fill="#ffe15a"/><path d="m228.466 265.089v-30.3c0-1.463 1.112-2.649 2.484-2.649h24.974v25.628l-24.135 24.135c-2.672-7.054-3.323-13.647-3.323-16.814z" fill="#eaf3f5"/><path d="m239.732 281.118 6.353 6.719h17.696l3.751-4.808-4.315 1.726h-14.301z" fill="#8c5a28"/><path d="m246.575 272.448-.97 9.78-4.414-1.685s2.031-4.714 5.384-8.095z" fill="#f5f5f5"/><path d="m255.28 268.57h.652v16.651h-.652z" fill="#8c5a28"/><path d="m261.32 269.98h.652v15.245h-.652z" fill="#8c5a28"/><path d="m249.27 269.98h.652v15.245h-.652z" fill="#8c5a28"/><path d="m257.814 283.646h-4.403c-.299 0-.542-.243-.542-.542v-2.43c0-.299.243-.542.542-.542h4.403c.299 0 .542.243.542.542v2.43c-.001.299-.243.542-.542.542z" fill="#f5f5f5"/><path d="m257.814 278.961h-4.403c-.299 0-.542-.243-.542-.542v-2.43c0-.299.243-.542.542-.542h4.403c.299 0 .542.243.542.542v2.43c-.001.299-.243.542-.542.542z" fill="#f5f5f5"/><path d="m257.814 274.646h-4.403c-.299 0-.542-.243-.542-.542v-2.43c0-.299.243-.542.542-.542h4.403c.299 0 .542.243.542.542v2.43c-.001.299-.243.542-.542.542z" fill="#f5f5f5"/><path d="m263.479 283.646h-3.662c-.299 0-.542-.243-.542-.542v-2.43c0-.299.243-.542.542-.542h3.662c.299 0 .542.243.542.542v2.43c-.001.299-.243.542-.542.542z" fill="#f5f5f5"/><path d="m263.479 279.332h-3.662c-.299 0-.542-.243-.542-.542v-1.879c0-.299.243-.542.542-.542h3.662c.299 0 .542.243.542.542v1.879c-.001.3-.243.542-.542.542z" fill="#f5f5f5"/><path d="m263.479 275.057h-3.662c-.299 0-.542-.243-.542-.542v-1.404c0-.299.243-.542.542-.542h3.662c.299 0 .542.243.542.542v1.404c-.001.3-.243.542-.542.542z" fill="#f5f5f5"/><path d="m251.427 283.646h-3.662c-.299 0-.542-.243-.542-.542v-2.43c0-.299.243-.542.542-.542h3.662c.299 0 .542.243.542.542v2.43c0 .299-.243.542-.542.542z" fill="#f5f5f5"/><path d="m251.427 279.332h-3.662c-.299 0-.542-.243-.542-.542v-1.879c0-.299.243-.542.542-.542h3.662c.299 0 .542.243.542.542v1.879c0 .3-.243.542-.542.542z" fill="#f5f5f5"/><path d="m251.427 275.057h-3.662c-.299 0-.542-.243-.542-.542v-1.404c0-.299.243-.542.542-.542h3.662c.299 0 .542.243.542.542v1.404c0 .3-.243.542-.542.542z" fill="#f5f5f5"/><path d="m261.318 269.984v1.97l-2.9-1.003z" fill="#ff4b55"/><path d="m249.274 269.984v1.97l-2.899-1.003z" fill="#ff4b55"/><path d="m255.308 268.568v1.97l-2.9-1.003z" fill="#ff4b55"/><path d="m277.716 287.055h-43.584c.649 1.235 1.361 2.457 2.159 3.661h39.264c.801-1.203 1.511-2.426 2.161-3.661z" fill="#4173cd"/><path d="m275.557 290.717h-39.265c1.734 2.61 3.86 5.089 6.408 7.322h26.447c2.55-2.233 4.675-4.713 6.41-7.322z" fill="#73af00"/><path d="m242.701 298.039c3.513 3.079 7.826 5.676 13.224 7.322 5.399-1.645 9.71-4.244 13.224-7.322z" fill="#ffe15a"/><path d="m251.222 259.918s-.268.094-.556.061c-.223-.096-.679-.11-.404-.956.134-.419.414-1.011.211-1.163-.164-.191-.342-.397-.533-.617-.381-.44-.809-.938-1.278-1.48-.962-1.06-2.102-2.279-3.432-3.48-.663-.602-1.348-1.225-2.046-1.857-.722-.608-1.388-1.29-2.174-1.856-.445-.234-1.01-.351-1.504-.534-.482-.194-.785-.561-1.138-.872-.691-.638-1.37-1.266-2.028-1.874-1.336-1.196-2.509-2.382-3.512-3.402-.973-.973-1.76-1.818-2.314-2.435-.529-.587-.495-1.48.073-2.028l1.626-1.569c.568-.548 1.462-.55 2.029-.001.596.576 1.414 1.393 2.35 2.4.983 1.039 2.127 2.254 3.274 3.631.584.68 1.186 1.382 1.8 2.094.298.364.653.679.831 1.167.166.5.263 1.069.48 1.522.538.806 1.195 1.496 1.778 2.24.607.718 1.204 1.426 1.782 2.11 1.153 1.372 2.33 2.554 3.356 3.553.525.488 1.006.934 1.433 1.33.213.198.413.383.598.555.146.209.747-.051 1.17-.169.855-.245.853.212.941.438.022.289-.081.554-.081.554z" fill="#be7855"/><path d="m233.292 262.801c-.282 0-.567-.086-.813-.268-.609-.45-.74-1.309-.289-1.92l13.043-17.694c.449-.608 1.303-.744 1.92-.289.609.45.74 1.309.289 1.92l-13.043 17.694c-.27.363-.686.557-1.107.557z" fill="#965032"/><path d="m243.742 241.75 6.789 4.5 2.897-4.043-6.33-5.11z" fill="#f5f5f5"/><path d="m261.781 240.01 17.396 21.452s2.445.111 2.112-1.834l-18.007-21.119z" fill="#965032"/><path d="m257.891 242.955s4.891-.889 6.947-3.946l2.779 3.279s-4.557 3.223-5.002 6.724c0 .001-3.723-.999-4.724-6.057z" fill="#eaf3f5"/><path d="m276.676 240.843c-.32 0-.627-.173-.787-.476-.495-.938-.58-1.785-.254-2.521.457-1.032 1.532-1.334 1.652-1.365.484-.108.96.167 1.084.639.121.472-.16.956-.63 1.08-.099.031-.391.16-.483.372-.087.209-.014.553.205.969.229.434.063.972-.373 1.202-.133.069-.274.1-.414.1z" fill="#965032"/><path d="m262.384 254.079c0-.32-.173-.627-.476-.787-.938-.495-1.785-.58-2.521-.254-1.032.457-1.334 1.532-1.365 1.652-.108.484.167.96.639 1.084.472.121.956-.16 1.08-.63.031-.099.16-.391.372-.483.209-.087.553-.014.969.205.434.23.972.063 1.202-.373.069-.133.1-.274.1-.414z" fill="#965032"/><path d="m277.268 238.843-16.376 16.08 3.853 4.298 16.006-16.154z" fill="#eaf3f5"/><path d="m194.088 215.665c1.097-.254 2.059 1.22 1.068 2.289-.992 1.068-3.857 2.997-4.729 2.823-1.525-.307-2.593-3.664 3.661-5.112z" fill="#ffbe3c"/><path d="m318.343 217.209c-1.017-.254-1.909 1.22-.99 2.289.919 1.068 3.576 2.997 4.385 2.823 1.414-.307 2.405-3.663-3.395-5.112z" fill="#965032"/><path d="m280.899 232.139c1.372 0 2.484 1.186 2.484 2.649v30.3c0 7.322-3.433 32.95-27.458 40.271-24.025-7.322-27.458-32.95-27.458-40.271v-30.3c0-1.463 1.112-2.649 2.484-2.649zm0-1.831h-49.947c-2.379 0-4.314 2.009-4.314 4.48v30.3c0 1.749.236 10.979 4.893 20.914 4.951 10.561 13.203 17.86 23.863 21.11l.534.162.534-.162c10.66-3.249 18.912-10.549 23.863-21.11 4.657-9.934 4.893-19.164 4.893-20.914v-30.3c-.005-2.469-1.94-4.48-4.319-4.48z" fill="#464655"/><path d="m299.879 305.79c-7.779-2.607-16.126-1.405-23.998 3.847-10.061 6.707-16.73 6.707-19.936 6.707s-9.875 0-19.936-6.707c-7.87-5.248-16.22-6.453-23.998-3.848v7.848c4.902-2.343 11.811-3.324 19.936 2.091 11.906 7.937 20.38 7.937 23.998 7.937s12.092 0 23.998-7.937c8.125-5.42 15.034-4.437 19.936-2.092z" fill="#eaf3f5"/><path d="m255.945 347.464c-51.477 0-93.357-41.881-93.357-93.357s41.881-93.357 93.357-93.357 93.357 41.881 93.357 93.357-41.88 93.357-93.357 93.357zm0-183.054c-49.459 0-89.697 40.236-89.697 89.697s40.238 89.697 89.697 89.697 89.697-40.236 89.697-89.697-40.238-89.697-89.697-89.697z" fill="#965032"/><g fill="#73af00"><path d="m153.817 261.886s-.382-11.441 10.602-11.441c0 0 .228 4.5-3.737 6.483-3.207 1.603-6.865 4.958-6.865 4.958z"/><path d="m175.023 261.886s.382-11.441-10.602-11.441c0 0-.228 4.5 3.737 6.483 3.208 1.603 6.865 4.958 6.865 4.958z"/><path d="m357.999 250.445s.382 11.441-10.602 11.441c0 0-.228-4.5 3.737-6.483 3.207-1.604 6.865-4.958 6.865-4.958z"/><path d="m336.793 250.445s-.382 11.441 10.602 11.441c0 0 .228-4.5-3.737-6.483-3.209-1.604-6.865-4.958-6.865-4.958z"/><path d="m261.628 358.256s-11.441.382-11.441-10.602c0 0 4.5-.228 6.483 3.737 1.604 3.207 4.958 6.865 4.958 6.865z"/><path d="m261.628 337.05s-11.441-.382-11.441 10.602c0 0 4.5.228 6.483-3.737 1.604-3.208 4.958-6.865 4.958-6.865z"/><path d="m250.188 154.075s11.441-.382 11.441 10.602c0 0-4.5.228-6.483-3.737-1.605-3.208-4.958-6.865-4.958-6.865z"/><path d="m250.188 175.281s11.441.382 11.441-10.602c0 0-4.5-.228-6.483 3.737-1.605 3.207-4.958 6.865-4.958 6.865z"/><path d="m187.763 332.399s-8.36-7.82-.594-15.586c0 0 3.343 3.02 1.942 7.226-1.132 3.402-1.348 8.36-1.348 8.36z"/><path d="m202.759 317.405s-7.82-8.36-15.586-.594c0 0 3.02 3.343 7.226 1.942 3.401-1.134 8.36-1.348 8.36-1.348z"/><path d="m324.052 179.932s8.36 7.82.594 15.586c0 0-3.343-3.02-1.942-7.226 1.133-3.402 1.348-8.36 1.348-8.36z"/><path d="m309.056 194.926s7.82 8.36 15.586.594c0 0-3.02-3.343-7.226-1.942-3.401 1.133-8.36 1.348-8.36 1.348z"/><path d="m332.142 324.309s-7.82 8.36-15.586.594c0 0 3.02-3.343 7.226-1.942 3.402 1.134 8.36 1.348 8.36 1.348z"/><path d="m317.147 309.314s-8.36 7.82-.594 15.586c0 0 3.343-3.02 1.942-7.226-1.134-3.402-1.348-8.36-1.348-8.36z"/><path d="m179.674 188.021s7.82-8.36 15.586-.594c0 0-3.02 3.343-7.226 1.942-3.402-1.134-8.36-1.348-8.36-1.348z"/><path d="m194.669 203.016s8.36-7.82.594-15.586c0 0-3.343 3.02-1.942 7.226 1.134 3.402 1.348 8.36 1.348 8.36z"/><path d="m163.778 300.519s-4.73-10.424 5.417-14.627c0 0 1.933 4.069-.972 7.42-2.35 2.708-4.445 7.207-4.445 7.207z"/><path d="m183.37 292.404s-4.025-10.716-14.173-6.513c0 0 1.511 4.245 5.934 4.559 3.575.254 8.239 1.954 8.239 1.954z"/><path d="m348.038 211.811s4.73 10.424-5.417 14.627c0 0-1.933-4.07.972-7.42 2.349-2.708 4.445-7.207 4.445-7.207z"/><path d="m328.446 219.927s4.025 10.716 14.173 6.513c0 0-1.511-4.245-5.934-4.559-3.576-.254-8.239-1.954-8.239-1.954z"/><path d="m300.261 348.296s-10.424 4.73-14.627-5.417c0 0 4.069-1.933 7.42.972 2.709 2.349 7.207 4.445 7.207 4.445z"/><path d="m292.146 328.704s-10.716 4.025-6.513 14.173c0 0 4.245-1.511 4.559-5.934.255-3.577 1.954-8.239 1.954-8.239z"/><path d="m211.555 164.034s10.424-4.73 14.627 5.417c0 0-4.07 1.933-7.42-.972-2.709-2.349-7.207-4.445-7.207-4.445z"/><path d="m219.67 183.627s10.716-4.025 6.513-14.173c0 0-4.245 1.511-4.559 5.934-.255 3.576-1.954 8.239-1.954 8.239z"/><path d="m222.125 352.674s-10.716-4.025-6.513-14.173c0 0 4.245 1.511 4.559 5.934.254 3.576 1.954 8.239 1.954 8.239z"/><path d="m230.24 333.082s-10.424-4.73-14.627 5.417c0 0 4.07 1.933 7.42-.972 2.708-2.349 7.207-4.445 7.207-4.445z"/><path d="m289.691 159.657s10.716 4.025 6.513 14.173c0 0-4.245-1.511-4.559-5.934-.255-3.577-1.954-8.239-1.954-8.239z"/><path d="m281.576 179.249s10.424 4.73 14.627-5.417c0 0-4.069-1.933-7.42.972-2.708 2.349-7.207 4.445-7.207 4.445z"/><path d="m352.416 289.949s-4.025 10.716-14.173 6.513c0 0 1.511-4.245 5.934-4.559 3.577-.255 8.239-1.954 8.239-1.954z"/><path d="m332.825 281.834s-4.73 10.424 5.417 14.627c0 0 1.933-4.069-.972-7.42-2.35-2.709-4.445-7.207-4.445-7.207z"/><path d="m159.399 222.381s4.025-10.716 14.173-6.513c0 0-1.511 4.245-5.934 4.559-3.577.256-8.239 1.954-8.239 1.954z"/><path d="m178.991 230.497s4.73-10.424-5.417-14.627c0 0-1.933 4.07.972 7.42 2.35 2.708 4.445 7.207 4.445 7.207z"/><path d="m156.895 281.693s-2.606-11.147 8.167-13.29c0 0 1.102 4.369-2.401 7.087-2.833 2.199-5.766 6.203-5.766 6.203z"/><path d="m177.693 277.556s-1.858-11.296-12.63-9.153c0 0 .653 4.458 4.93 5.63 3.459.946 7.7 3.523 7.7 3.523z"/><path d="m354.921 230.637s2.606 11.147-8.167 13.29c0 0-1.102-4.369 2.401-7.087 2.833-2.199 5.766-6.203 5.766-6.203z"/><path d="m334.122 234.775s1.858 11.296 12.63 9.153c0 0-.653-4.458-4.93-5.63-3.458-.947-7.7-3.523-7.7-3.523z"/><path d="m281.435 355.179s-11.147 2.606-13.29-8.167c0 0 4.369-1.102 7.087 2.401 2.2 2.833 6.203 5.766 6.203 5.766z"/><path d="m277.298 334.38s-11.296 1.858-9.153 12.63c0 0 4.458-.653 5.63-4.93.947-3.458 3.523-7.7 3.523-7.7z"/><path d="m230.381 157.152s11.147-2.606 13.29 8.167c0 0-4.369 1.102-7.087-2.401-2.2-2.833-6.203-5.766-6.203-5.766z"/><path d="m234.518 177.951s11.296-1.858 9.153-12.63c0 0-4.458.653-5.63 4.93-.947 3.458-3.523 7.7-3.523 7.7z"/><path d="m203.945 344.228s-9.725-6.039-3.623-15.171c0 0 3.869 2.31 3.314 6.709-.447 3.559.309 8.462.309 8.462z"/><path d="m215.727 326.596s-9.301-6.674-15.403 2.458c0 0 3.615 2.69 7.467.494 3.115-1.774 7.936-2.952 7.936-2.952z"/><path d="m307.87 168.102s9.725 6.039 3.623 15.171c0 0-3.869-2.31-3.314-6.709.448-3.557-.309-8.462-.309-8.462z"/><path d="m296.089 185.734s9.301 6.674 15.403-2.458c0 0-3.615-2.69-7.467-.494-3.115 1.774-7.936 2.952-7.936 2.952z"/><path d="m343.972 308.128s-6.039 9.725-15.171 3.623c0 0 2.309-3.869 6.709-3.314 3.557.448 8.462-.309 8.462-.309z"/><path d="m326.339 296.346s-6.674 9.301 2.458 15.403c0 0 2.69-3.615.494-7.467-1.775-3.116-2.952-7.936-2.952-7.936z"/><path d="m167.844 204.203s6.039-9.725 15.171-3.623c0 0-2.31 3.869-6.709 3.314-3.557-.448-8.462.309-8.462.309z"/><path d="m185.477 215.985s6.674-9.301-2.458-15.403c0 0-2.69 3.615-.494 7.467 1.774 3.115 2.952 7.936 2.952 7.936z"/><path d="m174.201 317.641s-6.674-9.301 2.458-15.403c0 0 2.69 3.615.494 7.467-1.775 3.115-2.952 7.936-2.952 7.936z"/><path d="m191.833 305.859s-6.039-9.725-15.171-3.623c0 0 2.31 3.869 6.709 3.314 3.557-.448 8.462.309 8.462.309z"/><path d="m337.615 194.69s6.674 9.301-2.458 15.403c0 0-2.69-3.615-.494-7.467 1.774-3.115 2.952-7.936 2.952-7.936z"/><path d="m319.983 206.472s6.039 9.725 15.171 3.623c0 0-2.31-3.869-6.709-3.314-3.557.448-8.462-.309-8.462-.309z"/><path d="m317.383 337.872s-9.301 6.674-15.403-2.458c0 0 3.615-2.69 7.467-.494 3.115 1.775 7.936 2.952 7.936 2.952z"/><path d="m305.602 320.24s-9.725 6.039-3.623 15.171c0 0 3.869-2.31 3.315-6.709-.449-3.557.308-8.462.308-8.462z"/><path d="m194.433 174.458s9.301-6.674 15.403 2.458c0 0-3.615 2.69-7.467.494-3.115-1.774-7.936-2.952-7.936-2.952z"/><path d="m206.214 192.091s9.725-6.039 3.623-15.171c0 0-3.869 2.31-3.314 6.709.448 3.557-.309 8.462-.309 8.462z"/><path d="m241.602 357.41s-11.296-1.858-9.153-12.63c0 0 4.458.653 5.63 4.93.946 3.458 3.523 7.7 3.523 7.7z"/><path d="m245.739 336.611s-11.147-2.606-13.29 8.167c0 0 4.369 1.102 7.087-2.401 2.199-2.833 6.203-5.766 6.203-5.766z"/><path d="m270.214 154.92s11.296 1.858 9.153 12.63c0 0-4.458-.653-5.63-4.93-.946-3.458-3.523-7.7-3.523-7.7z"/><path d="m266.077 175.719s11.147 2.606 13.29-8.167c0 0-4.369-1.102-7.087 2.401-2.199 2.833-6.203 5.766-6.203 5.766z"/><path d="m357.153 270.472s-1.858 11.296-12.63 9.153c0 0 .653-4.458 4.93-5.63 3.459-.947 7.7-3.523 7.7-3.523z"/><path d="m336.355 266.335s-2.606 11.147 8.167 13.29c0 0 1.102-4.369-2.401-7.087-2.835-2.2-5.766-6.203-5.766-6.203z"/><path d="m154.662 241.859s1.858-11.296 12.63-9.153c0 0-.653 4.458-4.93 5.63-3.458.947-7.7 3.523-7.7 3.523z"/><path d="m175.461 245.996s2.606-11.147-8.167-13.29c0 0-1.102 4.369 2.401 7.087 2.833 2.2 5.766 6.203 5.766 6.203z"/></g></svg>