<svg enable-background="new 0 0 512.001 512.001" viewBox="0 0 512.001 512.001" xmlns="http://www.w3.org/2000/svg"><path d="m0 311.908h512v102.988c0 4.875-3.953 8.828-8.828 8.828h-494.344c-4.875 0-8.828-3.953-8.828-8.828z" fill="#73af00"/><path d="m8.828 88.276h494.345c4.875 0 8.828 3.953 8.828 8.828v102.988h-512.001v-102.988c0-4.875 3.953-8.828 8.828-8.828z" fill="#ff4b55"/><path d="m0 200.09h512v111.81h-512z" fill="#ffe15a"/><path d="m244.598 205.957s-.227.284-.653.817c-.355.492-.888 1.248-1.47 2.254-1.145 1.999-2.347 5.098-2.38 8.792-.012 1.801.36 3.988.974 5.727.666 1.92 1.771 3.756 3.168 5.396 1.399 1.655 3.268 2.931 5.267 3.873.991.503 2.079.792 3.158 1.058.535.163 1.105.171 1.654.279.276.052.562.029.841.051l.422.019.211.011.105.006.053.003.026.001c-.085.003.227-.004-.184.007.684-.04 1.514-.045 2.078-.114.492-.115.906-.095 1.47-.262 1.08-.266 2.167-.555 3.158-1.058 1.998-.942 3.868-2.218 5.267-3.873 1.397-1.64 2.502-3.476 3.168-5.396.638-1.953.979-3.822.974-5.736-.031-3.678-1.234-6.788-2.379-8.785-.578-1.002-1.113-1.763-1.494-2.276-.396-.505-.607-.776-.607-.776l-.053-.067c-.381-.486-.295-1.187.191-1.568.384-.3.904-.309 1.291-.061 0 0 .326.209.937.6.578.434 1.474 1.047 2.439 2.039 1.937 1.918 4.451 5.334 5.358 10.298.449 2.376.498 5.25-.121 8.075-.6 2.854-1.817 5.805-3.782 8.387-1.93 2.594-4.523 4.888-7.606 6.435-1.521.811-3.176 1.4-4.874 1.81-.814.239-1.847.338-2.767.483-.862.095-1.475.097-2.226.15l-.292.001-.082-.004-.164-.008-.328-.017-.657-.035c-.437-.035-.876-.029-1.309-.104-.863-.152-1.741-.223-2.583-.466-1.698-.409-3.354-.999-4.874-1.81-3.083-1.547-5.676-3.842-7.606-6.435-1.964-2.583-3.181-5.534-3.782-8.387-.642-3.04-.562-5.596-.12-8.084.905-4.949 3.421-8.377 5.357-10.291.961-.988 1.86-1.607 2.463-2.061.58-.364.89-.559.89-.559.526-.33 1.22-.172 1.55.354.26.418.213.943-.077 1.307z" fill="#73af00"/><path d="m253.782 293.866v13.971c0 1.394-1.685 2.092-2.67 1.107l-.769-.769c-.639-.639-.998-1.505-.998-2.408v-11.901z" fill="#ff4b55"/><path d="m247.126 291.648v10.141c0 .609.242 1.194.673 1.625l1.545 1.545v-13.311z" fill="#ffe15a"/><path d="m244.908 291.648v5.442c0 .777.309 1.522.857 2.071l1.361 1.361v-8.874z" fill="#73af00"/><path d="m258.218 293.866v13.971c0 1.394 1.685 2.092 2.67 1.107l.769-.769c.639-.639.998-1.505.998-2.408v-11.901z" fill="#ff4b55"/><path d="m264.873 291.648v10.141c0 .609-.242 1.194-.673 1.625l-1.545 1.545v-13.311z" fill="#ffe15a"/><path d="m267.092 291.648v5.442c0 .777-.309 1.522-.857 2.071l-1.361 1.361v-8.874z" fill="#73af00"/><path d="m267.092 251.715 24.403-17.748v36.498c0 10.474-8.491 18.964-18.964 18.964-3.554 0-7.037-.999-10.051-2.882l-13.135-8.21v-26.93z" fill="#ff4b55"/><path d="m282.621 240.422v25.607c0 10.474-8.491 18.964-18.964 18.964-1.575 0-3.127-.227-4.64-.61l-9.673-6.046v-26.93l17.748.308z" fill="#ffe15a"/><path d="m275.966 245.261v16.531c0 10.474-8.491 18.964-18.964 18.964-1.575 0-3.128-.227-4.64-.61l-3.018-1.886v-26.853l17.748.308z" fill="#73af00"/><path d="m292.826 229.974 9.762-4.88-7.1 8.873h-3.993z" fill="#f5f5f5"/><path d="m280.403 262.807 24.403-17.748v36.498c0 10.474-8.491 18.964-18.964 18.964-3.554 0-7.037-.999-10.051-2.882l-13.135-8.21v-26.929z" fill="#ff4b55"/><path d="m289.277 256.354v16.531c0 10.474-8.491 18.964-18.964 18.964-1.575 0-3.127-.227-4.64-.61l-3.018-1.886v-26.853l17.748.308z" fill="#73af00"/><path d="m306.137 241.066 9.762-4.881-7.1 8.874h-3.993z" fill="#f5f5f5"/><path d="m273.747 258.37 24.403-17.748v36.498c0 10.474-8.491 18.964-18.964 18.964-3.554 0-7.037-.999-10.051-2.882l-13.135-8.21v-26.93z" fill="#ff4b55"/><path d="m289.277 247.076v25.607c0 10.474-8.491 18.964-18.964 18.964-1.575 0-3.127-.227-4.64-.61l-9.674-6.045v-26.93l17.748.308z" fill="#ffe15a"/><path d="m282.621 251.917v16.531c0 10.474-8.491 18.964-18.964 18.964-1.575 0-3.127-.227-4.64-.61l-3.018-1.885v-26.853l17.748.308z" fill="#73af00"/><path d="m299.482 236.629 9.761-4.881-7.1 8.874h-3.992z" fill="#f5f5f5"/><path d="m244.908 251.715-24.403-17.748v36.498c0 10.474 8.491 18.964 18.964 18.964 3.554 0 7.037-.999 10.051-2.882l13.135-8.21v-26.93z" fill="#ff4b55"/><path d="m229.378 240.422v25.607c0 10.474 8.491 18.964 18.964 18.964 1.575 0 3.127-.227 4.64-.61l9.673-6.046v-26.93l-17.748.308z" fill="#ffe15a"/><path d="m236.034 245.261v16.531c0 10.474 8.491 18.964 18.964 18.964 1.575 0 3.128-.227 4.64-.61l3.018-1.886v-26.853l-17.748.308z" fill="#73af00"/><path d="m219.173 229.974-9.761-4.88 7.1 8.873h3.992z" fill="#f5f5f5"/><path d="m231.597 262.807-24.403-17.748v36.498c0 10.474 8.491 18.964 18.964 18.964 3.554 0 7.037-.999 10.051-2.882l13.135-8.21v-26.929z" fill="#ff4b55"/><path d="m222.723 256.354v16.531c0 10.474 8.491 18.964 18.964 18.964 1.575 0 3.127-.227 4.64-.61l3.018-1.886v-26.853l-17.748.308z" fill="#73af00"/><path d="m205.862 241.066-9.761-4.881 7.1 8.874h3.992z" fill="#f5f5f5"/><path d="m238.252 258.37-24.403-17.748v36.498c0 10.474 8.491 18.964 18.964 18.964 3.554 0 7.037-.999 10.051-2.882l13.135-8.21v-26.93z" fill="#ff4b55"/><path d="m222.723 247.076v25.607c0 10.474 8.491 18.964 18.964 18.964 1.575 0 3.127-.227 4.64-.61l9.673-6.046v-26.93l-17.748.308z" fill="#ffe15a"/><path d="m229.378 251.917v16.531c0 10.474 8.491 18.964 18.964 18.964 1.575 0 3.127-.227 4.64-.61l3.018-1.886v-26.853l-17.748.308z" fill="#73af00"/><path d="m226.947 291.354-2.925-2.925c-1.773-1.773-1.726-4.664.106-6.378l48.417-45.496 6.275 6.275-45.496 48.417c-1.713 1.833-4.603 1.882-6.377.107z" fill="#ffbe5a"/><circle cx="225.49" cy="289.891" fill="#ffbe5a" r="2.218"/><ellipse cx="275.685" cy="239.695" fill="#f5f5f5" rx="4.436" ry="2.218" transform="matrix(-.7071 -.7071 .7071 -.7071 301.1342 604.1237)"/><path d="m285.052 291.354 2.925-2.925c1.773-1.773 1.726-4.664-.106-6.378l-48.417-45.496-6.275 6.275 45.496 48.417c1.714 1.833 4.604 1.882 6.377.107z" fill="#ffbe5a"/><circle cx="286.51" cy="289.891" fill="#ffbe5a" r="2.218"/><ellipse cx="236.327" cy="239.701" fill="#f5f5f5" rx="4.436" ry="2.218" transform="matrix(.7071 -.7071 .7071 .7071 -100.2758 237.3154)"/><ellipse cx="256" cy="266.141" fill="#ffbe5a" rx="19.616" ry="23.294"/><path d="m255.999 245.059 1.042 4.52 2.387-3.977-.407 4.62 3.499-3.044-1.814 4.268 4.268-1.814-3.045 3.499 4.62-.407-3.976 2.387 4.519 1.041-4.519 1.041 3.976 2.387-4.62-.406 3.045 3.497-4.268-1.813 1.814 4.268-3.499-3.044.407 4.619-2.387-3.976-1.042 4.519-1.04-4.519-2.387 3.976.406-4.619-3.498 3.044 1.813-4.268-4.267 1.813 3.044-3.497-4.619.406 3.975-2.387-4.518-1.041 4.518-1.041-3.975-2.387 4.619.407-3.044-3.499 4.267 1.814-1.813-4.268 3.498 3.044-.406-4.62 2.387 3.977z" fill="#ff4b55"/><path d="m280.541 265.719s-7.349 1.941-12.132-2.08c-5.316-4.469-9.302-6.579-11.01-7.371-.585-.271-1.239-.271-1.825-.001-1.224.565-3.476 1.736-5.468 3.49-2.912 2.566-11.855 7.626-13.657 7.626v11.029l14.073 12.196 16.639-.486z" fill="#73af00"/><path d="m255.999 294.975c-14.068 0-25.513-12.938-25.513-28.84s11.444-28.84 25.513-28.84 25.513 12.938 25.513 28.84-11.445 28.84-25.513 28.84zm0-51.025c-10.398 0-18.857 9.953-18.857 22.185s8.459 22.185 18.857 22.185 18.857-9.953 18.857-22.185-8.459-22.185-18.857-22.185z" fill="#3cc8ff"/><g fill="#ffbe5a"><path d="m252.177 288.947.489 1.465 1.545.012c.2.001.282.257.122.375l-1.242.918.466 1.473c.061.191-.157.349-.32.232l-1.257-.898-1.257.898c-.162.116-.38-.042-.32-.232l.466-1.473-1.242-.918c-.161-.119-.078-.374.122-.375l1.545-.012.489-1.465c.063-.19.331-.19.394 0z"/><path d="m245.242 285.965.489 1.465 1.545.012c.2.001.282.257.122.375l-1.242.918.466 1.473c.061.191-.157.349-.32.232l-1.257-.898-1.257.898c-.162.116-.38-.042-.32-.232l.466-1.473-1.242-.918c-.161-.119-.078-.374.122-.375l1.545-.012.489-1.465c.063-.19.331-.19.394 0z"/><path d="m239.673 280.904.489 1.465 1.545.012c.2.001.282.257.122.375l-1.242.918.466 1.473c.061.191-.157.349-.32.232l-1.257-.898-1.257.898c-.162.116-.38-.042-.32-.232l.466-1.473-1.242-.918c-.161-.119-.078-.374.122-.375l1.545-.012.489-1.465c.063-.19.331-.19.394 0z"/><path d="m235.875 274.167.489 1.465 1.545.012c.2.001.282.257.122.375l-1.242.918.466 1.473c.061.191-.157.349-.32.232l-1.257-.898-1.257.898c-.162.116-.38-.042-.32-.232l.466-1.473-1.242-.918c-.161-.119-.078-.374.122-.375l1.545-.012.489-1.465c.063-.19.331-.19.394 0z"/><path d="m234.199 266.335.489 1.465 1.545.012c.2.001.282.257.122.375l-1.242.918.466 1.473c.061.191-.157.349-.32.232l-1.257-.898-1.257.898c-.162.116-.38-.042-.32-.232l.466-1.473-1.242-.918c-.161-.119-.078-.374.122-.375l1.545-.012.489-1.465c.062-.19.331-.19.394 0z"/><path d="m259.812 288.947-.489 1.465-1.545.012c-.2.001-.283.257-.122.375l1.242.918-.466 1.473c-.061.191.157.349.32.232l1.257-.898 1.257.898c.162.116.38-.042.32-.232l-.466-1.473 1.242-.918c.161-.119.078-.374-.122-.375l-1.545-.012-.489-1.465c-.063-.19-.331-.19-.394 0z"/><path d="m266.747 285.965-.489 1.465-1.545.012c-.2.001-.282.257-.122.375l1.242.918-.466 1.473c-.061.191.157.349.32.232l1.257-.898 1.257.898c.162.116.38-.042.32-.232l-.466-1.473 1.242-.918c.161-.119.078-.374-.122-.375l-1.545-.012-.489-1.465c-.063-.19-.331-.19-.394 0z"/><path d="m272.316 280.904-.489 1.465-1.545.012c-.2.001-.282.257-.122.375l1.242.918-.466 1.473c-.061.191.157.349.32.232l1.257-.898 1.257.898c.162.116.38-.042.32-.232l-.466-1.473 1.242-.918c.161-.119.078-.374-.122-.375l-1.545-.012-.489-1.465c-.062-.19-.331-.19-.394 0z"/><path d="m276.114 274.167-.489 1.465-1.545.012c-.2.001-.282.257-.122.375l1.242.918-.466 1.473c-.061.191.157.349.32.232l1.257-.898 1.257.898c.162.116.38-.042.32-.232l-.466-1.473 1.242-.918c.161-.119.078-.374-.122-.375l-1.545-.012-.489-1.465c-.063-.19-.331-.19-.394 0z"/><path d="m277.79 266.335-.489 1.465-1.545.012c-.2.001-.282.257-.122.375l1.242.918-.466 1.473c-.061.191.157.349.32.232l1.257-.898 1.257.898c.162.116.38-.042.32-.232l-.466-1.473 1.242-.918c.161-.119.078-.374-.122-.375l-1.545-.012-.489-1.465c-.062-.19-.33-.19-.394 0z"/></g><path d="m246.361 280.357.737 3.526h.318v-2.406s.524 1.678 1.266 2.406h.6c-.287-.369-.803-1.134-.803-1.927 0-1.091.868-1.24.868-2.407h.744v4.333h.435l.806-3.861s.664 2.415 1.914 3.861h.556c-.401-.589-1.234-2.109-1.081-4.407 0 0 1.191-.596 1.191-2.208v-2.294c0-.429.349-.778.778-.778h.535s-.796-1.544-1.647-1.768v-.968l-.641.969c-.612.132-.973.698-.973 1.304v1.397c0 .429-.348.778-.778.778h-2.781c-.823 0-2.142.823-2.142 1.878s.791 1.747.791 1.747z" fill="#f5f5f5"/><path d="m258.819 276.844h-.255c-2.016.11-3.142 1.436-3.142 1.436l2.045 2.045v3.848h2.447v-3.848l2.045-2.045c.001-.001-1.124-1.326-3.14-1.436z" fill="#ffbe5a"/><path d="m263.12 270.55h.739v13.634h-.739z" fill="#f5f5f5"/><path d="m263.511 270.445-3.987 4.819s-.52-2.323 1.803-4.61l-5.13.936s1.56-2.912 5.65-2.6l-4.194-3.501s3.605-.207 5.442 2.496c0 0 1.039-3.119 3.951-3.258l-2.403 3.651s2.403-1.225 5.731-.15l-4.957 1.318s2.773.277 3.917 4.333l-4.298-2.946s1.318 1.56.832 4.61z" fill="#f5f5f5"/><path d="m212.518 236.629-9.762-4.881 7.1 8.874h3.993z" fill="#f5f5f5"/><path d="m262.94 230.978 26.337-8.104-13.981-5.242c-2.49-.935-5.129-1.412-7.789-1.412h-2.633c-1.225 0-2.218.993-2.218 2.218v2.218h-6.657-6.655v-2.218c0-1.225-.993-2.218-2.218-2.218h-2.633c-2.66 0-5.299.479-7.789 1.412l-13.981 5.242 26.337 8.104c1.31.403 1.944 1.886 1.332 3.113l-3.266 6.531h17.748l-3.266-6.531c-.613-1.226.021-2.709 1.332-3.113z" fill="#825546"/><circle cx="256" cy="222.87" fill="#f5f5f5" r="4.436"/><path d="m258.218 222.875c0 1.225-.993 2.218-2.218 2.218h-8.874l3.787-3.787c.416-.416.98-.65 1.569-.65h3.517c1.226.001 2.219.994 2.219 2.219z" fill="#ffbe5a"/></svg>