<svg enable-background="new 0 0 512.001 512.001" viewBox="0 0 512.001 512.001" xmlns="http://www.w3.org/2000/svg"><path d="m503.172 88.276h-494.344c-4.875 0-8.828 3.953-8.828 8.828v317.792c0 4.875 3.953 8.828 8.828 8.828h494.345c4.875 0 8.828-3.953 8.828-8.828v-317.792c-.001-4.875-3.954-8.828-8.829-8.828z" fill="#41479b"/><path d="m3.256 421.591 505.487-331.181c-1.53-1.273-3.425-2.134-5.571-2.134h-494.344c-4.875 0-8.828 3.953-8.828 8.828v317.792c0 2.729 1.311 5.076 3.256 6.695z" fill="#f5f5f5"/><path d="m224.779 88.276h-215.951c-4.875 0-8.828 3.953-8.828 8.828v138.442z" fill="#ffe15a"/><path d="m202.274 229.138c-4.006-26.736-25.089-47.82-51.826-51.826l-9.207-18.415-9.207 18.415c-26.736 4.006-47.819 25.088-51.826 51.826l-18.415 9.207 18.415 9.207c4.006 26.736 25.089 47.82 51.826 51.826l9.207 18.415 9.207-18.415c26.736-4.006 47.819-25.088 51.826-51.826l18.415-9.207zm-61.033 62.172c-29.252 0-52.965-23.713-52.965-52.965s23.713-52.965 52.965-52.965 52.965 23.713 52.965 52.965-23.713 52.965-52.965 52.965z" fill="#464655"/><path d="m141.241 204.401 9.505 17.482 19.892-.51-10.388 16.972 10.388 16.972-19.892-.51-9.505 17.483-9.504-17.483-19.893.51 10.388-16.972-10.388-16.972 19.893.51z" fill="#ff4b55"/></svg>