<svg enable-background="new 0 0 512.001 512.001" viewBox="0 0 512.001 512.001" xmlns="http://www.w3.org/2000/svg"><path d="m503.172 423.724h-494.344c-4.875 0-8.828-3.953-8.828-8.828v-317.792c0-4.875 3.953-8.828 8.828-8.828h494.345c4.875 0 8.828 3.953 8.828 8.828v317.792c-.001 4.876-3.954 8.828-8.829 8.828z" fill="#41479b"/><path d="m441.378 88.276v335.448l-335.447-335.448z" fill="#ffe15a"/><g fill="#f5f5f5"><path d="m207.353 213.176 5.088 15.254 16.079.125c1.246.01 1.762 1.599.76 2.339l-12.936 9.553 4.851 15.331c.376 1.187-.977 2.17-1.991 1.446l-13.082-9.351-13.082 9.351c-1.013.724-2.366-.258-1.991-1.446l4.851-15.331-12.936-9.553c-1.002-.74-.486-2.329.76-2.339l16.079-.125 5.088-15.254c.396-1.181 2.067-1.181 2.462 0z"/><path d="m170.571 176.395 5.088 15.254 16.079.125c1.246.01 1.762 1.6.76 2.339l-12.936 9.553 4.851 15.331c.376 1.187-.977 2.17-1.991 1.446l-13.082-9.351-13.082 9.351c-1.013.725-2.366-.258-1.991-1.446l4.851-15.331-12.936-9.553c-1.002-.74-.486-2.329.76-2.339l16.079-.125 5.088-15.254c.396-1.182 2.068-1.182 2.462 0z"/><path d="m133.79 139.613 5.088 15.254 16.079.125c1.246.01 1.762 1.599.76 2.339l-12.936 9.553 4.851 15.331c.376 1.187-.977 2.17-1.991 1.446l-13.082-9.351-13.082 9.351c-1.013.725-2.366-.258-1.991-1.446l4.851-15.331-12.936-9.553c-1.002-.74-.486-2.329.76-2.339l16.079-.125 5.088-15.254c.396-1.182 2.068-1.182 2.462 0z"/><path d="m97.008 102.832 5.088 15.254 16.079.125c1.246.01 1.762 1.599.76 2.339l-12.935 9.552 4.851 15.331c.376 1.187-.977 2.17-1.991 1.446l-13.082-9.351-13.082 9.351c-1.013.724-2.366-.258-1.991-1.446l4.851-15.331-12.936-9.552c-1.002-.74-.486-2.329.76-2.339l16.079-.125 5.088-15.254c.395-1.182 2.066-1.182 2.461 0z"/><path d="m354.479 360.303 5.088 15.254 16.079.125c1.246.01 1.762 1.599.76 2.339l-12.936 9.553 4.851 15.331c.376 1.187-.977 2.171-1.99 1.446l-13.082-9.351-13.082 9.351c-1.013.725-2.366-.258-1.991-1.446l4.851-15.331-12.936-9.553c-1.002-.74-.486-2.329.76-2.339l16.079-.125 5.088-15.254c.395-1.182 2.067-1.182 2.461 0z"/><path d="m317.698 323.521 5.088 15.254 16.079.125c1.246.01 1.762 1.599.76 2.339l-12.936 9.553 4.851 15.331c.376 1.187-.977 2.171-1.99 1.446l-13.082-9.351-13.082 9.351c-1.013.724-2.366-.258-1.991-1.446l4.851-15.331-12.936-9.553c-1.002-.74-.486-2.329.76-2.339l16.079-.125 5.088-15.254c.395-1.182 2.067-1.182 2.461 0z"/><path d="m280.915 286.74 5.088 15.254 16.079.125c1.246.01 1.762 1.599.76 2.339l-12.936 9.553 4.851 15.331c.376 1.187-.977 2.171-1.991 1.445l-13.082-9.351-13.082 9.351c-1.013.724-2.366-.258-1.991-1.445l4.851-15.331-12.936-9.553c-1.002-.74-.486-2.329.76-2.339l16.079-.125 5.088-15.254c.397-1.181 2.068-1.181 2.462 0z"/><path d="m244.134 249.958 5.088 15.254 16.079.125c1.246.01 1.762 1.599.76 2.339l-12.936 9.553 4.851 15.331c.376 1.187-.977 2.171-1.991 1.446l-13.082-9.351-13.082 9.351c-1.013.724-2.366-.258-1.991-1.446l4.851-15.331-12.936-9.553c-1.002-.74-.486-2.329.76-2.339l16.079-.125 5.088-15.254c.396-1.182 2.068-1.182 2.462 0z"/><path d="m41.944 88.276 6.83 5.044-4.851 15.331c-.375 1.187.977 2.17 1.991 1.447l13.081-9.351 13.082 9.351c1.013.724 2.366-.258 1.99-1.447l-4.85-15.331 6.833-5.044z"/><path d="m412.427 412.464-16.079-.125-5.087-15.254c-.394-1.182-2.066-1.182-2.46 0l-5.087 15.254-16.079.125c-1.246.01-1.762 1.6-.76 2.339l12.083 8.921h22.151l12.082-8.921c.998-.74.482-2.33-.764-2.339z"/></g></svg>