<svg viewBox="0 0 512.004 512.004" xmlns="http://www.w3.org/2000/svg"><path d="M512.003 256.002H.061V97.123a8.828 8.828 0 018.827-8.827h494.288a8.828 8.828 0 018.827 8.827v158.878z" fill="#41479b"/><path d="M.061 256.002h511.943V414.88a8.828 8.828 0 01-8.827 8.827H8.888a8.828 8.828 0 01-8.827-8.827zM503.177 88.297h-52.959l-163.521 53.567V88.297h-61.328v53.567L61.847 88.297H8.887A8.828 8.828 0 00.06 97.124v7.002l140.293 45.958H.061v44.133h140.293L.061 240.174v15.828h61.786l163.521-53.567v53.567h61.327v-53.567l163.521 53.567h61.786v-15.828l-140.293-45.958h140.293v-44.133H371.709l140.293-45.958v-7.002a8.825 8.825 0 00-8.825-8.826z" fill="#f5f5f5"/><path d="M.061 158.911h511.94v26.48H.061z" fill="#ff4b55"/><path d="M242.791 88.301h26.48v167.71h-26.48z" fill="#ff4b55"/><path d="M301.286 156.772l-13.021 6.731-5.143-11.963c-.531-1.235-2.66-1.455-3.591-.373l-10.606 12.336-11.089-17.199c-.744-1.153-2.864-1.153-3.608 0l-11.089 17.199-10.606-12.336c-.931-1.082-3.061-.862-3.591.373l-5.143 11.963-13.021-6.731c-1.721-.889-3.847.566-2.923 2l12.72 19.729h-.551c-1.476 0-2.673.928-2.673 2.073v5.852c0 1.145 1.197 2.073 2.673 2.073h72.013c1.476 0 2.673-.928 2.673-2.073v-5.852c0-1.145-1.197-2.073-2.673-2.073h-.551l12.72-19.729c.928-1.434-1.2-2.889-2.92-2z" fill="#ffe15a"/><path d="M178.989 194.215L.061 252.27v3.732h20.984l190.368-61.787zM512.003 256.002v-8.043l-165.594-53.744h-32.425l190.327 61.787z" fill="#ff4b55"/><g fill="#41479b"><path d="M511.946 304.548c-25.633 0-25.633-7.723-51.267-7.723-25.616 0-25.616 7.723-51.232 7.723-25.594 0-25.594-7.723-51.188-7.723-25.59 0-25.59 7.723-51.18 7.723-25.597 0-25.597-7.723-51.194-7.723s-25.597 7.723-51.194 7.723-25.597-7.723-51.194-7.723c-25.586 0-25.586 7.723-51.172 7.723-25.573 0-25.573-7.723-51.147-7.723-25.588 0-25.588 7.723-51.178 7.723v-23.17c25.588 0 25.588-7.723 51.178-7.723 25.573 0 25.573 7.723 51.147 7.723 25.586 0 25.586-7.723 51.172-7.723 25.597 0 25.597 7.723 51.194 7.723s25.597-7.723 51.194-7.723 25.597 7.723 51.194 7.723c25.59 0 25.59-7.723 51.18-7.723 25.594 0 25.594 7.723 51.188 7.723 25.616 0 25.616-7.723 51.232-7.723 25.633 0 25.633 7.723 51.267 7.723zM511.946 350.887c-25.633 0-25.633-7.723-51.267-7.723-25.616 0-25.616 7.723-51.232 7.723-25.594 0-25.594-7.723-51.188-7.723-25.59 0-25.59 7.723-51.18 7.723-25.597 0-25.597-7.723-51.194-7.723s-25.597 7.723-51.194 7.723-25.597-7.723-51.194-7.723c-25.586 0-25.586 7.723-51.172 7.723-25.573 0-25.573-7.723-51.147-7.723-25.588 0-25.588 7.723-51.178 7.723v-23.17c25.588 0 25.588-7.723 51.178-7.723 25.573 0 25.573 7.723 51.147 7.723 25.586 0 25.586-7.723 51.172-7.723 25.597 0 25.597 7.723 51.194 7.723s25.597-7.723 51.194-7.723 25.597 7.723 51.194 7.723c25.59 0 25.59-7.723 51.18-7.723 25.594 0 25.594 7.723 51.188 7.723 25.616 0 25.616-7.723 51.232-7.723 25.633 0 25.633 7.723 51.267 7.723zM511.946 397.227c-25.633 0-25.633-7.723-51.267-7.723-25.616 0-25.616 7.723-51.232 7.723-25.594 0-25.594-7.723-51.188-7.723-25.59 0-25.59 7.723-51.18 7.723-25.597 0-25.597-7.723-51.194-7.723s-25.597 7.723-51.194 7.723-25.597-7.723-51.194-7.723c-25.586 0-25.586 7.723-51.172 7.723-25.573 0-25.573-7.723-51.147-7.723-25.588 0-25.588 7.723-51.178 7.723v-23.17c25.588 0 25.588-7.723 51.178-7.723 25.573 0 25.573 7.723 51.147 7.723 25.586 0 25.586-7.723 51.172-7.723 25.597 0 25.597 7.723 51.194 7.723s25.597-7.723 51.194-7.723 25.597 7.723 51.194 7.723c25.59 0 25.59-7.723 51.18-7.723 25.594 0 25.594 7.723 51.188 7.723 25.616 0 25.616-7.723 51.232-7.723 25.633 0 25.633 7.723 51.267 7.723z"/></g><path d="M194.245 150.083L5.731 88.933c-3.306 1.275-5.67 4.434-5.67 8.19v.458l161.76 52.502zM332.589 150.083l177.846-57.694c-1.577-2.407-4.166-4.092-7.259-4.092h-12.645l-190.366 61.786z" fill="#ff4b55"/><path d="M401.658 411.819c18.539-9.548 25.209-23.868 27.637-29.188 3.678-8.059 20.746-14.558 20.746-14.558s-21.083.099-32.368 14.749c-10.403 13.506-29.133 14.668-47.197 25.002a147.724 147.724 0 00-5.333-6.35l56.286-68.136-68.136 56.286a146.615 146.615 0 00-8.263-6.836c1.794-4.664 5.333-11.872 12.283-20.08 13.474-15.915 14.156-31.698 14.363-37.542.316-8.853 13.595-21.39 13.595-21.39s-19.441 8.16-24.26 26.013c-4.44 16.451-21.284 24.691-34.017 41.135a145.97 145.97 0 00-7.361-3.851l25.912-84.438-41.398 78.052a144.77 144.77 0 00-10.262-3.167c-.124-4.998.393-12.998 3.664-23.216 6.357-19.861.947-34.703-1.098-40.182-3.097-8.3 4.375-24.964 4.375-24.964s-14.839 14.979-12.459 33.317c2.193 16.902-10.223 30.966-15.691 51.039-2.735-.31-5.488-.557-8.266-.715l-8.379-87.969-8.379 87.969c-3.598.204-7.152.563-10.676 1.022-2.029-4.567-4.624-12.167-5.514-22.887-1.727-20.781-12.405-32.424-16.39-36.703-6.038-6.482-5.512-24.738-5.512-24.738s-7.977 19.516 1.24 35.548c8.493 14.773 2.409 32.515 5.034 53.146a143.56 143.56 0 00-7.916 2.501l-41.398-78.052 25.912 84.438c-3.231 1.563-6.375 3.274-9.469 5.062-3.622-3.443-8.924-9.471-13.844-19.026-9.548-18.539-23.869-25.209-29.188-27.637-8.059-3.678-14.558-20.745-14.558-20.745s.098 21.083 14.749 32.367c13.506 10.403 14.668 29.134 25.001 47.198a147.114 147.114 0 00-6.35 5.333l-68.138-56.29 56.286 68.136a146.615 146.615 0 00-6.836 8.263c-4.664-1.794-11.873-5.335-20.08-12.283-15.915-13.474-31.698-14.156-37.543-14.364-8.853-.314-21.389-13.594-21.389-13.594s8.16 19.441 26.013 24.26c14.757 3.983 22.956 17.929 36.347 29.953h261.209c3.608-3.444 9.019-7.769 17.016-11.888zM444.819 423.707l27.312-14.486-47.204 14.486zM39.931 409.221l27.313 14.486h19.893z" fill="#ffe15a"/></svg>