<svg viewBox="0 0 512.001 512.001" xmlns="http://www.w3.org/2000/svg"><path d="M503.172 423.724H8.828A8.829 8.829 0 010 414.896V97.104a8.829 8.829 0 018.828-8.828h494.345a8.829 8.829 0 018.828 8.828v317.792a8.83 8.83 0 01-8.829 8.828z" fill="#41479b"/><path d="M0 167.72h512v176.55H0z" fill="#ff4b55"/><path d="M372.816 322.934v-12.518h-4.172v-8.344h-4.173v-8.343h-4.172v-8.344h-12.516v-25.032h-.001l4.173-4.172v-12.516h-4.172v-8.344h-4.172v-12.516h-4.171v-8.344h-4.172v-8.344h-4.172v-4.172h-8.345v4.172h-4.172v8.344h-4.172v8.344h-4.171v12.516h-4.172v8.344h-25.033v-12.516h-4.171v-12.516h-4.172v-12.516h-4.172v-8.344h-4.172v-8.344h-4.172v-4.172h-2.086v-4.172h-4.172v4.172h-2.087v4.172h-4.171v8.344h-4.172v8.344h-4.172v12.516h-4.172v12.516h-4.172v12.516h-25.032v-8.344h-4.172v-12.516h-4.172v-8.344h-4.172v-8.344h-4.172v-4.172h-8.344v4.172h-4.172v8.344h-4.172v8.344h-4.172v12.516h-4.172v8.344h-4.172v12.516l4.17 4.172h.002v25.032h-12.515v8.344h-4.172v8.343h-4.173v8.344h-4.172v12.518h-4.172v12.514h241.975v-12.514z" fill="#f5f5f5"/></svg>