<svg enable-background="new 0 0 512.001 512.001" viewBox="0 0 512.001 512.001" xmlns="http://www.w3.org/2000/svg"><path d="m503.172 423.724h-494.344c-4.875 0-8.828-3.953-8.828-8.828v-317.792c0-4.875 3.953-8.828 8.828-8.828h494.345c4.875 0 8.828 3.953 8.828 8.828v317.792c-.001 4.876-3.954 8.828-8.829 8.828z" fill="#41479b"/><path d="m247.172 88.276h-15.333l-81.77 53.573v-53.573h-44.138v53.573l-81.77-53.573h-15.333c-4.875 0-8.828 3.953-8.828 8.828v7.002l70.155 45.963h-70.155v44.138h70.155l-70.155 45.964v7.001c0 4.875 3.953 8.828 8.828 8.828h15.333l81.77-53.573v53.573h44.138v-53.573l81.769 53.573h15.333c4.875 0 8.828-3.953 8.828-8.828v-7.002l-70.154-45.963h70.154v-44.138h-70.155l70.155-45.963v-7.002c0-4.875-3.951-8.828-8.827-8.828z" fill="#f5f5f5"/><path d="m255.999 158.897h-114.758v-70.621h-26.483v70.621h-114.758v26.482h114.758v70.621h26.483v-70.621h114.758z" fill="#ff4b55"/><path d="m97.103 150.069-92.896-60.301c-2.472 1.565-4.207 4.193-4.207 7.336v.458l80.889 52.507z" fill="#ff4b55"/><path d="m166.283 150.069 88.374-57.366c-1.536-2.599-4.246-4.427-7.485-4.427h-1.909l-95.194 61.793z" fill="#ff4b55"/><path d="m89.474 194.207-88.205 57.256c1.521 2.662 4.273 4.537 7.559 4.537h1.665l95.195-61.793z" fill="#ff4b55"/><path d="m255.859 247.867-82.666-53.659h-16.213l93.873 60.934c2.813-1.305 4.741-4.04 5.006-7.275z" fill="#ff4b55"/><g fill="#ffe15a"><path d="m383.827 172.219s-3.691-14.766-14.766-22.149c0 0 11.074 18.457 11.074 33.224z"/><path d="m366.753 156.183s7.73 4.729 11.882 12.459l-3.346 7.73c.002 0-2.767-10.959-8.536-20.189z"/><path d="m358.217 157.914s13.382 4.153 19.726 12.805l-3.807 5.768c.001 0-5.075-9.805-15.919-18.573z"/><path d="m356.256 164.605s14.074 2.191 20.419 8.883l-1.615 6.345c0-.001-7.729-9.23-18.804-15.228z"/><path d="m356.718 169.219s13.612 1.385 19.842 8.536c6.229 7.153-2.307 4.96-2.307 4.96s-7.153-8.189-17.535-13.496z"/><path d="m383.827 172.219s3.691-14.766 14.766-22.149c0 0-11.074 18.457-11.074 33.224z"/><path d="m400.901 156.183s-7.73 4.729-11.882 12.459l3.346 7.73c-.001 0 2.768-10.959 8.536-20.189z"/><path d="m409.437 157.914s-13.382 4.153-19.726 12.805l3.807 5.768c-.001 0 5.075-9.805 15.919-18.573z"/><path d="m411.399 164.605s-14.074 2.191-20.419 8.883l1.615 6.345c0-.001 7.729-9.23 18.804-15.228z"/><path d="m410.936 169.219s-13.612 1.385-19.842 8.536c-6.229 7.153 2.307 4.96 2.307 4.96s7.153-8.189 17.535-13.496z"/><path d="m383.827 150.069s-3.691 7.767 0 11.651c3.692-3.883 0-11.651 0-11.651z"/><path d="m380.149 151.998s-.495 8.586 4.386 10.794c1.959-4.988-4.386-10.794-4.386-10.794z"/><path d="m387.505 151.998s.495 8.586-4.386 10.794c-1.959-4.988 4.386-10.794 4.386-10.794z"/><path d="m388.714 156.95s-3.221 7.975-8.578 7.884c.361-5.346 8.578-7.884 8.578-7.884z"/><path d="m378.94 156.95s3.221 7.975 8.578 7.884c-.361-5.346-8.578-7.884-8.578-7.884z"/></g><ellipse cx="383.82" cy="175.91" fill="#ffd255" rx="11.08" ry="14.766"/><path d="m358.525 190.984-2.538-3.923s-7.383 1.769-9.152-3.768l-2.846-.231s.384-3.768 3.691-4.307c0 0 1.999-2.461 5.537-1.999 3.538.461 5.384 3.46 7.422 4.23 2.038.769 2.269 3.307 2.269 3.307l15.535 15.919s-4.46 5.692-8.46 7.537c-4 1.844-18.688-7.152-11.458-16.765z" fill="#73af00"/><path d="m408.976 193.906s6.461 4.384 6.691 16.497h-10.729s.116-8.191-1.961-12.574z" fill="#73af00"/><path d="m407.592 194.368s8.075 2.654 13.036-3.691l-8.421-1.153z" fill="#73af00"/><path d="m405.169 185.485 8.2 2.764c1.034.349 1.399 1.629.674 2.445-3.111 3.505-12.397 11.903-27.37 11.903-19.496 0-24.533-12.267-24.764-13.189s-1.269-8.421-1.269-8.421l8.306-.922z" fill="#73af00"/><path d="m325.439 298.429h21.473l-11.075 21.451-11.074-14.767z" fill="#ff4b55"/><path d="m442.215 298.429h-21.472l11.074 21.451 11.074-14.767z" fill="#ff4b55"/><path d="m325.35 334.646c-10.593 0-18.699-5.685-19.117-5.981l8.536-12.052c.071.046 7.223 4.906 14.516 2.697 7.38-2.228 12.225-10.937 14.991-17.856l13.71 5.486c-5.816 14.542-14.112 23.479-24.651 26.569-2.756.809-5.443 1.137-7.985 1.137z" fill="#ffd25a"/><path d="m442.304 334.646c10.593 0 18.699-5.685 19.117-5.981l-8.536-12.052c-.071.046-7.223 4.906-14.516 2.697-7.38-2.228-12.225-10.937-14.991-17.856l-13.71 5.486c5.816 14.542 14.112 23.479 24.651 26.569 2.756.809 5.444 1.137 7.985 1.137z" fill="#ffd25a"/><path d="m431.817 257.123h-95.98v-35.47c0-4.875 3.953-8.828 8.828-8.828h78.325c4.875 0 8.828 3.953 8.828 8.828v35.47z" fill="#ff4b55"/><path d="m362.024 238.666-1.153-7.383c-5.422-.231-8.536-6.575-8.536-6.575l-4.384 2.422c4.613 11.075 14.073 11.536 14.073 11.536z" fill="#ffe15a"/><path d="m419.819 231.052c1.615-1.23 5.153-1.692 5.153-1.692-2.538-2.615-5.306-.769-5.306-.769 2.307-2.153 1-5.229 1-5.229 0 1-1.615 1.692-1.615 1.692.077-1.999-1.999-3.923-1.999-3.923l-1.077 1.769c-.692-1.692-3.153-2.999-3.153-2.999l-1 4.153c-2.307-1.999-6.383-1.846-6.383-1.846l.769 1.923c-2.461.076-9.152 1.461-13.075 1.922s-7.075-.615-7.075-2.383c0-1.482 3.428-1.665 4.911-1.687 1.049.234 2.368.612 4.222 1.169 3.46 1.038 5.487-.466 5.487-.466-1.212-.461-1.346-1-1.346-1 2.595-1.5 5.03-1.13 5.03-1.13-.865-1.903-4.615-1.788-4.615-1.788.981-.519 1.73-2.134 1.73-2.134-.231.231-2.362.754-5.272 1.144-2.19.295-4.247 1.96-5.097 2.73-2.309-.177-8.342-.25-7.281 3.933 1.308 5.153 11.69 3.307 18.073 2.307s9.69-.153 11.074.692c1.385.846-.589 3.712-7.075 2.538-5.605-1.014-8.692-1.043-10.387-.865-1.879.12-3.481.626-4.61.865-2.538.538-12.306 3.999-14.151-1-1.846-5-10.844 8.152-10.844 8.152l.703.836-2.395-.567c-3.23 4.326-12.92 5.653-12.92 5.653s-1.442-2.595-2.654-2.942c-1.212-.346-1.73 1.557-1.73 1.557s-1.442.057-1.557 1.385c-.116 1.326 1.038 1.442 1.038 1.442s-1.385 2.019.922 2.595c0 0-.173 2.826 3.23.865 10.11 1.274 17.482-3.917 20.674-6.749 2.087.134 5.339.067 7.839-1.23 3.999-2.077 8.613-4.692 11.305-3.691 0 0 2.154 6.614-6.306 6.767 0 0-1.251-1.582-2.51-1.582-.543 0-1.108.652-.934 1.238 0 0-1.476-.087-1.737.782-.213.708.303 1.519 1.389 1.389 0 0-.738 1.086 0 1.737s1.651 0 1.651 0-.391 1.346.521 1.476c.78.111 1.813-1.163 2.109-1.55 1.354.211 10.591 1.276 12.586-8.413 0 0 4.615 1.999 9.152 1.615s8.999.308 8.614 2.538c-.503 1.617-1.495 1.51-1.495 1.51-1.086-.435-2.91-.391-3.17 1.173s1.867 1.607 1.867 1.607c.608 1.433 2.345.825 2.345.825 1.519 1.086 2.519-.087 2.519-.087.652.565 1.324.67 1.954.13.608-.521.267-3.996.209-5.236-.096-2.063-.385-7.459-3.384-7.537-2.999-.077-6.845 1.692-12.151-2.769-.277-.233-.547-.381-.821-.579 2.511.233 4.31.914 6.051 1.194 2.385.386 9.384-.229 10.998-1.46z" fill="#ffe15a"/><path d="m347.95 227.131s-1.471.04-2.191-.173c-1.235-.364-1.385-2.307-.057-2.654 0 0-1.597-1.085-.865-2.307.586-.978 2.079-.975 2.598-.398 0 0-.487-1.609.921-2.14 1.12-.423 2.019.865 2.019 2.538 0 0 1.674-1.362 2.538-.461.602.628.429 1.453-.577 3.172-1.028 1.754-4.386 2.423-4.386 2.423z" fill="#ffe15a"/><path d="m346.13 226.419s-.781 1.346-3.04.521c0 0 1.954-.913 2.215-1.694z" fill="#41479b"/><path d="m345.305 222.466s-1.216-.781-2.562-.738c0 0 1.997-1.476 3.691-.173z" fill="#41479b"/><path d="m348.128 220.382s.391-1.433-.391-2.215c0 0 1.607.695 1.824 1.997z" fill="#41479b"/><path d="m351.689 221.858s.781-1.737.087-2.562c0 0 2.084 1.216 1.216 3.214z" fill="#41479b"/><path d="m347.62 241.161s-.836-1.711-1.914-1.705c0 0 2.268-.825 3.249 1.12z" fill="#41479b"/><path d="m345.792 243.34s-1.491-1.186-2.462-.716c0 0 1.693-1.72 3.414-.386z" fill="#41479b"/><path d="m346.84 246.417s-1.905-.021-2.383.946c0 0 .28-2.397 2.458-2.4z" fill="#41479b"/><path d="m348.581 248.395s-.781 1.346-3.04.521c0 0 1.954-.913 2.215-1.694z" fill="#41479b"/><path d="m382.908 247.711s-.64 1.102-2.49.427c0 0 1.502-.536 1.715-1.177z" fill="#41479b"/><path d="m363.371 223.9s-4.154 7.075-3.155 17.304c0 0 12.247-1.788 17.554-14.016 0 0 1.293-.523 1.798-1.779.429-1.068.394-2.827-1.663-2.817 0 0 .616-1.23 1.365-1.519 0 0-1.326-.519-2.884-.173 0 0 1.212-1.212 1.212-2.769 0 0-1.846 1.212-2.999 1.326 0 0-.116-1.903.346-2.134 0 0-2.422.231-3.634 1.5 0 0-.808-1.096-.75-2.25 0 0-2.25.981-3.115 2.422 0 0-.692-.75-.634-1.5 0 0-1.615 1.961-1.961 2.999 0 0-1.522-.418-2.191.808-.485.886-.374 1.859.711 2.598z" fill="#ffd255"/><path d="m381.062 242.56s-.492-.927-1.969-1.129c0 0 1.882-.868 3.069.376z" fill="#41479b"/><path d="m411.594 246.078s-1.079.341-1.585 1.867c0 0-.553-2.167 1.001-3.182z" fill="#41479b"/><path d="m413.858 246.874s-1.022.993-.973 2.601c0 0-1.261-1.846-.149-3.332z" fill="#41479b"/><path d="m418.744 246.787s-.309 1.052.625 2.174c0 0-1.933-.615-1.97-2.298z" fill="#41479b"/><path d="m416.448 247.197s-.82.78-.602 2.374c0 0-1.525-1.34-.575-2.934z" fill="#41479b"/><path d="m379.488 244.457s-.988-.354-2.216.49c0 0 .807-1.909 2.522-1.788z" fill="#41479b"/><path d="m380.838 246.558s-1.015-.266-2.165.682c0 0 .177-1.842 1.897-1.87z" fill="#41479b"/><path d="m431.817 263.073c-8.005 0-8.005 7.221-16.011 7.221-8.005 0-8.005-7.221-16.011-7.221-8 0-8 7.221-16 7.221-7.993 0-7.993-7.221-15.986-7.221s-7.992 7.221-15.983 7.221c-7.994 0-7.994-7.221-15.989-7.221v-13.332c7.994 0 7.994 7.221 15.989 7.221 7.992 0 7.992-7.221 15.983-7.221 7.993 0 7.993 7.221 15.986 7.221 8 0 8-7.221 16-7.221 8.006 0 8.006 7.221 16.011 7.221 8.006 0 8.006-7.221 16.011-7.221z" fill="#f5f5f5"/><path d="m415.806 270.294c-8.005 0-8.005-7.221-16.011-7.221-8 0-8 7.221-16 7.221-7.993 0-7.993-7.221-15.986-7.221s-7.992 7.221-15.983 7.221c-7.978 0-8-7.186-15.944-7.217.11 3.192.477 7.93 1.412 13.497 6.494.86 7.085 7.051 14.531 7.051 7.992 0 7.992-7.222 15.983-7.222 7.993 0 7.993 7.222 15.986 7.222 8 0 8-7.222 16-7.222 8.005 0 8.005 7.222 16.011 7.222 7.457 0 8.05-6.193 14.553-7.051.936-5.567 1.302-10.305 1.412-13.497-7.953.031-7.975 7.217-15.964 7.217z" fill="#41479b"/><path d="m415.806 283.626c-8.005 0-8.005-7.222-16.011-7.222-8 0-8 7.222-16 7.222-7.993 0-7.993-7.222-15.986-7.222s-7.992 7.222-15.983 7.222c-7.446 0-8.038-6.191-14.531-7.051.742 4.412 1.848 9.331 3.479 14.418 3.599 2.066 5.166 5.965 11.052 5.965 7.992 0 7.992-7.221 15.983-7.221 7.993 0 7.993 7.221 15.986 7.221 8 0 8-7.221 16-7.221 8.005 0 8.005 7.221 16.011 7.221 5.899 0 7.465-3.907 11.076-5.971 1.63-5.085 2.735-10.003 3.478-14.412-6.504.859-7.097 7.051-14.554 7.051z" fill="#f5f5f5"/><path d="m415.806 296.958c-8.005 0-8.005-7.221-16.011-7.221-8 0-8 7.221-16 7.221-7.993 0-7.993-7.221-15.986-7.221s-7.992 7.221-15.983 7.221c-5.885 0-7.453-3.9-11.052-5.965 2.031 6.338 4.884 12.911 8.866 19.041.671.138 1.363.256 2.186.256 7.992 0 7.992-7.222 15.983-7.222 7.993 0 7.993 7.222 15.986 7.222 8 0 8-7.222 16-7.222 8.005 0 8.005 7.222 16.011 7.222.832 0 1.533-.118 2.21-.258 3.982-6.132 6.835-12.706 8.866-19.044-3.61 2.062-5.177 5.97-11.076 5.97z" fill="#41479b"/><path d="m415.806 310.29c-8.005 0-8.005-7.222-16.011-7.222-8 0-8 7.222-16 7.222-7.993 0-7.993-7.222-15.986-7.222s-7.992 7.222-15.983 7.222c-.823 0-1.515-.118-2.186-.256 2.53 3.895 5.526 7.599 9.054 10.951 2.444-2.065 4.386-4.585 9.116-4.585 7.993 0 7.993 7.221 15.986 7.221 8 0 8-7.221 16-7.221 4.749 0 6.691 2.532 9.149 4.6 3.535-3.357 6.537-7.066 9.071-10.968-.677.139-1.378.258-2.21.258z" fill="#f5f5f5"/><path d="m408.944 321c-2.457-2.068-4.399-4.6-9.149-4.6-8 0-8 7.221-16 7.221-7.993 0-7.993-7.221-15.986-7.221-4.73 0-6.671 2.52-9.116 4.585 6.43 6.11 14.628 11.034 25.133 13.661 10.497-2.624 18.69-7.542 25.118-13.646z" fill="#41479b"/><path d="m399.795 249.741c-8 0-8 7.221-16 7.221-7.993 0-7.993-7.221-15.986-7.221s-7.992 7.221-15.983 7.221c-7.994 0-7.994-7.221-15.989-7.221v11.074c0 .625.014 1.395.044 2.262 7.944.031 7.967 7.217 15.944 7.217 7.992 0 7.992-7.221 15.983-7.221 7.993 0 7.993 7.221 15.986 7.221 8 0 8-7.221 16-7.221 8.006 0 8.006 7.221 16.011 7.221 7.989 0 8.011-7.186 15.967-7.217.03-.868.044-1.638.044-2.262 0-2.563 0-6.52 0-11.074-8.006 0-8.006 7.221-16.011 7.221-8.004 0-8.004-7.221-16.01-7.221z" fill="#f5f5f5"/><path d="m428.126 212.825c2.039 0 3.691 1.653 3.691 3.691v33.224 7.383 3.691c0 .625-.014 1.395-.044 2.262-.11 3.192-.477 7.93-1.412 13.497-.742 4.409-1.848 9.327-3.478 14.412-2.031 6.339-4.884 12.914-8.866 19.044-2.535 3.903-5.537 7.613-9.071 10.968-6.428 6.103-14.621 11.022-25.117 13.646-10.505-2.626-18.703-7.551-25.133-13.661-3.528-3.352-6.524-7.055-9.054-10.951-3.982-6.131-6.835-12.703-8.866-19.041-1.631-5.087-2.738-10.007-3.479-14.418-.936-5.567-1.302-10.305-1.412-13.497-.03-.868-.044-1.638-.044-2.262 0-1.013 0-2.293 0-3.691v-7.383-33.224c0-2.039 1.653-3.691 3.691-3.691h88.596m-.002-2.767h-88.597c-3.562 0-6.461 2.898-6.461 6.461v33.224 7.383 3.691c0 .651.014 1.453.046 2.358.105 3.013.441 7.863 1.449 13.86.858 5.106 2.061 10.086 3.573 14.804 2.34 7.299 5.429 13.929 9.181 19.704 2.763 4.253 5.949 8.106 9.468 11.45 7.342 6.977 16.214 11.801 26.369 14.34l.672.168.671-.168c10.147-2.537 19.013-7.357 26.353-14.325 3.528-3.349 6.72-7.208 9.487-11.468 3.753-5.777 6.841-12.407 9.181-19.709 1.512-4.714 2.713-9.693 3.572-14.797 1.009-5.997 1.345-10.848 1.449-13.86.031-.905.046-1.707.046-2.358v-3.691-7.383-33.224c.001-3.562-2.897-6.46-6.459-6.46z" fill="#f5f5f5"/><path d="m383.827 312.322-10.13 7.048 3.574-11.813-9.833-7.454 12.336-.251 4.053-11.658 4.053 11.658 12.336.251-9.832 7.454 3.574 11.813z" fill="#73af00"/><path d="m383.827 290.473 3.517 10.115 10.708.218-8.535 6.471 3.102 10.251-8.791-6.118-8.791 6.118 3.102-10.251-8.534-6.47 10.708-.218zm0-4.555-1.412 4.064-3.175 9.133-9.667.198-4.301.087 3.428 2.6 7.704 5.842-2.799 9.255-1.246 4.118 3.532-2.457 7.936-5.523 7.936 5.523 3.532 2.457-1.246-4.118-2.799-9.255 7.704-5.842 3.428-2.6-4.301-.087-9.667-.198-3.175-9.133z" fill="#ffe15a"/><path d="m361.58 283.529-10.13 7.047 3.574-11.812-9.834-7.455 12.338-.25 4.052-11.658 4.052 11.658 12.338.25-9.834 7.455 3.574 11.812z" fill="#73af00"/><path d="m361.58 261.678 3.517 10.115 10.708.218-8.534 6.47 3.102 10.251-8.791-6.118-8.791 6.118 3.102-10.251-8.534-6.47 10.708-.218zm0-4.555-1.412 4.064-3.175 9.133-9.667.198-4.301.087 3.428 2.6 7.704 5.842-2.799 9.255-1.246 4.118 3.532-2.457 7.936-5.523 7.936 5.523 3.532 2.457-1.246-4.118-2.799-9.255 7.704-5.842 3.428-2.6-4.301-.087-9.667-.198-3.175-9.133z" fill="#ffe15a"/><path d="m405.878 283.529-10.129 7.047 3.573-11.812-9.833-7.455 12.336-.25 4.053-11.658 4.053 11.658 12.337.25-9.833 7.455 3.573 11.812z" fill="#73af00"/><path d="m405.878 261.678 3.517 10.115 10.707.218-8.534 6.47 3.102 10.251-8.791-6.118-8.791 6.118 3.102-10.251-8.534-6.47 10.708-.218zm0-4.555-1.412 4.064-3.175 9.133-9.667.198-4.301.087 3.428 2.6 7.704 5.842-2.799 9.255-1.246 4.118 3.532-2.457 7.936-5.523 7.936 5.523 3.532 2.457-1.246-4.118-2.799-9.255 7.704-5.842 3.428-2.6-4.301-.087-9.667-.198-3.175-9.133z" fill="#ffe15a"/><path d="m442.215 298.429c-9.161 23.326-31.85 39.908-58.388 39.908s-49.227-16.583-58.388-39.908l-13.738 5.375c11.317 28.814 39.344 49.3 72.126 49.3s60.809-20.485 72.126-49.3z" fill="#ffe15a"/><path d="m391.21 212.825h-11.074l-3.692-11.074h11.075z" fill="#f5f5f5"/><path d="m409.668 212.825h-7.383l-2.461-7.383h3.37c2.397 0 4.524 1.534 5.282 3.807z" fill="#f5f5f5"/><path d="m369.061 212.825h-7.383l-.842-2.525c-.797-2.39.982-4.858 3.502-4.858h2.261z" fill="#f5f5f5"/><path d="m402.284 212.825h-11.074l-3.691-11.074h8.414c1.589 0 2.999 1.016 3.502 2.525z" fill="#41479b"/><path d="m380.136 212.825h-11.074l-2.494-7.48c-.589-1.768.727-3.594 2.591-3.594h7.286z" fill="#41479b"/><path d="m410.936 187.216c-2.884 4.153-10.959 9.113-24.11 9.113-10.836 0-17.805-6.543-20.132-9.123-.567-.628-.863-1.431-.863-2.278v-2.518c0-1.084.562-2.07 1.498-2.614 2.344-1.364 7.762-3.54 18.458-3.54 13.268 0 25.149 10.96 25.149 10.96z" fill="#509664"/></svg>