<svg enable-background="new 0 0 512.001 512.001" viewBox="0 0 512.001 512.001" xmlns="http://www.w3.org/2000/svg"><path d="m503.172 423.721h-494.344c-4.875 0-8.828-3.953-8.828-8.828v-75.034h512v75.034c0 4.877-3.953 8.828-8.828 8.828z" fill="#ffe15a"/><path d="m0 255.997h512v83.86h-512z" fill="#73af00"/><path d="m0 172.137h512v83.86h-512z" fill="#f5f5f5"/><path d="m512 172.135h-512v-75.034c0-4.875 3.953-8.828 8.828-8.828h494.345c4.875 0 8.828 3.953 8.828 8.828z" fill="#41479b"/><path d="m214.07 88.277h83.86v335.45h-83.86z" fill="#ff4b55"/><path d="m76.5 99.571 7.366 22.087 23.282.181c1.804.014 2.551 2.316 1.1 3.388l-18.73 13.83 7.022 22.198c.544 1.719-1.414 3.143-2.881 2.093l-18.941-13.538-18.941 13.538c-1.468 1.049-3.425-.374-2.881-2.093l7.022-22.198-18.727-13.83c-1.451-1.071-.703-3.373 1.1-3.388l23.282-.181 7.366-22.087c.57-1.711 2.99-1.711 3.561 0z" fill="#ffe15a"/></svg>