<svg enable-background="new 0 0 512.001 512.001" viewBox="0 0 512.001 512.001" xmlns="http://www.w3.org/2000/svg"><path d="m512 256h-512v-158.897c0-4.875 3.953-8.828 8.828-8.828h494.345c4.875 0 8.828 3.953 8.828 8.828z" fill="#f5f5f5"/><path d="m17.655 256v-8.828h-17.655v8.828 8.828 150.069c0 4.875 3.953 8.828 8.828 8.828h494.345c4.875 0 8.828-3.953 8.828-8.828v-158.897z" fill="#ff4b55"/><path d="m158.897 256h-150.069c-4.875 0-8.828-3.953-8.828-8.828v-150.069c0-4.875 3.953-8.828 8.828-8.828h150.069c4.875 0 8.828 3.953 8.828 8.828v150.069c-.001 4.875-3.953 8.828-8.828 8.828z" fill="#41479b"/><path d="m87.262 134.487 8.416 25.234 26.6.206c3.444.026 4.872 4.422 2.101 6.467l-21.398 15.801 8.023 25.362c1.038 3.284-2.7 5.999-5.502 3.997l-21.64-15.467-21.641 15.468c-2.802 2.003-6.54-.714-5.502-3.997l8.023-25.362-21.398-15.801c-2.771-2.046-1.343-6.441 2.101-6.467l26.6-.206 8.416-25.234c1.09-3.268 5.712-3.268 6.801-.001z" fill="#f5f5f5"/></svg>