<svg enable-background="new 0 0 512.001 512.001" viewBox="0 0 512.001 512.001" xmlns="http://www.w3.org/2000/svg"><path d="m503.172 423.724h-494.344c-4.875 0-8.828-3.953-8.828-8.828v-317.792c0-4.875 3.953-8.828 8.828-8.828h494.345c4.875 0 8.828 3.953 8.828 8.828v317.792c-.001 4.876-3.954 8.828-8.829 8.828z" fill="#73af00"/><g fill="#ffe15a"><path d="m283.615 307.645c-28.522 0-51.645-23.122-51.645-51.645s23.122-51.645 51.645-51.645c3.785 0 7.452.454 10.987 1.265 1.409.323 2.156-1.568.927-2.329-10.816-6.706-23.841-10.184-37.744-9.053-30.263 2.462-54.593 27.134-56.653 57.428-2.462 36.189 26.164 66.308 61.826 66.308 11.955 0 23.109-3.396 32.574-9.265 1.229-.762.486-2.654-.925-2.329-3.537.811-7.206 1.265-10.992 1.265z"/><path d="m328.629 212.272 3.879 9.824 10.099-3.093c.561-.172 1.043.433.75.941l-5.262 9.158 8.715 5.967c.484.331.312 1.085-.268 1.173l-10.441 1.596.768 10.533c.043.585-.653.92-1.084.522l-7.756-7.168-7.756 7.168c-.431.398-1.127.063-1.084-.522l.768-10.533-10.441-1.596c-.58-.088-.751-.842-.268-1.173l8.715-5.967-5.262-9.158c-.292-.509.189-1.112.75-.941l10.099 3.093 3.879-9.824c.213-.546.985-.546 1.2 0z"/><path d="m469.87 185.789 3.879 9.824 10.099-3.093c.561-.172 1.043.433.75.941l-5.262 9.158 8.715 5.967c.484.331.312 1.085-.268 1.173l-10.441 1.596.768 10.534c.043.585-.653.92-1.084.522l-7.756-7.168-7.756 7.168c-.431.398-1.127.063-1.084-.522l.768-10.534-10.441-1.596c-.58-.088-.751-.842-.268-1.173l8.715-5.967-5.262-9.158c-.292-.509.189-1.112.75-.941l10.099 3.093 3.879-9.824c.213-.545.985-.545 1.2 0z"/><path d="m399.25 122.103 3.879 9.824 10.099-3.093c.561-.172 1.043.433.75.941l-5.262 9.158 8.715 5.967c.484.331.312 1.085-.268 1.173l-10.441 1.596.768 10.533c.043.585-.653.92-1.084.522l-7.756-7.168-7.756 7.168c-.431.398-1.127.063-1.084-.522l.768-10.533-10.441-1.596c-.58-.088-.751-.842-.268-1.173l8.715-5.967-5.262-9.158c-.292-.509.19-1.112.75-.941l10.099 3.093 3.879-9.824c.212-.546.985-.546 1.2 0z"/><path d="m399.25 353.513 3.879 9.824 10.099-3.093c.561-.172 1.043.433.75.941l-5.262 9.158 8.715 5.967c.484.331.312 1.085-.268 1.173l-10.441 1.596.768 10.533c.043.585-.653.92-1.084.522l-7.756-7.168-7.756 7.168c-.431.398-1.127.063-1.084-.522l.768-10.533-10.441-1.596c-.58-.088-.751-.842-.268-1.173l8.715-5.967-5.262-9.158c-.292-.509.19-1.112.75-.941l10.099 3.093 3.879-9.824c.212-.545.985-.545 1.2 0z"/><path d="m428.157 221.162 2.708 8.118 8.557.066c.663.006.938.851.405 1.245l-6.884 5.084 2.581 8.159c.2.632-.52 1.155-1.059.769l-6.963-4.977-6.963 4.977c-.54.385-1.259-.137-1.059-.769l2.581-8.159-6.884-5.084c-.533-.394-.258-1.24.405-1.245l8.557-.066 2.708-8.118c.21-.629 1.099-.629 1.31 0z"/><circle cx="92.69" cy="180.97" r="57.38"/></g><path d="m86.788 225.67h15.496s8.804-39.444.704-53.531l-4.93 3.169s8.1 27.117-11.27 50.362z" fill="#964b50"/><path d="m87.375 173.899s-8.921 6.104-6.104 24.183c0 0 6.808-5.635 10.565-18.079 0 0-5.4 10.33 2.113 18.548 0 0 7.982-11.27 6.808-21.131 0 0 26.539 27.714 20.896 20.661-.939-1.174 1.409-12.914-7.748-22.539 0 0 15.027 3.756 20.661 2.348 0 0 .47-11.975-13.853-14.088l3.287-9.391s-11.034-.704-16.905 4.93c0 0-1.409-14.557 4.461-21.6 0 0-17.374-2.583-18.079 20.192 0 0-6.339-14.557-25.826-11.034 0 0 11.034 7.982 12.914 11.505 0 0-15.496-10.565-22.774 4.226 0 0 12.444-3.287 16.905 2.583 0 0-19.957-2.113-21.6 15.027.001-.001 18.549-8.689 34.279-6.341z" fill="#73af00"/></svg>