<svg enable-background="new 0 0 512.001 512.001" viewBox="0 0 512.001 512.001" xmlns="http://www.w3.org/2000/svg"><path d="m503.172 423.724h-494.344c-4.875 0-8.828-3.953-8.828-8.828v-317.792c0-4.875 3.953-8.828 8.828-8.828h494.345c4.875 0 8.828 3.953 8.828 8.828v317.792c-.001 4.876-3.954 8.828-8.829 8.828z" fill="#41479b"/><path d="m247.172 88.276h-15.333l-81.77 53.573v-53.573h-44.138v53.573l-81.77-53.573h-15.333c-4.875 0-8.828 3.953-8.828 8.828v7.002l70.155 45.963h-70.155v44.138h70.155l-70.155 45.964v7.001c0 4.875 3.953 8.828 8.828 8.828h15.333l81.77-53.573v53.573h44.138v-53.573l81.769 53.573h15.333c4.875 0 8.828-3.953 8.828-8.828v-7.002l-70.154-45.963h70.154v-44.138h-70.155l70.155-45.963v-7.002c0-4.875-3.951-8.828-8.827-8.828z" fill="#f5f5f5"/><path d="m255.999 158.897h-114.758v-70.621h-26.483v70.621h-114.758v26.482h114.758v70.621h26.483v-70.621h114.758z" fill="#ff4b55"/><path d="m97.103 150.069-92.896-60.301c-2.472 1.565-4.207 4.193-4.207 7.336v.458l80.889 52.507z" fill="#ff4b55"/><path d="m166.283 150.069 88.374-57.366c-1.536-2.599-4.246-4.427-7.485-4.427h-1.909l-95.194 61.793z" fill="#ff4b55"/><path d="m89.474 194.207-88.205 57.256c1.521 2.662 4.273 4.537 7.559 4.537h1.665l95.195-61.793z" fill="#ff4b55"/><path d="m255.859 247.867-82.666-53.659h-16.213l93.873 60.934c2.813-1.305 4.741-4.04 5.006-7.275z" fill="#ff4b55"/><g fill="#f5f5f5"><path d="m377.128 150.113 3.237 9.708 10.233.079c.792.007 1.121 1.017.483 1.489l-8.232 6.079 3.086 9.757c.239.756-.621 1.382-1.267.92l-8.326-5.951-8.326 5.951c-.646.461-1.505-.164-1.267-.92l3.086-9.757-8.232-6.079c-.638-.471-.309-1.483.483-1.489l10.233-.079 3.237-9.708c.258-.752 1.322-.752 1.572 0z"/><path d="m333.616 162.054 6.906 7.552 9.38-4.089c.727-.317 1.439.473 1.047 1.163l-5.048 8.901 6.788 7.658c.526.594-.006 1.515-.782 1.356l-10.026-2.05-5.185 8.822c-.402.683-1.442.462-1.532-.326l-1.149-10.168-9.993-2.205c-.775-.171-.885-1.229-.163-1.557l9.316-4.235-.991-10.185c-.075-.79.897-1.223 1.432-.637z"/><path d="m298.722 190.659 9.38 4.089 6.906-7.552c.535-.585 1.507-.152 1.43.637l-.991 10.185 9.316 4.235c.722.328.61 1.386-.163 1.557l-9.993 2.205-1.149 10.168c-.089.788-1.13 1.009-1.532.326l-5.185-8.822-10.026 2.05c-.777.159-1.309-.762-.782-1.356l6.788-7.658-5.048-8.901c-.39-.689.321-1.479 1.049-1.163z"/><path d="m278.479 230.985 10.233-.079 3.238-9.708c.25-.753 1.314-.753 1.566 0l3.237 9.708 10.233.079c.792.007 1.121 1.017.483 1.489l-8.232 6.079 3.086 9.757c.239.756-.621 1.382-1.267.92l-8.326-5.951-8.326 5.951c-.646.461-1.505-.164-1.267-.92l3.086-9.757-8.232-6.079c-.633-.472-.304-1.484.488-1.489z"/><path d="m276.389 276.057 9.316-4.235-.991-10.185c-.077-.789.895-1.221 1.43-.637l6.906 7.552 9.38-4.089c.727-.317 1.439.473 1.047 1.163l-5.048 8.902 6.788 7.658c.526.594-.006 1.515-.782 1.356l-10.026-2.05-5.185 8.822c-.402.683-1.442.462-1.532-.326l-1.149-10.168-9.993-2.205c-.772-.172-.883-1.23-.161-1.558z"/><path d="m292.811 318.083 6.788-7.658-5.048-8.901c-.391-.69.321-1.48 1.047-1.163l9.38 4.089 6.906-7.552c.535-.585 1.507-.152 1.43.637l-.991 10.185 9.316 4.235c.722.328.61 1.386-.163 1.557l-9.993 2.205-1.149 10.168c-.089.788-1.13 1.009-1.532.326l-5.185-8.822-10.026 2.05c-.774.158-1.306-.762-.78-1.356z"/><path d="m324.907 349.796 3.086-9.757-8.232-6.079c-.638-.471-.309-1.483.483-1.489l10.233-.079 3.238-9.708c.25-.753 1.314-.753 1.566 0l3.237 9.708 10.233.079c.792.007 1.121 1.017.483 1.489l-8.232 6.079 3.086 9.757c.239.756-.621 1.382-1.267.92l-8.326-5.951-8.326 5.951c-.639.461-1.5-.164-1.262-.92z"/><path d="m367.129 365.712-1.149-10.168-9.993-2.205c-.775-.171-.885-1.229-.163-1.557l9.316-4.235-.991-10.185c-.077-.789.895-1.222 1.43-.637l6.906 7.552 9.38-4.089c.727-.317 1.439.473 1.047 1.163l-5.048 8.901 6.788 7.658c.526.594-.006 1.515-.782 1.356l-10.026-2.05-5.185 8.822c-.402.683-1.442.462-1.53-.326z"/><path d="m412.172 363.081-5.185-8.822-10.026 2.05c-.777.159-1.309-.762-.782-1.356l6.788-7.658-5.048-8.901c-.391-.69.321-1.48 1.047-1.163l9.38 4.089 6.906-7.552c.535-.585 1.507-.152 1.43.637l-.991 10.185 9.316 4.235c.722.328.61 1.386-.163 1.557l-9.993 2.205-1.149 10.168c-.087.788-1.128 1.009-1.53.326z"/><path d="m452.252 342.355-8.326-5.951-8.326 5.951c-.646.461-1.505-.164-1.267-.92l3.086-9.757-8.232-6.079c-.638-.471-.309-1.483.483-1.489l10.233-.079 3.238-9.708c.25-.753 1.314-.753 1.566 0l3.237 9.708 10.233.079c.792.007 1.121 1.017.483 1.489l-8.232 6.079 3.086 9.757c.243.755-.618 1.381-1.262.92z"/><path d="m480.436 307.118-10.026-2.05-5.185 8.822c-.402.683-1.442.462-1.532-.326l-1.149-10.168-9.993-2.205c-.775-.171-.885-1.229-.163-1.557l9.316-4.235-.991-10.185c-.077-.789.895-1.221 1.43-.637l6.906 7.552 9.38-4.089c.727-.317 1.439.473 1.047 1.163l-5.048 8.901 6.788 7.658c.529.594-.003 1.515-.78 1.356z"/><path d="m491.852 263.466-9.993 2.205-1.149 10.168c-.089.788-1.13 1.009-1.532.326l-5.185-8.822-10.026 2.05c-.777.159-1.309-.762-.782-1.356l6.788-7.658-5.048-8.902c-.391-.69.321-1.48 1.047-1.163l9.38 4.089 6.906-7.552c.535-.585 1.507-.152 1.43.637l-.991 10.185 9.316 4.235c.724.329.613 1.388-.161 1.558z"/><path d="m484.525 218.944-8.232 6.079 3.086 9.757c.239.756-.621 1.382-1.267.92l-8.326-5.951-8.326 5.951c-.646.461-1.505-.164-1.267-.92l3.086-9.757-8.232-6.079c-.638-.471-.309-1.483.483-1.489l10.233-.079 3.238-9.708c.25-.753 1.314-.753 1.566 0l3.237 9.708 10.233.079c.797.006 1.126 1.018.488 1.489z"/><path d="m459.724 181.25-5.048 8.902 6.788 7.658c.526.594-.006 1.515-.782 1.356l-10.026-2.05-5.185 8.822c-.402.683-1.442.462-1.532-.326l-1.149-10.168-9.993-2.205c-.775-.171-.885-1.229-.163-1.557l9.316-4.235-.991-10.185c-.077-.789.895-1.222 1.43-.637l6.906 7.552 9.38-4.089c.728-.317 1.44.473 1.049 1.162z"/><path d="m421.735 156.904-.991 10.185 9.316 4.235c.722.328.61 1.386-.163 1.557l-9.993 2.205-1.149 10.168c-.089.788-1.13 1.009-1.532.326l-5.185-8.822-10.026 2.05c-.777.159-1.309-.762-.782-1.356l6.788-7.658-5.048-8.902c-.391-.69.321-1.48 1.047-1.163l9.38 4.089 6.906-7.552c.537-.584 1.509-.151 1.432.638z"/><path d="m377.128 150.113 3.237 9.708 10.233.079c.792.007 1.121 1.017.483 1.489l-8.232 6.079 3.086 9.757c.239.756-.621 1.382-1.267.92l-8.326-5.951-8.326 5.951c-.646.461-1.505-.164-1.267-.92l3.086-9.757-8.232-6.079c-.638-.471-.309-1.483.483-1.489l10.233-.079 3.237-9.708c.258-.752 1.322-.752 1.572 0z"/></g></svg>