<svg enable-background="new 0 0 512.001 512.001" viewBox="0 0 512.001 512.001" xmlns="http://www.w3.org/2000/svg"><path d="m0 203.03h512v105.93h-512z" fill="#ff4b55"/><path d="m8.828 88.276h494.345c4.875 0 8.828 3.953 8.828 8.828v48.552h-512.001v-48.552c0-4.875 3.953-8.828 8.828-8.828z" fill="#41479b"/><path d="m0 145.66h512v57.38h-512z" fill="#f5f5f5"/><path d="m503.172 423.724h-494.344c-4.875 0-8.828-3.953-8.828-8.828v-48.552h512v48.552c0 4.876-3.953 8.828-8.828 8.828z" fill="#41479b"/><path d="m0 308.96h512v57.38h-512z" fill="#f5f5f5"/><ellipse cx="138.39" cy="256" fill="#f5f5f5" rx="41.29" ry="44.14"/><path d="m117.03 238.92h42.714v21.357h-42.714z" fill="#3cc8ff"/><path d="m122.732 251.059.488 4.711 1.918-4.329-.992 4.631 3.164-3.526-2.376 4.099 4.099-2.375-3.525 3.164 4.631-.993-4.33 1.919 4.712.488-4.712.488 4.33 1.919-4.631-.992 3.525 3.163-4.099-2.376 2.376 4.099-3.164-3.525.992 4.631-1.918-4.329-.488 4.71-.488-4.71-1.919 4.329.992-4.631-3.163 3.525 2.374-4.099-4.098 2.376 3.526-3.163-4.632.992 4.33-1.919-4.711-.488 4.711-.488-4.33-1.919 4.632.993-3.526-3.164 4.098 2.375-2.374-4.099 3.163 3.526-.992-4.631 1.919 4.329z" fill="#ffe15a"/><path d="m146.936 290.172h-17.085l-15.662-12.815v-18.509h49.833v18.509z" fill="#41479b"/><path d="m155.479 253.153h-.001c-.004-.39-.32-.704-.711-.704s-.705.314-.711.704h-.002c0 2.471-1.432 5.889-3.188 8.337-2.452-3.096-3.374-6.686-3.722-8.947-.166-1.078-1.331-1.676-2.307-1.188-.47.235-.787.694-.867 1.213-1.09 6.983-4.382 9.95-6.514 11.17-3.191-3.085-4.243-8.078-4.589-11.03-.135-1.148-1.363-1.806-2.397-1.29-.398.199-.693.558-.832.981-4.466 13.613-16.875 14.993-16.875 14.993v4.271h49.833v-1.423-1.423-1.423-1.423-1.423c-5.693-1.429-7.117-11.395-7.117-11.395z" fill="#73af00"/><path d="m162.598 240.339c-5.695-2.848-5.695-5.695-5.695-5.695s-7.119-2.848-12.814-2.848c0 0 1.423-2.848-1.423-2.848-2.848 0-4.271 0-4.271 0s-1.423 0-4.271 0-1.423 2.848-1.423 2.848c-5.695 0-12.814 2.848-12.814 2.848s0 2.848-5.695 5.695c-5.695 2.848-5.695 9.255-5.695 9.255 0 1.18.957 2.135 2.135 2.135 1.18 0 2.135-.957 2.135-2.135 0-.244-.05-.473-.125-.691l.125-.021 14.238-9.966h11.391 11.391l14.238 9.966.125.021c-.075.217-.125.448-.125.691 0 1.18.957 2.135 2.135 2.135s2.135-.957 2.135-2.135c-.002-.001-.002-6.408-5.697-9.255z" fill="#f0aa00"/><path d="m166.87 257.425c-1.423 0-5.695 0-5.695-4.271s5.695-4.271 5.695-4.271l-8.543-2.848c-2.848 9.966 2.848 9.966 2.848 22.781 0 11.479-12.814 18.509-17.086 18.509-4.271 0-5.695 2.848-5.695 2.848s-1.423-2.848-5.695-2.848c-4.271 0-17.086-7.03-17.086-18.509 0-12.814 5.695-12.814 2.848-22.781l-8.543 2.848s5.695 0 5.695 4.271-4.271 4.271-5.695 4.271-7.119 0-7.119 7.119 7.119 15.662 17.086 21.357c9.966 5.695 5.695 11.391 18.509 11.391s8.543-5.695 18.509-11.391c9.966-5.695 17.086-14.238 17.086-21.357s-5.696-7.119-7.119-7.119z" fill="#f0aa00"/><path d="m135.546 235.138-3.444-1.548c-.572-.257-1.206-.317-1.816-.175-2.22.513-7.727 2.2-11.826 6.923l4.271 1.423z" fill="#73af00"/><path d="m141.241 235.138 3.444-1.548c.572-.257 1.206-.317 1.816-.175 2.22.513 7.727 2.2 11.826 6.923l-4.271 1.423z" fill="#73af00"/><path d="m138.897 236.067 2.596-2.596c.139-.139.139-.364 0-.503s-.364-.139-.503 0l-2.596 2.596-2.596-2.596c-.139-.139-.364-.139-.503 0s-.139.364 0 .503l2.596 2.596-2.596 2.596c-.139.139-.139.364 0 .503.07.07.161.105.252.105.09 0 .182-.035.252-.105l2.596-2.596 2.596 2.596c.07.07.161.105.252.105.092 0 .182-.035.252-.105.139-.139.139-.364 0-.503z" fill="#73af00"/><path d="m166.87 248.882c0-2.422-2.289-3.469-4.271-3.924v-1.128c-2.68-.252-4.177-1.258-6.775-3.029-1.001-.683-2.136-1.455-3.507-2.289-5.006-3.041-8.854-3.48-11.075-3.374v2.353h-5.695v-2.353c-2.221-.106-6.069.333-11.075 3.374-1.37.833-2.506 1.606-3.507 2.289-2.599 1.77-4.094 2.777-6.775 3.029v1.128c-1.983.454-4.271 1.501-4.271 3.924l4.271-1.423v.649c4.041-.298 6.351-1.848 9.18-3.775.959-.653 2.045-1.394 3.319-2.167 3.252-1.976 5.779-2.588 7.434-2.732v2.33h8.543v-2.33c1.655.145 4.182.756 7.434 2.732 1.276.775 2.361 1.514 3.319 2.167 2.828 1.927 5.139 3.478 9.18 3.775v-.649z" fill="#f5f5f5"/><path d="m155.479 226.439v-1.762h-3.966c.693-.595 1.119-1.295 1.119-2.135 0-3.934-8.95-4.983-14.238-4.983s-14.238 1.049-14.238 4.983c0 .84.426 1.54 1.119 2.135h-3.966v1.762c-3.486.778-6.335 2.648-6.485 2.749l1.579 2.369c.039-.026 3.957-2.609 7.753-2.609v-1.423h28.476v1.423c3.797 0 7.714 2.582 7.753 2.609l1.579-2.369c-.149-.101-2.999-1.971-6.485-2.749zm-11.39-2.156v-1.081c0-.697-.655-1.208-1.331-1.039l-4.364 1.091-4.364-1.091c-.676-.169-1.331.342-1.331 1.039v1.081c-3.199-.47-5.09-1.252-5.606-1.741.77-.732 4.543-2.135 11.3-2.135s10.53 1.405 11.3 2.135c-.514.488-2.406 1.27-5.604 1.741z" fill="#3cc8ff"/><path d="m138.572 242.3.361 1.081 1.14.009c.148.001.209.19.09.277l-.917.678.344 1.087c.044.141-.116.257-.236.171l-.928-.663-.928.663c-.12.086-.28-.031-.236-.171l.344-1.087-.917-.678c-.119-.087-.057-.276.09-.277l1.14-.009.361-1.081c.047-.141.244-.141.292 0z" fill="#f5f5f5"/><path d="m132.99 242.665.472 1.038 1.135-.11c.147-.014.227.167.119.266l-.841.77.456 1.045c.06.136-.088.268-.216.195l-.992-.562-.853.757c-.11.098-.282-.001-.253-.146l.228-1.118-.983-.577c-.127-.075-.086-.268.061-.285l1.133-.128.245-1.113c.03-.146.228-.167.289-.032z" fill="#f5f5f5"/><path d="m127.258 244.191.686.911 1.084-.354c.14-.046.258.114.173.234l-.654.934.672.921c.087.119-.028.28-.169.237l-1.09-.334-.669.924c-.086.119-.276.06-.278-.087l-.02-1.14-1.085-.351c-.14-.045-.142-.244-.002-.291l1.078-.371-.002-1.14c-.001-.147.188-.211.276-.093z" fill="#f5f5f5"/><path d="m121.514 246.613.8.812 1.027-.494c.134-.064.271.078.203.21l-.525 1.012.788.824c.102.107.01.281-.136.258l-1.126-.186-.541 1.004c-.07.13-.265.096-.287-.05l-.17-1.128-1.122-.204c-.146-.026-.173-.223-.041-.289l1.02-.51-.152-1.13c-.02-.147.158-.234.262-.129z" fill="#f5f5f5"/><path d="m143.862 242.665-.472 1.038-1.135-.11c-.147-.014-.227.167-.119.266l.841.77-.456 1.045c-.06.136.088.268.216.195l.992-.562.853.757c.11.098.282-.001.253-.146l-.228-1.118.983-.577c.127-.075.086-.268-.061-.285l-1.133-.128-.245-1.113c-.031-.146-.229-.167-.289-.032z" fill="#f5f5f5"/><path d="m149.593 244.191-.686.911-1.084-.354c-.14-.046-.258.114-.173.234l.654.934-.672.921c-.087.119.028.28.169.237l1.09-.334.669.924c.086.119.276.06.278-.087l.02-1.14 1.085-.351c.14-.045.142-.244.002-.291l-1.078-.371.002-1.14c.001-.147-.188-.211-.276-.093z" fill="#f5f5f5"/><path d="m155.338 246.613-.8.812-1.027-.494c-.134-.064-.271.078-.203.21l.525 1.012-.788.824c-.102.107-.01.281.136.258l1.126-.186.541 1.004c.07.13.265.096.287-.05l.17-1.128 1.122-.204c.146-.026.173-.223.041-.289l-1.02-.51.152-1.13c.019-.147-.159-.234-.262-.129z" fill="#f5f5f5"/><path d="m128.56 276.468 7.253 4.849h8.765l4.05-3.47-3.115 1.246h-10.323z" fill="#8c5a28"/><path d="m133.499 270.21-.7 7.06-3.186-1.216c0-.002 1.466-3.404 3.886-5.844z" fill="#f5f5f5"/><path d="m139.78 267.41h.471v12.02h-.471z" fill="#8c5a28"/><path d="m144.14 268.43h.471v11.01h-.471z" fill="#8c5a28"/><path d="m135.45 268.43h.471v11.01h-.471z" fill="#8c5a28"/><path d="m141.462 278.292h-2.877c-.299 0-.542-.243-.542-.542v-1.453c0-.299.243-.542.542-.542h2.877c.299 0 .542.243.542.542v1.453c0 .299-.243.542-.542.542z" fill="#f5f5f5"/><path d="m141.462 274.91h-2.877c-.299 0-.542-.243-.542-.542v-1.453c0-.299.243-.542.542-.542h2.877c.299 0 .542.243.542.542v1.453c0 .3-.243.542-.542.542z" fill="#f5f5f5"/><path d="m141.462 271.796h-2.877c-.299 0-.542-.243-.542-.542v-1.453c0-.299.243-.542.542-.542h2.877c.299 0 .542.243.542.542v1.453c0 .299-.243.542-.542.542z" fill="#f5f5f5"/><path d="m145.551 278.292h-2.343c-.299 0-.542-.243-.542-.542v-1.453c0-.299.243-.542.542-.542h2.343c.299 0 .542.243.542.542v1.453c0 .299-.243.542-.542.542z" fill="#f5f5f5"/><path d="m145.551 275.179h-2.343c-.299 0-.542-.243-.542-.542v-1.055c0-.299.243-.542.542-.542h2.343c.299 0 .542.243.542.542v1.055c0 .299-.243.542-.542.542z" fill="#f5f5f5"/><path d="m145.551 272.093h-2.343c-.299 0-.542-.243-.542-.542v-.712c0-.299.243-.542.542-.542h2.343c.299 0 .542.243.542.542v.712c0 .299-.243.542-.542.542z" fill="#f5f5f5"/><path d="m136.852 278.292h-2.343c-.299 0-.542-.243-.542-.542v-1.453c0-.299.243-.542.542-.542h2.343c.299 0 .542.243.542.542v1.453c-.001.299-.243.542-.542.542z" fill="#f5f5f5"/><path d="m136.852 275.179h-2.343c-.299 0-.542-.243-.542-.542v-1.055c0-.299.243-.542.542-.542h2.343c.299 0 .542.243.542.542v1.055c-.001.299-.243.542-.542.542z" fill="#f5f5f5"/><path d="m136.852 272.093h-2.343c-.299 0-.542-.243-.542-.542v-.712c0-.299.243-.542.542-.542h2.343c.299 0 .542.243.542.542v.712c-.001.299-.243.542-.542.542z" fill="#f5f5f5"/><path d="m135.915 268.43v1.423l2.093-.725z" fill="#f5f5f5"/><path d="m144.609 268.43v1.423l2.093-.725z" fill="#f5f5f5"/><path d="m140.253 267.409v1.422l2.094-.725z" fill="#f5f5f5"/><path d="m134.693 257.801 2.519 1.685h3.046l1.407-1.206-1.083.432h-3.586z" fill="#8c5a28"/><path d="m136.409 255.626-.243 2.453-1.107-.423c-.001 0 .509-1.182 1.35-2.03z" fill="#f5f5f5"/><path d="m138.59 254.65h.163v4.177h-.163z" fill="#8c5a28"/><path d="m140.1 255.01h.163v3.823h-.163z" fill="#8c5a28"/><path d="m137.08 255.01h.163v3.823h-.163z" fill="#8c5a28"/><g fill="#f5f5f5"><path d="m139.174 258.434h-1c-.104 0-.189-.084-.189-.189v-.504c0-.104.084-.189.189-.189h1c.104 0 .189.084.189.189v.504c0 .105-.084.189-.189.189z"/><path d="m139.174 257.26h-1c-.104 0-.189-.084-.189-.189v-.504c0-.104.084-.189.189-.189h1c.104 0 .189.084.189.189v.504c0 .104-.084.189-.189.189z"/><path d="m139.174 256.178h-1c-.104 0-.189-.084-.189-.189v-.504c0-.104.084-.189.189-.189h1c.104 0 .189.084.189.189v.504c0 .105-.084.189-.189.189z"/><path d="m140.596 258.434h-.814c-.104 0-.189-.084-.189-.189v-.504c0-.104.084-.189.189-.189h.814c.104 0 .189.084.189.189v.504c-.001.105-.086.189-.189.189z"/><path d="m140.596 257.353h-.814c-.104 0-.189-.084-.189-.189v-.366c0-.104.084-.189.189-.189h.814c.104 0 .189.084.189.189v.366c-.001.106-.086.189-.189.189z"/><path d="m140.596 256.28h-.814c-.104 0-.189-.084-.189-.189v-.247c0-.104.084-.189.189-.189h.814c.104 0 .189.084.189.189v.247c-.001.106-.086.189-.189.189z"/><path d="m137.573 258.434h-.814c-.104 0-.189-.084-.189-.189v-.504c0-.104.084-.189.189-.189h.814c.104 0 .189.084.189.189v.504c-.001.105-.085.189-.189.189z"/><path d="m137.573 257.353h-.814c-.104 0-.189-.084-.189-.189v-.366c0-.104.084-.189.189-.189h.814c.104 0 .189.084.189.189v.366c-.001.106-.085.189-.189.189z"/><path d="m137.573 256.28h-.814c-.104 0-.189-.084-.189-.189v-.247c0-.104.084-.189.189-.189h.814c.104 0 .189.084.189.189v.247c-.001.106-.085.189-.189.189z"/><path d="m137.248 255.008v.494l.727-.251z"/><path d="m140.268 255.008v.494l.727-.251z"/><path d="m138.755 254.654v.493l.727-.252z"/><path d="m132.91 250.305h-1.848c-.666 0-1.212-.545-1.212-1.212 0-.666.545-1.212 1.212-1.212h1.848c.666 0 1.212.545 1.212 1.212.001.667-.545 1.212-1.212 1.212z"/><path d="m146.965 250.305h-1.219c-.669 0-1.212-.543-1.212-1.212 0-.669.543-1.212 1.212-1.212h1.219c.669 0 1.212.543 1.212 1.212-.001.669-.544 1.212-1.212 1.212z"/><path d="m155.621 252.129h-1.074c-.383 0-.693-.31-.693-.693v-.115c0-.383.31-.693.693-.693h1.074c.383 0 .693.31.693.693v.115c0 .383-.31.693-.693.693z"/></g></svg>