<svg enable-background="new 0 0 512.001 512.001" viewBox="0 0 512.001 512.001" xmlns="http://www.w3.org/2000/svg"><path d="m0 311.908h512v102.988c0 4.875-3.953 8.828-8.828 8.828h-494.344c-4.875 0-8.828-3.953-8.828-8.828z" fill="#41479b"/><path d="m8.828 88.276h494.345c4.875 0 8.828 3.953 8.828 8.828v102.988h-512.001v-102.988c0-4.875 3.953-8.828 8.828-8.828z" fill="#ff4b55"/><path d="m0 200.09h512v111.81h-512z" fill="#f5f5f5"/><g fill="#ff4b55"><path d="m194.21 203.03h24.717v28.25h-24.717z"/><path d="m243.64 203.03h24.717v28.25h-24.717z"/><path d="m218.92 231.28h24.717v28.25h-24.717z"/><path d="m293.07 203.03h24.717v28.25h-24.717z"/><path d="m268.36 231.28h24.717v28.25h-24.717z"/></g><path d="m218.92 203.03h24.717v28.25h-24.717z" fill="#f5f5f5"/><path d="m268.36 203.03h24.717v28.25h-24.717z" fill="#f5f5f5"/><path d="m194.21 231.28h24.717v28.25h-24.717z" fill="#f5f5f5"/><path d="m243.64 231.28h24.717v28.25h-24.717z" fill="#f5f5f5"/><path d="m293.07 231.28h24.717v28.25h-24.717z" fill="#f5f5f5"/><path d="m243.64 259.53h24.717v28.25h-24.717z" fill="#ff4b55"/><path d="m218.92 287.78h24.717v28.25h-24.717z" fill="#ff4b55"/><path d="m268.36 287.78h24.717v28.25h-24.717z" fill="#ff4b55"/><path d="m218.92 259.53h24.717v28.25h-24.717z" fill="#f5f5f5"/><path d="m268.36 259.53h24.717v28.25h-24.717z" fill="#f5f5f5"/><path d="m243.64 287.78h24.717v28.25h-24.717z" fill="#f5f5f5"/><path d="m317.792 203.035v79.448c0 34.127-27.666 61.793-61.793 61.793s-61.793-27.666-61.793-61.793v-79.448zm4.414-4.414h-4.414-123.586-4.414v4.414 79.448c0 36.506 29.7 66.207 66.207 66.207s66.207-29.7 66.207-66.207v-79.448z" fill="#ff4b55"/><path d="m218.924 287.779v-28.248h-24.717v22.952c0 1.789.118 3.546.267 5.297h24.45z" fill="#ff4b55"/><path d="m317.525 287.779h-24.45v28.248h14.774c5.362-8.269 8.795-17.886 9.676-28.248z" fill="#f5f5f5"/><path d="m204.15 316.027h14.774v-28.247h-24.45c.881 10.361 4.315 19.978 9.676 28.247z" fill="#f5f5f5"/><path d="m293.075 287.779h24.45c.149-1.749.267-3.508.267-5.297v-22.952h-24.717z" fill="#ff4b55"/><path d="m218.924 331.833v-15.806h-14.774c3.959 6.107 8.973 11.441 14.774 15.806z" fill="#ff4b55"/><path d="m307.849 316.027h-14.774v15.806c5.802-4.365 10.816-9.699 14.774-15.806z" fill="#ff4b55"/><path d="m218.924 331.833c7.194 5.415 15.567 9.345 24.717 11.202v-27.008h-24.717z" fill="#f5f5f5"/><path d="m268.358 343.035c9.15-1.857 17.523-5.788 24.717-11.202v-15.806h-24.717z" fill="#f5f5f5"/><path d="m268.358 316.027h-24.717v27.008c3.993.811 8.126 1.241 12.359 1.241s8.365-.43 12.359-1.241v-27.008z" fill="#ff4b55"/><path d="m211.27 156.292c-5.378-.832-10.88-1.432-16.489-1.779-4.338 3.571-8.473 7.294-12.398 11.15 3.942 9.515 7.883 19.03 11.823 28.545 7.913-3.277 16.021-5.9 24.247-7.866-2.394-10.017-4.788-20.034-7.183-30.05z" fill="#4173cd"/><path d="m271.003 151.605c-4.833-2.445-9.837-4.706-15.002-6.765-5.165 2.06-10.17 4.321-15.002 6.765.803 10.266 1.607 20.534 2.41 30.803 8.382-.657 16.804-.657 25.186 0 .801-10.268 1.605-20.535 2.408-30.803z" fill="#4173cd"/><path d="m329.616 165.663c-3.925-3.855-8.061-7.578-12.398-11.15-5.609.346-11.111.947-16.489 1.779-2.394 10.017-4.789 20.033-7.183 30.049 8.226 1.967 16.334 4.589 24.247 7.866 3.941-9.515 7.882-19.03 11.823-28.544z" fill="#4173cd"/><path d="m240.997 151.605c-5.154-1.663-10.456-3.118-15.894-4.346-4.798 2.841-9.411 5.858-13.832 9.033 2.394 10.017 4.789 20.033 7.185 30.049 8.226-1.967 16.569-3.277 24.952-3.933-.804-10.268-1.608-20.535-2.411-30.803z" fill="#41479b"/><path d="m300.729 156.292c-4.421-3.175-9.035-6.193-13.832-9.033-5.438 1.228-10.741 2.685-15.894 4.346-.803 10.266-1.607 20.534-2.41 30.803 8.383.655 16.726 1.966 24.952 3.933 2.395-10.016 4.79-20.033 7.184-30.049z" fill="#41479b"/><path d="m241.96 163.926c-9.345.73-18.646 2.191-27.817 4.385-.479-2.003-.958-4.007-1.437-6.01 9.485-2.266 19.105-3.778 28.771-4.535.162 2.054.323 4.107.483 6.16z" fill="#ff4b55"/><path d="m242.925 176.247c-8.703.681-17.366 2.042-25.907 4.084-.48-2.003-.958-4.007-1.437-6.009 8.855-2.118 17.838-3.529 26.862-4.234.161 2.051.321 4.106.482 6.159z" fill="#ff4b55"/><path d="m285.326 178.321c-2.155-.383-4.316-.724-6.482-1.022-3.562-.492-6.215-3.516-5.906-6.915.308-3.398 3.713-5.863 7.59-5.327 2.325.32 4.645.685 6.959 1.097 3.859.682 6.357 4.082 5.604 7.406-.751 3.331-4.217 5.386-7.765 4.761z" fill="#ffe15a"/><path d="m320.157 188.498c-8.215-3.403-16.636-6.125-25.175-8.168.48-2.003.958-4.007 1.437-6.009 8.855 2.116 17.585 4.94 26.103 8.468-.788 1.903-1.576 3.806-2.365 5.709z" fill="#ff4b55"/><path d="m317.952 169.96c-.873 2.407-3.817 3.552-6.599 2.647-2.781-.906-4.483-3.55-3.779-6.012s3.686-3.765 6.636-2.806c2.953.957 4.615 3.764 3.742 6.171z" fill="#ffe15a"/><path d="m204.425 166.596c.703 2.464-1 5.109-3.779 6.012-2.781.9-5.725-.245-6.599-2.647-.874-2.408.79-5.214 3.742-6.17 2.949-.957 5.934.344 6.636 2.805z" fill="#ffe15a"/><path d="m254.59 162.549c.006 2.047-1.834 3.714-4.114 3.784-2.279.073-4.222-1.481-4.342-3.52-.119-2.04 1.719-3.806 4.111-3.883 2.392-.075 4.335 1.572 4.345 3.619z" fill="#ffe15a"/><path d="m265.865 162.813c-.121 2.044-2.065 3.593-4.342 3.52-2.279-.07-4.119-1.737-4.114-3.784.009-2.045 1.953-3.697 4.344-3.619 2.393.072 4.23 1.842 4.112 3.883z" fill="#ffe15a"/><path d="m260.007 172.08c-.057 2.047-1.85 3.657-4.008 3.657-2.156-.001-3.949-1.609-4.008-3.657-.056-2.041 1.737-3.755 4.008-3.749 2.271-.005 4.064 1.707 4.008 3.749z" fill="#ffe15a"/></svg>