<svg enable-background="new 0 0 512.001 512.001" viewBox="0 0 512.001 512.001" xmlns="http://www.w3.org/2000/svg"><path d="m512 155.366h-512v-58.262c0-4.875 3.953-8.828 8.828-8.828h494.345c4.875 0 8.828 3.953 8.828 8.828z" fill="#41479b"/><path d="m503.172 423.724h-494.344c-4.875 0-8.828-3.953-8.828-8.828v-58.262h512v58.262c0 4.876-3.953 8.828-8.828 8.828z" fill="#41479b"/><path d="m0 155.37h512v67.09h-512z" fill="#f5f5f5"/><path d="m0 222.46h512v67.09h-512z" fill="#41479b"/><path d="m0 289.55h512v67.09h-512z" fill="#f5f5f5"/><path d="m3.31 421.628 255.402-161.754c2.841-1.8 2.841-5.945 0-7.745l-255.402-161.756c-1.975 1.619-3.31 3.978-3.31 6.731v317.792c0 2.753 1.336 5.112 3.31 6.732z" fill="#ff4b55"/><path d="m88.526 213.441 9.064 27.176 28.647.222c2.219.018 3.139 2.849 1.354 4.168l-23.045 17.018 8.641 27.313c.67 2.116-1.74 3.866-3.545 2.575l-23.306-16.658-23.306 16.659c-1.805 1.291-4.215-.46-3.545-2.575l8.641-27.312-23.046-17.018c-1.785-1.319-.865-4.151 1.354-4.168l28.647-.222 9.064-27.176c.701-2.107 3.679-2.107 4.381-.002z" fill="#f5f5f5"/></svg>