<svg enable-background="new 0 0 512.001 512.001" viewBox="0 0 512.001 512.001" xmlns="http://www.w3.org/2000/svg"><path d="m503.172 423.725h-494.344c-4.875 0-8.828-3.953-8.828-8.828v-317.793c0-4.875 3.953-8.828 8.828-8.828h494.345c4.875 0 8.828 3.953 8.828 8.828v317.793c-.001 4.876-3.954 8.828-8.829 8.828z" fill="#82afff"/><path d="m503.172 88.277h-25.305l-477.867 247.172v17.655l508.367-262.948c-1.474-1.103-3.212-1.879-5.195-1.879z" fill="#ffe15a"/><path d="m8.828 423.725h25.305l477.867-247.172v-17.655l-508.367 262.948c1.474 1.103 3.212 1.879 5.195 1.879z" fill="#ffe15a"/><path d="m508.367 90.156-508.367 262.948v61.793c0 2.893 1.483 5.339 3.633 6.948l508.367-262.947v-61.794c0-2.893-1.483-5.338-3.633-6.948z" fill="#ff4b55"/><path d="m92.619 122.979 12.718 38.135 40.199.311c2.248.018 3.18 2.886 1.372 4.222l-32.339 23.881 12.126 38.328c.678 2.143-1.762 3.916-3.591 2.609l-32.705-23.377-32.705 23.377c-1.828 1.308-4.269-.466-3.591-2.609l12.126-38.328-32.339-23.881c-1.809-1.335-.876-4.204 1.372-4.222l40.199-.311 12.718-38.135c.713-2.132 3.728-2.132 4.44 0z" fill="#ffe15a"/></svg>