<svg enable-background="new 0 0 512 512" viewBox="0 0 512 512" xmlns="http://www.w3.org/2000/svg"><path d="m3.256 421.59 252.744-165.59-252.744-165.59c-1.945 1.619-3.256 3.965-3.256 6.693v317.793c0 2.729 1.311 5.075 3.256 6.694z" fill="#f5f5f5"/><path d="m3.256 421.59c1.53 1.274 3.425 2.134 5.571 2.134h494.345c4.875 0 8.828-3.953 8.828-8.828v-158.896h-256z" fill="#73af00"/><path d="m3.256 90.41c1.53-1.274 3.425-2.134 5.571-2.134h494.345c4.875 0 8.828 3.953 8.828 8.828v158.896h-256z" fill="#82afff"/><path d="m91.766 216.135-8.94 26.806-28.257.22c-1.549.012-2.191 1.99-.946 2.91l22.732 16.787-8.523 26.942c-.467 1.478 1.215 2.699 2.475 1.798l22.989-16.431 22.989 16.431c1.26.9 2.942-.321 2.475-1.798l-8.523-26.942 22.729-16.788c1.246-.92.604-2.898-.946-2.91l-28.257-.22-8.94-26.806c-.488-1.469-2.567-1.469-3.057.001z" fill="#ff4b55"/></svg>