<svg enable-background="new 0 0 512.001 512.001" viewBox="0 0 512.001 512.001" xmlns="http://www.w3.org/2000/svg"><path d="m503.172 423.721h-494.344c-4.875 0-8.828-3.953-8.828-8.828v-317.792c0-4.875 3.953-8.828 8.828-8.828h494.345c4.875 0 8.828 3.953 8.828 8.828v317.792c-.001 4.877-3.954 8.828-8.829 8.828z" fill="#73af00"/><path d="m0 220.687h512v23.54h-512z" fill="#ffe15a"/><path d="m0 244.227h512v23.54h-512z" fill="#464655"/><path d="m0 267.767h512v23.54h-512z" fill="#f5f5f5"/><path d="m220.69 88.277h23.54v335.45h-23.54z" fill="#ffe15a"/><path d="m244.23 88.277h23.54v335.45h-23.54z" fill="#464655"/><path d="m267.77 88.277h23.54v335.45h-23.54z" fill="#f5f5f5"/><circle cx="256" cy="255.997" fill="#ff4b55" r="88.28"/><path d="m248.421 271.182s-1.031 7.217 5.98 17.938h13.608l-3.093-12.989z" fill="#73af00"/><path d="m247.459 222.868s-22.266 36.425 10.446 58.142l3.436-20.618 2.199-26.666-3.436-11.409z" fill="#a561cd"/><path d="m247.459 222.867s-2.545 4.237-4.653 10.612c2.866 2.996 10.701 6.708 20.335 5.08l.399-4.834-3.437-11.409z" fill="#73af00"/><path d="m243.197 217.645s.274-7.285 7.423-7.285c8.935 0 16.22 2.061 27.765 25.978 0 0-10.269 10.08-16.769-3.849-1.924-4.124-2.612-9.071-2.612-9.071s-7.972 2.749-13.47-.413z" fill="#a561cd"/><path d="m246.771 221.081-1.65-4.398s-9.209-1.512-5.361 9.622c0 0 .275-2.199 2.612-1.924 2.338.274 4.811-1.513 4.399-3.3z" fill="#ffe15a"/><path d="m262.165 262.866s-9.689 7.593-4.26 25.428c2.887 9.484 14.432 19.896 14.432 19.896s8.556-22.37 5.773-31.029c-1.638-5.097-15.945-14.295-15.945-14.295z" fill="#73af00"/><path d="m280.584 291.594s-25.016-23.848-26.666-42.61 9.169-15.784 11.134-14.57c4.673 2.886 16.494 14.982 15.532 57.18z" fill="#73af00"/><path d="m277.48 297.057h-41.418c-.861 0-1.558-.697-1.558-1.558v-3.07c0-.861.697-1.558 1.558-1.558h41.418c.861 0 1.558.697 1.558 1.558v3.07c-.001.86-.698 1.558-1.558 1.558z" fill="#b34900"/><path d="m267.389 291.181c-1.442.599-4.33 1.341-3.608 3.917.553 1.974 4.33 1.752 3.608 4.021-.488 1.533-8.159 1.674-11.134 1.237-1.822-.268-5.773-1.341-5.223-5.876.55-4.536 2.199-5.234 4.262-6.048 2.045-.808 10.99-.629 12.302.481.669.567.885 1.815-.207 2.268z" fill="#ffe15a"/><g fill="#73af00"><path d="m256.812 177.134 2.009 6.025 6.35.05c.822.007 1.163 1.056.502 1.544l-5.109 3.773 1.916 6.055c.248.783-.644 1.432-1.313.954l-5.167-3.693-5.166 3.693c-.669.478-1.561-.17-1.313-.954l1.916-6.055-5.109-3.773c-.661-.489-.32-1.538.502-1.544l6.35-.05 2.009-6.025c.259-.78 1.362-.78 1.623 0z"/><path d="m256.812 317.987 2.009 6.025 6.35.05c.822.007 1.163 1.056.502 1.544l-5.109 3.773 1.916 6.055c.248.783-.644 1.432-1.313.954l-5.167-3.693-5.166 3.693c-.669.478-1.561-.17-1.313-.954l1.916-6.055-5.109-3.773c-.661-.489-.32-1.538.502-1.544l6.35-.05 2.009-6.025c.259-.78 1.362-.78 1.623 0z"/><path d="m256.812 177.134 2.009 6.025 6.35.05c.822.007 1.163 1.056.502 1.544l-5.109 3.773 1.916 6.055c.248.783-.644 1.432-1.313.954l-5.167-3.693-5.166 3.693c-.669.478-1.561-.17-1.313-.954l1.916-6.055-5.109-3.773c-.661-.489-.32-1.538.502-1.544l6.35-.05 2.009-6.025c.259-.78 1.362-.78 1.623 0z"/><path d="m256.812 317.987 2.009 6.025 6.35.05c.822.007 1.163 1.056.502 1.544l-5.109 3.773 1.916 6.055c.248.783-.644 1.432-1.313.954l-5.167-3.693-5.166 3.693c-.669.478-1.561-.17-1.313-.954l1.916-6.055-5.109-3.773c-.661-.489-.32-1.538.502-1.544l6.35-.05 2.009-6.025c.259-.78 1.362-.78 1.623 0z"/><path d="m207.734 191.589 1.76 6.102-5.204 3.64c-.674.471-.36 1.529.462 1.556l6.347.212 1.855 6.074c.241.787 1.343.814 1.623.042l2.163-5.971 6.35.114c.822.014 1.19-1.025.541-1.53l-5.011-3.902 2.069-6.006c.268-.777-.608-1.449-1.289-.988l-5.259 3.56-5.07-3.823c-.657-.496-1.566.13-1.337.92z"/><path d="m287.582 307.621 1.76 6.102-5.204 3.64c-.674.471-.36 1.529.462 1.556l6.347.212 1.855 6.074c.241.787 1.343.814 1.623.042l2.163-5.971 6.35.114c.822.014 1.19-1.025.541-1.53l-5.011-3.902 2.07-6.004c.268-.777-.608-1.449-1.289-.988l-5.259 3.56-5.07-3.823c-.656-.497-1.565.129-1.338.918z"/><path d="m177.885 232.025 5.07 3.823-1.976 6.036c-.256.781.63 1.439 1.304.968l5.204-3.641 5.13 3.744c.664.484 1.564-.154 1.323-.941l-1.855-6.073 5.146-3.721c.666-.482.335-1.535-.487-1.549l-6.35-.113-1.949-6.045c-.253-.782-1.355-.793-1.623-.017l-2.069 6.004-6.35-.014c-.823-.003-1.174 1.043-.518 1.539z"/><path d="m311.401 276.887 5.07 3.823-1.976 6.036c-.256.781.63 1.439 1.304.968l5.204-3.641 5.13 3.744c.664.484 1.564-.155 1.323-.941l-1.855-6.073 5.146-3.721c.666-.482.335-1.535-.487-1.549l-6.35-.113-1.949-6.045c-.253-.782-1.355-.793-1.623-.017l-2.069 6.004-6.35-.014c-.822-.002-1.174 1.044-.518 1.539z"/><path d="m300.912 191.589-1.76 6.102 5.204 3.64c.674.471.36 1.529-.462 1.556l-6.347.212-1.855 6.074c-.241.787-1.343.814-1.623.042l-2.163-5.971-6.35.114c-.822.014-1.19-1.025-.541-1.53l5.011-3.902-2.07-6.004c-.268-.777.608-1.449 1.289-.988l5.259 3.56 5.07-3.823c.657-.498 1.566.128 1.338.918z"/><path d="m221.063 307.621-1.76 6.102 5.204 3.64c.674.471.36 1.529-.462 1.556l-6.347.212-1.855 6.074c-.241.787-1.343.814-1.623.042l-2.163-5.971-6.35.114c-.822.014-1.19-1.025-.541-1.53l5.011-3.902-2.07-6.004c-.268-.777.608-1.449 1.289-.988l5.259 3.56 5.07-3.823c.657-.497 1.566.129 1.338.918z"/><path d="m330.761 232.025-5.07 3.823 1.976 6.036c.256.781-.63 1.439-1.304.968l-5.204-3.641-5.13 3.744c-.664.484-1.564-.154-1.323-.941l1.855-6.073-5.146-3.721c-.666-.482-.335-1.535.487-1.549l6.35-.113 1.949-6.045c.253-.782 1.355-.793 1.623-.017l2.069 6.004 6.35-.014c.823-.003 1.175 1.043.518 1.539z"/><path d="m197.244 276.887-5.07 3.823 1.976 6.036c.256.781-.63 1.439-1.304.968l-5.204-3.641-5.13 3.744c-.664.484-1.564-.155-1.323-.941l1.855-6.073-5.146-3.721c-.666-.482-.335-1.535.487-1.549l6.35-.113 1.949-6.045c.253-.782 1.355-.793 1.623-.017l2.069 6.004 6.35-.014c.824-.002 1.175 1.044.518 1.539z"/></g></svg>