<svg enable-background="new 0 0 512.001 512.001" viewBox="0 0 512.001 512.001" xmlns="http://www.w3.org/2000/svg"><path d="m503.172 423.725h-494.344c-4.875 0-8.828-3.953-8.828-8.828v-317.793c0-4.875 3.953-8.828 8.828-8.828h494.345c4.875 0 8.828 3.953 8.828 8.828v317.793c-.001 4.876-3.954 8.828-8.829 8.828z" fill="#f5f5f5"/><path d="m211.862 220.691h-203.034c-4.875 0-8.828-3.953-8.828-8.828v-114.759c0-4.875 3.953-8.828 8.828-8.828h203.034c4.875 0 8.828 3.953 8.828 8.828v114.759c0 4.875-3.953 8.828-8.828 8.828z" fill="#41479b"/><path d="m503.172 423.725h-203.034c-4.875 0-8.828-3.953-8.828-8.828v-114.758c0-4.875 3.953-8.828 8.828-8.828h203.034c4.875 0 8.828 3.953 8.828 8.828v114.759c0 4.875-3.953 8.827-8.828 8.827z" fill="#41479b"/><path d="m503.172 220.691h-203.034c-4.875 0-8.828-3.953-8.828-8.828v-114.759c0-4.875 3.953-8.828 8.828-8.828h203.034c4.875 0 8.828 3.953 8.828 8.828v114.759c0 4.875-3.953 8.828-8.828 8.828z" fill="#ff4b55"/><path d="m211.862 423.725h-203.034c-4.875 0-8.828-3.953-8.828-8.828v-114.758c0-4.875 3.953-8.828 8.828-8.828h203.034c4.875 0 8.828 3.953 8.828 8.828v114.759c0 4.875-3.953 8.827-8.828 8.827z" fill="#ff4b55"/><path d="m250.932 281.172s5.274 1.931 4.586 8.552l2.132-.04s-1.345-7.651-2.457-8.568-4.261.056-4.261.056z" fill="#64b496"/><path d="m256.218 280.15c-2.237 0-6.147-.003-10.259-1.113.917-.954 2.184-2.876 2.184-6.227 0-5.248-3.616-1.9-3.616-1.9s-2.378 2.001-.94 7.35c-1.402-.535-2.793-1.225-4.119-2.109.825-1.036 2.471-3.45 3.427-7.278 0 0-6.026-1.191-7.674 3.347-1.01-1.281-1.874-2.722-2.595-4.317 1.549.019 3.71-1.003 3.71-6.901 0 0-3.935.007-4.986 3.42-.414-1.427-.729-2.956-.961-4.572 1.571.456 5.633.783 5.633-8.032 0 0-4.877.009-6.006 4.329-.062-1.105-.086-2.247-.075-3.425 2.368-1.238 5.636-3.965 5.297-9.56 0 0-2.249.51-4.311 2.239.406-2.121.238-5.226-3.015-7.817 0 0-2.989 5.29 1.377 9.585-.38.534-.711 1.142-.984 1.817-.981-1.494-2.554-2.883-5.088-3.727 0 0-1.166 7.085 5.449 10.049.157 4.138.804 7.794 1.916 10.973-1.895-1.669-3.428-3.967-3.428-3.967 0-7.872-6.453-8.071-6.453-8.071-1.205 8.985 5.439 9.348 5.439 9.348l3.638 3.97c-7.872-1.312-7.872 5.248-7.872 5.248 5.248 1.312 7.872-1.312 7.872-1.312l2.838 1.459c-5.034.147-6.774 5.101-6.774 5.101 6.327 1.055 10.953-.433 12.526-1.057 6.372 4.455 14.226 4.461 17.852 4.461v-1.311z" fill="#64b496"/><path d="m255.772 280.15c2.237 0 6.147-.003 10.259-1.113-.917-.954-2.184-2.876-2.184-6.227 0-5.248 3.616-1.9 3.616-1.9s2.378 2.001.94 7.35c1.402-.535 2.793-1.225 4.119-2.109-.825-1.036-2.471-3.45-3.427-7.278 0 0 6.026-1.191 7.674 3.347 1.01-1.281 1.874-2.722 2.595-4.317-1.549.019-3.71-1.003-3.71-6.901 0 0 3.935.007 4.988 3.42.414-1.427.729-2.956.961-4.572-1.571.456-5.633.783-5.633-8.032 0 0 4.877.009 6.006 4.329.062-1.105.086-2.247.075-3.425-2.368-1.238-5.636-3.965-5.297-9.56 0 0 2.249.51 4.311 2.239-.406-2.121-.238-5.226 3.015-7.817 0 0 2.989 5.29-1.377 9.585.38.534.711 1.142.984 1.817.981-1.494 2.554-2.883 5.088-3.727 0 0 1.166 7.085-5.449 10.049-.157 4.138-.804 7.794-1.916 10.973 1.895-1.669 3.428-3.967 3.428-3.967 0-7.872 6.453-8.071 6.453-8.071 1.205 8.985-5.439 9.348-5.439 9.348l-3.638 3.97c7.872-1.312 7.872 5.248 7.872 5.248-5.248 1.312-7.872-1.312-7.872-1.312l-2.838 1.459c5.034.147 6.774 5.101 6.774 5.101-6.327 1.055-10.953-.433-12.526-1.057-6.372 4.455-14.226 4.461-17.852 4.461z" fill="#64b496"/><path d="m233.863 222.956c-4.614 2.957-8.681 6.722-11.958 11.167 1.408 1.038 2.816 2.077 4.224 3.115 2.892-3.923 6.481-7.245 10.551-9.856z" fill="#41479b"/><path d="m256.014 257.067h18.367v10.496c0 2.899-2.349 5.248-5.248 5.248h-7.872c-2.156 0-4.052 1.054-5.248 2.66z" fill="#ff6b71"/><path d="m259.95 245.259v-14.432h19.68l-5.248 5.248v14.432h-14.432z" fill="#5f64b9"/><path d="m267.82 250.501h6.56v6.56h-6.56z" fill="#f5f5f5"/><path d="m256.014 257.067h-18.367v10.496c0 2.899 2.349 5.248 5.248 5.248h7.872c2.156 0 4.052 1.054 5.248 2.66z" fill="#ff6b71"/><path d="m252.735 273.127c1.309.418 2.439 1.233 3.25 2.307h.061c.812-1.075 1.941-1.888 3.25-2.307v-10.813h-6.56z" fill="#f5f5f5"/><path d="m252.079 245.259v-14.432h-19.68l5.248 5.248v14.432h14.432z" fill="#5f64b9"/><path d="m237.65 250.501h6.56v6.56h-6.56z" fill="#f5f5f5"/><path d="m244.207 237.387v3.936l3.936 2.624v-2.624z" fill="#41479b"/><path d="m248.143 241.323v3.936l5.248 2.624v-1.312z" fill="#f5f5f5"/><path d="m267.822 237.387v3.936l-3.936 2.624v-2.624z" fill="#41479b"/><path d="m263.886 241.323v3.936l-5.248 2.624v-1.312z" fill="#f5f5f5"/><path d="m263.932 266.25h-15.829c-3.598 0-6.515-2.937-6.515-6.56v-20.291l14.525 9.795 14.333-9.795v20.291c0 3.624-2.916 6.56-6.514 6.56z" fill="#ff4b55"/><g fill="#41479b"><path d="m246.831 242.635-5.248-3.936v14.432l5.248 2.624z"/><path d="m265.198 242.635 5.248-3.936v14.432l-5.248 2.624z"/><path d="m248.14 255.761h15.744v6.56h-15.744z"/></g><path d="m248.143 243.947 7.871 3.936 7.872-3.936v11.808h-15.743z" fill="#ff4b55"/><path d="m261.919 245.187v13.192c0 1.085-.883 1.967-1.967 1.967h-7.872c-1.085 0-1.967-.883-1.967-1.967v-13.138l-3.936-2.636v15.774c0 3.255 2.648 5.903 5.903 5.903h7.872c3.255 0 5.903-2.648 5.903-5.903v-15.863z" fill="#f5f5f5"/><path d="m263.293 254.351c-2.21.199-4.697.422-7.278 1.32-2.58-.898-5.068-1.121-7.278-1.32-3.698-.332-5.892-.655-7.148-2.886v3.787c1.929 1.254 4.372 1.484 6.913 1.713 2.281.205 4.639.416 7.049 1.329l.465.175.465-.175c2.409-.913 4.767-1.123 7.049-1.329 2.543-.228 4.99-.455 6.919-1.711v-3.798c-1.257 2.24-3.453 2.563-7.156 2.895z" fill="#f5f5f5"/><path d="m258.638 241.979h-1.967v-1.968h-1.312v1.968h-1.968v1.312h1.968v5.904h1.312v-5.904h1.967z" fill="#ffe15a"/><path d="m248.7 233.999h1.018v16.304h-1.018z" fill="#464655" transform="matrix(.7071 -.7071 .7071 .7071 -98.2351 247.1415)"/><path d="m241.278 234.221 1.441 2.882 1.441-1.441z" fill="#ffe15a"/><path d="m250.323 232.894h1.019v16.305h-1.019z" fill="#464655" transform="matrix(.8083 -.5888 .5888 .8083 -93.8377 193.8998)"/><path d="m244.227 231.984.977 3.071 1.647-1.2z" fill="#ffe15a"/><path d="m247.395 235.365h1.018v16.304h-1.018z" fill="#464655" transform="matrix(.5725 -.8199 .8199 .5725 -93.6819 307.3604)"/><path d="m238.71 237.109 1.923 2.585 1.167-1.67z" fill="#ffe15a"/><path d="m262.312 233.987h1.018v16.304h-1.018z" fill="#464655" transform="matrix(-.7071 -.7071 .7071 -.7071 277.4449 599.1993)"/><path d="m270.745 234.221-1.441 2.882-1.441-1.441z" fill="#ffe15a"/><path d="m260.688 232.889h1.019v16.305h-1.019z" fill="#464655" transform="matrix(-.8083 -.5888 .5888 -.8083 330.3971 589.6631)"/><path d="m267.796 231.984-.977 3.071-1.646-1.2z" fill="#ffe15a"/><path d="m263.629 235.379h1.018v16.304h-1.018z" fill="#464655" transform="matrix(-.5725 -.8199 .8199 -.5725 215.6856 599.5198)"/><path d="m273.313 237.109-1.923 2.585-1.167-1.67z" fill="#ffe15a"/><path d="m255.349 272.437s-5.074-5.449-4.089-10.451c.791-4.023 3.192-8.458 5.071-9.537 0 0 2.657-.164 1.991 2.144s-1.478 2.903-1.24 5.178c.409 3.938 1.044 8.604-1.733 12.666z" fill="#f5f5f5"/><path d="m256.888 252.478c-.317-.042-.558-.028-.558-.028-1.879 1.079-4.28 5.514-5.071 9.537-.448 2.275.361 4.638 1.373 6.543-.641-8.248 1.767-11.174 4.256-16.052z" fill="#41479b"/><path d="m257.08 259.773c-.237-2.275.574-2.87 1.24-5.178.467-1.615-.693-2.019-1.432-2.116 0 0-1.694 3.892-1.803 6.503-.096 2.297.492 11.644.264 13.458 2.777-4.065 2.142-8.731 1.731-12.667z" fill="#ff4b55"/><path d="m253.639 254.424c1.057-1.031 2.543-1.492 3.999-1.242-.69-2.221-1.38-4.442-2.07-6.664-1.454-.249-2.941.212-3.999 1.242.689 2.222 1.38 4.443 2.07 6.664z" fill="#f5f0f0"/><path d="m257.638 253.182c1.057-1.031 2.543-1.492 3.999-1.242-.69-2.221-1.38-4.442-2.07-6.664-1.454-.249-2.941.212-3.999 1.242.689 2.221 1.379 4.442 2.07 6.664z" fill="#f5f5f5"/><path d="m250.022 224.355c-7.122-.164-14.156 1.587-20.37 5.07-.855-1.526-1.711-3.052-2.567-4.577 7.033-3.944 14.996-5.926 23.058-5.74-.041 1.749-.082 3.498-.121 5.247z" fill="#5f64b9"/><path d="m278.167 222.956c4.614 2.957 8.681 6.722 11.958 11.167-1.408 1.038-2.816 2.077-4.224 3.115-2.892-3.923-6.481-7.245-10.551-9.856z" fill="#41479b"/><path d="m262.008 224.355c7.122-.164 14.156 1.587 20.37 5.07.855-1.526 1.711-3.052 2.567-4.577-7.033-3.944-14.996-5.926-23.058-5.74.041 1.749.082 3.498.121 5.247z" fill="#5f64b9"/><path d="m266.51 222.956c-6.871-1.88-14.121-1.88-20.991 0-.461-1.687-.924-3.374-1.385-5.062 7.777-2.127 15.983-2.127 23.761 0-.461 1.687-.923 3.374-1.385 5.062z" fill="#41479b"/><path d="m238.432 281.758c-5.663 1.479-11.199 3.474-16.529 5.985.746 1.582 1.492 3.165 2.237 4.747 5.143-2.424 10.489-4.337 15.96-5.742z" fill="#ff6b71"/><path d="m273.598 281.758c5.663 1.479 11.199 3.474 16.529 5.985-.746 1.582-1.492 3.165-2.237 4.747-5.143-2.424-10.489-4.337-15.96-5.742z" fill="#ff6b71"/><path d="m277.119 285.816c-13.799-3.313-28.184-3.313-41.983 0-.408-1.702-.817-3.402-1.225-5.102 14.603-3.506 29.83-3.506 44.433 0-.407 1.7-.816 3.402-1.225 5.102z" fill="#ff4b55"/><path d="m256.014 287.242-3.618.905c-.828.207-1.63-.419-1.63-1.272v-1.887c0-.853.802-1.48 1.63-1.272l3.618.905z" fill="#ff4b55"/><path d="m256.014 284.618 3.618-.905c.828-.207 1.63.419 1.63 1.272v1.887c0 .853-.802 1.48-1.63 1.272l-3.618-.905z" fill="#ff4b55"/><path d="m256.296 287.242h-.563c-.569 0-1.031-.461-1.031-1.031v-.563c0-.569.461-1.031 1.031-1.031h.563c.569 0 1.031.461 1.031 1.031v.563c-.001.57-.462 1.031-1.031 1.031z" fill="#ff6b71"/></svg>