<svg enable-background="new 0 0 512.001 512.001" viewBox="0 0 512.001 512.001" xmlns="http://www.w3.org/2000/svg"><path d="m503.172 88.276h-494.344c-4.875 0-8.828 3.952-8.828 8.827v317.793c0 4.875 3.953 8.828 8.828 8.828h494.345c4.875 0 8.828-3.953 8.828-8.828v-317.793c-.001-4.875-3.954-8.827-8.829-8.827z" fill="#ff4b55"/><path d="m3.495 421.751 283.868-160.268c4.268-2.41 4.268-8.556 0-10.965l-283.868-160.269c-2.075 1.615-3.495 4.022-3.495 6.854v317.793c0 2.833 1.421 5.24 3.495 6.855z" fill="#ffe15a"/><path d="m2.741 421.244 192.932-159.171c3.817-3.149 3.817-8.996 0-12.146l-192.932-159.171c-1.676 1.608-2.741 3.842-2.741 6.347v317.793c0 2.506 1.065 4.741 2.741 6.348z" fill="#464655"/><path d="m55.132 214.545.841 31.772-29.789 11.081c-2.857 1.063-2.717 5.15.206 6.015l30.477 9.018 1.334 31.755c.128 3.046 4.058 4.175 5.784 1.663l17.995-26.199 30.613 8.544c2.935.82 5.225-2.57 3.369-4.987l-19.357-25.21 17.586-26.474c1.686-2.539-.829-5.763-3.702-4.745l-29.956 10.618-19.744-24.906c-1.895-2.389-5.738-.992-5.657 2.055z" fill="#f5f5f5"/></svg>