<svg enable-background="new 0 0 512.001 512.001" viewBox="0 0 512.001 512.001" xmlns="http://www.w3.org/2000/svg"><path d="m512 339.863h-512v75.034c0 4.875 3.953 8.828 8.828 8.828h494.345c4.875 0 8.828-3.953 8.828-8.828z" fill="#ff4b55"/><path d="m512 256.001h-512v-158.897c0-4.875 3.953-8.828 8.828-8.828h494.345c4.875 0 8.828 3.953 8.828 8.828z" fill="#ffe15a"/><path d="m0 256.001h512v83.86h-512z" fill="#41479b"/><path d="m246.788 260.954 64.48-55.268v79.987c0 13.481-10.929 24.408-24.408 24.408-6.03 0-11.847-2.232-16.329-6.265l-23.743-21.368z" fill="#ffe15a"/><path d="m280.801 292.405-18.66-16.794v-27.815l33.775-28.95v20.221 46.607c0 4.993-4.063 9.056-9.056 9.056-2.241 0-4.393-.826-6.059-2.325z" fill="#ff4b55"/><path d="m271.352 239.901v31.617l15.352 13.862v-46.505-12.132l9.212-7.896v20.221 46.607c0 4.993-4.063 9.056-9.056 9.056-2.241 0-4.393-.825-6.059-2.325l-18.66-16.794v-27.815z" fill="#41479b"/><path d="m265.212 260.954-64.48-55.268v79.987c0 13.481 10.929 24.408 24.408 24.408 6.03 0 11.847-2.232 16.329-6.265l23.743-21.368z" fill="#ffe15a"/><path d="m231.199 292.405 18.66-16.794v-27.815l-33.775-28.95v20.221 46.607c0 4.993 4.063 9.056 9.056 9.056 2.241 0 4.393-.826 6.059-2.325z" fill="#ff4b55"/><g fill="#41479b"><path d="m240.648 239.901v31.617l-15.352 13.862v-46.505-12.132l-9.212-7.896v20.221 46.607c0 4.993 4.063 9.056 9.056 9.056 2.241 0 4.393-.825 6.059-2.325l18.66-16.794v-27.815z"/><path d="m309.04 205.961h4.414v26.449h-4.414z"/><path d="m198.51 205.961h4.414v26.449h-4.414z"/></g><path d="m246.788 193.405s6.141-29.17-15.352-25.332-21.493 9.978-46.057 22.261c0 0 27.634 6.141 39.916 3.071 0 0 9.212 12.281 18.423 15.352h9.212z" fill="#5a4646"/><path d="m265.212 193.405s-6.141-29.17 15.352-25.332 21.493 9.978 46.057 22.261c0 0-27.634 6.141-39.916 3.071 0 0-9.212 12.281-18.423 15.352h-9.212z" fill="#5a4646"/><path d="m265.212 208.757h-18.423v-15.466c0-5.025 4.073-9.098 9.098-9.098h.227c5.025 0 9.098 4.073 9.098 9.098z" fill="#5a4646"/><circle cx="256" cy="193.401" fill="#e6e1cd" r="6.141"/><path d="m242.823 189.439 11.546 6.166c.969.518 2.162.34 2.937-.437.974-.974.974-2.552 0-3.527l-7.448-7.448h-1.791c-2.896 0-5.244 2.348-5.244 5.246z" fill="#ffd0af"/><path d="m246.827 190.334h-9.249l4.047-4.738c.76-.889 1.871-1.402 3.042-1.402h5.192v3.108c0 1.674-1.358 3.032-3.032 3.032z" fill="#ffaf94"/><path d="m282.186 208.765c-2.072-2.458-2.514-5.717-1.504-8.541 2.954-.516 6.091.471 8.162 2.931 1.77 2.101 2.283 4.772 1.784 7.272.614 1.042 1.364 2.382 2.189 3.964.041-.225.032-.448.096-.673.724-2.546 2.743-4.348 5.135-4.958 1.713 1.778 2.483 4.373 1.759 6.918-.622 2.19-2.228 3.777-4.18 4.581.771 1.769 1.534 3.677 2.247 5.69.041-.118.044-.238.092-.355 1-2.451 3.206-4.019 5.65-4.362 1.506 1.955 1.986 4.619.987 7.07-.875 2.144-2.69 3.558-4.764 4.121 1.068 4.213 1.775 8.683 1.775 13.183h-3.071c0-3.922-.602-7.85-1.511-11.608-1.895.612-4.012.481-5.845-.641-2.236-1.37-3.416-3.778-3.361-6.223 2.154-1.16 4.835-1.203 7.071.168.081.049.135.121.213.173-.658-1.89-1.358-3.683-2.077-5.365-1.843.871-4.012 1.005-6.002.071-2.374-1.116-3.811-3.379-4.026-5.815 2.006-1.386 4.657-1.721 7.023-.62-.845-1.625-1.608-2.986-2.206-4.002-2.115-.244-4.152-1.218-5.636-2.979z" fill="#8cb400"/><path d="m229.814 208.765c2.072-2.458 2.514-5.717 1.504-8.541-2.954-.516-6.091.471-8.162 2.931-1.77 2.101-2.283 4.772-1.784 7.272-.614 1.042-1.364 2.382-2.189 3.964-.041-.225-.032-.448-.096-.673-.724-2.546-2.743-4.348-5.135-4.958-1.713 1.778-2.483 4.373-1.759 6.918.622 2.19 2.228 3.777 4.18 4.581-.771 1.769-1.534 3.677-2.247 5.69-.041-.118-.044-.238-.092-.355-1-2.451-3.206-4.019-5.65-4.362-1.506 1.955-1.986 4.619-.986 7.07.875 2.144 2.69 3.558 4.764 4.121-1.068 4.213-1.775 8.683-1.775 13.183h3.071c0-3.922.602-7.85 1.511-11.608 1.895.612 4.012.481 5.845-.641 2.237-1.37 3.416-3.778 3.361-6.223-2.154-1.16-4.835-1.203-7.071.168-.081.049-.135.121-.213.173.658-1.89 1.358-3.683 2.077-5.365 1.843.871 4.012 1.005 6.002.071 2.374-1.116 3.811-3.379 4.026-5.815-2.006-1.386-4.657-1.721-7.023-.62.845-1.625 1.608-2.986 2.206-4.002 2.114-.244 4.151-1.218 5.635-2.979z" fill="#8cb400"/><path d="m256 276.307-64.48-55.268v79.987c0 13.481 10.929 24.408 24.408 24.408 6.03 0 11.847-2.232 16.329-6.265l23.743-21.368z" fill="#ffe15a"/><path d="m221.987 307.757 18.66-16.794v-27.815l-33.775-28.95v20.221 46.607c0 4.993 4.063 9.056 9.056 9.056 2.242 0 4.393-.825 6.059-2.325z" fill="#ff4b55"/><path d="m231.436 255.253v31.617l-15.352 13.862v-46.505-12.132l-9.212-7.896v20.221 46.607c0 4.993 4.063 9.056 9.056 9.056 2.241 0 4.393-.825 6.059-2.325l18.66-16.794v-27.815z" fill="#41479b"/><path d="m256 276.307 64.48-55.268v79.987c0 13.481-10.929 24.408-24.408 24.408-6.03 0-11.847-2.232-16.329-6.265l-23.743-21.368z" fill="#ffe15a"/><path d="m290.013 307.757-18.66-16.794v-27.815l33.775-28.95v20.221 46.607c0 4.993-4.063 9.056-9.056 9.056-2.243 0-4.393-.825-6.059-2.325z" fill="#ff4b55"/><path d="m280.564 255.253v31.617l15.352 13.862v-46.505-12.132l9.212-7.896v20.221 46.607c0 4.993-4.063 9.056-9.056 9.056-2.241 0-4.393-.825-6.059-2.325l-18.66-16.794v-27.815z" fill="#41479b"/><ellipse cx="256" cy="254.811" fill="#69c3ff" rx="30.705" ry="46.06"/><path d="m228.366 267.096h55.268l3.071-12.281-13.993 2.333c-2.807.468-5.678-.332-7.839-2.184l-15.884-13.615c-1.419-1.217-3.228-1.886-5.097-1.886-2.077 0-4.07.825-5.538 2.294l-9.988 9.988z" fill="#009b64"/><path d="m253.087 252.751 5.274-3.37-9.374-8.034c-1.419-1.217-3.228-1.886-5.097-1.886-2.077 0-4.07.825-5.538 2.294l-9.988 9.988v3.071l15.352-3.071 2.714 1.357c2.128 1.064 4.655.93 6.657-.349z" fill="#f5f5f5"/><path d="m228.366 267.096 3.07 18.422 15.352 15.353h9.212l12.281-3.07 12.283-12.283 3.07-18.422z" fill="#5aa0e6"/><path d="m256 303.941c-18.624 0-33.775-22.039-33.775-49.128s15.151-49.128 33.775-49.128 33.775 22.039 33.775 49.128-15.151 49.128-33.775 49.128zm0-92.113c-15.236 0-27.634 19.284-27.634 42.987s12.397 42.987 27.634 42.987 27.634-19.284 27.634-42.987-12.398-42.987-27.634-42.987z" fill="#ffc88c"/><path d="m234.339 300.595c-2.574-3.554-6.406-5.865-10.746-5.865s-8.172 2.311-10.746 5.865c4.39 1.217 7.982 4.781 9.683 9.479.685 1.892 1.064 3.968 1.064 6.15-.001-7.596 4.588-13.922 10.745-15.629z" fill="#e1e1e1"/><path d="m226.031 310.282s-.239 4.094-2.339 6.013l-.088-.072c-2.099-1.919-2.339-6.013-2.339-6.013z" fill="#e1e1e1"/><path d="m294.4 311.617h-76.8c-.838 0-1.516-.679-1.516-1.516v-.038c0-.838.679-1.516 1.516-1.516h76.8c.838 0 1.516.679 1.516 1.516v.038c0 .837-.678 1.516-1.516 1.516z" fill="#966446"/><path d="m271.428 316.223h-30.856c-3.35 0-6.066-2.716-6.066-6.066v-.151c0-3.35 2.716-6.066 6.066-6.066h30.856c3.35 0 6.066 2.716 6.066 6.066v.151c-.001 3.35-2.717 6.066-6.066 6.066z" fill="#be915a"/><path d="m228.366 308.547h-10.746c-.847 0-1.535.687-1.535 1.535s.687 1.535 1.535 1.535h10.746z" fill="#b9b9b9"/><path d="m256 316.223v28.054l-12.281-3.49 6.14-24.564z" fill="#ff4b55"/><path d="m252.929 316.223-6.141 21.494-12.281-3.071 9.212-18.423z" fill="#41479b"/><path d="m240.648 316.223-9.212 12.282 9.212 3.07 6.14-15.352z" fill="#ffe15a"/><path d="m256 316.223v28.054l12.281-3.49-6.14-24.564z" fill="#ff4b55"/><path d="m259.071 316.223 6.141 21.494 12.281-3.071-9.212-18.423z" fill="#41479b"/><path d="m271.352 316.223 9.212 12.282-9.212 3.07-6.14-15.352z" fill="#ffe15a"/><path d="m193.728 247.483-4.414-4.448v-21.999h4.414z" fill="#41479b"/><path d="m322.646 243.035-4.414 4.448v-26.447h4.414z" fill="#41479b"/></svg>