<svg enable-background="new 0 0 512.001 512.001" viewBox="0 0 512.001 512.001" xmlns="http://www.w3.org/2000/svg"><path d="m512 200.093h-512v-102.989c0-4.875 3.953-8.828 8.828-8.828h494.345c4.875 0 8.828 3.953 8.828 8.828z" fill="#73af00"/><path d="m503.172 423.725h-494.344c-4.875 0-8.828-3.953-8.828-8.828v-102.988h512v102.988c0 4.876-3.953 8.828-8.828 8.828z" fill="#ff4b55"/><path d="m0 200.091h512v111.81h-512z" fill="#ffe15a"/><path d="m361.945 256.099c0 58.426-47.435 105.945-105.945 105.945s-105.945-47.519-105.945-105.945c0-58.594 47.435-106.029 105.945-106.029s105.945 47.435 105.945 106.029z" fill="#4173cd"/><g fill="#f2dd30"><path d="m175.42 229.464h61.556l13.929-42.867 3.699 11.498-20.228 62.316-6.026-4.396 6.301-19.362h-49.506zm30.756 94.785 19.025-58.51-36.462-26.551h12.026l52.995 38.473-6.024 4.396-16.509-12.007-15.325 47.181zm99.646 0-49.822-36.187-36.442 26.464 3.721-11.329 52.952-38.558 2.262 7.102-16.468 11.923 40.057 29.172zm30.756-94.785-49.781 36.274 13.931 42.869-9.724-7.104-20.209-62.316h7.399l6.298 19.448 40.079-29.172h12.006v.001zm-80.578-58.51 19.025 58.51h45.088l-9.745 7.189h-65.487l2.305-7.189h20.418l-15.325-47.096z"/><path d="m257.775 340.823h-3.53v-45.912h3.53zm78.276-56.991-43.651-14.12 1.1-3.297 43.672 14.12zm-160.123 0-1.1-3.297 43.692-14.12 1.08 3.297zm104.361-58.173-2.877-2.028 26.995-37.12 2.812 2.03zm-48.513 0-27.038-37.118 2.855-2.03 26.973 37.12z"/></g></svg>