<svg enable-background="new 0 0 512.001 512.001" viewBox="0 0 512.001 512.001" xmlns="http://www.w3.org/2000/svg"><path d="m503.172 423.724h-494.344c-4.875 0-8.828-3.953-8.828-8.828v-317.792c0-4.875 3.953-8.828 8.828-8.828h494.345c4.875 0 8.828 3.953 8.828 8.828v317.792c-.001 4.876-3.954 8.828-8.829 8.828z" fill="#41479b"/><path d="m247.172 88.276h-15.333l-81.77 53.573v-53.573h-44.138v53.573l-81.77-53.573h-15.333c-4.875 0-8.828 3.953-8.828 8.828v7.002l70.155 45.963h-70.155v44.138h70.155l-70.155 45.964v7.001c0 4.875 3.953 8.828 8.828 8.828h15.333l81.77-53.573v53.573h44.138v-53.573l81.769 53.573h15.333c4.875 0 8.828-3.953 8.828-8.828v-7.002l-70.154-45.963h70.154v-44.138h-70.155l70.155-45.963v-7.002c0-4.875-3.951-8.828-8.827-8.828z" fill="#f5f5f5"/><g fill="#ff4b55"><path d="m255.999 158.897h-114.758v-70.621h-26.483v70.621h-114.758v26.482h114.758v70.621h26.483v-70.621h114.758z"/><path d="m97.103 150.069-92.896-60.301c-2.472 1.565-4.207 4.193-4.207 7.336v.458l80.889 52.507z"/><path d="m166.283 150.069 88.374-57.366c-1.536-2.599-4.246-4.427-7.485-4.427h-1.909l-95.194 61.793z"/><path d="m89.474 194.207-88.205 57.256c1.521 2.662 4.273 4.537 7.559 4.537h1.665l95.195-61.793z"/><path d="m255.859 247.867-82.666-53.659h-16.213l93.873 60.934c2.813-1.305 4.741-4.04 5.006-7.275z"/></g><path d="m330.706 352.392-4.143-9.669 2.071 4.835-2.095-4.823c.873-.385 21.38-9.741 21.38-37.253h10.519c0 34.626-26.599 46.423-27.732 46.91z" fill="#e67346"/><path d="m334.819 328.867-7.437-7.437c14.219-14.219 21.608-18.119 22.404-18.518l4.705 9.409-2.353-4.705 2.393 4.684c-.067.036-6.727 3.582-19.712 16.567z" fill="#eb7d4b"/><path d="m438.795 352.392 4.143-9.669-2.071 4.835 2.095-4.823c-.873-.385-21.38-9.741-21.38-37.253h-10.519c0 34.626 26.599 46.423 27.732 46.91z" fill="#e67346"/><path d="m434.683 328.867 7.437-7.437c-14.219-14.219-21.608-18.119-22.404-18.518l-4.705 9.409 2.353-4.705-2.393 4.684c.066.036 6.726 3.582 19.712 16.567z" fill="#eb7d4b"/><path d="m384.735 168.734h-56.101v84.152s3.507 63.114 56.101 80.645c52.595-17.532 56.101-63.114 56.101-80.645s0-84.152 0-84.152z" fill="#4173cd"/><path d="m409.279 189.772h-30.144c-3.185 0-6.274-1.084-8.761-3.073l-11.769-9.416c-1.244-.994-2.788-1.537-4.381-1.537h-1.046c-3.873 0-7.012 3.139-7.012 7.012h-5.259c-2.904 0-5.259 2.355-5.259 5.259s2.355 5.259 5.259 5.259h5.259c1.937 0 3.507 1.57 3.507 3.507v17.532c0 6.528 4.48 11.966 10.519 13.529v11.015h7.012l2.63-10.519h32.434l3.507 3.507v7.012h3.507v-10.519h3.507v10.519h3.507v-11.491c2.088-1.215 3.507-3.45 3.507-6.04v-21.038c-.005-5.808-4.714-10.518-10.524-10.518z" fill="#c8c8c8"/><path d="m346.165 235.355 7.014 21.037h63.114l7.012-21.037z" fill="#73af00"/><path d="m422.091 249.379c-9.348 0-9.348 7.012-18.696 7.012-9.345 0-9.345-7.012-18.691-7.012-9.344 0-9.344 7.012-18.689 7.012-9.347 0-9.347-7.012-18.695-7.012-9.327 0-9.351 6.98-18.638 7.01.113 3.906.447 8.683 1.31 13.963 7.992-.653 8.466-6.947 17.329-6.947 9.347 0 9.347 7.012 18.695 7.012 9.344 0 9.344-7.012 18.689-7.012s9.345 7.012 18.691 7.012c9.348 0 9.348-7.012 18.696-7.012 8.887 0 9.354 6.307 17.385 6.948.862-5.279 1.197-10.057 1.31-13.963-9.331-.016-9.343-7.011-18.696-7.011z" fill="#f5f5f5"/><path d="m422.091 263.405c-9.348 0-9.348 7.012-18.696 7.012-9.345 0-9.345-7.012-18.691-7.012-9.344 0-9.344 7.012-18.689 7.012-9.347 0-9.347-7.012-18.695-7.012-8.863 0-9.336 6.294-17.329 6.947.686 4.202 1.717 8.722 3.225 13.367 5.114-1.786 6.607-6.29 14.103-6.29 9.347 0 9.347 7.012 18.695 7.012 9.344 0 9.344-7.012 18.689-7.012s9.345 7.012 18.691 7.012c9.348 0 9.348-7.012 18.696-7.012 7.523 0 9.01 4.522 14.156 6.301 1.51-4.649 2.541-9.172 3.229-13.377-8.029-.642-8.496-6.948-17.384-6.948z" fill="#4173cd"/><path d="m422.091 277.43c-9.348 0-9.348 7.012-18.696 7.012-9.345 0-9.345-7.012-18.691-7.012-9.344 0-9.344 7.012-18.689 7.012-9.347 0-9.347-7.012-18.695-7.012-7.496 0-8.989 4.503-14.103 6.29 1.209 3.724 2.74 7.527 4.655 11.317 2.371-1.778 4.707-3.582 9.448-3.582 9.347 0 9.347 7.012 18.695 7.012 9.344 0 9.344-7.012 18.689-7.012s9.345 7.012 18.691 7.012c9.348 0 9.348-7.012 18.696-7.012 4.768 0 7.109 1.818 9.494 3.604 1.919-3.794 3.452-7.601 4.662-11.328-5.146-1.779-6.632-6.301-14.156-6.301z" fill="#f5f5f5"/><path d="m422.091 291.456c-9.348 0-9.348 7.012-18.696 7.012-9.345 0-9.345-7.012-18.691-7.012-9.344 0-9.344 7.012-18.689 7.012-9.347 0-9.347-7.012-18.695-7.012-4.74 0-7.078 1.803-9.448 3.582 1.825 3.612 4.007 7.206 6.613 10.705.847-.16 1.774-.26 2.835-.26 9.347 0 9.347 7.012 18.695 7.012 9.344 0 9.344-7.012 18.689-7.012s9.345 7.012 18.691 7.012c9.348 0 9.348-7.012 18.696-7.012 1.081 0 2.026.102 2.887.267 2.603-3.493 4.783-7.082 6.607-10.689-2.384-1.787-4.725-3.605-9.494-3.605z" fill="#4173cd"/><path d="m424.978 305.748c-.86-.165-1.805-.267-2.887-.267-9.348 0-9.348 7.012-18.696 7.012-9.345 0-9.345-7.012-18.691-7.012-9.344 0-9.344 7.012-18.689 7.012-9.347 0-9.347-7.012-18.695-7.012-1.06 0-1.987.1-2.835.26 5.683 7.628 13.391 14.781 23.823 20.6 7.104-1.048 7.894-6.835 16.394-6.835 8.52 0 9.294 5.812 16.442 6.841 10.438-5.817 18.149-12.969 23.834-20.599z" fill="#f5f5f5"/><path d="m382.98 249.38h3.507v59.61h-3.507z" fill="#ff965a"/><path d="m374.21 258.141h21.04v3.507h-21.04z" fill="#ff965a"/><path d="m374.21 279.18h21.04v3.507h-21.04z" fill="#ff965a"/><path d="m374.21 261.641h21.04v13.87h-21.04z" fill="#ffe15a"/><path d="m382.982 249.379v7.013l-10.519-3.506z" fill="#ff4b55"/><path d="m406.36 249.38h3.507v41.2h-3.507z" fill="#ff965a"/><path d="m397.59 258.141h21.04v3.507h-21.04z" fill="#ff965a"/><path d="m397.59 279.18h21.04v3.507h-21.04z" fill="#ff965a"/><path d="m397.59 261.641h21.04v13.87h-21.04z" fill="#ffe15a"/><path d="m406.357 249.379v7.013l-10.519-3.506z" fill="#ff4b55"/><path d="m359.46 249.38h3.507v40.905h-3.507z" fill="#ff965a"/><path d="m350.7 258.141h21.04v3.507h-21.04z" fill="#ff965a"/><path d="m350.7 279.18h21.04v3.507h-21.04z" fill="#ff965a"/><path d="m350.7 261.641h21.04v13.87h-21.04z" fill="#ffe15a"/><path d="m359.461 249.379v7.013l-10.519-3.506z" fill="#ff4b55"/><path d="m402.267 287.949c0 9.666-7.865 17.532-17.532 17.532s-17.532-7.865-17.532-17.532h-3.507-3.478l-23.747-5.363-.773 3.421 10.467 2.364v3.084l7.717 3.086c3.042 14.244 15.714 24.963 30.852 24.963 14.987 0 27.543-10.513 30.744-24.544h11.331v-10.519z" fill="#ff965a"/><path d="m440.837 168.734v84.152s-3.507 63.114-56.102 80.645c-52.595-17.532-56.101-63.114-56.101-80.645s0-84.152 0-84.152h56.101zm3.505-3.506h-3.507-56.101-56.101-3.507v3.507 84.152c0 41.576 20.776 71.397 58.499 83.972l1.109.37 1.109-.37c37.724-12.575 58.499-42.397 58.499-83.972v-84.152z" fill="#f5f5f5"/><path d="m384.735 351.063c-25.807 0-49.741-8.645-64.021-23.127l9.985-9.848c11.702 11.864 31.903 18.949 54.037 18.949s42.335-7.084 54.037-18.949l9.985 9.848c-14.282 14.481-38.215 23.127-64.023 23.127z" fill="#ff965a"/></svg>