<svg enable-background="new 0 0 512.001 512.001" viewBox="0 0 512.001 512.001" xmlns="http://www.w3.org/2000/svg"><path d="m503.172 423.725h-494.344c-4.875 0-8.828-3.953-8.828-8.828v-317.793c0-4.875 3.953-8.828 8.828-8.828h494.345c4.875 0 8.828 3.953 8.828 8.828v317.793c-.001 4.876-3.954 8.828-8.829 8.828z" fill="#82afff"/><path d="m247.172 256.001h-238.344c-4.875 0-8.828-3.953-8.828-8.828v-150.069c0-4.875 3.953-8.828 8.828-8.828h238.345c4.875 0 8.828 3.953 8.828 8.828v150.069c-.001 4.875-3.954 8.828-8.829 8.828z" fill="#41479b"/><path d="m247.172 88.277h-15.334l-81.77 53.574v-53.574h-44.138v53.574l-81.77-53.574h-15.332c-4.875 0-8.828 3.952-8.828 8.827v7.002l70.155 45.963h-70.155v44.138h70.155l-70.155 45.964v7.002c0 4.875 3.953 8.828 8.828 8.828h15.334l81.77-53.574v53.574h44.138v-53.574l81.769 53.574h15.334c4.875 0 8.828-3.953 8.828-8.828v-7.002l-70.155-45.963h70.154v-44.138h-70.155l70.155-45.963v-7.002c0-4.876-3.953-8.828-8.828-8.828z" fill="#f5f5f5"/><g fill="#ff4b55"><path d="m256 158.898h-114.759v-70.621h-26.482v70.621h-114.759v26.482h114.759v70.621h26.482v-70.621h114.759z"/><path d="m97.103 150.07-92.896-60.301c-2.472 1.564-4.207 4.193-4.207 7.335v.458l80.889 52.508z"/><path d="m166.283 150.07 88.374-57.366c-1.536-2.599-4.246-4.427-7.485-4.427h-1.909l-95.194 61.793z"/><path d="m89.474 194.208-88.205 57.256c1.521 2.662 4.273 4.537 7.559 4.537h1.665l95.196-61.793z"/><path d="m255.86 247.866-82.666-53.658h-16.214l93.874 60.935c2.812-1.305 4.741-4.04 5.006-7.277z"/></g><path d="m322.034 184.618v96.858c0 39.281 55.178 59.469 61.902 61.782 6.717-2.313 61.902-22.534 61.902-61.782v-96.858z" fill="#f5f5f5"/><path d="m448.022 229.042v-46.609h-128.173v46.609h55.348v43.695h-55.348v17.479h55.348v52.433l8.739 2.913 8.738-2.913v-52.433h55.348v-17.479h-55.348v-43.695z" fill="#ff4b55"/><circle cx="334.22" cy="210.861" fill="#f5f5f5" r="7.293"/><path d="m348.231 201c-2.334-1.283-6.535-4.726-8.226-4.142-1.692.584-2.07 1.78-4.437 1.962-2.306.178-5.948 2.428-4.43 4.922 1.973 3.246 8.149.722 8.557-.796 0 0 1.517.243 2.792-.061 0 0 2.537 3.54 5.687 3.307 3.15-.234 4.609-4.142 3.91-4.142s-3.853-1.05-3.853-1.05z" fill="#ffe15a"/><path d="m357.916 216.46c-.525.962-4.522 4.38-11.202 5.951-1.487.35-1.225 2.1-2.713 1.225-1.487-.875-5.601-1.576-9.277-1.75-3.676-.175-4.041-3.581-3.413-4.813.797-1.565 6.665-2.519 7.715-.594 1.05 1.926 1.837 1.524 4.45 2.081 1.619.346 1.663 1.138 1.663 1.138s2.976-2.976 5.514-3.851 4.726-2.801 5.163-2.801c.438 0 2.713.612 2.713.612z" fill="#ffe15a"/><path d="m367.63 206.133c3.851 1.4 15.228.962 27.392-2.976s15.666-4.638 21.617-2.451 8.527-4.725 4.619-5.894c-6.138-1.837-25.124 9.194-38.871 3.004 0 0-.405 1.665.032 2.452 0 0-9.976.35-7.614-9.976 0 0 .68 3.77 5.397 3.337 8.921-.819 10.196 5.462 29.085-.362 10.487-3.233 18.635-1.646 18.707 3.456.087 6.143-8.381 7.571-8.381 7.571s3.296 6.739 9.948 3.763 7.001 2.158 7.585 3.91c.584 1.751 1.692 3.443 3.15 3.617 0 0 1.05 3.15.642 3.559-.408.408-3.15 3.851-5.892 3.851s-8.693 0-8.693 0-1.576-3.91 1.459-3.967c3.033-.058 6.71-.291 6.243-1.926-.467-1.633-2.859-2.392-2.801-4.201 0 0-7.06 5.134-11.435-.934l-.117 2.859s-5.31-.992-7.234-5.251c0 0 .525 4.785-4.025 4.084 0 0 .934 1.4 2.509 2.392 1.576.992-.059 3.15-3.092 4.959s-12.369 7.06-16.628 1.692c-4.259-5.367.934-8.46 2.217-8.11s4.959 6.009 7.468 5.251 3.734-3.326 1.633-4.9-3.673-3.064-2.349-4.654c1.821-2.185 8.534-1.53 8.3-2.988-.233-1.459-6.476-1.05-10.56 3.033-4.084 4.084-21.821 13.478-28.881 7.527-7.059-5.951-1.43-11.727-1.43-11.727z" fill="#ffe15a"/><path d="m365.355 203.508s5.338 5.251 14.353 6.914c0 0-1.663 2.538-6.476 1.838 0 0 1.926 1.663 3.239 4.463 0 0-3.063.7-5.777-.788 0 0 .35 2.275 1.663 4.114 0 0-3.588 0-6.652-2.713l-1.225 3.5s-2.1-1.4-3.413-4.114c0 0-2.451 1.926-4.9 1.926 0 0 .875-2.625.875-4.114 0 0-3.5 2.1-6.389 1.313 0 0 .087-3.676 1.05-4.726 0 0-2.275.263-3.763-.525 0 0 .875-2.013 1.313-3.326 0 0-2.451.087-3.938-1.313 0 0 4.726-1.838 5.777-3.588z" fill="#ffd25a"/><path d="m356.749 188.805c1.05.584 2.742 1.867 3.443 4.025 0 0 1.926-2.801 5.251-3.326 0 0 1.459 1.633 1.05 5.892 0 0 3.676-1.05 5.66.875 0 0-3.91.875-5.718 4.142 0 0-.702 3.338.524 5.322 0 0-1.365.182-2.741-.42 0 0-.7 3.326 0 4.376 0 0-1.926-.234-2.976-2.275 0 0-1.576 2.392-1.459 3.851 0 0-2.1-1.225-2.217-3.033 0 0-1.459 2.742-3.033 2.976 0 0-.175-3.851-.875-5.31 0 0-1.342 1.459-3.092 1.4 0 0 0-2.976 1.459-4.376 0 0-2.451.758-3.793-1.926 0 0 4.025 1.166 5.017-1.283.992-2.451 1.283-3.209 2.684-4.551 1.4-1.341.816-6.359.816-6.359z" fill="#ffbe5a"/><path d="m365.355 200.095s-4.989 9.539-9.539 6.652c-4.985-3.165 1.225-10.59 2.013-11.377-.001-.001 3.675.962 7.526 4.725z" fill="#ffe15a"/><path d="m347.363 248.953s-.523-6.851-4.237-8.828c-3.492-1.858-5.555-2.787-5.955-5.169 0 0 3.034 1.394 6.241 2.265 2.898.787 5.726 5.692 4.867 11.209z" fill="#5abea0"/><path d="m335.639 254.586.472.871.343 1.873-.687 2.221s2.729 1.085 3.35 4.791c.426 2.543 1.546 3.093 2.233 2.57s1.103-1.141.386-3.921c-.916-3.549-3.393-6.925-3.393-6.925l-1.932-2.962z" fill="#b46446"/><path d="m338.345 256.067c-2.49-3.223-9.277-9.931-10.564-.785 0 0-2.66-7.706 2.319-7.405 5.754.35 8.245 8.19 8.245 8.19z" fill="#5abea0"/><path d="m336.111 255.458c-2.147-2.353-2.835-4.095-3.951-8.45-1.117-4.355-1.46-5.663-2.749-5.576s-2.061 1.481-2.061 4.268c0 0-3.779-3.398-1.203-6.098 2.577-2.7 8.331-1.219 8.675 3.572.343 4.791.258 8.014 1.975 12.022z" fill="#5abea0"/><path d="m336.713 253.367s-4.552-10.018 8.246-15.42c0 0-11.338-3.049-9.963 13.067z" fill="#5abea0"/><path d="m338.174 256.939s-9.62-3.659-8.761 5.227c0 0 1.632-4.182 6.356-2.613z" fill="#5abea0"/><path d="m349.081 253.424c0 2.599 1.022 10.14-.429 11.093-.73.479-2.792.087-2.62-1.742s.988-10.716.988-12.893c0-2.178 2.061 3.542 2.061 3.542z" fill="#b46446"/><path d="m342.955 259.465c1.661-1.684 2.176-5.517 1.603-10.628 0 0 3.436 2.381 4.524 4.588 0 0 1.088-5.053-2.462-6.389s-5.44-.58-6.07 1.045c-.63 1.626 1.085 3.445 1.833 6.098.686 2.44.572 5.286.572 5.286z" fill="#5abea0"/><path d="m348.853 252.089s.573-2.671 2.462-3.775c0 0 3.894 2.73 3.607 6.389 0 0 1.031-4.994-1.088-6.969-2.119-1.974-4.524-2.497-5.726-.755-1.203 1.741.745 5.11.745 5.11z" fill="#5abea0"/><path d="m349.769 246.978s1.203-7.144 4.237-8.712 8.647-3.02 8.99-3.369c0 0-6.699.349-7.787.349s-7.101 4.355-7.101 10.803c0 6.446.573 2.033.745 1.974.171-.057.916-1.045.916-1.045z" fill="#5abea0"/><path d="m352.561 265.868c.687 1.438 2.319 1.785 2.663 1.045.343-.74 1.889-6.403 1.889-6.403l-2.19-1.045z" fill="#b46446"/><path d="m365.401 242.1c2.691-1.568 4.467 3.079 4.467 3.079 0-5.471-1.718-7.201-6.013-5.111-1.293.63-2.24 1.949-2.936 3.479-2.174-6.247-6.969-6.151-6.969-6.151l-1.088.755c3.926.755 6.175 5.46 7.126 8.026-.513 1.873-.761 3.689-.867 4.728-2.573 2.667-4.198 8.559-4.198 8.559s1.847 1.089 2.19 1.045c0 0 1.203-3.702 2.706-3.615s3.264 2.483 3.307 4.008c0 0 2.233-4.53-.429-6.272-1-.654-1.8-.903-2.446-.915l1.974-2.221c3.221.61 5.454 3.659 5.454 3.659.065-5.444-2.339-6.507-4.874-6.051.453-2.192 1.45-6.334 2.596-7.002z" fill="#5abea0"/><path d="m418.42 249.639v15.439s-3.27 3.652-3.27 3.652h8.693s-2.792-3.238-2.792-3.652.638-14.278.638-14.278z" fill="#b46446"/><path d="m418.978 251.216c-2.073-.166-7.816 4.566-9.491 11.787 0 0-5.105-8.301 7.657-15.191 0 0-5.663-1.661-14.276 7.305-.465.484-.877-13.53 14.595-9.795 0 0-5.902-8.551-18.025-1.826 0 0 8.055-14.444 19.939-1.494 0 0 .079-11.207.16-10.045s.957 6.308.957 6.308l2.313-4.067-1.834 8.301s10.607-14.112 19.62.582c0 0-11.645-4.814-17.227.581 0 0 11.964-3.238 11.006 10.625 0 0-4.705-8.218-12.362-7.139 0 0 9.013 4.15 6.141 15.357-.001.001-5.432-10.99-9.173-11.289z" fill="#5abea0"/><path d="m342.815 301.103c-.444-.601-1.066-.89-1.676-.966.235-.81.392-1.18.329-1.77.186.046.364.13.555.153l.082-.666c-.708-.085-1.48-.403-2.273-.887.489-.419.843-1.063.843-1.852 0-.857-.393-1.575-.952-1.982-.558.408-.952 1.126-.952 1.982 0 .643.264 1.159.61 1.572-.295-.204-.593-.44-.892-.694-.077-.527-.279-1.058-.747-1.484-.633-.577-1.428-.77-2.106-.632-.075.687.191 1.461.824 2.039.489.446 1.065.598 1.618.61.126.107.258.214.397.323-.38-.046-.789-.007-1.198.142-.806.294-1.345.908-1.537 1.572.575.385 1.383.51 2.188.216.703-.256 1.155-.771 1.399-1.335.471.301.988.552 1.523.753l-.085.011c-.018.483.014.682-.226 1.58-.541-.351-1.257-.509-2.014-.286-.822.242-1.399.822-1.633 1.473.55.42 1.348.596 2.171.353.618-.182 1.037-.579 1.336-1.03-.113.341-.255.693-.414 1.052-.483.223-.936.567-1.213 1.137-.375.77-.335 1.588-.011 2.199.681-.122 1.348-.596 1.724-1.366.289-.595.274-1.19.128-1.724.067-.151.132-.308.198-.472.063.377.216.759.474 1.109.509.69 1.25 1.034 1.942 1.031.206-.66.097-1.471-.412-2.161z" fill="#5abea0"/><path d="m338.874 298.952c2.911 0 6.719-.111 6.606 2.799-.111 2.911-3.359 12.766 4.143 15.789s8.398 2.575 8.398 2.575l3.359 7.726 8.174-2.911-7.839-6.271s-.672-4.255-2.575-7.167c0 0 4.815-2.464 6.495-4.591l-3.359-.224s4.367-2.799 6.382-5.934l-2.351.224s2.687-2.688 3.359-5.823c0 0-4.367 4.367-8.846 4.927 0 0 1.903-4.927 2.351-6.83 0 0-3.359 2.127-5.71 3.023s-6.047 1.007-4.367 8.622c0 0-2.016-1.679-3.247-5.263-1.231-3.583-1.679-4.927-3.359-4.927-2.743 0-3.807 2.464-3.807 2.464z" fill="#ffecde"/><path d="m421.519 300.392c1.007-1.343 3.022-5.54 4.785-4.449s4.114 3.777 5.54 2.518 1.511-2.854-.672-3.609-4.617-2.015-6.127-1.511c-1.511.503-6.127 5.289-6.127 5.289z" fill="#b46446"/><path d="m408.509 304.001c-.084-1.931 1.219-10.313 6.464-9.234 2.854.588 4.258 3.613 7.975 5.036 3.945 1.511 6.464 2.434 5.708 5.036s-2.183 5.708-5.457 6.464c-3.274.757-14.69-7.302-14.69-7.302z" fill="#ffe15a"/><path d="m405.067 310.912c-1.119.224-5.26 6.268-.335 12.424 0 0 6.044 2.462 10.857-1.343s1.231-5.708 1.231-5.708z" fill="#5abea0"/><path d="m405.486 312.227c-.503-.756-.419-1.315-.419-1.315s-.252-8.674 3.358-8.842 16.62 8.394 16.62 9.821-4.198 5.54-7.723 6.379c-3.524.84-11.836-6.043-11.836-6.043z" fill="#5abea0"/><path d="m396.589 333.213s11.466-5.151 9.311-9.342c-1.555-3.023-5.05-1.086-5.603 1.223-.691 2.881-2.932 6.896-3.708 8.119z" fill="#b46446"/><path d="m383.936 347.855-.663-.211c-.665-.213-16.494-5.311-32.583-15.916-21.605-14.238-33.026-31.617-33.026-50.252v-101.228h132.543v101.228c0 18.636-11.421 36.014-33.026 50.252-16.088 10.605-31.917 15.703-32.583 15.916zm-61.902-163.237v96.858c0 39.281 55.178 59.469 61.902 61.782 6.717-2.313 61.902-22.534 61.902-61.782v-96.858z" fill="#464655"/></svg>