<svg xmlns="http://www.w3.org/2000/svg" width="512" height="336" viewBox="0 0 512 336">
  <g fill="none" fill-rule="evenodd">
    <path fill="#4173CD" fill-rule="nonzero" d="M503.172,335.448 L8.828,335.448 C3.953,335.448 5.68434189e-14,331.495 5.68434189e-14,326.62 L5.68434189e-14,8.828 C5.68434189e-14,3.953 3.953,0 8.828,0 L503.173,0 C508.048,0 512.001,3.953 512.001,8.828 L512.001,326.62 C512.001,331.496 508.047,335.448 503.172,335.448 Z"/>
    <circle cx="256" cy="168" r="123" stroke="#FFF" stroke-width="6"/>
    <g fill-rule="nonzero" transform="translate(136 48)">
      <path fill="#9EE2F8" d="M119,240 C83.6655683,240 51.8738691,224.556692 30,200.0726 L77.6146906,175 L119,240 Z"/>
      <path fill="#78B9EB" d="M67.626957,111 L69,184.230644 C54.6306448,188.159746 41.614195,193.596951 30.5236667,200 C11.5518708,178.829955 0,150.915439 0,120.355352 L67.626957,111 Z"/>
      <path fill="#9EE2F8" d="M58.1965797,120 L0,120 C0,89.3035627 11.5420048,61.2644996 30.4975977,40 L83,46.442621 L58.1965797,120 Z"/>
      <path fill="#78B9EB" d="M68.2807644,56 C53.9844463,52.0535499 41.0341569,46.5967069 30,40.1683739 C51.8752432,15.5346798 83.6662914,0 119,0 L68.2807644,56 Z"/>
      <path fill="#005FE1" d="M121,240 C156.334432,240 188.126131,224.556692 210,200.0726 L162.385309,175 L121,240 Z"/>
      <path fill="#212CBB" d="M172.373043,111 L171,184.230644 C185.369355,188.159746 198.385805,193.596951 209.476333,200 C228.448129,178.829955 240,150.915439 240,120.355352 L172.373043,111 Z"/>
      <path fill="#005FE1" d="M181.80342,120 L240,120 C240,89.3035627 228.457995,61.2644996 209.502402,40 L157,46.442621 L181.80342,120 Z"/>
      <path fill="#212CBB" d="M171.719236,56 C186.015554,52.0535499 198.965843,46.5967069 210,40.1683739 C188.124757,15.5346798 156.333709,0 121,0 L171.719236,56 Z"/>
      <path fill="#218ADC" d="M172,184.150916 L111,168 C111,168 120.478692,240 120.478692,240 L120.480542,240 C139.454578,239.998172 159.873639,217.68669 172,184.150916 L172,184.150916 Z"/>
      <path fill="#005FE1" d="M120.365771,178.153307 L120.367598,178.153307 C138.441123,178.153307 155.650088,180.677229 171.263361,185 C177.880084,166.310429 182,144.17076 182,120.453639 L111,111 L120.365771,178.153307 Z"/>
      <path fill="#218ADC" d="M111,54 L120.365771,121 L182,121 C182,97.337674 177.878256,75.2491552 171.263361,56.602764 L111,54 Z"/>
      <path fill="#005FE1" d="M172,55.2846301 C159.872156,22.0859843 139.453716,0 120.480255,0 L111,31 L120.480255,62 C138.776554,62 156.194025,59.5244878 172,55.2846301 Z"/>
      <path fill="#78B9EB" d="M69,184.71537 C81.0054946,217.912206 101.216117,239.998191 119.998169,240 L120,240 L120,178 C101.888279,178.00181 84.6465202,180.475512 69,184.71537 L69,184.71537 Z"/>
      <path fill="#218ADC" d="M58 120C58 143.516364 62.1462042 165.470459 68.8003556 184 84.5081256 179.71382 101.817379 177.213092 120 177.211262L120 120 58 120zM69 55.2846301C84.6465202 59.5244878 101.888279 62 120 62L120 0C101.217949 0 81.0054946 22.0859843 69 55.2846301z"/>
      <path fill="#78B9EB" d="M120,62.7887382 C101.817379,62.7887382 84.5081256,60.2861799 68.8003556,56 C62.1462042,74.5313704 58,96.4836357 58,120 L120,120 L120,62.7887382 Z"/>
    </g>
  </g>
</svg>
