<svg enable-background="new 0 0 512.001 512.001" viewBox="0 0 512.001 512.001" xmlns="http://www.w3.org/2000/svg"><path d="m503.172 423.725h-494.344c-4.875 0-8.828-3.953-8.828-8.828v-317.793c0-4.875 3.953-8.828 8.828-8.828h494.345c4.875 0 8.828 3.953 8.828 8.828v317.793c-.001 4.876-3.954 8.828-8.829 8.828z" fill="#f5f5f5"/><g fill="#ff4b55"><path d="m512 229.518h-229.517v-141.241h-52.966v141.241h-229.517v52.966h229.517v141.241h52.966v-141.241h229.517z"/><path d="m150.069 146.834c-8.744.879-17.31 1.76-25.888 2.642.882-8.579 1.762-17.145 2.643-25.888-8.019 1.037-16.11 1.037-24.129 0 .879 8.743 1.76 17.31 2.643 25.888-8.579-.881-17.146-1.762-25.888-2.642 1.037 8.018 1.037 16.11 0 24.128 8.744-.879 17.31-1.76 25.888-2.642-.882 8.579-1.763 17.145-2.643 25.888 8.019-1.037 16.11-1.037 24.129 0-.879-8.743-1.761-17.31-2.643-25.888 8.579.881 17.145 1.762 25.888 2.642-1.036-8.018-1.036-16.111 0-24.128z"/><path d="m432.552 146.834c-8.744.879-17.31 1.76-25.888 2.642.882-8.579 1.762-17.145 2.643-25.888-8.019 1.037-16.11 1.037-24.129 0 .879 8.743 1.76 17.31 2.643 25.888-8.579-.881-17.146-1.762-25.888-2.642 1.037 8.018 1.037 16.11 0 24.128 8.744-.879 17.31-1.76 25.888-2.642-.882 8.579-1.763 17.145-2.643 25.888 8.019-1.037 16.11-1.037 24.129 0-.879-8.743-1.761-17.31-2.643-25.888 8.579.881 17.145 1.762 25.888 2.642-1.036-8.018-1.036-16.111 0-24.128z"/><path d="m150.069 341.04c-8.744.879-17.31 1.76-25.888 2.642.882-8.579 1.762-17.145 2.643-25.888-8.019 1.037-16.11 1.037-24.129 0 .879 8.743 1.76 17.31 2.643 25.888-8.579-.881-17.146-1.762-25.888-2.642 1.037 8.018 1.037 16.11 0 24.128 8.744-.879 17.31-1.76 25.888-2.642-.882 8.579-1.763 17.145-2.643 25.888 8.019-1.037 16.11-1.037 24.129 0-.879-8.743-1.761-17.31-2.643-25.888 8.579.881 17.145 1.762 25.888 2.642-1.036-8.017-1.036-16.11 0-24.128z"/><path d="m432.552 341.04c-8.744.879-17.31 1.76-25.888 2.642.882-8.579 1.762-17.145 2.643-25.888-8.019 1.037-16.11 1.037-24.129 0 .879 8.743 1.76 17.31 2.643 25.888-8.579-.881-17.146-1.762-25.888-2.642 1.037 8.018 1.037 16.11 0 24.128 8.744-.879 17.31-1.76 25.888-2.642-.882 8.579-1.763 17.145-2.643 25.888 8.019-1.037 16.11-1.037 24.129 0-.879-8.743-1.761-17.31-2.643-25.888 8.579.881 17.145 1.762 25.888 2.642-1.036-8.017-1.036-16.11 0-24.128z"/></g></svg>