<svg enable-background="new 0 0 512.001 512.001" viewBox="0 0 512.001 512.001" xmlns="http://www.w3.org/2000/svg"><path d="m503.172 423.724h-494.344c-4.875 0-8.828-3.953-8.828-8.828v-317.792c0-4.875 3.953-8.828 8.828-8.828h494.345c4.875 0 8.828 3.953 8.828 8.828v317.792c-.001 4.876-3.954 8.828-8.829 8.828z" fill="#f5f5f5"/><path d="m503.172 423.724h-494.344c-4.875 0-8.828-3.953-8.828-8.828v-105.931h512v105.931c0 4.876-3.953 8.828-8.828 8.828z" fill="#ff4b55"/><path d="m353.103 211.862v-17.655h-17.655v-44.138h8.827v-17.655h-52.965v17.655h8.827v44.138h-26.482v-61.793h8.827v-17.655h-52.965v17.655h8.827v61.793h-26.482v-44.138h8.827v-17.655h-52.965v17.655h8.827v44.138h-17.655v17.655h8.828v70.621h-8.828v17.655h194.207v-17.655h-8.828v-70.621z" fill="#ff4b55"/><g fill="#464655"><path d="m273.655 291.31h-35.31v-35.31c0-9.751 7.904-17.655 17.655-17.655 9.751 0 17.655 7.904 17.655 17.655z"/><path d="m255.999 167.724c-4.875 0-8.828 3.953-8.828 8.828v26.483h17.655v-26.483c.001-4.875-3.952-8.828-8.827-8.828z"/><path d="m317.792 176.552c-4.875 0-8.828 3.953-8.828 8.828v17.655h17.655v-17.655c.001-4.876-3.95-8.828-8.827-8.828z"/><path d="m194.206 176.552c-4.875 0-8.828 3.953-8.828 8.828v17.655h17.655v-17.655c.001-4.876-3.952-8.828-8.827-8.828z"/><path d="m326.62 291.31h-35.31v-26.483c0-9.751 7.904-17.655 17.655-17.655 9.751 0 17.655 7.904 17.655 17.655z"/><path d="m220.689 291.31h-35.31v-26.483c0-9.751 7.904-17.655 17.655-17.655 9.751 0 17.655 7.904 17.655 17.655z"/></g><path d="m280.275 322.207c0-1.474-.737-2.854-1.965-3.672l-17.897-11.93v-3.737l15.215-7.608c2.182-1.09 3.064-3.742 1.974-5.922-1.095-2.185-3.737-3.064-5.922-1.974l-15.681 7.841-15.681-7.84c-2.173-1.09-4.832-.211-5.922 1.974-1.09 2.182-.207 4.832 1.974 5.922l15.215 7.607v3.737l-17.897 11.932c-1.228.818-1.965 2.197-1.965 3.671s.737 2.854 1.965 3.672l17.897 11.932v37.362h-17.655v6.759c0 2.44 1.974 4.414 4.414 4.414 1.689 0 3.159-.948 3.901-2.345h9.341v8.828h-9.418c-.762-1.319-2.189-2.207-3.823-2.207-2.44 0-4.414 1.974-4.414 4.414v6.621h17.655v4.414c0 2.44 1.974 4.414 4.414 4.414s4.414-1.974 4.414-4.414v-4.414-26.483-37.362l17.897-11.932c1.227-.821 1.964-2.2 1.964-3.674zm-24.276 7.936-11.905-7.936 11.905-7.935 11.905 7.935z" fill="#ffe15a"/></svg>