<svg enable-background="new 0 0 512.001 512.001" viewBox="0 0 512.001 512.001" xmlns="http://www.w3.org/2000/svg"><path d="m512 256h-512v-158.897c0-4.875 3.953-8.828 8.828-8.828h494.345c4.875 0 8.828 3.953 8.828 8.828z" fill="#f5f5f5"/><path d="m0 256h512v158.897c0 4.875-3.953 8.828-8.828 8.828h-494.344c-4.875 0-8.828-3.953-8.828-8.828z" fill="#ff4b55"/><path d="m176.552 141.241c-63.38 0-114.759 51.38-114.759 114.759h229.517c0-63.379-51.378-114.759-114.758-114.759z" fill="#ff4b55"/><path d="m176.552 370.759c63.38 0 114.759-51.38 114.759-114.759h-229.518c0 63.38 51.38 114.759 114.759 114.759z" fill="#f5f5f5"/></svg>