<svg enable-background="new 0 0 512.001 512.001" viewBox="0 0 512.001 512.001" xmlns="http://www.w3.org/2000/svg"><g fill="#f5f5f5"><path d="m0 125.551h512v37.27h-512z"/><path d="m0 200.091h512v37.27h-512z"/><path d="m0 274.641h512v37.27h-512z"/></g><path d="m0 311.911h512v37.27h-512z" fill="#41479b"/><path d="m0 349.181h512v37.27h-512z" fill="#f5f5f5"/><path d="m8.828 423.725h494.345c4.875 0 8.828-3.953 8.828-8.828v-28.445h-512.001v28.445c0 4.876 3.953 8.828 8.828 8.828z" fill="#41479b"/><path d="m512 125.549v-28.445c0-4.875-3.953-8.828-8.828-8.828h-494.344c-4.875.001-8.828 3.953-8.828 8.828v65.717 37.271 74.545h512v-37.272h-335.448v-37.272h335.448v-37.272h-335.448v-37.272z" fill="#41479b"/><path d="m176.552 162.821h-69.64v-74.544h-37.272v74.544h-69.64v37.272h69.64v74.544h37.272v-74.544h69.64z" fill="#f5f5f5"/></svg>