<svg enable-background="new 0 0 512.001 512.001" viewBox="0 0 512.001 512.001" xmlns="http://www.w3.org/2000/svg"><path d="m503.172 423.724h-494.344c-4.875 0-8.828-3.953-8.828-8.828v-317.792c0-4.875 3.953-8.828 8.828-8.828h494.345c4.875 0 8.828 3.953 8.828 8.828v317.792c-.001 4.876-3.954 8.828-8.829 8.828z" fill="#41479b"/><path d="m255.999 167.724c-33.549 17.651-56.175 59.69-56.175 88.276s22.626 70.626 56.175 88.276c33.549-17.651 56.175-59.69 56.175-88.276s-22.625-70.625-56.175-88.276z" fill="#3cc8ff"/><path d="m263.244 225.773c5.42-2.857 14.674-6.001 25.189-2.142 0 0-10.127-11.281-24.181-2.09 3.781-4.585 9.459-10.261 15.608-11.842 0 0-12.237-4.57-19.641 11.749 1.434-8.231 1.173-21.191-12.094-28.714 0 0 7.418 15.919 8.147 29.129-.431-2.344-1.294-4.794-3.572-7.17-7.015-7.319-13.114-7.929-13.114-7.929s9.726 10.778 14.505 20.975c-2.753-3.294-7.605-7.512-15.42-7.252-18.3.61-22.264 11.589-22.264 11.589 7.586-3.194 19.625-4.785 28.958-3.996-12.049 2.123-16.33 17.134-16.33 17.134 9.675-12.064 20.235-14.024 24.451-14.311-7.702 6.371-7.233 18.104-7.233 18.104 1.79-6.605 8.724-14.133 12.103-17.507 9.098 9.843 10.175 20.907 10.175 20.907s1.991-3.329 1.073-10.104c-.868-6.396-4.882-10.595-7.945-13.062 16.064 2.214 26.546 13.866 26.546 13.866-5.255-15.332-18.408-17.329-24.961-17.334z" fill="#73af00"/><path d="m494.344 105.931v300.137h-476.689v-300.137zm8.828-17.655h-494.344c-4.875 0-8.828 3.953-8.828 8.828v317.792c0 4.875 3.953 8.828 8.828 8.828h494.345c4.875 0 8.828-3.953 8.828-8.828v-317.792c-.001-4.875-3.954-8.828-8.829-8.828z" fill="#ff4b55"/><path d="m238.068 277.335 8.093-13.978 66.483-1.471-4.414 18.39z" fill="#ff965a"/><path d="m202.249 273.655c6.664 26.153 26.631 56.353 53.75 70.621 27.119-14.268 47.086-44.468 53.75-70.621z" fill="#4173cd"/><path d="m211.862 300.138s19.255-.953 30.823 3.797c2.89 1.186 3.264 5.09.654 6.807-5.635 3.708-13.822 10.09-13.822 15.879z" fill="#ffe15a"/><path d="m245.701 335.448c-.736-7.357 5.773-12.707 14.712-16.184 11.586-4.505 5.241-11.678-.552-16.367-6.909-5.592 2.023-7.172 39.54-7.908l-18.391 28.69-25.011 20.598z" fill="#ffe15a"/><path d="m255.999 349.268-2.056-1.086c-35.012-18.414-58.535-62.534-58.535-92.181 0-29.646 23.521-73.768 58.535-92.181l2.056-1.086 2.056 1.086c35.013 18.414 58.534 62.534 58.534 92.181 0 29.646-23.521 73.768-58.534 92.181zm0-176.517c-31.056 17.535-51.763 56.759-51.763 83.249s20.707 65.716 51.763 83.249c31.056-17.535 51.763-56.759 51.763-83.249s-20.706-65.715-51.763-83.249z" fill="#ff4b55"/><g fill="#a54b37"><path d="m274.758 306.389c-.405 0-.81-.108-1.173-.337-11.996-7.539-18.874-20.018-18.874-34.237v-40.642c0-1.219.988-2.207 2.207-2.207s2.207.988 2.207 2.207v40.642c0 12.668 6.125 23.785 16.805 30.496 1.035.651 1.345 2.013.698 3.043-.421.669-1.137 1.035-1.87 1.035z"/><circle cx="256.92" cy="231.31" r="4.828"/></g></svg>