<svg enable-background="new 0 0 512.001 512.001" viewBox="0 0 512.001 512.001" xmlns="http://www.w3.org/2000/svg"><path d="m503.172 423.724h-494.344c-4.875 0-8.828-3.953-8.828-8.828v-317.792c0-4.875 3.953-8.828 8.828-8.828h494.345c4.875 0 8.828 3.953 8.828 8.828v317.792c-.001 4.876-3.954 8.828-8.829 8.828z" fill="#f5f5f5"/><path d="m512 220.69h-220.69v-132.414h-70.621v132.414h-220.689v70.62h220.689v132.414h70.621v-132.414h220.69z" fill="#ff4b55"/><g fill="#ffe15a"><path d="m361.93 282.483v-52.966l-13.241 13.242h-185.379l-13.241-13.242v52.966l13.241-13.242h185.379z"/><path d="m229.517 361.931h52.965l-13.241-13.242v-185.378l13.241-13.242h-52.965l13.241 13.242v185.378z"/></g></svg>