<svg viewBox="0 0 512.001 512.001" xmlns="http://www.w3.org/2000/svg"><path d="M512 130.208H0V97.104a8.829 8.829 0 018.828-8.828h494.345a8.829 8.829 0 018.828 8.828z" fill="#f5f5f5"/><path d="M0 130.211h512v41.931H0z" fill="#ff4b55"/><path d="M0 172.141h512v41.931H0z" fill="#41479b"/><path d="M0 214.071h512v41.931H0z" fill="#f5f5f5"/><path d="M512 297.932H0v-50.759h11.034v8.828H512z" fill="#ff4b55"/><path d="M0 339.861h512v41.931H0z" fill="#f5f5f5"/><path d="M503.172 423.725H8.828A8.829 8.829 0 010 414.897v-33.103h512v33.103a8.828 8.828 0 01-8.828 8.828z" fill="#ff4b55"/><path d="M0 297.931h512v41.931H0zM247.172 256.001H8.828A8.829 8.829 0 010 247.173V97.104a8.829 8.829 0 018.828-8.828h238.345a8.829 8.829 0 018.828 8.828v150.069a8.83 8.83 0 01-8.829 8.828z" fill="#41479b"/><path d="M247.172 88.277h-15.334l-81.77 53.574V88.277H105.93v53.574L24.16 88.277H8.828A8.828 8.828 0 000 97.104v7.002l70.155 45.963H0v44.138h70.155L0 240.171v7.002a8.829 8.829 0 008.828 8.828h15.334l81.77-53.574v53.574h44.138v-53.574l81.769 53.574h15.334a8.829 8.829 0 008.828-8.828v-7.002l-70.155-45.963H256V150.07h-70.155L256 104.107v-7.002a8.828 8.828 0 00-8.828-8.828z" fill="#f5f5f5"/><g fill="#ff4b55"><path d="M256 158.898H141.241V88.277h-26.482v70.621H0v26.482h114.759v70.621h26.482V185.38H256z"/><path d="M97.103 150.07L4.207 89.769C1.735 91.333 0 93.962 0 97.104v.458l80.889 52.508zM166.283 150.07l88.374-57.366c-1.536-2.599-4.246-4.427-7.485-4.427h-1.909l-95.194 61.793zM89.474 194.208L1.269 251.464c1.521 2.662 4.273 4.537 7.559 4.537h1.665l95.196-61.793zM255.86 247.866l-82.666-53.658H156.98l93.874 60.935c2.812-1.305 4.741-4.04 5.006-7.277z"/></g></svg>