<svg viewBox="0 0 512.001 512.001" xmlns="http://www.w3.org/2000/svg"><path d="M512 200.093H0V97.104a8.829 8.829 0 018.828-8.828h494.345a8.829 8.829 0 018.828 8.828zM503.172 423.725H8.828A8.829 8.829 0 010 414.897V311.909h512v102.988a8.828 8.828 0 01-8.828 8.828z" fill="#4173cd"/><path d="M0 200.091h512v111.81H0z" fill="#f5f5f5"/><g fill="#4173cd"><path d="M257.277 241.579l3.159 9.473 9.985.077c1.293.01 1.828 1.66.789 2.428l-8.033 5.932 3.012 9.521c.389 1.233-1.013 2.252-2.066 1.501L256 264.704l-8.124 5.806c-1.052.751-2.455-.268-2.066-1.501l3.012-9.521-8.033-5.932c-1.039-.768-.504-2.418.789-2.428l9.985-.077 3.159-9.473c.411-1.225 2.145-1.225 2.555.001zM167.104 267.002l3.159 9.473 9.985.077c1.293.01 1.828 1.66.789 2.428l-8.033 5.932 3.012 9.521c.39 1.233-1.013 2.252-2.066 1.501l-8.124-5.806-8.124 5.806c-1.052.751-2.455-.268-2.066-1.501l3.012-9.521-8.033-5.932c-1.039-.768-.504-2.418.789-2.428l9.985-.077 3.159-9.473c.412-1.226 2.147-1.226 2.556 0zM167.104 216.155l3.159 9.473 9.985.077c1.293.01 1.828 1.66.789 2.428l-8.033 5.932 3.012 9.521c.39 1.233-1.013 2.252-2.066 1.501l-8.124-5.806-8.124 5.806c-1.052.751-2.455-.268-2.066-1.501l3.012-9.521-8.033-5.932c-1.039-.768-.504-2.418.789-2.428l9.985-.077 3.159-9.473c.412-1.225 2.147-1.225 2.556 0zM347.449 267.002l3.159 9.473 9.985.077c1.293.01 1.828 1.66.789 2.428l-8.033 5.932 3.012 9.521c.39 1.233-1.013 2.252-2.066 1.501l-8.124-5.806-8.124 5.806c-1.052.751-2.455-.268-2.066-1.501l3.012-9.521-8.033-5.932c-1.041-.768-.504-2.418.789-2.428l9.985-.077 3.159-9.473c.412-1.226 2.147-1.226 2.556 0zM347.449 216.155l3.159 9.473 9.985.077c1.293.01 1.828 1.66.789 2.428l-8.033 5.932 3.012 9.521c.39 1.233-1.013 2.252-2.066 1.501l-8.124-5.806-8.124 5.806c-1.052.751-2.455-.268-2.066-1.501l3.012-9.521-8.033-5.932c-1.041-.768-.504-2.418.789-2.428l9.985-.077 3.159-9.473c.412-1.225 2.147-1.225 2.556 0z"/></g></svg>