<svg enable-background="new 0 0 512.001 512.001" viewBox="0 0 512.001 512.001" xmlns="http://www.w3.org/2000/svg"><path d="m512 200.092h-512v-102.988c0-4.875 3.953-8.828 8.828-8.828h494.345c4.875 0 8.828 3.953 8.828 8.828z" fill="#73af00"/><path d="m503.172 423.725h-494.344c-4.875 0-8.828-3.953-8.828-8.828v-102.988h512v102.988c0 4.875-3.953 8.828-8.828 8.828z" fill="#ff4b55"/><g fill="#f5f5f5"><path d="m0 200.088h512v111.81h-512z"/><path d="m1.389 194.176h.077c.767 0 1.389-.621 1.389-1.389v-3.008c0-.767.621-1.389 1.389-1.389h5.827c.767 0 1.389.621 1.389 1.389v3.008c0 .767.621 1.389 1.389 1.389h11.502c.767 0 1.389-.621 1.389-1.389v-5.938c0-.767-.621-1.389-1.389-1.389h-5.79c-.767 0-1.389.621-1.389 1.389v.152c0 .767.621 1.389 1.389 1.389h2.935c.767 0 1.389.621 1.389 1.389v.151c0 .767-.621 1.389-1.389 1.389h-5.792c-.767 0-1.389-.621-1.389-1.389v-3.081c0-.767-.621-1.389-1.389-1.389h-11.537c-.767 0-1.389.621-1.389 1.389v5.938c0 .766.621 1.389 1.389 1.389zm5.748 0h.079c.767 0 1.389-.621 1.389-1.389v-.079c0-.767-.621-1.389-1.389-1.389h-.079c-.767 0-1.389.621-1.389 1.389v.079c0 .766.622 1.389 1.389 1.389zm-5.748-11.645h34.423c.767 0 1.389-.621 1.389-1.389v-.152c0-.767-.621-1.389-1.389-1.389h-34.423c-.767 0-1.389.621-1.389 1.389v.152c0 .768.621 1.389 1.389 1.389zm34.422 11.645h-5.79c-.767 0-1.389-.621-1.389-1.389v-5.938c0-.767.621-1.389 1.389-1.389h8.648c.767 0 1.389-.621 1.389-1.389v-3.081c0-.767.621-1.389 1.389-1.389h.077c.767 0 1.389.621 1.389 1.389v8.94c0 .767.621 1.389 1.389 1.389h.079c.767 0 1.389-.621 1.389-1.389v-8.94c0-.767.621-1.389 1.389-1.389h.077c.767 0 1.389.621 1.389 1.389v8.94c0 .767.621 1.389 1.389 1.389h.115c.767 0 1.389-.621 1.389-1.389v-8.94c0-.767.621-1.389 1.389-1.389h.042c.767 0 1.389.621 1.389 1.389v11.797c0 .767-.621 1.389-1.389 1.389h-11.502c-.767 0-1.389-.621-1.389-1.389v-3.008c0-.767-.621-1.389-1.389-1.389h-5.79c-.767 0-1.389.621-1.389 1.389v.151c0 .767.621 1.389 1.389 1.389h2.933c.767 0 1.389.621 1.389 1.389v.079c0 .766-.623 1.389-1.39 1.389z"/><path d="m58.618 194.176h.115c.767 0 1.389-.621 1.389-1.389v-3.008c0-.767.621-1.389 1.389-1.389h5.754c.767 0 1.389.621 1.389 1.389v3.008c0 .767.621 1.389 1.389 1.389h11.502c.767 0 1.389-.621 1.389-1.389v-5.938c0-.767-.621-1.389-1.389-1.389h-5.79c-.767 0-1.389.621-1.389 1.389v.152c0 .767.621 1.389 1.389 1.389h2.935c.767 0 1.389.621 1.389 1.389v.151c0 .767-.621 1.389-1.389 1.389h-5.79c-.767 0-1.389-.621-1.389-1.389v-3.081c0-.767-.621-1.389-1.389-1.389h-11.504c-.767 0-1.389.621-1.389 1.389v5.938c.001.766.623 1.389 1.389 1.389zm5.713 0h.077c.767 0 1.389-.621 1.389-1.389v-.079c0-.767-.621-1.389-1.389-1.389h-.077c-.767 0-1.389.621-1.389 1.389v.079c.001.766.622 1.389 1.389 1.389zm-5.713-11.645h34.388c.767 0 1.389-.621 1.389-1.389v-.152c0-.767-.621-1.389-1.389-1.389h-34.388c-.767 0-1.389.621-1.389 1.389v.152c.001.768.623 1.389 1.389 1.389zm34.388 11.645h-5.827c-.767 0-1.389-.621-1.389-1.389v-5.938c0-.767.621-1.389 1.389-1.389h8.648c.767 0 1.389-.621 1.389-1.389v-3.081c0-.767.621-1.389 1.389-1.389h.115c.767 0 1.389.621 1.389 1.389v8.94c0 .767.621 1.389 1.389 1.389h.115c.767 0 1.389-.621 1.389-1.389v-8.94c0-.767.621-1.389 1.389-1.389h.042c.767 0 1.389.621 1.389 1.389v8.94c0 .767.621 1.389 1.389 1.389h.115c.767 0 1.389-.621 1.389-1.389v-8.94c0-.767.621-1.389 1.389-1.389h.077c.767 0 1.389.621 1.389 1.389v11.797c0 .767-.621 1.389-1.389 1.389h-11.574c-.767 0-1.389-.621-1.389-1.389v-3.008c0-.767-.621-1.389-1.389-1.389h-5.754c-.767 0-1.389.621-1.389 1.389v.151c0 .767.621 1.389 1.389 1.389h2.935c.767 0 1.389.621 1.389 1.389v.079c-.005.766-.626 1.389-1.393 1.389z"/><path d="m115.814 194.176h.077c.767 0 1.389-.621 1.389-1.389v-3.008c0-.767.621-1.389 1.389-1.389h5.792c.767 0 1.389.621 1.389 1.389v3.008c0 .767.621 1.389 1.389 1.389h11.538c.767 0 1.389-.621 1.389-1.389v-5.938c0-.767-.621-1.389-1.389-1.389h-5.79c-.767 0-1.389.621-1.389 1.389v.152c0 .767.621 1.389 1.389 1.389h2.935c.767 0 1.389.621 1.389 1.389v.151c0 .767-.621 1.389-1.389 1.389h-5.827c-.767 0-1.389-.621-1.389-1.389v-3.081c0-.767-.621-1.389-1.389-1.389h-11.502c-.767 0-1.389.621-1.389 1.389v5.938c-.002.766.621 1.389 1.388 1.389zm5.712 0h.077c.767 0 1.389-.621 1.389-1.389v-.079c0-.767-.621-1.389-1.389-1.389h-.077c-.767 0-1.389.621-1.389 1.389v.079c0 .766.622 1.389 1.389 1.389zm-5.712-11.645h34.424c.767 0 1.389-.621 1.389-1.389v-.152c0-.767-.621-1.389-1.389-1.389h-34.424c-.767 0-1.389.621-1.389 1.389v.152c-.001.768.622 1.389 1.389 1.389zm34.424 11.645h-5.827c-.767 0-1.389-.621-1.389-1.389v-5.938c0-.767.621-1.389 1.389-1.389h8.646c.767 0 1.389-.621 1.389-1.389v-3.081c0-.767.621-1.389 1.389-1.389h.079c.767 0 1.389.621 1.389 1.389v8.94c0 .767.621 1.389 1.389 1.389h.115c.767 0 1.389-.621 1.389-1.389v-8.94c0-.767.621-1.389 1.389-1.389h.115c.767 0 1.389.621 1.389 1.389v8.94c0 .767.621 1.389 1.389 1.389h.042c.767 0 1.389-.621 1.389-1.389v-8.94c0-.767.621-1.389 1.389-1.389h.077c.767 0 1.389.621 1.389 1.389v11.797c0 .767-.621 1.389-1.389 1.389h-11.54c-.767 0-1.389-.621-1.389-1.389v-3.008c0-.767-.621-1.389-1.389-1.389h-5.79c-.767 0-1.389.621-1.389 1.389v.151c0 .767.621 1.389 1.389 1.389h2.973c.767 0 1.389.621 1.389 1.389v.079c-.002.766-.624 1.389-1.391 1.389z"/><path d="m173.007 194.176h.077c.767 0 1.389-.621 1.389-1.389v-3.008c0-.767.621-1.389 1.389-1.389h5.79c.767 0 1.389.621 1.389 1.389v3.008c0 .767.621 1.389 1.389 1.389h11.54c.767 0 1.389-.621 1.389-1.389v-5.938c0-.767-.621-1.389-1.389-1.389h-5.827c-.767 0-1.389.621-1.389 1.389v.152c0 .767.621 1.389 1.389 1.389h2.935c.767 0 1.389.621 1.389 1.389v.151c0 .767-.621 1.389-1.389 1.389h-5.79c-.767 0-1.389-.621-1.389-1.389v-3.081c0-.767-.621-1.389-1.389-1.389h-11.502c-.767 0-1.389.621-1.389 1.389v5.938c0 .766.622 1.389 1.388 1.389zm5.713 0h.077c.767 0 1.389-.621 1.389-1.389v-.079c0-.767-.621-1.389-1.389-1.389h-.077c-.767 0-1.389.621-1.389 1.389v.079c.001.766.622 1.389 1.389 1.389zm-5.713-11.645h34.388c.767 0 1.389-.621 1.389-1.389v-.152c0-.767-.621-1.389-1.389-1.389h-34.388c-.767 0-1.389.621-1.389 1.389v.152c.001.768.623 1.389 1.389 1.389zm34.388 11.645h-5.827c-.767 0-1.389-.621-1.389-1.389v-5.938c0-.767.621-1.389 1.389-1.389h8.721c.767 0 1.389-.621 1.389-1.389v-3.081c0-.767.621-1.389 1.389-1.389h.077c.767 0 1.389.621 1.389 1.389v8.94c0 .767.621 1.389 1.389 1.389h.042c.767 0 1.389-.621 1.389-1.389v-8.94c0-.767.621-1.389 1.389-1.389h.115c.767 0 1.389.621 1.389 1.389v8.94c0 .767.621 1.389 1.389 1.389h.079c.767 0 1.389-.621 1.389-1.389v-8.94c0-.767.621-1.389 1.389-1.389h.077c.767 0 1.389.621 1.389 1.389v11.797c0 .767-.621 1.389-1.389 1.389h-11.507c-.767 0-1.389-.621-1.389-1.389v-3.008c0-.767-.621-1.389-1.389-1.389h-5.827c-.767 0-1.389.621-1.389 1.389v.151c0 .767.621 1.389 1.389 1.389h2.935c.767 0 1.389.621 1.389 1.389v.079c.002.766-.619 1.389-1.386 1.389z"/><path d="m230.2 194.176h.079c.767 0 1.389-.621 1.389-1.389v-3.008c0-.767.621-1.389 1.389-1.389h5.79c.767 0 1.389.621 1.389 1.389v3.008c0 .767.621 1.389 1.389 1.389h11.54c.767 0 1.389-.621 1.389-1.389v-5.938c0-.767-.621-1.389-1.389-1.389h-5.827c-.767 0-1.389.621-1.389 1.389v.152c0 .767.621 1.389 1.389 1.389h2.97c.767 0 1.389.621 1.389 1.389v.151c0 .767-.621 1.389-1.389 1.389h-5.79c-.767 0-1.389-.621-1.389-1.389v-3.081c0-.767-.621-1.389-1.389-1.389h-11.54c-.767 0-1.389.621-1.389 1.389v5.938c.001.766.622 1.389 1.389 1.389zm5.75 0h.042c.767 0 1.389-.621 1.389-1.389v-.079c0-.767-.621-1.389-1.389-1.389h-.042c-.767 0-1.389.621-1.389 1.389v.079c0 .766.622 1.389 1.389 1.389zm-5.75-11.645h34.425c.767 0 1.389-.621 1.389-1.389v-.152c0-.767-.621-1.389-1.389-1.389h-34.425c-.767 0-1.389.621-1.389 1.389v.152c.001.768.622 1.389 1.389 1.389zm34.426 11.645h-5.827c-.767 0-1.389-.621-1.389-1.389v-5.938c0-.767.621-1.389 1.389-1.389h8.684c.767 0 1.389-.621 1.389-1.389v-3.081c0-.767.621-1.389 1.389-1.389h.077c.767 0 1.389.621 1.389 1.389v8.94c0 .767.621 1.389 1.389 1.389h.079c.767 0 1.389-.621 1.389-1.389v-8.94c0-.767.621-1.389 1.389-1.389h.077c.767 0 1.389.621 1.389 1.389v8.94c0 .767.621 1.389 1.389 1.389h.077c.767 0 1.389-.621 1.389-1.389v-8.94c0-.767.621-1.389 1.389-1.389h.079c.767 0 1.389.621 1.389 1.389v11.797c0 .767-.621 1.389-1.389 1.389h-11.502c-.767 0-1.389-.621-1.389-1.389v-3.008c0-.767-.621-1.389-1.389-1.389h-5.827c-.767 0-1.389.621-1.389 1.389v.151c0 .767.621 1.389 1.389 1.389h2.97c.767 0 1.389.621 1.389 1.389v.079c0 .766-.621 1.389-1.388 1.389z"/><path d="m287.395 194.176h.079c.767 0 1.389-.621 1.389-1.389v-3.008c0-.767.621-1.389 1.389-1.389h5.79c.767 0 1.389.621 1.389 1.389v3.008c0 .767.621 1.389 1.389 1.389h11.54c.767 0 1.389-.621 1.389-1.389v-5.938c0-.767-.621-1.389-1.389-1.389h-5.792c-.767 0-1.389.621-1.389 1.389v.152c0 .767.621 1.389 1.389 1.389h2.899c.767 0 1.389.621 1.389 1.389v.151c0 .767-.621 1.389-1.389 1.389h-5.754c-.767 0-1.389-.621-1.389-1.389v-3.081c0-.767-.621-1.389-1.389-1.389h-11.54c-.767 0-1.389.621-1.389 1.389v5.938c0 .766.622 1.389 1.389 1.389zm5.749 0h.042c.767 0 1.389-.621 1.389-1.389v-.079c0-.767-.621-1.389-1.389-1.389h-.042c-.767 0-1.389.621-1.389 1.389v.079c.001.766.622 1.389 1.389 1.389zm-5.749-11.645h34.424c.767 0 1.389-.621 1.389-1.389v-.152c0-.767-.621-1.389-1.389-1.389h-34.424c-.767 0-1.389.621-1.389 1.389v.152c0 .768.622 1.389 1.389 1.389zm34.425 11.645h-5.79c-.767 0-1.389-.621-1.389-1.389v-5.938c0-.767.621-1.389 1.389-1.389h8.646c.767 0 1.389-.621 1.389-1.389v-3.081c0-.767.621-1.389 1.389-1.389h.079c.767 0 1.389.621 1.389 1.389v8.94c0 .767.621 1.389 1.389 1.389h.077c.767 0 1.389-.621 1.389-1.389v-8.94c0-.767.621-1.389 1.389-1.389h.079c.767 0 1.389.621 1.389 1.389v8.94c0 .767.621 1.389 1.389 1.389h.077c.767 0 1.389-.621 1.389-1.389v-8.94c0-.767.621-1.389 1.389-1.389h.079c.767 0 1.389.621 1.389 1.389v11.797c0 .767-.621 1.389-1.389 1.389h-11.505c-.767 0-1.389-.621-1.389-1.389v-3.008c0-.767-.621-1.389-1.389-1.389h-5.826c-.767 0-1.389.621-1.389 1.389v.151c0 .767.621 1.389 1.389 1.389h2.97c.767 0 1.389.621 1.389 1.389v.079c.002.766-.621 1.389-1.387 1.389z"/><path d="m344.589 194.176h.079c.767 0 1.389-.621 1.389-1.389v-3.008c0-.767.621-1.389 1.389-1.389h5.826c.767 0 1.389.621 1.389 1.389v3.008c0 .767.621 1.389 1.389 1.389h11.505c.767 0 1.389-.621 1.389-1.389v-5.938c0-.767-.621-1.389-1.389-1.389h-5.792c-.767 0-1.389.621-1.389 1.389v.152c0 .767.621 1.389 1.389 1.389h2.973c.767 0 1.389.621 1.389 1.389v.151c0 .767-.621 1.389-1.389 1.389h-5.865c-.767 0-1.389-.621-1.389-1.389v-3.081c0-.767-.621-1.389-1.389-1.389h-11.502c-.767 0-1.389.621-1.389 1.389v5.938c-.001.766.62 1.389 1.387 1.389zm5.713 0h.115c.767 0 1.389-.621 1.389-1.389v-.079c0-.767-.621-1.389-1.389-1.389h-.115c-.767 0-1.389.621-1.389 1.389v.079c0 .766.622 1.389 1.389 1.389zm-5.713-11.645h34.424c.767 0 1.389-.621 1.389-1.389v-.152c0-.767-.621-1.389-1.389-1.389h-34.424c-.767 0-1.389.621-1.389 1.389v.152c.001.768.622 1.389 1.389 1.389zm34.426 11.645h-5.79c-.767 0-1.389-.621-1.389-1.389v-5.938c0-.767.621-1.389 1.389-1.389h8.646c.767 0 1.389-.621 1.389-1.389v-3.081c0-.767.621-1.389 1.389-1.389h.079c.767 0 1.389.621 1.389 1.389v8.94c0 .767.621 1.389 1.389 1.389h.077c.767 0 1.389-.621 1.389-1.389v-8.94c0-.767.621-1.389 1.389-1.389h.079c.767 0 1.389.621 1.389 1.389v8.94c0 .767.621 1.389 1.389 1.389h.115c.767 0 1.389-.621 1.389-1.389v-8.94c0-.767.621-1.389 1.389-1.389h.04c.767 0 1.389.621 1.389 1.389v11.797c0 .767-.621 1.389-1.389 1.389h-11.502c-.767 0-1.389-.621-1.389-1.389v-3.008c0-.767-.621-1.389-1.389-1.389h-5.754c-.767 0-1.389.621-1.389 1.389v.151c0 .767.621 1.389 1.389 1.389h2.899c.767 0 1.389.621 1.389 1.389v.079c-.002.766-.623 1.389-1.39 1.389z"/><path d="m401.82 194.176h.042c.767 0 1.389-.621 1.389-1.389v-3.008c0-.767.621-1.389 1.389-1.389h5.792c.767 0 1.389.621 1.389 1.389v3.008c0 .767.621 1.389 1.389 1.389h11.538c.767 0 1.389-.621 1.389-1.389v-5.938c0-.767-.621-1.389-1.389-1.389h-5.752c-.767 0-1.389.621-1.389 1.389v.152c0 .767.621 1.389 1.389 1.389h2.933c.767 0 1.389.621 1.389 1.389v.151c0 .767-.621 1.389-1.389 1.389h-5.826c-.767 0-1.389-.621-1.389-1.389v-3.081c0-.767-.621-1.389-1.389-1.389h-11.505c-.767 0-1.389.621-1.389 1.389v5.938c-.001.766.622 1.389 1.389 1.389zm5.712 0h.079c.767 0 1.389-.621 1.389-1.389v-.079c0-.767-.621-1.389-1.389-1.389h-.079c-.767 0-1.389.621-1.389 1.389v.079c0 .766.622 1.389 1.389 1.389zm-5.712-11.645h34.462c.767 0 1.389-.621 1.389-1.389v-.152c0-.767-.621-1.389-1.389-1.389h-34.462c-.767 0-1.389.621-1.389 1.389v.152c-.001.768.622 1.389 1.389 1.389zm34.461 11.645h-5.865c-.767 0-1.389-.621-1.389-1.389v-5.938c0-.767.621-1.389 1.389-1.389h8.648c.767 0 1.389-.621 1.389-1.389v-3.081c0-.767.621-1.389 1.389-1.389h.115c.767 0 1.389.621 1.389 1.389v8.94c0 .767.621 1.389 1.389 1.389h.077c.767 0 1.389-.621 1.389-1.389v-8.94c0-.767.621-1.389 1.389-1.389h.042c.767 0 1.389.621 1.389 1.389v8.94c0 .767.621 1.389 1.389 1.389h.115c.767 0 1.389-.621 1.389-1.389v-8.94c0-.767.621-1.389 1.389-1.389h.079c.767 0 1.389.621 1.389 1.389v11.797c0 .767-.621 1.389-1.389 1.389h-11.54c-.767 0-1.389-.621-1.389-1.389v-3.008c0-.767-.621-1.389-1.389-1.389h-5.79c-.767 0-1.389.621-1.389 1.389v.151c0 .767.621 1.389 1.389 1.389h3.008c.767 0 1.389.621 1.389 1.389v.079c0 .766-.623 1.389-1.39 1.389z"/><path d="m459.013 194.176h.079c.767 0 1.389-.621 1.389-1.389v-3.008c0-.767.621-1.389 1.389-1.389h5.79c.767 0 1.389.621 1.389 1.389v3.008c0 .767.621 1.389 1.389 1.389h11.54c.767 0 1.389-.621 1.389-1.389v-5.938c0-.767-.621-1.389-1.389-1.389h-5.754c-.767 0-1.389.621-1.389 1.389v.152c0 .767.621 1.389 1.389 1.389h2.935c.767 0 1.389.621 1.389 1.389v.151c0 .767-.621 1.389-1.389 1.389h-5.865c-.767 0-1.389-.621-1.389-1.389v-3.081c0-.767-.621-1.389-1.389-1.389h-11.502c-.767 0-1.389.621-1.389 1.389v5.938c0 .766.622 1.389 1.388 1.389zm5.713 0h.079c.767 0 1.389-.621 1.389-1.389v-.079c0-.767-.621-1.389-1.389-1.389h-.079c-.767 0-1.389.621-1.389 1.389v.079c.001.766.622 1.389 1.389 1.389zm-5.713-11.645h34.388c.767 0 1.389-.621 1.389-1.389v-.152c0-.767-.621-1.389-1.389-1.389h-34.388c-.767 0-1.389.621-1.389 1.389v.152c.001.768.623 1.389 1.389 1.389zm34.388 11.645h-5.79c-.767 0-1.389-.621-1.389-1.389v-5.938c0-.767.621-1.389 1.389-1.389h8.721c.767 0 1.389-.621 1.389-1.389v-3.081c0-.767.621-1.389 1.389-1.389h.004c.767 0 1.389.621 1.389 1.389v8.94c0 .767.621 1.389 1.389 1.389h.152c.767 0 1.389-.621 1.389-1.389v-8.94c0-.767.621-1.389 1.389-1.389h.004c.767 0 1.389.621 1.389 1.389v8.94c0 .767.621 1.389 1.389 1.389h.079c.767 0 1.389-.621 1.389-1.389v-8.94c0-.767.621-1.389 1.389-1.389h.151c.767 0 1.389.621 1.389 1.389v11.797c0 .767-.621 1.389-1.389 1.389h-11.502c-.767 0-1.389-.621-1.389-1.389v-3.008c0-.767-.621-1.389-1.389-1.389h-5.864c-.767 0-1.389.621-1.389 1.389v.151c0 .767.621 1.389 1.389 1.389h2.933c.767 0 1.389.621 1.389 1.389v.079c0 .766-.622 1.389-1.389 1.389z"/><path d="m1.389 203.035h22.963c.767 0 1.389-.621 1.389-1.389v-3.081c0-.767-.621-1.389-1.389-1.389h-22.963c-.767 0-1.389.621-1.389 1.389v3.081c0 .768.621 1.389 1.389 1.389zm28.633 0h22.927c.767 0 1.389-.621 1.389-1.389v-3.081c0-.767-.621-1.389-1.389-1.389h-22.927c-.767 0-1.389.621-1.389 1.389v3.081c0 .768.622 1.389 1.389 1.389z"/><path d="m58.618 203.035h22.927c.767 0 1.389-.621 1.389-1.389v-3.081c0-.767-.621-1.389-1.389-1.389h-22.927c-.767 0-1.389.621-1.389 1.389v3.081c.001.768.623 1.389 1.389 1.389zm28.561 0h23c.767 0 1.389-.621 1.389-1.389v-3.081c0-.767-.621-1.389-1.389-1.389h-23c-.767 0-1.389.621-1.389 1.389v3.081c0 .768.622 1.389 1.389 1.389z"/><path d="m115.814 203.035h22.963c.767 0 1.389-.621 1.389-1.389v-3.081c0-.767-.621-1.389-1.389-1.389h-22.963c-.767 0-1.389.621-1.389 1.389v3.081c-.001.768.622 1.389 1.389 1.389zm28.596 0h22.963c.767 0 1.389-.621 1.389-1.389v-3.081c0-.767-.621-1.389-1.389-1.389h-22.963c-.767 0-1.389.621-1.389 1.389v3.081c.001.768.623 1.389 1.389 1.389z"/><path d="m173.007 203.035h22.963c.767 0 1.389-.621 1.389-1.389v-3.081c0-.767-.621-1.389-1.389-1.389h-22.963c-.767 0-1.389.621-1.389 1.389v3.081c.001.768.623 1.389 1.389 1.389zm28.561 0h23c.767 0 1.389-.621 1.389-1.389v-3.081c0-.767-.621-1.389-1.389-1.389h-23c-.767 0-1.389.621-1.389 1.389v3.081c0 .768.621 1.389 1.389 1.389z"/><path d="m230.2 203.035h22.965c.767 0 1.389-.621 1.389-1.389v-3.081c0-.767-.621-1.389-1.389-1.389h-22.965c-.767 0-1.389.621-1.389 1.389v3.081c.001.768.622 1.389 1.389 1.389zm28.597 0h22.965c.767 0 1.389-.621 1.389-1.389v-3.081c0-.767-.621-1.389-1.389-1.389h-22.965c-.767 0-1.389.621-1.389 1.389v3.081c.001.768.622 1.389 1.389 1.389z"/><path d="m287.395 203.035h22.965c.767 0 1.389-.621 1.389-1.389v-3.081c0-.767-.621-1.389-1.389-1.389h-22.965c-.767 0-1.389.621-1.389 1.389v3.081c0 .768.622 1.389 1.389 1.389zm28.635 0h22.927c.767 0 1.389-.621 1.389-1.389v-3.081c0-.767-.621-1.389-1.389-1.389h-22.927c-.767 0-1.389.621-1.389 1.389v3.081c0 .768.622 1.389 1.389 1.389z"/><path d="m344.589 203.035h22.965c.767 0 1.389-.621 1.389-1.389v-3.081c0-.767-.621-1.389-1.389-1.389h-22.965c-.767 0-1.389.621-1.389 1.389v3.081c.001.768.622 1.389 1.389 1.389zm28.635 0h22.925c.767 0 1.389-.621 1.389-1.389v-3.081c0-.767-.621-1.389-1.389-1.389h-22.925c-.767 0-1.389.621-1.389 1.389v3.081c.001.768.622 1.389 1.389 1.389z"/><path d="m401.82 203.035h22.927c.767 0 1.389-.621 1.389-1.389v-3.081c0-.767-.621-1.389-1.389-1.389h-22.927c-.767 0-1.389.621-1.389 1.389v3.081c-.001.768.622 1.389 1.389 1.389zm28.597 0h22.965c.767 0 1.389-.621 1.389-1.389v-3.081c0-.767-.621-1.389-1.389-1.389h-22.965c-.767 0-1.389.621-1.389 1.389v3.081c0 .768.622 1.389 1.389 1.389z"/><path d="m459.013 203.035h22.965c.767 0 1.389-.621 1.389-1.389v-3.081c0-.767-.621-1.389-1.389-1.389h-22.965c-.767 0-1.389.621-1.389 1.389v3.081c.001.768.623 1.389 1.389 1.389zm28.599 0h23c.767 0 1.389-.621 1.389-1.389v-3.081c0-.767-.621-1.389-1.389-1.389h-23c-.767 0-1.389.621-1.389 1.389v3.081c-.001.768.621 1.389 1.389 1.389z"/><path d="m510.611 317.826h-.077c-.767 0-1.389.621-1.389 1.389v3.008c0 .767-.621 1.389-1.389 1.389h-5.827c-.767 0-1.389-.621-1.389-1.389v-3.008c0-.767-.621-1.389-1.389-1.389h-11.502c-.767 0-1.389.621-1.389 1.389v5.939c0 .767.621 1.389 1.389 1.389h5.79c.767 0 1.389-.621 1.389-1.389v-.152c0-.767-.621-1.389-1.389-1.389h-2.935c-.767 0-1.389-.621-1.389-1.389v-.151c0-.767.621-1.389 1.389-1.389h5.792c.767 0 1.389.621 1.389 1.389v3.081c0 .767.621 1.389 1.389 1.389h11.538c.767 0 1.389-.621 1.389-1.389v-5.939c-.001-.767-.622-1.389-1.39-1.389zm-5.748 0h-.079c-.767 0-1.389.621-1.389 1.389v.079c0 .767.621 1.389 1.389 1.389h.079c.767 0 1.389-.621 1.389-1.389v-.079c0-.767-.622-1.389-1.389-1.389zm5.748 11.645h-34.423c-.767 0-1.389.621-1.389 1.389v.152c0 .767.621 1.389 1.389 1.389h34.423c.767 0 1.389-.621 1.389-1.389v-.152c0-.768-.621-1.389-1.389-1.389zm-34.422-11.645h5.79c.767 0 1.389.621 1.389 1.389v5.939c0 .767-.621 1.389-1.389 1.389h-8.648c-.767 0-1.389.621-1.389 1.389v3.081c0 .767-.621 1.389-1.389 1.389h-.077c-.767 0-1.389-.621-1.389-1.389v-8.94c0-.767-.621-1.389-1.389-1.389h-.079c-.767 0-1.389.621-1.389 1.389v8.94c0 .767-.621 1.389-1.389 1.389h-.077c-.767 0-1.389-.621-1.389-1.389v-8.94c0-.767-.621-1.389-1.389-1.389h-.115c-.767 0-1.389.621-1.389 1.389v8.94c0 .767-.621 1.389-1.389 1.389h-.042c-.767 0-1.389-.621-1.389-1.389v-11.797c0-.767.621-1.389 1.389-1.389h11.502c.767 0 1.389.621 1.389 1.389v3.008c0 .767.621 1.389 1.389 1.389h5.79c.767 0 1.389-.621 1.389-1.389v-.151c0-.767-.621-1.389-1.389-1.389h-2.933c-.767 0-1.389-.621-1.389-1.389v-.079c0-.768.623-1.39 1.39-1.39z"/><path d="m453.382 317.826h-.115c-.767 0-1.389.621-1.389 1.389v3.008c0 .767-.621 1.389-1.389 1.389h-5.754c-.767 0-1.389-.621-1.389-1.389v-3.008c0-.767-.621-1.389-1.389-1.389h-11.502c-.767 0-1.389.621-1.389 1.389v5.939c0 .767.621 1.389 1.389 1.389h5.79c.767 0 1.389-.621 1.389-1.389v-.152c0-.767-.621-1.389-1.389-1.389h-2.935c-.767 0-1.389-.621-1.389-1.389v-.151c0-.767.621-1.389 1.389-1.389h5.792c.767 0 1.389.621 1.389 1.389v3.081c0 .767.621 1.389 1.389 1.389h11.502c.767 0 1.389-.621 1.389-1.389v-5.939c-.001-.767-.623-1.389-1.389-1.389zm-5.713 0h-.077c-.767 0-1.389.621-1.389 1.389v.079c0 .767.621 1.389 1.389 1.389h.077c.767 0 1.389-.621 1.389-1.389v-.079c-.001-.767-.622-1.389-1.389-1.389zm5.713 11.645h-34.388c-.767 0-1.389.621-1.389 1.389v.152c0 .767.621 1.389 1.389 1.389h34.388c.767 0 1.389-.621 1.389-1.389v-.152c-.001-.768-.623-1.389-1.389-1.389zm-34.388-11.645h5.827c.767 0 1.389.621 1.389 1.389v5.939c0 .767-.621 1.389-1.389 1.389h-8.648c-.767 0-1.389.621-1.389 1.389v3.081c0 .767-.621 1.389-1.389 1.389h-.115c-.767 0-1.389-.621-1.389-1.389v-8.94c0-.767-.621-1.389-1.389-1.389h-.115c-.767 0-1.389.621-1.389 1.389v8.94c0 .767-.621 1.389-1.389 1.389h-.042c-.767 0-1.389-.621-1.389-1.389v-8.94c0-.767-.621-1.389-1.389-1.389h-.115c-.767 0-1.389.621-1.389 1.389v8.94c0 .767-.621 1.389-1.389 1.389h-.077c-.767 0-1.389-.621-1.389-1.389v-11.797c0-.767.621-1.389 1.389-1.389h11.575c.767 0 1.389.621 1.389 1.389v3.008c0 .767.621 1.389 1.389 1.389h5.754c.767 0 1.389-.621 1.389-1.389v-.151c0-.767-.621-1.389-1.389-1.389h-2.935c-.767 0-1.389-.621-1.389-1.389v-.079c.003-.768.625-1.39 1.392-1.39z"/><path d="m396.186 317.826h-.077c-.767 0-1.389.621-1.389 1.389v3.008c0 .767-.621 1.389-1.389 1.389h-5.792c-.767 0-1.389-.621-1.389-1.389v-3.008c0-.767-.621-1.389-1.389-1.389h-11.538c-.767 0-1.389.621-1.389 1.389v5.939c0 .767.621 1.389 1.389 1.389h5.79c.767 0 1.389-.621 1.389-1.389v-.152c0-.767-.621-1.389-1.389-1.389h-2.935c-.767 0-1.389-.621-1.389-1.389v-.151c0-.767.621-1.389 1.389-1.389h5.827c.767 0 1.389.621 1.389 1.389v3.081c0 .767.621 1.389 1.389 1.389h11.502c.767 0 1.389-.621 1.389-1.389v-5.939c.002-.767-.621-1.389-1.388-1.389zm-5.712 0h-.077c-.767 0-1.389.621-1.389 1.389v.079c0 .767.621 1.389 1.389 1.389h.077c.767 0 1.389-.621 1.389-1.389v-.079c0-.767-.622-1.389-1.389-1.389zm5.712 11.645h-34.425c-.767 0-1.389.621-1.389 1.389v.152c0 .767.621 1.389 1.389 1.389h34.425c.767 0 1.389-.621 1.389-1.389v-.152c.001-.768-.622-1.389-1.389-1.389zm-34.424-11.645h5.827c.767 0 1.389.621 1.389 1.389v5.939c0 .767-.621 1.389-1.389 1.389h-8.646c-.767 0-1.389.621-1.389 1.389v3.081c0 .767-.621 1.389-1.389 1.389h-.079c-.767 0-1.389-.621-1.389-1.389v-8.94c0-.767-.621-1.389-1.389-1.389h-.115c-.767 0-1.389.621-1.389 1.389v8.94c0 .767-.621 1.389-1.389 1.389h-.115c-.767 0-1.389-.621-1.389-1.389v-8.94c0-.767-.621-1.389-1.389-1.389h-.042c-.767 0-1.389.621-1.389 1.389v8.94c0 .767-.621 1.389-1.389 1.389h-.077c-.767 0-1.389-.621-1.389-1.389v-11.797c0-.767.621-1.389 1.389-1.389h11.54c.767 0 1.389.621 1.389 1.389v3.008c0 .767.621 1.389 1.389 1.389h5.79c.767 0 1.389-.621 1.389-1.389v-.151c0-.767-.621-1.389-1.389-1.389h-2.973c-.767 0-1.389-.621-1.389-1.389v-.079c.002-.768.624-1.39 1.391-1.39z"/><path d="m338.993 317.826h-.077c-.767 0-1.389.621-1.389 1.389v3.008c0 .767-.621 1.389-1.389 1.389h-5.79c-.767 0-1.389-.621-1.389-1.389v-3.008c0-.767-.621-1.389-1.389-1.389h-11.54c-.767 0-1.389.621-1.389 1.389v5.939c0 .767.621 1.389 1.389 1.389h5.827c.767 0 1.389-.621 1.389-1.389v-.152c0-.767-.621-1.389-1.389-1.389h-2.935c-.767 0-1.389-.621-1.389-1.389v-.151c0-.767.621-1.389 1.389-1.389h5.79c.767 0 1.389.621 1.389 1.389v3.081c0 .767.621 1.389 1.389 1.389h11.502c.767 0 1.389-.621 1.389-1.389v-5.939c0-.767-.622-1.389-1.388-1.389zm-5.713 0h-.077c-.767 0-1.389.621-1.389 1.389v.079c0 .767.621 1.389 1.389 1.389h.077c.767 0 1.389-.621 1.389-1.389v-.079c-.001-.767-.622-1.389-1.389-1.389zm5.713 11.645h-34.388c-.767 0-1.389.621-1.389 1.389v.152c0 .767.621 1.389 1.389 1.389h34.388c.767 0 1.389-.621 1.389-1.389v-.152c-.001-.768-.623-1.389-1.389-1.389zm-34.388-11.645h5.827c.767 0 1.389.621 1.389 1.389v5.939c0 .767-.621 1.389-1.389 1.389h-8.721c-.767 0-1.389.621-1.389 1.389v3.081c0 .767-.621 1.389-1.389 1.389h-.077c-.767 0-1.389-.621-1.389-1.389v-8.94c0-.767-.621-1.389-1.389-1.389h-.042c-.767 0-1.389.621-1.389 1.389v8.94c0 .767-.621 1.389-1.389 1.389h-.115c-.767 0-1.389-.621-1.389-1.389v-8.94c0-.767-.621-1.389-1.389-1.389h-.079c-.767 0-1.389.621-1.389 1.389v8.94c0 .767-.621 1.389-1.389 1.389h-.077c-.767 0-1.389-.621-1.389-1.389v-11.797c0-.767.621-1.389 1.389-1.389h11.502c.767 0 1.389.621 1.389 1.389v3.008c0 .767.621 1.389 1.389 1.389h5.827c.767 0 1.389-.621 1.389-1.389v-.151c0-.767-.621-1.389-1.389-1.389h-2.935c-.767 0-1.389-.621-1.389-1.389v-.079c.003-.768.624-1.39 1.391-1.39z"/><path d="m281.8 317.826h-.079c-.767 0-1.389.621-1.389 1.389v3.008c0 .767-.621 1.389-1.389 1.389h-5.79c-.767 0-1.389-.621-1.389-1.389v-3.008c0-.767-.621-1.389-1.389-1.389h-11.54c-.767 0-1.389.621-1.389 1.389v5.939c0 .767.621 1.389 1.389 1.389h5.827c.767 0 1.389-.621 1.389-1.389v-.152c0-.767-.621-1.389-1.389-1.389h-2.97c-.767 0-1.389-.621-1.389-1.389v-.151c0-.767.621-1.389 1.389-1.389h5.79c.767 0 1.389.621 1.389 1.389v3.081c0 .767.621 1.389 1.389 1.389h11.54c.767 0 1.389-.621 1.389-1.389v-5.939c-.001-.767-.622-1.389-1.389-1.389zm-5.75 0h-.042c-.767 0-1.389.621-1.389 1.389v.079c0 .767.621 1.389 1.389 1.389h.042c.767 0 1.389-.621 1.389-1.389v-.079c0-.767-.622-1.389-1.389-1.389zm5.75 11.645h-34.425c-.767 0-1.389.621-1.389 1.389v.152c0 .767.621 1.389 1.389 1.389h34.425c.767 0 1.389-.621 1.389-1.389v-.152c-.001-.768-.622-1.389-1.389-1.389zm-34.426-11.645h5.827c.767 0 1.389.621 1.389 1.389v5.939c0 .767-.621 1.389-1.389 1.389h-8.684c-.767 0-1.389.621-1.389 1.389v3.081c0 .767-.621 1.389-1.389 1.389h-.077c-.767 0-1.389-.621-1.389-1.389v-8.94c0-.767-.621-1.389-1.389-1.389h-.079c-.767 0-1.389.621-1.389 1.389v8.94c0 .767-.621 1.389-1.389 1.389h-.077c-.767 0-1.389-.621-1.389-1.389v-8.94c0-.767-.621-1.389-1.389-1.389h-.077c-.767 0-1.389.621-1.389 1.389v8.94c0 .767-.621 1.389-1.389 1.389h-.079c-.767 0-1.389-.621-1.389-1.389v-11.797c0-.767.621-1.389 1.389-1.389h11.502c.767 0 1.389.621 1.389 1.389v3.008c0 .767.621 1.389 1.389 1.389h5.827c.767 0 1.389-.621 1.389-1.389v-.151c0-.767-.621-1.389-1.389-1.389h-2.97c-.767 0-1.389-.621-1.389-1.389v-.079c0-.768.621-1.39 1.388-1.39z"/><path d="m224.605 317.826h-.079c-.767 0-1.389.621-1.389 1.389v3.008c0 .767-.621 1.389-1.389 1.389h-5.79c-.767 0-1.389-.621-1.389-1.389v-3.008c0-.767-.621-1.389-1.389-1.389h-11.54c-.767 0-1.389.621-1.389 1.389v5.939c0 .767.621 1.389 1.389 1.389h5.792c.767 0 1.389-.621 1.389-1.389v-.152c0-.767-.621-1.389-1.389-1.389h-2.899c-.767 0-1.389-.621-1.389-1.389v-.151c0-.767.621-1.389 1.389-1.389h5.754c.767 0 1.389.621 1.389 1.389v3.081c0 .767.621 1.389 1.389 1.389h11.54c.767 0 1.389-.621 1.389-1.389v-5.939c0-.767-.622-1.389-1.389-1.389zm-5.749 0h-.042c-.767 0-1.389.621-1.389 1.389v.079c0 .767.621 1.389 1.389 1.389h.042c.767 0 1.389-.621 1.389-1.389v-.079c-.001-.767-.622-1.389-1.389-1.389zm5.749 11.645h-34.425c-.767 0-1.389.621-1.389 1.389v.152c0 .767.621 1.389 1.389 1.389h34.424c.767 0 1.389-.621 1.389-1.389v-.152c.001-.768-.621-1.389-1.388-1.389zm-34.425-11.645h5.79c.767 0 1.389.621 1.389 1.389v5.939c0 .767-.621 1.389-1.389 1.389h-8.646c-.767 0-1.389.621-1.389 1.389v3.081c0 .767-.621 1.389-1.389 1.389h-.079c-.767 0-1.389-.621-1.389-1.389v-8.94c0-.767-.621-1.389-1.389-1.389h-.077c-.767 0-1.389.621-1.389 1.389v8.94c0 .767-.621 1.389-1.389 1.389h-.079c-.767 0-1.389-.621-1.389-1.389v-8.94c0-.767-.621-1.389-1.389-1.389h-.077c-.767 0-1.389.621-1.389 1.389v8.94c0 .767-.621 1.389-1.389 1.389h-.079c-.767 0-1.389-.621-1.389-1.389v-11.797c0-.767.621-1.389 1.389-1.389h11.505c.767 0 1.389.621 1.389 1.389v3.008c0 .767.621 1.389 1.389 1.389h5.826c.767 0 1.389-.621 1.389-1.389v-.151c0-.767-.621-1.389-1.389-1.389h-2.97c-.767 0-1.389-.621-1.389-1.389v-.079c-.002-.768.621-1.39 1.387-1.39z"/><path d="m167.411 317.826h-.079c-.767 0-1.389.621-1.389 1.389v3.008c0 .767-.621 1.389-1.389 1.389h-5.826c-.767 0-1.389-.621-1.389-1.389v-3.008c0-.767-.621-1.389-1.389-1.389h-11.505c-.767 0-1.389.621-1.389 1.389v5.939c0 .767.621 1.389 1.389 1.389h5.792c.767 0 1.389-.621 1.389-1.389v-.152c0-.767-.621-1.389-1.389-1.389h-2.973c-.767 0-1.389-.621-1.389-1.389v-.151c0-.767.621-1.389 1.389-1.389h5.865c.767 0 1.389.621 1.389 1.389v3.081c0 .767.621 1.389 1.389 1.389h11.502c.767 0 1.389-.621 1.389-1.389v-5.939c.001-.767-.62-1.389-1.387-1.389zm-5.713 0h-.115c-.767 0-1.389.621-1.389 1.389v.079c0 .767.621 1.389 1.389 1.389h.115c.767 0 1.389-.621 1.389-1.389v-.079c0-.767-.622-1.389-1.389-1.389zm5.713 11.645h-34.424c-.767 0-1.389.621-1.389 1.389v.152c0 .767.621 1.389 1.389 1.389h34.424c.767 0 1.389-.621 1.389-1.389v-.152c-.001-.768-.622-1.389-1.389-1.389zm-34.426-11.645h5.79c.767 0 1.389.621 1.389 1.389v5.939c0 .767-.621 1.389-1.389 1.389h-8.646c-.767 0-1.389.621-1.389 1.389v3.081c0 .767-.621 1.389-1.389 1.389h-.079c-.767 0-1.389-.621-1.389-1.389v-8.94c0-.767-.621-1.389-1.389-1.389h-.077c-.767 0-1.389.621-1.389 1.389v8.94c0 .767-.621 1.389-1.389 1.389h-.079c-.767 0-1.389-.621-1.389-1.389v-8.94c0-.767-.621-1.389-1.389-1.389h-.115c-.767 0-1.389.621-1.389 1.389v8.94c0 .767-.621 1.389-1.389 1.389h-.041c-.767 0-1.389-.621-1.389-1.389v-11.797c0-.767.621-1.389 1.389-1.389h11.502c.767 0 1.389.621 1.389 1.389v3.008c0 .767.621 1.389 1.389 1.389h5.754c.767 0 1.389-.621 1.389-1.389v-.151c0-.767-.621-1.389-1.389-1.389h-2.899c-.767 0-1.389-.621-1.389-1.389v-.079c.003-.768.624-1.39 1.391-1.39z"/><path d="m110.18 317.826h-.042c-.767 0-1.389.621-1.389 1.389v3.008c0 .767-.621 1.389-1.389 1.389h-5.792c-.767 0-1.389-.621-1.389-1.389v-3.008c0-.767-.621-1.389-1.389-1.389h-11.536c-.767 0-1.389.621-1.389 1.389v5.939c0 .767.621 1.389 1.389 1.389h5.752c.767 0 1.389-.621 1.389-1.389v-.152c0-.767-.621-1.389-1.389-1.389h-2.933c-.767 0-1.389-.621-1.389-1.389v-.151c0-.767.621-1.389 1.389-1.389h5.827c.767 0 1.389.621 1.389 1.389v3.081c0 .767.621 1.389 1.389 1.389h11.505c.767 0 1.389-.621 1.389-1.389v-5.939c-.002-.767-.625-1.389-1.392-1.389zm-5.712 0h-.079c-.767 0-1.389.621-1.389 1.389v.079c0 .767.621 1.389 1.389 1.389h.079c.767 0 1.389-.621 1.389-1.389v-.079c0-.767-.622-1.389-1.389-1.389zm5.712 11.645h-34.461c-.767 0-1.389.621-1.389 1.389v.152c0 .767.621 1.389 1.389 1.389h34.462c.767 0 1.389-.621 1.389-1.389v-.152c0-.768-.623-1.389-1.39-1.389zm-34.461-11.645h5.865c.767 0 1.389.621 1.389 1.389v5.939c0 .767-.621 1.389-1.389 1.389h-8.648c-.767 0-1.389.621-1.389 1.389v3.081c0 .767-.621 1.389-1.389 1.389h-.115c-.767 0-1.389-.621-1.389-1.389v-8.94c0-.767-.621-1.389-1.389-1.389h-.077c-.767 0-1.389.621-1.389 1.389v8.94c0 .767-.621 1.389-1.389 1.389h-.042c-.767 0-1.389-.621-1.389-1.389v-8.94c0-.767-.621-1.389-1.389-1.389h-.115c-.767 0-1.389.621-1.389 1.389v8.94c0 .767-.621 1.389-1.389 1.389h-.079c-.767 0-1.389-.621-1.389-1.389v-11.797c0-.767.621-1.389 1.389-1.389h11.54c.767 0 1.389.621 1.389 1.389v3.008c0 .767.621 1.389 1.389 1.389h5.79c.767 0 1.389-.621 1.389-1.389v-.151c0-.767-.621-1.389-1.389-1.389h-3.005c-.767 0-1.389-.621-1.389-1.389v-.079c-.003-.768.62-1.39 1.387-1.39z"/><path d="m52.986 317.826h-.079c-.767 0-1.389.621-1.389 1.389v3.008c0 .767-.621 1.389-1.389 1.389h-5.79c-.767 0-1.389-.621-1.389-1.389v-3.008c0-.767-.621-1.389-1.389-1.389h-11.539c-.767 0-1.389.621-1.389 1.389v5.939c0 .767.621 1.389 1.389 1.389h5.754c.767 0 1.389-.621 1.389-1.389v-.152c0-.767-.621-1.389-1.389-1.389h-2.935c-.767 0-1.389-.621-1.389-1.389v-.151c0-.767.621-1.389 1.389-1.389h5.865c.767 0 1.389.621 1.389 1.389v3.081c0 .767.621 1.389 1.389 1.389h11.502c.767 0 1.389-.621 1.389-1.389v-5.939c0-.767-.622-1.389-1.389-1.389zm-5.712 0h-.079c-.767 0-1.389.621-1.389 1.389v.079c0 .767.621 1.389 1.389 1.389h.079c.767 0 1.389-.621 1.389-1.389v-.079c-.001-.767-.622-1.389-1.389-1.389zm5.712 11.645h-34.387c-.767 0-1.389.621-1.389 1.389v.152c0 .767.621 1.389 1.389 1.389h34.388c.767 0 1.389-.621 1.389-1.389v-.152c-.001-.768-.623-1.389-1.39-1.389zm-34.387-11.645h5.79c.767 0 1.389.621 1.389 1.389v5.939c0 .767-.621 1.389-1.389 1.389h-8.719c-.767 0-1.389.621-1.389 1.389v3.081c0 .767-.621 1.389-1.389 1.389h-.004c-.767 0-1.389-.621-1.389-1.389v-8.94c0-.767-.621-1.389-1.389-1.389h-.154c-.767 0-1.389.621-1.389 1.389v8.94c0 .767-.621 1.389-1.389 1.389h-.003c-.767 0-1.389-.621-1.389-1.389v-8.94c0-.767-.621-1.389-1.389-1.389h-.08c-.767 0-1.389.621-1.389 1.389v8.94c0 .767-.621 1.389-1.389 1.389h-.15c-.767 0-1.389-.621-1.389-1.389v-11.797c0-.767.621-1.389 1.389-1.389h11.502c.767 0 1.389.621 1.389 1.389v3.008c0 .767.621 1.389 1.389 1.389h5.864c.767 0 1.389-.621 1.389-1.389v-.151c0-.767-.621-1.389-1.389-1.389h-2.933c-.767 0-1.389-.621-1.389-1.389v-.079c-.001-.768.621-1.39 1.388-1.39z"/><path d="m510.611 308.966h-22.963c-.767 0-1.389.621-1.389 1.389v3.081c0 .767.621 1.389 1.389 1.389h22.963c.767 0 1.389-.621 1.389-1.389v-3.081c0-.768-.621-1.389-1.389-1.389zm-28.633 0h-22.927c-.767 0-1.389.621-1.389 1.389v3.081c0 .767.621 1.389 1.389 1.389h22.927c.767 0 1.389-.621 1.389-1.389v-3.081c0-.768-.622-1.389-1.389-1.389z"/><path d="m453.382 308.966h-22.927c-.767 0-1.389.621-1.389 1.389v3.081c0 .767.621 1.389 1.389 1.389h22.927c.767 0 1.389-.621 1.389-1.389v-3.081c-.001-.768-.623-1.389-1.389-1.389zm-28.561 0h-23c-.767 0-1.389.621-1.389 1.389v3.081c0 .767.621 1.389 1.389 1.389h23c.767 0 1.389-.621 1.389-1.389v-3.081c0-.768-.621-1.389-1.389-1.389z"/><path d="m396.186 308.966h-22.963c-.767 0-1.389.621-1.389 1.389v3.081c0 .767.621 1.389 1.389 1.389h22.963c.767 0 1.389-.621 1.389-1.389v-3.081c.001-.768-.622-1.389-1.389-1.389zm-28.596 0h-22.963c-.767 0-1.389.621-1.389 1.389v3.081c0 .767.621 1.389 1.389 1.389h22.963c.767 0 1.389-.621 1.389-1.389v-3.081c0-.768-.623-1.389-1.389-1.389z"/><path d="m338.993 308.966h-22.963c-.767 0-1.389.621-1.389 1.389v3.081c0 .767.621 1.389 1.389 1.389h22.963c.767 0 1.389-.621 1.389-1.389v-3.081c-.001-.768-.623-1.389-1.389-1.389zm-28.561 0h-23c-.767 0-1.389.621-1.389 1.389v3.081c0 .767.621 1.389 1.389 1.389h23c.767 0 1.389-.621 1.389-1.389v-3.081c0-.768-.621-1.389-1.389-1.389z"/><path d="m281.8 308.966h-22.965c-.767 0-1.389.621-1.389 1.389v3.081c0 .767.621 1.389 1.389 1.389h22.965c.767 0 1.389-.621 1.389-1.389v-3.081c-.001-.768-.622-1.389-1.389-1.389zm-28.597 0h-22.965c-.767 0-1.389.621-1.389 1.389v3.081c0 .767.621 1.389 1.389 1.389h22.965c.767 0 1.389-.621 1.389-1.389v-3.081c-.001-.768-.622-1.389-1.389-1.389z"/><path d="m224.605 308.966h-22.965c-.767 0-1.389.621-1.389 1.389v3.081c0 .767.621 1.389 1.389 1.389h22.965c.767 0 1.389-.621 1.389-1.389v-3.081c0-.768-.622-1.389-1.389-1.389zm-28.635 0h-22.927c-.767 0-1.389.621-1.389 1.389v3.081c0 .767.621 1.389 1.389 1.389h22.927c.767 0 1.389-.621 1.389-1.389v-3.081c0-.768-.622-1.389-1.389-1.389z"/><path d="m167.411 308.966h-22.965c-.767 0-1.389.621-1.389 1.389v3.081c0 .767.621 1.389 1.389 1.389h22.965c.767 0 1.389-.621 1.389-1.389v-3.081c-.001-.768-.622-1.389-1.389-1.389zm-28.635 0h-22.925c-.767 0-1.389.621-1.389 1.389v3.081c0 .767.621 1.389 1.389 1.389h22.925c.767 0 1.389-.621 1.389-1.389v-3.081c-.001-.768-.622-1.389-1.389-1.389z"/><path d="m110.18 308.966h-22.926c-.767 0-1.389.621-1.389 1.389v3.081c0 .767.621 1.389 1.389 1.389h22.927c.767 0 1.389-.621 1.389-1.389v-3.081c0-.768-.623-1.389-1.39-1.389zm-28.597 0h-22.965c-.767 0-1.389.621-1.389 1.389v3.081c0 .767.621 1.389 1.389 1.389h22.965c.767 0 1.389-.621 1.389-1.389v-3.081c0-.768-.622-1.389-1.389-1.389z"/><path d="m52.986 308.966h-22.964c-.767 0-1.389.621-1.389 1.389v3.081c0 .767.621 1.389 1.389 1.389h22.965c.767 0 1.389-.621 1.389-1.389v-3.081c-.001-.768-.623-1.389-1.39-1.389zm-28.598 0h-22.999c-.768 0-1.389.621-1.389 1.389v3.081c0 .767.621 1.389 1.389 1.389h23c.767 0 1.389-.621 1.389-1.389v-3.081c0-.768-.622-1.389-1.39-1.389z"/></g><path d="m248.698 214.274c2.618.698 5.414-.071 7.334-2.026 2.898 2.934 7.647 3.004 10.651.141 1.956-1.886 2.759-4.75 2.06-7.334-2.548 4.121-7.925 5.448-12.046 2.863-.21-.141-.489-.28-.663-.42-3.875 2.863-9.357 2.095-12.291-1.745-.106-.211-.314-.49-.455-.698-1.049 4.053 1.395 8.241 5.41 9.219z" fill="#ff4b55"/><path d="m264.966 295.855c9.386-5.153 17.219-13.272 21.514-23.966 7.314-18.33 2.708-39.02-11.283-52.44-.481-.461-1.212.156-.863.724 13.799 22.503 8.363 52.074-12.99 68.278l1.021-65.367c.014-.887-.382-1.732-1.071-2.291l-3.473-2.807c-1.064-.86-2.584-.855-3.642.01l-3.422 2.797c-.683.558-1.073 1.398-1.059 2.28l.992 65.413c-21.356-16.196-26.804-45.794-13.026-68.312.348-.568-.383-1.185-.863-.723-13.964 13.42-18.599 34.109-11.286 52.438 4.295 10.692 12.127 18.812 21.516 23.965-5.975 2.048-12.255 3.134-18.605 2.952-.671-.019-.806.925-.163 1.119 8.068 2.449 16.366 2.617 24.168.868l3.063 5.943c.212.41.799.412 1.012.001l3.084-5.941c7.802 1.746 16.103 1.575 24.177-.874.642-.194.508-1.138-.163-1.119-6.358.185-12.653-.901-18.638-2.948z" fill="#ff4b55"/><path d="m303.171 235.086c-4.804-8.975-12.782-15.778-22.279-19.111-.595-.209-1.059.577-.573.978 20.966 17.271 25.169 48.032 8.956 70.302-.839 1.118-1.747 2.305-2.62 3.281 19.905-10.685 27.272-35.546 16.516-55.45z" fill="#ff4b55"/><path d="m222.755 287.255c-16.214-22.27-12.044-53.03 8.918-70.301.487-.402.022-1.186-.573-.978-9.485 3.334-17.408 10.135-22.243 19.11-10.824 19.904-3.386 44.765 16.552 55.449-.942-.976-1.85-2.162-2.654-3.28z" fill="#ff4b55"/></svg>