<svg enable-background="new 0 0 512.001 512.001" viewBox="0 0 512.001 512.001" xmlns="http://www.w3.org/2000/svg"><path d="m503.172 423.725h-494.344c-4.875 0-8.828-3.953-8.828-8.828v-317.793c0-4.875 3.953-8.828 8.828-8.828h494.345c4.875 0 8.828 3.953 8.828 8.828v317.793c-.001 4.876-3.954 8.828-8.829 8.828z" fill="#41479b"/><path d="m0 150.071h512v211.86h-512z" fill="#f5f5f5"/><path d="m301.869 256.001 22.933-39.721h-45.865l-22.937-39.727-22.936 39.727h-45.865l22.933 39.721-22.933 39.721h45.865l22.936 39.727 22.936-39.727h45.865zm.433-26.73-7.933 13.74-7.933-13.74zm-15.433 26.73-15.433 26.73h-30.873l-15.432-26.73 15.433-26.73h30.873zm-30.869-53.466 7.936 13.746h-15.872zm-46.302 26.736h15.865l-7.933 13.74zm0 53.46 7.933-13.74 7.933 13.74zm46.302 26.736-7.936-13.746h15.872zm38.369-40.476 7.933 13.74h-15.865z" fill="#41479b"/></svg>