<svg enable-background="new 0 0 512.001 512.001" viewBox="0 0 512.001 512.001" xmlns="http://www.w3.org/2000/svg"><path d="m503.172 88.276h-494.344c-4.875 0-8.828 3.952-8.828 8.827v317.793c0 4.875 3.953 8.828 8.828 8.828h494.345c4.875 0 8.828-3.953 8.828-8.828v-317.793c-.001-4.875-3.954-8.827-8.829-8.827z" fill="#73af00"/><path d="m512 97.103c0-4.875-3.953-8.828-8.828-8.828h-39.501l-207.671 136.062-207.671-136.061h-39.501c-4.875 0-8.828 3.952-8.828 8.827v22.836l207.671 136.061-207.671 136.061v22.836c0 4.875 3.953 8.828 8.828 8.828h39.501l207.671-136.062 207.671 136.061h39.501c4.875 0 8.828-3.953 8.828-8.828v-22.836l-207.671-136.06 207.671-136.061z" fill="#ffe15a"/><g fill="#464655"><path d="m512 119.939v272.122l-207.671-136.061z"/><path d="m0 392.061v-272.122l207.671 136.061z"/></g></svg>