<svg enable-background="new 0 0 512.001 512.001" viewBox="0 0 512.001 512.001" xmlns="http://www.w3.org/2000/svg"><path d="m512 200.093h-512v-102.989c0-4.875 3.953-8.828 8.828-8.828h494.345c4.875 0 8.828 3.953 8.828 8.828z" fill="#464655"/><path d="m503.172 423.725h-494.344c-4.875 0-8.828-3.953-8.828-8.828v-102.988h512v102.988c0 4.876-3.953 8.828-8.828 8.828z" fill="#73af00"/><path d="m0 200.091h512v111.81h-512z" fill="#f5f5f5"/><path d="m3.256 421.591 299.112-162.017c2.838-1.537 2.838-5.61 0-7.147l-299.112-162.016c-1.945 1.619-3.256 3.965-3.256 6.693v317.793c0 2.729 1.311 5.075 3.256 6.694z" fill="#ff4b55"/><path d="m95.399 233.165 5.247 11.381 12.169-2.994c.76-.186 1.389.602 1.038 1.302l-5.626 11.198 9.928 7.648c.62.478.395 1.462-.371 1.623l-12.263 2.583.211 12.531c.013.782-.897 1.22-1.5.723l-9.665-7.977-9.665 7.977c-.604.498-1.513.06-1.5-.723l.211-12.531-12.263-2.583c-.766-.161-.99-1.145-.371-1.623l9.928-7.648-5.626-11.198c-.351-.7.278-1.489 1.038-1.302l12.169 2.994 5.247-11.381c.326-.71 1.336-.71 1.664 0z" fill="#f5f5f5"/></svg>