<svg enable-background="new 0 0 512.001 512.001" viewBox="0 0 512.001 512.001" xmlns="http://www.w3.org/2000/svg"><path d="m503.172 88.276h-494.344c-4.875 0-8.828 3.952-8.828 8.827v317.793c0 4.875 3.953 8.828 8.828 8.828h494.345c4.875 0 8.828-3.953 8.828-8.828v-317.793c-.001-4.875-3.954-8.827-8.829-8.827z" fill="#82c3d2"/><g fill="#ffe15a"><path d="m59.516 128.447c-.799-3.383-.998-4.63.52-6.147.74-.74.74-1.939 0-2.679s-1.939-.74-2.679 0c-3.072 3.073-2.339 6.262-1.544 9.639-2.422-.791-4.934-.204-6.28 1.494-.668.847-1.96 3.223.461 7.017.563.881 1.727 1.14 2.616.582.883-.563 1.14-1.736.577-2.616-.908-1.429-.935-2.31-.681-2.632.3-.381 1.23-.582 2.204-.237.629.218 2.091.973 2.091 3.253 0 1.821-.842 3.49-2.31 4.574-1.471 1.088-3.375 1.395-5.21.825-2.266-.692-3.849-3.079-3.849-5.806 0-1.951.418-3.923 1.186-5.651.122-.255 3.018-6.254 3.764-8.49 1.475-4.423-.024-6.647-1.047-7.576-1.369-1.247-3.37-1.558-5.092-.803-.262.116-.478.284-.705.44-.227-.157-.444-.324-.705-.44-1.721-.755-3.721-.444-5.092.803-1.023.929-2.522 3.154-1.047 7.576.746 2.236 3.641 8.235 3.737 8.435.793 1.784 1.212 3.756 1.212 5.707 0 2.728-1.582 5.114-3.849 5.806-1.842.569-3.74.266-5.21-.825-1.468-1.085-2.31-2.753-2.31-4.574 0-2.28 1.462-3.034 2.091-3.253.977-.344 1.902-.145 2.204.237.254.322.227 1.203-.681 2.632-.563.881-.306 2.054.577 2.616.89.563 2.058.3 2.616-.582 2.42-3.794 1.129-6.169.461-7.017-1.347-1.698-3.858-2.285-6.28-1.494.796-3.375 1.528-6.566-1.544-9.639-.74-.74-1.939-.74-2.679 0s-.74 1.939 0 2.679c1.517 1.517 1.32 2.764.52 6.147-.48 2.027-1.076 4.555-1.076 7.671 0 2.073.729 4.056 1.955 5.685h-.061c-1.047 0-1.895.847-1.895 1.895 0 1.047.847 1.895 1.895 1.895h.061c-1.226 1.629-1.955 3.611-1.955 5.684 0 3.116.596 5.644 1.075 7.672.799 3.383.998 4.63-.52 6.147-.74.74-.74 1.939 0 2.679.37.37.855.555 1.34.555.484 0 .97-.185 1.34-.555 3.072-3.073 2.339-6.263 1.544-9.639 2.422.788 4.934.204 6.28-1.494.668-.847 1.96-3.223-.461-7.017-.561-.881-1.732-1.143-2.616-.582-.883.563-1.14 1.736-.577 2.616.908 1.429.935 2.31.681 2.632-.301.377-1.227.577-2.204.237-.629-.218-2.091-.973-2.091-3.253 0-1.821.842-3.49 2.31-4.574 1.471-1.088 3.373-1.399 5.21-.825 2.266.692 3.849 3.079 3.849 5.806 0 1.951-.418 3.923-1.212 5.707l-12.411 27.921c-1.02 2.294-1.538 4.734-1.538 7.246 0 3.233 1.47 6.185 3.784 7.987-2.313 1.802-3.784 4.754-3.784 7.987 0 2.513.519 4.952 1.538 7.246l12.409 27.919c.793 1.784 1.212 3.756 1.212 5.707 0 2.728-1.582 5.114-3.849 5.806-1.842.574-3.74.266-5.21-.825-1.468-1.085-2.31-2.753-2.31-4.574 0-2.28 1.462-3.034 2.091-3.253.977-.341 1.902-.145 2.204.237.254.322.227 1.203-.681 2.632-.563.881-.306 2.054.577 2.616.89.563 2.058.303 2.616-.582 2.42-3.794 1.129-6.169.461-7.017-1.347-1.698-3.858-2.283-6.28-1.494.796-3.375 1.528-6.566-1.544-9.639-.74-.74-1.939-.74-2.679 0s-.74 1.939 0 2.679c1.517 1.517 1.32 2.764.52 6.147-.479 2.028-1.075 4.556-1.075 7.672 0 2.073.729 4.056 1.955 5.685h-.061c-1.047 0-1.895.847-1.895 1.895s.847 1.895 1.895 1.895h.061c-1.227 1.629-1.955 3.611-1.955 5.685 0 3.116.596 5.644 1.075 7.672.799 3.383.998 4.63-.52 6.147-.74.74-.74 1.939 0 2.679.37.37.855.555 1.34.555.484 0 .97-.185 1.34-.555 3.072-3.073 2.339-6.263 1.544-9.639 2.422.788 4.934.204 6.28-1.494.668-.847 1.96-3.223-.461-7.017-.561-.881-1.732-1.143-2.616-.582-.883.563-1.14 1.736-.577 2.616.908 1.429.935 2.31.681 2.632-.301.381-1.227.582-2.204.237-.629-.218-2.091-.973-2.091-3.253 0-1.821.842-3.49 2.31-4.574 1.471-1.088 3.373-1.399 5.21-.825 2.266.692 3.849 3.079 3.849 5.806 0 1.951-.418 3.923-1.212 5.707l-12.41 27.924c-1.02 2.294-1.538 4.734-1.538 7.246 0 3.233 1.47 6.185 3.784 7.987-2.313 1.802-3.784 4.754-3.784 7.987 0 2.513.519 4.952 1.538 7.246l12.409 27.919c.793 1.784 1.212 3.756 1.212 5.707 0 2.728-1.582 5.114-3.849 5.806-1.842.574-3.74.263-5.21-.825-1.468-1.085-2.31-2.753-2.31-4.574 0-2.28 1.462-3.034 2.091-3.253.977-.341 1.902-.145 2.204.237.254.322.227 1.203-.681 2.632-.563.881-.306 2.053.577 2.616.89.563 2.058.303 2.616-.582 2.42-3.794 1.129-6.169.461-7.017-1.347-1.703-3.858-2.285-6.28-1.494.796-3.375 1.528-6.566-1.544-9.639-.74-.74-1.939-.74-2.679 0s-.74 1.939 0 2.679c1.517 1.517 1.32 2.764.52 6.147-.479 2.028-1.075 4.555-1.075 7.671 0 2.97 1.423 5.798 3.802 7.58-2.379 1.782-3.802 4.61-3.802 7.58 0 3.116.596 5.644 1.075 7.672.799 3.382.998 4.63-.52 6.147-.74.74-.74 1.939 0 2.679.37.37.855.555 1.34.555.484 0 .97-.185 1.34-.555 3.072-3.073 2.339-6.263 1.544-9.639 2.422.788 4.934.204 6.28-1.494.668-.847 1.96-3.223-.461-7.017-.561-.881-1.732-1.14-2.616-.582-.883.563-1.14 1.736-.577 2.616.908 1.429.935 2.31.681 2.632-.301.381-1.227.577-2.204.237-.629-.218-2.091-.973-2.091-3.253 0-1.821.842-3.49 2.31-4.574 1.471-1.088 3.373-1.395 5.21-.825 2.266.692 3.849 3.079 3.849 5.806 0 1.951-.418 3.923-1.186 5.651-.122.255-3.018 6.254-3.764 8.49-1.475 4.423.024 6.647 1.047 7.576.875.796 2.002 1.214 3.154 1.214.653 0 1.315-.137 1.939-.41.262-.116.478-.284.705-.44.227.157.444.324.705.44.623.274 1.286.41 1.939.41 1.149 0 2.278-.418 3.154-1.214 1.023-.929 2.522-3.154 1.047-7.576-.746-2.236-3.641-8.235-3.737-8.435-.793-1.784-1.212-3.756-1.212-5.707 0-2.728 1.582-5.115 3.849-5.806 1.843-.57 3.74-.263 5.21.825 1.468 1.085 2.31 2.753 2.31 4.574 0 2.28-1.462 3.034-2.091 3.253-.973.341-1.905.145-2.204-.237-.254-.322-.227-1.203.681-2.632.563-.881.306-2.053-.577-2.616-.885-.555-2.052-.296-2.616.582-2.42 3.794-1.129 6.169-.461 7.017 1.347 1.698 3.858 2.283 6.28 1.494-.796 3.375-1.528 6.566 1.544 9.639.37.37.855.555 1.34.555s.97-.185 1.34-.555c.74-.74.74-1.939 0-2.679-1.517-1.517-1.32-2.764-.52-6.147.479-2.028 1.075-4.556 1.075-7.672 0-2.97-1.423-5.798-3.802-7.58 2.379-1.782 3.802-4.609 3.802-7.58 0-3.116-.596-5.644-1.075-7.672-.799-3.382-.998-4.63.52-6.147.74-.74.74-1.939 0-2.679s-1.939-.74-2.679 0c-3.072 3.073-2.339 6.262-1.544 9.639-2.422-.791-4.934-.209-6.28 1.494-.668.847-1.96 3.223.461 7.017.563.881 1.727 1.14 2.616.582.883-.563 1.14-1.736.577-2.616-.908-1.429-.935-2.31-.681-2.632.3-.381 1.23-.577 2.204-.237.629.218 2.091.973 2.091 3.253 0 1.821-.842 3.49-2.31 4.574-1.471 1.088-3.375 1.399-5.21.825-2.266-.692-3.849-3.079-3.849-5.806 0-1.951.418-3.923 1.212-5.707l12.409-27.919c1.02-2.294 1.538-4.734 1.538-7.246 0-3.233-1.47-6.185-3.784-7.987 2.313-1.802 3.784-4.754 3.784-7.987 0-2.513-.519-4.952-1.538-7.246l-12.408-27.917c-.793-1.784-1.212-3.756-1.212-5.707 0-2.728 1.582-5.114 3.849-5.806 1.843-.57 3.74-.263 5.21.825 1.468 1.085 2.31 2.753 2.31 4.574 0 2.28-1.462 3.034-2.091 3.253-.973.344-1.905.145-2.204-.237-.254-.322-.227-1.203.681-2.632.563-.881.306-2.053-.577-2.616-.885-.555-2.052-.296-2.616.582-2.42 3.794-1.129 6.169-.461 7.017 1.347 1.698 3.858 2.283 6.28 1.494-.796 3.375-1.528 6.566 1.544 9.639.37.37.855.555 1.34.555s.97-.185 1.34-.555c.74-.74.74-1.939 0-2.679-1.517-1.517-1.32-2.764-.52-6.147.479-2.028 1.075-4.556 1.075-7.672 0-2.073-.729-4.056-1.955-5.685h.061c1.047 0 1.895-.847 1.895-1.895 0-1.047-.847-1.895-1.895-1.895h-.061c1.227-1.629 1.955-3.61 1.955-5.685 0-3.116-.596-5.644-1.075-7.672-.799-3.383-.998-4.63.52-6.147.74-.74.74-1.939 0-2.679s-1.939-.74-2.679 0c-3.072 3.073-2.339 6.263-1.544 9.639-2.422-.788-4.934-.204-6.28 1.494-.668.847-1.96 3.223.461 7.017.563.881 1.727 1.137 2.616.582.883-.563 1.14-1.736.577-2.616-.908-1.429-.935-2.31-.681-2.632.3-.381 1.23-.577 2.204-.237.629.218 2.091.973 2.091 3.253 0 1.821-.842 3.49-2.31 4.574-1.471 1.088-3.375 1.395-5.21.825-2.266-.692-3.849-3.079-3.849-5.806 0-1.951.418-3.923 1.212-5.707l12.409-27.919c1.02-2.294 1.538-4.734 1.538-7.246 0-3.233-1.47-6.185-3.784-7.987 2.313-1.802 3.784-4.754 3.784-7.987 0-2.513-.519-4.952-1.538-7.246l-12.409-27.919c-.793-1.784-1.212-3.756-1.212-5.707 0-2.728 1.582-5.114 3.849-5.806 1.843-.57 3.74-.263 5.21.825 1.468 1.085 2.31 2.753 2.31 4.574 0 2.28-1.462 3.034-2.091 3.253-.973.341-1.905.14-2.204-.237-.254-.322-.227-1.203.681-2.632.563-.881.306-2.054-.577-2.616-.885-.555-2.052-.3-2.616.581-2.42 3.794-1.129 6.169-.461 7.017 1.347 1.698 3.858 2.283 6.28 1.494-.796 3.375-1.528 6.566 1.544 9.639.37.37.855.555 1.34.555s.97-.185 1.34-.555c.74-.74.74-1.939 0-2.679-1.517-1.517-1.32-2.764-.52-6.147.479-2.028 1.075-4.556 1.075-7.672 0-2.073-.729-4.056-1.955-5.685h.061c1.047 0 1.895-.847 1.895-1.895 0-1.047-.847-1.895-1.895-1.895h-.061c1.227-1.629 1.955-3.61 1.955-5.685-.006-3.121-.602-5.649-1.08-7.677zm-19.23-8.075c-.673-2.02-.438-3.171.006-3.575.29-.274.73-.263 1.009-.137.342.152.342.393.342.511 0 1.047.847 1.895 1.895 1.895 1.047 0 1.895-.847 1.895-1.895 0-.118 0-.359.342-.511.274-.126.711-.137 1.009.137.444.404.679 1.555.006 3.575-.49 1.465-2.263 5.279-3.251 7.349-.968-2.022-2.76-5.874-3.253-7.349zm3.251 78.185c.544.739 1.159 1.427 1.907 1.987-.748.561-1.363 1.248-1.907 1.987-.544-.739-1.159-1.427-1.907-1.987.748-.561 1.363-1.247 1.907-1.987zm0 113.692c.544.739 1.159 1.427 1.907 1.987-.748.561-1.363 1.248-1.907 1.987-.544-.739-1.159-1.427-1.907-1.987.748-.561 1.363-1.246 1.907-1.987zm3.25 82.16c.673 2.02.438 3.171-.006 3.575-.298.27-.735.259-1.009.137-.342-.152-.342-.392-.342-.511 0-1.047-.847-1.895-1.895-1.895s-1.895.847-1.895 1.895c0 .118 0 .359-.342.511-.278.122-.718.134-1.009-.137-.444-.404-.679-1.555-.006-3.575.49-1.465 2.263-5.279 3.251-7.349.968 2.021 2.76 5.874 3.253 7.349zm-1.361-23.327c-.717.558-1.353 1.226-1.889 1.981-.535-.755-1.172-1.422-1.889-1.981.717-.558 1.353-1.226 1.889-1.981.535.755 1.171 1.423 1.889 1.981zm10.162-43.153-12.052 27.116-12.052-27.116c-.793-1.784-1.212-3.756-1.212-5.707 0-2.728 1.582-5.115 3.849-5.806 1.842-.57 3.742-.263 5.21.825 1.468 1.085 2.31 2.753 2.31 4.574 0 2.28-1.462 3.034-2.091 3.253-.977.341-1.906.145-2.204-.237-.254-.322-.227-1.203.681-2.632.563-.881.306-2.054-.577-2.616-.885-.555-2.052-.296-2.616.582-2.42 3.794-1.129 6.169-.461 7.017 1.372 1.732 3.953 2.328 6.421 1.465.281-.097.566-.218.847-.361v4.792c0-.001-.003-.003-.003-.003-.057-.998-.883-1.785-1.891-1.785-1.047 0-1.895.847-1.895 1.895 0 1.236.864 3.38 3.789 4.044v3.535c0 1.047.847 1.895 1.895 1.895s1.895-.847 1.895-1.895v-3.535c2.925-.664 3.789-2.808 3.789-4.044 0-1.047-.845-1.957-1.891-1.957-1.047 0-1.891.785-1.891 1.832-.001.003-.007.008-.008.011v-4.783c.281.143.566.264.847.361 2.468.862 5.048.266 6.421-1.465.668-.847 1.96-3.223-.461-7.017-.563-.881-1.732-1.14-2.616-.582-.883.563-1.14 1.736-.577 2.616.908 1.429.935 2.31.681 2.632-.3.381-1.229.577-2.204.237-.629-.218-2.091-.973-2.091-3.253 0-1.821.842-3.49 2.31-4.574 1.471-1.088 3.375-1.399 5.21-.825 2.266.692 3.849 3.079 3.849 5.806.002 1.949-.416 3.922-1.211 5.705zm0-27.386c.793 1.784 1.212 3.756 1.212 5.707 0 2.728-1.582 5.114-3.849 5.806-1.839.574-3.742.263-5.21-.825-1.468-1.085-2.31-2.753-2.31-4.574 0-2.28 1.462-3.034 2.091-3.253.975-.341 1.905-.145 2.204.237.254.322.227 1.203-.681 2.632-.563.881-.306 2.053.577 2.616.89.563 2.058.303 2.616-.582 2.42-3.794 1.129-6.169.461-7.017-1.373-1.732-3.953-2.321-6.421-1.465-.281.097-.566.219-.847.361v-4.793l.003.006c.057.995.883 1.784 1.891 1.784 1.047 0 1.895-.847 1.895-1.895 0-1.236-.864-3.38-3.789-4.044v-3.535c0-1.047-.847-1.895-1.895-1.895s-1.895.847-1.895 1.895v3.535c-2.925.664-3.789 2.808-3.789 4.044 0 1.047.845 1.957 1.891 1.957 1.047 0 1.891-.785 1.891-1.832.001-.003.007-.008.007-.008l.001 4.78c-.281-.143-.566-.264-.847-.361-2.468-.855-5.049-.266-6.421 1.465-.668.847-1.96 3.223.461 7.017.563.881 1.732 1.137 2.616.582.883-.563 1.14-1.736.577-2.616-.908-1.429-.935-2.31-.681-2.632.298-.381 1.227-.577 2.204-.237.629.218 2.091.973 2.091 3.253 0 1.821-.842 3.49-2.31 4.574-1.471 1.088-3.371 1.399-5.21.825-2.266-.692-3.849-3.079-3.849-5.806 0-1.951.418-3.923 1.212-5.707l12.052-27.116zm-10.162-43.152c-.717.558-1.353 1.226-1.889 1.981-.535-.755-1.172-1.422-1.889-1.981.717-.558 1.353-1.226 1.889-1.981.535.754 1.171 1.422 1.889 1.981zm10.162-43.153-12.052 27.116-12.052-27.116c-.793-1.784-1.212-3.756-1.212-5.707 0-2.728 1.582-5.114 3.849-5.806 1.842-.57 3.742-.263 5.21.825 1.468 1.085 2.31 2.753 2.31 4.574 0 2.28-1.462 3.034-2.091 3.253-.977.344-1.906.145-2.204-.237-.254-.322-.227-1.203.681-2.632.563-.881.306-2.054-.577-2.616-.885-.558-2.052-.3-2.616.582-2.42 3.794-1.129 6.169-.461 7.017 1.372 1.732 3.953 2.324 6.421 1.465.281-.097.566-.218.847-.361v4.792l-.003-.006c-.057-.995-.883-1.784-1.891-1.784-1.047 0-1.895.847-1.895 1.895 0 1.236.864 3.38 3.789 4.044v3.535c0 1.047.847 1.895 1.895 1.895s1.895-.847 1.895-1.895v-3.535c2.925-.664 3.789-2.808 3.789-4.044 0-1.047-.845-1.958-1.891-1.958-1.047 0-1.891.785-1.891 1.832-.001.003-.007.008-.007.008l-.001-4.78c.281.143.566.264.847.361 2.468.858 5.048.266 6.421-1.465.668-.847 1.96-3.223-.461-7.017-.563-.885-1.732-1.143-2.616-.582-.883.563-1.14 1.736-.577 2.616.908 1.429.935 2.31.681 2.632-.3.381-1.229.582-2.204.237-.629-.218-2.091-.973-2.091-3.253 0-1.821.842-3.49 2.31-4.574 1.471-1.088 3.375-1.395 5.21-.825 2.266.692 3.849 3.079 3.849 5.806.002 1.952-.416 3.924-1.211 5.708zm0-27.387c.793 1.784 1.212 3.756 1.212 5.707 0 2.728-1.582 5.114-3.849 5.806-1.839.574-3.742.263-5.21-.825-1.468-1.085-2.31-2.753-2.31-4.574 0-2.28 1.462-3.034 2.091-3.253.975-.341 1.905-.145 2.204.237.254.322.227 1.203-.681 2.632-.563.881-.306 2.053.577 2.616.89.558 2.058.303 2.616-.582 2.42-3.794 1.129-6.169.461-7.017-1.373-1.732-3.953-2.324-6.421-1.465-.281.097-.566.218-.847.361v-4.792c0 .001.003.003.003.003.057.998.883 1.785 1.891 1.785 1.047 0 1.895-.847 1.895-1.895 0-1.236-.864-3.38-3.789-4.044v-3.535c0-1.047-.847-1.895-1.895-1.895s-1.895.847-1.895 1.895v3.535c-2.925.664-3.789 2.808-3.789 4.044 0 1.047.845 1.958 1.891 1.958 1.047 0 1.891-.785 1.891-1.832.001-.003.007-.008.008-.011v4.783c-.281-.143-.566-.264-.847-.361-2.468-.858-5.049-.266-6.421 1.465-.668.847-1.96 3.223.461 7.017.563.881 1.732 1.137 2.616.582.883-.563 1.14-1.736.577-2.616-.908-1.429-.935-2.31-.681-2.632.298-.381 1.227-.577 2.204-.237.629.218 2.091.973 2.091 3.253 0 1.821-.842 3.49-2.31 4.574-1.471 1.088-3.371 1.399-5.21.825-2.266-.692-3.849-3.079-3.849-5.806 0-1.951.418-3.923 1.212-5.707l12.052-27.116zm-13.941-43.152c.717-.558 1.353-1.226 1.889-1.981.535.755 1.172 1.422 1.889 1.981-.717.558-1.353 1.226-1.889 1.981-.535-.755-1.171-1.423-1.889-1.981z"/><circle cx="270.74" cy="235.03" r="45.606"/><path d="m274.167 176.883c0 1.889-1.532 3.421-3.421 3.421s-3.421-1.532-3.421-3.421 3.421-10.262 3.421-10.262 3.421 8.373 3.421 10.262z"/><path d="m267.326 293.186c0-1.889 1.532-3.421 3.421-3.421s3.421 1.532 3.421 3.421-3.421 10.262-3.421 10.262-3.421-8.372-3.421-10.262z"/><path d="m328.898 238.455c-1.889 0-3.421-1.532-3.421-3.421s1.532-3.421 3.421-3.421 10.262 3.421 10.262 3.421-8.373 3.421-10.262 3.421z"/><path d="m212.595 231.614c1.889 0 3.421 1.532 3.421 3.421s-1.532 3.421-3.421 3.421-10.262-3.421-10.262-3.421 8.373-3.421 10.262-3.421z"/><path d="m314.285 196.334c-1.336 1.336-3.501 1.336-4.838 0s-1.336-3.501 0-4.838 9.675-4.838 9.675-4.838-3.5 8.34-4.837 9.676z"/><path d="m227.209 273.735c1.336-1.336 3.501-1.336 4.838 0s1.336 3.501 0 4.838-9.675 4.837-9.675 4.837 3.501-8.338 4.837-9.675z"/><path d="m309.448 278.573c-1.336-1.336-1.336-3.501 0-4.838s3.501-1.336 4.838 0 4.838 9.675 4.838 9.675-8.34-3.502-9.676-4.837z"/><path d="m232.046 191.496c1.336 1.336 1.336 3.501 0 4.838s-3.501 1.336-4.838 0-4.838-9.675-4.838-9.675 8.34 3.502 9.676 4.837z"/><path d="m251.654 180c.723 1.746-.106 3.746-1.852 4.469s-3.746-.106-4.469-1.852-.767-10.79-.767-10.79 6.365 6.427 7.088 8.173z"/><path d="m289.841 290.069c-.723-1.746.106-3.746 1.852-4.469s3.746.106 4.469 1.852.767 10.79.767 10.79-6.366-6.427-7.088-8.173z"/><path d="m325.781 215.942c-1.746.723-3.746-.106-4.469-1.852s.106-3.746 1.852-4.469 10.789-.767 10.789-.767-6.426 6.364-8.172 7.088z"/><path d="m215.713 254.127c1.746-.723 3.746.106 4.469 1.852s-.106 3.746-1.852 4.469-10.79.767-10.79.767 6.427-6.364 8.173-7.088z"/><path d="m296.161 182.618c-.723 1.746-2.724 2.574-4.469 1.852-1.746-.723-2.574-2.724-1.852-4.469.723-1.745 7.087-8.172 7.087-8.172s-.043 9.044-.766 10.789z"/><path d="m245.333 287.451c.723-1.746 2.724-2.574 4.469-1.852 1.746.723 2.574 2.724 1.852 4.469-.723 1.746-7.087 8.172-7.087 8.172s.043-9.043.766-10.789z"/><path d="m323.164 260.448c-1.746-.723-2.574-2.724-1.852-4.469.723-1.746 2.724-2.574 4.469-1.852s8.172 7.087 8.172 7.087-9.045-.042-10.789-.766z"/><path d="m218.33 209.621c1.746.723 2.574 2.724 1.852 4.469-.723 1.745-2.724 2.574-4.469 1.852-1.745-.723-8.172-7.087-8.172-7.087s9.045.042 10.789.766z"/><path d="m262.758 177.333c.369 1.853-.834 3.654-2.688 4.022-1.853.369-3.654-.834-4.022-2.688-.369-1.853 1.353-10.732 1.353-10.732s4.988 7.545 5.357 9.398z"/><path d="m278.737 292.736c-.369-1.853.834-3.654 2.688-4.022 1.854-.369 3.654.834 4.022 2.688.369 1.853-1.353 10.732-1.353 10.732s-4.989-7.545-5.357-9.398z"/><path d="m328.449 227.044c-1.853.369-3.654-.834-4.022-2.688-.369-1.854.834-3.654 2.688-4.022 1.853-.369 10.732 1.353 10.732 1.353s-7.545 4.989-9.398 5.357z"/><path d="m213.045 243.025c1.853-.369 3.654.834 4.022 2.688.369 1.854-.834 3.654-2.688 4.022-1.853.369-10.732-1.353-10.732-1.353s7.545-4.989 9.398-5.357z"/><path d="m305.899 188.584c-1.049 1.571-3.174 1.993-4.745.943s-1.993-3.174-.943-4.745c1.049-1.571 8.545-6.632 8.545-6.632s-1.808 8.862-2.857 10.434z"/><path d="m235.595 281.485c1.049-1.571 3.174-1.993 4.745-.943 1.571 1.049 1.993 3.174.943 4.745-1.049 1.571-8.545 6.632-8.545 6.632s1.808-8.862 2.857-10.434z"/><path d="m317.198 270.186c-1.571-1.049-1.993-3.174-.943-4.745s3.174-1.993 4.745-.943c1.571 1.049 6.632 8.545 6.632 8.545s-8.863-1.808-10.434-2.857z"/><path d="m224.296 199.883c1.571 1.049 1.993 3.174.943 4.745-1.049 1.571-3.174 1.993-4.745.943s-6.632-8.545-6.632-8.545 8.864 1.808 10.434 2.857z"/><path d="m241.283 184.782c1.049 1.571.627 3.695-.943 4.745s-3.695.627-4.745-.943c-1.049-1.571-2.857-10.433-2.857-10.433s7.496 5.061 8.545 6.631z"/><path d="m300.21 285.287c-1.049-1.571-.627-3.695.943-4.745 1.57-1.049 3.695-.627 4.745.943 1.049 1.571 2.857 10.433 2.857 10.433s-7.495-5.061-8.545-6.631z"/><path d="m320.999 205.571c-1.571 1.049-3.695.627-4.745-.943-1.049-1.571-.627-3.695.943-4.745 1.571-1.049 10.433-2.857 10.433-2.857s-5.06 7.496-6.631 8.545z"/><path d="m220.495 264.498c1.571-1.049 3.695-.627 4.745.943 1.049 1.571.627 3.695-.943 4.745-1.571 1.049-10.433 2.857-10.433 2.857s5.06-7.496 6.631-8.545z"/><path d="m285.447 178.667c-.369 1.853-2.169 3.057-4.022 2.688s-3.057-2.169-2.688-4.022 5.357-9.398 5.357-9.398 1.721 8.879 1.353 10.732z"/><path d="m256.047 291.402c.369-1.853 2.169-3.057 4.022-2.688s3.057 2.169 2.688 4.022-5.357 9.398-5.357 9.398-1.721-8.879-1.353-10.732z"/><path d="m327.114 249.735c-1.853-.369-3.057-2.169-2.688-4.022s2.169-3.057 4.022-2.688 9.398 5.357 9.398 5.357-8.879 1.721-10.732 1.353z"/><path d="m214.38 220.334c1.853.369 3.057 2.169 2.688 4.022s-2.169 3.057-4.022 2.688-9.398-5.357-9.398-5.357 8.879-1.721 10.732-1.353z"/><path d="m378.027 247.034c-1.336-.562-2.863.082-3.42 1.41v.006c-.01.025-.062.148-.151.358-1.977 4.618-6.067 11.367-10.197 17.716 3.847-12.383 7.364-25.609 7.609-26.539.367-1.389-.455-2.815-1.842-3.192-1.389-.373-2.817.435-3.206 1.818-1.795 6.432-5.466 14.897-8.853 22.063.621-7.99.738-15.392.746-15.928.021-1.415-1.088-2.585-2.503-2.652-1.331.041-2.615 1.012-2.72 2.426-3.349 46.068-47.678 66.676-51.994 68.572-2.258.225-12.777 1.41-22.324 4.725-1.082.376-2.004.753-2.922 1.127-.341-.128-.707-.2-1.092-.177-29.302 2.12-52.666-9.9-69.458-35.652-12.687-19.458-16.666-39.882-16.705-40.086-.268-1.42-1.628-2.335-3.054-2.084-1.42.27-2.353 1.634-2.084 3.054.106.564 1.852 9.479 6.66 21.212-6.433-10.155-10.916-22.457-12.494-28.864-.032-.128-.114-.225-.162-.343-.074-.181-.136-.363-.245-.52-.077-.111-.178-.192-.269-.289-.143-.151-.28-.299-.455-.412-.1-.065-.212-.097-.321-.148-.193-.09-.382-.179-.597-.22-.149-.029-.301-.01-.456-.013-.157-.002-.305-.042-.466-.014-.035.006-.062.03-.097.038-.034.007-.066-.004-.1.003-.14.034-.247.122-.375.177-.163.071-.33.124-.473.223-.141.097-.246.223-.363.344-.117.12-.239.226-.331.365-.093.141-.143.3-.209.457-.063.153-.136.297-.169.462-.034.169-.019.343-.018.52 0 .141-.039.276-.014.42.01.062.03.124.041.184v.01c.003.011.007.026.01.038 1.618 9.533 5.474 19.415 8.961 26.951-5.537-6.283-10.164-13.522-11.804-17.809-.047-.125-.142-.212-.206-.324-.097-.173-.182-.35-.313-.493-.093-.102-.206-.168-.312-.253-.159-.128-.31-.257-.494-.345-.118-.056-.246-.074-.371-.113-.193-.058-.38-.122-.585-.135-.161-.011-.321.03-.484.051-.151.019-.3 0-.45.047-.029.009-.049.032-.076.042-.028.009-.056.003-.084.014-.142.054-.243.159-.37.234-.149.088-.308.161-.435.275-.13.117-.22.262-.322.401-.097.131-.205.248-.277.394-.075.153-.103.319-.146.484-.043.161-.1.311-.111.48-.012.169.03.338.052.509.019.148-.001.295.045.441 2.846 9.18 9.69 20.102 15.052 27.796-4.468-3.443-7.752-7.167-8.705-8.291-.103-.122-.204-.245-.307-.367-.922-1.109-2.551-1.267-3.668-.363-1.113.909-1.288 2.545-.388 3.662.049.062.245.307.573.69 3.924 4.669 8.199 9.026 12.072 12.705l-5.298-2.258c-1.208-.521-2.628-.051-3.289 1.098-.662 1.15-.363 2.605.697 3.402.516.383 9.898 7.392 18.02 11.535-.766.046-1.665-.01-2.671-.087-1.228-.118-2.436.761-2.735 2.007-.294 1.251.36 2.529 1.548 3.019.2.082 2.675 1.103 5.731 2.191-.713.291-1.28.889-1.515 1.665-.352 1.16.143 2.417 1.195 3.019.274.159 3.971 2.279 8.546 4.158-.122.189-.222.393-.297.618-.358 1.098.051 2.304 1.004 2.963.794.546 18.559 12.602 39.307 12.602 1.362 0 2.738-.051 4.122-.163 1.438-.113 2.514-1.374 2.399-2.815s-1.364-2.529-2.817-2.396c-13.034 1.063-25.591-3.831-33.059-7.571.986-.241 1.553-.46 1.694-.516 1.152-.47 1.816-1.681 1.591-2.902-.225-1.22-1.277-2.115-2.521-2.141-3.032-.062-7.231-1.538-10.848-3.122 1.366-.684 2.164-1.339 2.234-1.395.787-.659 1.119-1.711.851-2.702-.27-.986-1.094-1.727-2.104-1.89-1.111-.184-2.496-.542-3.946-.981 1.41-.812 2.01-1.706 2.24-2.161.363-.725.371-1.574.023-2.304-.35-.73-1.016-1.257-1.809-1.426-.684-.148-1.459-.398-2.296-.725.153-.153.294-.327.408-.526.666-1.129.391-2.58-.643-3.392-.054-.041-2.084-1.634-5.158-4.286.488-.179.919-.511 1.231-.96.659-.95.614-2.222-.11-3.122-.058-.072-2.091-2.628-4.893-6.51.925.718 1.849 1.452 2.773 2.046.435.276.927.414 1.415.414.662 0 1.315-.25 1.818-.736.207-.2.369-.43.497-.675 1.587 1.695 3.254 3.234 5.005 4.547.228.171.505.168.761.254.742 1.244 1.514 2.49 2.324 3.736 15.883 24.438 38.278 37.528 65.138 38.314-2.473 1.502-5.158 3.054-9.409 4.71-.928.362-1.748.724-2.572 1.087-.398.078-.771.222-1.082.469-7.42 3.435-10.492 6.829-11.738 9.203-1.244 2.36-.171 4.781 1.348 6.038.472.388 1.073.587 1.675.587.414 0 .828-.092 1.203-.281.925-.46 1.543-1.436 1.502-2.462.107-.117.562-.495 1.987-.542 1.039-.087 3.226.148 5.778.352 2.428.2 5.34.427 8.436.586-1.937 2.258-4.188 4.875-4.188 4.875-.676.787-.825 1.9-.375 2.835.452.94 1.426 1.523 2.447 1.486 2.067-.072 3.471-.113 4.393-.132.804 1.053 1.791 1.471 2.427 1.634 1.799.46 3.592-.26 4.942-1.113 1.022.736 2.044 1.047 2.854 1.165 1.826.25 3.517-.281 4.74-.884 1.267.818 2.508 1.027 3.454 1.027h.043c2.041-.01 3.827-.996 5.09-1.962 1.117.664 2.184.878 3.009.915 1.873.066 3.425-.654 4.457-1.329 3.686.74 6.863-.996 8.963-2.912.958.557 1.869.695 2.595.659 1.867-.066 3.289-1.201 4.202-2.217 4.179.505 7.178-.266 8.911-2.324.945-1.119 1.329-2.38 1.433-3.53 11.594-.066 12.643-6.396 12.728-7.178.076-.711-.14-1.42-.602-1.966-.46-.546-1.127-.884-1.839-.925l-30.396-1.828c-1.272-.092-2.407.761-2.702 2.003-.006.02-.524 1.951-2.145 3.495-2.182 2.083-5.695 3.183-9.516 3.766.014-.35-.035-.706-.169-1.054-.521-1.348-2.038-2.003-3.382-1.496-6.275 2.435-16.435 2.129-24.383 1.576 1.219-.996 2.687-1.983 3.86-2.627.991-.546 1.523-1.665 1.313-2.778-.152-.809-.737-1.372-1.443-1.734 2.21-1.116 4.022-2.194 5.741-3.242 2.984-1.828 5.803-3.551 10.937-5.333 9.91-3.443 21.379-4.49 21.494-4.501.26-.021.516-.087.758-.184.408-.169 32.758-13.721 47.999-44.991-.2.945-.414 1.809-.647 2.564-.398 1.288.245 2.662 1.486 3.182.96.404 2.051.194 2.79-.49-.963 2.539-1.834 4.536-2.545 5.716-.725 1.201-.375 2.759.792 3.535.274.179.567.301.868.373-1.18 1.727-2.376 3.361-3.569 4.858-.794.996-.748 2.417.082 3.357-2.048 2.145-3.864 3.913-5.244 5.037-.901.73-1.195 1.951-.781 2.994-1.331.761-2.424 1.298-3.182 1.527-1.272.383-2.053 1.665-1.813 2.973.125.69.513 1.272 1.049 1.655-1.599.429-3.349.843-5.249 1.22-1.07.214-1.896 1.068-2.071 2.145-.173 1.078.338 2.151 1.284 2.692.082.046.975.552 2.343 1.134-5.06 2.038-14.094 4.7-28.919 6.161-1.436.143-2.488 1.426-2.345 2.861.14 1.436 1.382 2.432 2.861 2.35 28.142-2.784 36.832-9.828 37.187-10.13.812-.68 1.134-1.788.812-2.799-.214-.669-.684-1.21-1.288-1.523 8.991-2.83 12.851-5.962 13.053-6.13.986-.818 1.234-2.232.585-3.341-.654-1.109-2.015-1.589-3.203-1.109-.334.128-.868.26-1.543.393 6.034-4.132 12.439-9.053 15.256-11.249.495-.367.945-.721 1.341-1.053 1.094-.919 1.247-2.545.344-3.652-.896-1.103-2.529-1.288-3.648-.404-.408.322-.833.654-1.272.996-1.3.966-2.963 2.059-4.777 3.182 6.848-7.775 13.742-16.204 15.711-18.625.179-.22.355-.439.534-.659.904-1.124.728-2.769-.396-3.673-1.127-.919-2.774-.73-3.676.388l-.006.006-.002.006c-.049.056-.27.332-.643.792-2.063 2.518-4.235 4.956-6.378 7.233 6.976-12.643 12.258-25.088 13.032-26.932.028-.066.054-.132.082-.2.554-1.323-.076-2.856-1.41-3.408zm-122.59 88.167.714.093c-.876.819-1.589 1.737-2.155 2.685-1.242-.1-2.369-.188-3.252-.227 1.217-.795 2.783-1.658 4.693-2.551z"/></g></svg>