<svg enable-background="new 0 0 512.001 512.001" viewBox="0 0 512.001 512.001" xmlns="http://www.w3.org/2000/svg"><path d="m0 311.908h512v102.988c0 4.875-3.953 8.828-8.828 8.828h-494.344c-4.875 0-8.828-3.953-8.828-8.828z" fill="#73af00"/><path d="m8.828 88.276h494.345c4.875 0 8.828 3.953 8.828 8.828v102.988h-512.001v-102.989c0-4.875 3.953-8.827 8.828-8.827z" fill="#464655"/><path d="m0 200.09h512v111.81h-512z" fill="#c8414b"/><path d="m0 194.21h512v17.655h-512z" fill="#f5f5f5"/><path d="m0 300.141h512v17.655h-512z" fill="#f5f5f5"/><path d="m303.268 181.618c7.108-14.657 14.525-48.61 14.525-48.61s-22.072 26.845-29.182 41.501c-1.49 3.072-.858 6.605 1.294 8.995l-80.967 166.934 5.496 2.666 80.967-166.934c3.212.211 6.378-1.48 7.867-4.552z" fill="#f5f5f5"/><path d="m208.732 181.618c-7.108-14.657-14.525-48.61-14.525-48.61s22.072 26.845 29.182 41.501c1.49 3.072.858 6.605-1.294 8.995l80.967 166.934-5.496 2.666-80.967-166.934c-3.212.211-6.378-1.48-7.867-4.552z" fill="#f5f5f5"/><path d="m300.138 256c0 48.754-36.012 88.276-44.138 88.276s-44.138-39.522-44.138-88.276 36.012-88.276 44.138-88.276 44.138 39.522 44.138 88.276z" fill="#c8414b"/><path d="m291.31 298.591c5.199-12.631 8.828-27.14 8.828-42.591s-3.628-29.959-8.828-42.591c-5.199 12.631-8.828 27.14-8.828 42.591s3.629 29.96 8.828 42.591z" fill="#464655"/><path d="m220.69 213.409c-5.199 12.631-8.828 27.14-8.828 42.591s3.628 29.959 8.828 42.591c5.199-12.631 8.828-27.14 8.828-42.591s-3.629-29.959-8.828-42.591z" fill="#464655"/><g fill="#f5f5f5"><ellipse cx="256" cy="256" rx="8.828" ry="13.241"/><path d="m257.324 167.724v75.034c2.407-5.01 6.676-19.815 6.676-37.517 0-17.703-4.269-32.507-6.676-37.517z"/><path d="m254.676 167.724c-2.407 5.01-6.676 19.814-6.676 37.517s4.269 32.508 6.676 37.517z"/><path d="m257.324 269.241v75.034c2.407-5.01 6.676-19.815 6.676-37.517 0-17.703-4.269-32.507-6.676-37.517z"/><path d="m254.676 269.241c-2.407 5.01-6.676 19.814-6.676 37.517s4.269 32.508 6.676 37.517z"/></g></svg>