<svg enable-background="new 0 0 512 512" viewBox="0 0 512 512" xmlns="http://www.w3.org/2000/svg"><path d="m341.333 88.273h161.839c4.875 0 8.828 3.953 8.828 8.828v317.793c0 4.875-3.953 8.828-8.828 8.828h-161.839z" fill="#41479b"/><path d="m170.67 88.277h170.67v335.45h-170.67z" fill="#ffe15a"/><path d="m8.828 88.273h161.839v335.448h-161.839c-4.875 0-8.828-3.953-8.828-8.828v-317.793c0-4.875 3.953-8.827 8.828-8.827z" fill="#41479b"/><path d="m300.138 233.928h-22.069v-22.069l13.241-17.655h-13.241-44.138-13.241l13.241 17.655v22.069h-22.069l-17.655-13.241v13.241 44.138 13.241l17.655-13.241h22.069v22.069l-13.241 17.655h13.241 44.138 13.241l-13.241-17.655v-22.069h22.069l17.655 13.241v-13.241-44.138-13.241z" fill="#ff4b55"/><path d="m300.138 247.169h-35.31v-35.31h-17.656v35.31h-35.31v17.656h35.31v35.31h17.656v-35.31h35.31z" fill="#f5f5f5"/></svg>