<svg enable-background="new 0 0 512.001 512.001" viewBox="0 0 512.001 512.001" xmlns="http://www.w3.org/2000/svg"><path d="m0 311.908h512v102.988c0 4.875-3.953 8.828-8.828 8.828h-494.344c-4.875 0-8.828-3.953-8.828-8.828z" fill="#73af00"/><path d="m8.828 88.276h494.345c4.875 0 8.828 3.953 8.828 8.828v102.988h-512.001v-102.989c0-4.875 3.953-8.827 8.828-8.827z" fill="#464655"/><g fill="#ff4b55"><path d="m0 200.09h512v111.81h-512z"/><path d="m324.584 189.548c-13.778-23.587-39.296-39.479-68.584-39.479s-54.806 15.892-68.584 39.479z"/><path d="m260.561 112.552c0 3.961-4.561 28.69-4.561 28.69s-4.561-24.728-4.561-28.69c0-3.961 2.042-7.172 4.561-7.172s4.561 3.21 4.561 7.172z"/><path d="m341.737 149.954c-2.801 2.801-23.511 17.062-23.511 17.062s14.261-20.711 17.062-23.511c2.801-2.801 6.516-3.628 8.297-1.846 1.78 1.779.953 5.495-1.848 8.295z"/><path d="m176.713 143.505c2.801 2.801 17.062 23.511 17.062 23.511s-20.711-14.261-23.511-17.062c-2.801-2.801-3.628-6.516-1.846-8.297 1.779-1.781 5.494-.954 8.295 1.848z"/><path d="m215.559 119.689c1.516 3.66 6.765 28.252 6.765 28.252s-13.677-21.101-15.192-24.76-.858-7.407 1.469-8.372c2.326-.965 5.441 1.22 6.958 4.88z"/><path d="m304.868 123.18c-1.516 3.66-15.192 24.76-15.192 24.76s5.249-24.591 6.765-28.252c1.516-3.66 4.631-5.845 6.958-4.881s2.986 4.713 1.469 8.373z"/><path d="m237.274 113.974c.788 3.882 1.233 29.024 1.233 29.024s-9.385-23.328-10.173-27.211c-.788-3.882.576-7.435 3.044-7.936 2.47-.501 5.11 2.24 5.896 6.123z"/><path d="m324.266 134.494c-2.188 3.302-19.651 21.395-19.651 21.395s9.859-23.132 12.047-26.434 5.664-4.851 7.764-3.459 2.028 5.196-.16 8.498z"/><path d="m161.252 160.975c3.302 2.188 21.395 19.651 21.395 19.651s-23.132-9.859-26.434-12.047-4.851-5.664-3.459-7.764c1.392-2.099 5.197-2.028 8.498.16z"/><path d="m194.589 129.913c2.214 3.285 12.246 26.343 12.246 26.343s-17.598-17.961-19.811-21.246c-2.214-3.285-2.314-7.09-.224-8.497 2.088-1.407 5.576.115 7.789 3.4z"/><path d="m355.328 167.83c-3.285 2.214-26.343 12.246-26.343 12.246s17.961-17.598 21.246-19.811c3.285-2.214 7.09-2.314 8.497-.224 1.408 2.089-.115 5.577-3.4 7.789z"/><path d="m282.812 115.582c-.758 3.887-9.967 27.286-9.967 27.286s.256-25.144 1.015-29.032c.759-3.887 3.377-6.649 5.849-6.167 2.473.482 3.861 4.025 3.103 7.913z"/><path d="m285.529 116.258c-1.151 3.79-3.969 28.778-3.969 28.778s11.546-22.337 12.697-26.129c1.151-3.79.129-7.456-2.281-8.188-2.409-.732-5.296 1.749-6.447 5.539z"/><path d="m196.989 128.47c1.867 3.494 17.543 23.155 17.543 23.155s-7.63-23.96-9.497-27.454-5.181-5.364-7.403-4.177c-2.223 1.188-2.51 4.981-.643 8.476z"/><path d="m356.771 170.23c-3.493 1.867-23.155 17.543-23.155 17.543s23.96-7.63 27.454-9.497c3.493-1.867 5.364-5.181 4.177-7.403-1.186-2.222-4.981-2.51-8.476-.643z"/><path d="m326.518 136.159c-2.514 3.062-14.679 25.068-14.679 25.068s19.217-16.218 21.73-19.281c2.514-3.062 2.973-6.839 1.026-8.438-1.946-1.598-5.563-.411-8.077 2.651z"/><path d="m162.918 158.723c3.062 2.514 25.068 14.679 25.068 14.679s-16.218-19.217-19.281-21.73-6.839-2.973-8.438-1.026c-1.598 1.948-.412 5.564 2.651 8.077z"/><path d="m240.044 113.558c.387 3.943 7.346 28.106 7.346 28.106s2.12-25.056 1.732-28.999c-.387-3.943-2.734-6.938-5.24-6.691-2.507.246-4.225 3.641-3.838 7.584z"/><path d="m263.061 112.676c-.394 3.942 1.686 29.001 1.686 29.001s6.996-24.152 7.39-28.094-1.319-7.34-3.826-7.591c-2.506-.25-4.856 2.743-5.25 6.684z"/><path d="m178.569 141.825c2.509 3.065 21.699 19.314 21.699 19.314s-12.131-22.026-14.639-25.091c-2.509-3.065-6.123-4.257-8.072-2.663-1.95 1.595-1.497 5.374 1.012 8.44z"/><path d="m343.416 151.81c-3.065 2.509-19.314 21.699-19.314 21.699s22.026-12.131 25.091-14.639 4.257-6.123 2.663-8.072c-1.595-1.949-5.373-1.497-8.44 1.012z"/><path d="m307.13 124.252c-1.873 3.491-9.54 27.438-9.54 27.438s15.706-19.637 17.579-23.127c1.873-3.491 1.59-7.286-.629-8.477-2.22-1.191-5.537.674-7.41 4.166z"/><path d="m151.01 178.111c3.491 1.873 27.438 9.54 27.438 9.54s-19.637-15.706-23.127-17.579c-3.491-1.873-7.286-1.59-8.477.63-1.19 2.219.675 5.536 4.166 7.409z"/><path d="m217.916 118.847c1.144 3.793 12.657 26.148 12.657 26.148s-2.778-24.992-3.924-28.783c-1.144-3.793-4.028-6.276-6.439-5.548-2.411.727-3.439 4.391-2.294 8.183z"/></g></svg>