<svg enable-background="new 0 0 512.001 512.001" viewBox="0 0 512.001 512.001" xmlns="http://www.w3.org/2000/svg"><path d="m512 112.237h-512v-15.133c0-4.875 3.953-8.828 8.828-8.828h494.345c4.875 0 8.828 3.953 8.828 8.828z" fill="#ff4b55"/><path d="m0 112.231h512v23.96h-512z" fill="#f5f5f5"/><path d="m0 136.201h512v23.96h-512z" fill="#ff4b55"/><path d="m0 160.151h512v23.96h-512z" fill="#f5f5f5"/><path d="m0 184.121h512v23.96h-512z" fill="#ff4b55"/><path d="m0 208.081h512v23.96h-512z" fill="#f5f5f5"/><path d="m0 232.041h512v23.96h-512z" fill="#ff4b55"/><path d="m0 256.001h512v23.96h-512z" fill="#f5f5f5"/><path d="m512 303.923h-512v-39.094h8.828l.002 15.132h503.17z" fill="#ff4b55"/><path d="m0 303.921h512v23.96h-512z" fill="#f5f5f5"/><path d="m0 327.881h512v23.96h-512z" fill="#ff4b55"/><path d="m0 351.851h512v23.96h-512z" fill="#f5f5f5"/><path d="m0 375.801h512v23.96h-512z" fill="#ff4b55"/><path d="m503.172 423.725h-494.344c-4.875 0-8.828-3.953-8.828-8.828v-15.133h512v15.133c0 4.876-3.953 8.828-8.828 8.828z" fill="#f5f5f5"/><path d="m308.966 279.961h-300.138c-4.875 0-8.828-3.953-8.828-8.828v-174.029c0-4.875 3.953-8.828 8.828-8.828h300.138c4.875 0 8.828 3.953 8.828 8.828v174.029c-.001 4.877-3.953 8.828-8.828 8.828z" fill="#41479b"/><g fill="#ffe15a"><path d="m83.862 184.023c0-33.387 27.1-60.47 60.456-60.47 8.393 0 16.373 1.718 23.641 4.814.943.402 1.654-.911.807-1.489-12.025-8.186-26.731-12.671-42.505-11.851-34.679 1.803-63.036 29.736-65.278 64.39-2.607 40.308 29.289 73.699 68.959 73.699 14.336 0 27.662-4.417 38.729-11.906.852-.577.146-1.892-.801-1.491-7.244 3.072-15.192 4.776-23.55 4.776-33.358-.001-60.458-27.084-60.458-60.472"/><path d="m222.061 184.023 25.558-9.889c1.263-.489.833-2.376-.518-2.268l-27.308 2.187 18.766-20.06c.926-.989-.28-2.5-1.45-1.818l-23.718 13.836 8.186-26.176c.404-1.292-1.338-2.131-2.095-1.009l-15.354 22.745-3.939-27.148c-.194-1.341-2.13-1.342-2.326-.001l-2.516 17.178-1.044 7.27-.402 2.702-15.354-22.726c-.758-1.122-2.502-.282-2.095 1.01l8.216 26.154-23.716-13.836c-1.17-.683-2.376.829-1.45 1.818l18.765 20.06-27.315-2.187c-1.351-.108-1.782 1.779-.518 2.268l25.581 9.889-25.582 9.891c-1.265.489-.833 2.376.518 2.268l27.316-2.187-18.766 20.11c-.925.991.284 2.5 1.453 1.816l23.715-13.885-8.216 26.154c-.406 1.292 1.336 2.133 2.095 1.01l15.354-22.726.402 2.766 1.044 7.206 2.517 17.224c.196 1.342 2.132 1.34 2.326-.001l3.939-27.193 15.354 22.745c.758 1.122 2.5.285 2.095-1.009l-8.186-26.176 23.715 13.885c1.169.684 2.377-.825 1.453-1.816l-18.767-20.11 27.309 2.187c1.351.108 1.782-1.779.518-2.268z"/></g></svg>