<svg enable-background="new 0 0 512.001 512.001" viewBox="0 0 512.001 512.001" xmlns="http://www.w3.org/2000/svg"><path d="m503.172 423.725h-494.344c-4.875 0-8.828-3.953-8.828-8.828v-317.793c0-4.875 3.953-8.828 8.828-8.828h494.345c4.875 0 8.828 3.953 8.828 8.828v317.793c-.001 4.876-3.954 8.828-8.829 8.828z" fill="#ff4b55"/><path d="m441.379 158.898v194.207h-370.758v-194.207z" fill="#73af00"/><path d="m238.378 256.027c0-33.425 22.767-61.417 53.587-69.525 1.026-.27.952-1.754-.1-1.889-2.796-.36-5.64-.566-8.533-.566-39.785 0-71.992 32.202-71.992 71.98 0 39.606 32.207 71.896 71.992 71.896 2.898 0 5.745-.209 8.544-.569 1.052-.136 1.125-1.619.1-1.889-30.826-8.121-53.598-36.154-53.598-69.438z" fill="#f5f5f5"/></svg>