<svg enable-background="new 0 0 512 512" viewBox="0 0 512 512" xmlns="http://www.w3.org/2000/svg"><path d="m503.172 88.276h-247.172v335.448h247.172c4.875 0 8.828-3.953 8.828-8.828v-317.793c0-4.875-3.953-8.827-8.828-8.827z" fill="#ff4b55"/><path d="m8.828 423.724h247.172v-335.448h-247.172c-4.875 0-8.828 3.952-8.828 8.827v317.793c0 4.876 3.953 8.828 8.828 8.828z" fill="#f5f5f5"/><path d="m73.564 108.874v23.62c1.301.051 2.752.641 3.958 1.847s1.798 2.657 1.847 3.958h23.62v23.54h-23.621c-.051 1.301-.641 2.752-1.847 3.958s-2.657 1.796-3.958 1.847v23.62h-23.54v-23.62c-1.301-.051-2.752-.641-3.958-1.847s-1.796-2.657-1.847-3.958h-23.62v-23.539h23.62c.051-1.301.641-2.752 1.847-3.958s2.657-1.796 3.958-1.847v-23.62h23.541m2.941-2.944h-2.943-23.54-2.942v2.943 21.303c-1.123.46-2.177 1.165-3.096 2.083-.919.919-1.623 1.973-2.084 3.096h-21.302-2.943v2.943 23.54 2.943h2.943 21.303c.461 1.123 1.165 2.178 2.084 3.096.918.918 1.972 1.623 3.095 2.083v21.303 2.942h2.943 23.54 2.943v-2.943-21.303c1.123-.46 2.177-1.165 3.096-2.084.918-.918 1.623-1.972 2.083-3.095h21.303 2.942v-2.943-23.54-2.943h-2.943-21.301c-.46-1.123-1.165-2.177-2.084-3.096-.918-.918-1.972-1.623-3.096-2.083v-21.302z" fill="#ff4b55"/><path d="m102.988 138.298h-29.424v-29.424h-23.541v29.424h-29.425v23.541h29.425v29.425h23.541v-29.425h29.424z" fill="#cdcdcd"/><g fill="#b4a08c"><circle cx="61.793" cy="150.07" r="11.77"/><ellipse cx="48.656" cy="163.205" rx="5.234" ry="3.663" transform="matrix(-.7071 -.7071 .7071 -.7071 -32.3423 313.0141)"/><ellipse cx="74.935" cy="163.198" rx="5.234" ry="3.663" transform="matrix(.7071 -.7071 .7071 .7071 -93.4508 100.7868)"/><ellipse cx="74.922" cy="136.937" rx="5.234" ry="3.663" transform="matrix(.7071 .7071 -.7071 .7071 118.7734 -12.8702)"/><ellipse cx="48.65" cy="136.931" rx="5.234" ry="3.663" transform="matrix(-.7071 .7071 -.7071 -.7071 179.8759 199.3544)"/><path d="m61.793 166.182c-8.885 0-16.113-7.226-16.113-16.113s7.228-16.113 16.113-16.113 16.113 7.228 16.113 16.113-7.228 16.113-16.113 16.113zm0-30.754c-8.072 0-14.641 6.569-14.641 14.641s6.569 14.641 14.641 14.641 14.641-6.569 14.641-14.641-6.569-14.641-14.641-14.641z"/></g></svg>