<svg enable-background="new 0 0 512.001 512.001" viewBox="0 0 512.001 512.001" xmlns="http://www.w3.org/2000/svg"><path d="m503.172 423.725h-494.344c-4.875 0-8.828-3.953-8.828-8.828v-317.793c0-4.875 3.953-8.828 8.828-8.828h494.345c4.875 0 8.828 3.953 8.828 8.828v317.793c-.001 4.876-3.954 8.828-8.829 8.828z" fill="#41479b"/><path d="m3.978 422.079 508.022-210.216v-61.793l-512 264.828c0 3.043 1.635 5.593 3.978 7.181z" fill="#f5f5f5"/><path d="m508.658 90.352-508.658 315.718v8.828l512-264.828v-52.966c0-2.767-1.351-5.133-3.342-6.752z" fill="#ff9b55"/><path d="m145.903 210.17 57.131-7.135-57.131-7.134 28.955-17.759-36.027 8.809 21.926-29.914-29.913 21.926 8.808-36.027-17.758 28.955-7.135-57.131-7.135 57.131-17.759-28.955 8.809 36.027-29.914-21.926 21.926 29.914-36.027-8.809 28.955 17.759-57.131 7.134 57.131 7.135-28.955 17.759 36.027-8.809-21.926 29.914 29.914-21.926-8.809 36.027 17.759-28.955 7.135 57.131 7.135-57.131 17.758 28.955-8.808-36.027 29.913 21.926-21.926-29.914 36.027 8.809z" fill="#f5f5f5"/></svg>