<svg enable-background="new 0 0 512.001 512.001" viewBox="0 0 512.001 512.001" xmlns="http://www.w3.org/2000/svg"><path d="m503.172 423.725h-494.344c-4.875 0-8.828-3.953-8.828-8.828v-317.793c0-4.875 3.953-8.828 8.828-8.828h494.345c4.875 0 8.828 3.953 8.828 8.828v317.793c-.001 4.876-3.954 8.828-8.829 8.828z" fill="#73af00"/><g fill="#ffe15a"><path d="m351.049 224.981c-.236-1.508-2.423-1.433-2.595.084-5.266 46.402-44.626 82.453-92.452 82.453-47.811 0-87.185-36.051-92.452-82.451-.172-1.517-2.359-1.593-2.595-.084-.732 4.668-1.132 9.441-1.132 14.315-.001 53.068 43.069 96.151 96.179 96.151 53.128 0 96.18-43.083 96.18-96.151-.002-4.874-.403-9.648-1.133-14.317z"/><path d="m254.81 185.268-6.955 20.854-21.983.17c-1.205.009-1.705 1.547-.735 2.263l17.685 13.059-6.631 20.96c-.363 1.149.945 2.1 1.926 1.399l17.883-12.783 17.885 12.783c.981.701 2.289-.249 1.926-1.399l-6.631-20.96 17.685-13.059c.97-.716.47-2.254-.735-2.263l-21.983-.17-6.955-20.854c-.383-1.143-2.001-1.143-2.382 0z"/></g></svg>