<svg viewBox="0 0 512.001 512.001" xmlns="http://www.w3.org/2000/svg"><path d="M503.172 423.724H8.828A8.829 8.829 0 010 414.896V97.104a8.829 8.829 0 018.828-8.828h494.345a8.829 8.829 0 018.828 8.828v317.792a8.83 8.83 0 01-8.829 8.828z" fill="#4173cd"/><path d="M216.518 344.275c-.742 13.188 7.988 14.813 12.717 14.884 4.729.072 11.895 2.15 18.56 3.511 6.665 1.362 8.814-4.157 8.814-4.157 3.942 5.16 7.787 3.584 7.787 3.584 3.153-3.153 11.562-4.73 14.858-4.946s2.508-4.729 2.508-4.729c3.454-1.921 5.791-4.122 7.462-6.347.072.032.135.082.206.113 5.661 2.436 10.033-2.723 10.964-4.658.576-1.197 1.631-1.726 2.385-1.984l.267 2.987c2.436-3.511 7.74-2.221 7.74-2.221-5.447-8.384-10.964-4.514-10.964-4.514l2.138 2.031c-3.244 1.635-5.17 8.108-9.949 6.21-.408-.162-.754-.395-1.118-.608 1.929-3.825 1.992-7.433 1.476-9.495-.931-3.726-6.665-4.586-9.459-.788-1.953 2.655-.717 6.756 2.114 9.832-1.495 1.043-3.404 2.013-5.911 2.709-7.74 2.15-19.348-8.026-27.374-8.456s-15.049 6.306-19.062 10.605c-4.013 4.3-9.398.491-9.316-2.293m63.419-10.894c1.505-.644 2.15.502 2.365 2.365.09.781-.339 2.059-1.391 3.432-1.659-2.55-1.931-5.387-.974-5.797z" fill="#73af00"/><g fill="#f5f5f5"><path d="M239.248 360.181l-4.279 2.202 1.196-2.957zM235.256 359.161l-3.956 2.036 1.106-2.733zM231.566 358.417l-2.923 1.649.755-2.093zM264.398 362.097l-4.659 1.213 1.815-2.624zM261.162 360.375l-4.338.983 1.753-2.371zM258.137 358.786l-2.978 1.549.825-2.067z"/><ellipse cx="197.958" cy="202.012" rx="2.02" ry="2.637" transform="rotate(144.875 197.955 202.01)"/><ellipse cx="314.048" cy="202.018" rx="2.02" ry="2.637" transform="rotate(35.125 314.037 202.027)"/><path d="M283.694 245.695v51.433c0 15.271-12.424 27.694-27.694 27.694s-27.694-12.424-27.694-27.694v-51.433zm15.825-19.782h-87.04a3.956 3.956 0 00-3.956 3.956v67.258c0 26.22 21.256 47.476 47.476 47.476s47.476-21.256 47.476-47.476V229.87a3.955 3.955 0 00-3.956-3.957z"/></g><path d="M228.305 245.695h-19.781v-10.954a8.829 8.829 0 018.828-8.828h10.954zM246.11 225.91h19.781v19.781H246.11zM208.52 265.48h19.781v19.781H208.52zM283.7 265.48h19.781v19.781H283.7zM303.476 245.695h-19.781v-19.781h10.954a8.829 8.829 0 018.828 8.828v10.953zM272.83 341.477l-7.61-18.266c-2.889 1.025-5.984 1.611-9.219 1.611s-6.33-.587-9.219-1.611l-7.61 18.266c5.238 1.99 10.895 3.127 16.83 3.127 5.933 0 11.59-1.137 16.828-3.127zM220.977 329.102l15.473-12.377a27.657 27.657 0 01-7.677-14.643l-19.071 5.449c1.836 8.201 5.801 15.578 11.275 21.571zM302.297 307.53l-19.071-5.449a27.65 27.65 0 01-7.677 14.643l15.473 12.377c5.474-5.992 9.44-13.369 11.275-21.571z" fill="#ff4b55"/><path d="M214.46 229.87h7.913v11.869h-7.913zM214.46 269.43h7.913v11.869h-7.913zM218.42 309h7.913v11.869h-7.913zM285.67 309h7.913v11.869h-7.913zM289.63 229.87h7.913v11.869h-7.913z" fill="#ffe15a"/><path d="M214.46 249.52h7.913v11.869h-7.913zM289.63 249.52h7.913v11.869h-7.913zM214.46 288.76h7.913v11.869h-7.913zM231.51 323.75h7.913v11.869h-7.913zM272.56 323.75h7.913v11.869h-7.913zM289.63 288.76h7.913v11.869h-7.913z" fill="#ff4b55"/><path d="M252.04 229.87h7.913v11.869h-7.913z" fill="#ffe15a"/><path d="M233.25 229.87h7.913v11.869h-7.913zM270.51 229.87h7.913v11.869h-7.913z" fill="#ff4b55"/><path d="M289.63 269.43h7.913v11.869h-7.913zM252.04 328.78h7.913v11.869h-7.913zM255.999 253.237c7.636 0 13.847 6.211 13.847 13.847s-6.212 13.847-13.847 13.847-13.847-6.211-13.847-13.847c0-7.635 6.213-13.847 13.847-13.847m0-1.979c-8.74 0-15.826 7.085-15.826 15.826 0 8.74 7.085 15.826 15.826 15.826s15.826-7.085 15.826-15.826-7.085-15.826-15.826-15.826z" fill="#ffe15a"/><path d="M253.61 265.972c-3.924 0-6.374 1.105-7.907 2.477.63-3.107 1.941-6.434 4.692-6.434a.99.99 0 000-1.978c-2.728 0-4.425 1.9-5.487 4.284-.652-12.974-2.667-13.023-3.414-13.023a.99.99 0 00-.989.989c0 .476.332.87.779.966.413.494.767 2.158 1.054 4.465-1.28-2.718-3.14-4.689-5.871-4.689a.99.99 0 000 1.978c2.701 0 4.36 3.295 5.35 7.254-1.898-2.707-4.762-4.696-8.975-4.696a.99.99 0 000 1.978c4.376 0 6.887 2.524 8.335 5.441-1.697-1.437-4.117-2.474-7.594-2.474a.99.99 0 000 1.978c9.411 0 9.559 8.855 9.56 9.234 0 .143.098.245.153.369.05.108.052.242.135.324l.002.003c.179.179.426.29.698.29h.002c.102-.001.168-.079.26-.108a.9.9 0 00.61-.598c.033-.097.116-.167.117-.275.004-.236.17-5.777 8.49-5.777a.989.989 0 100-1.978zM258.473 265.972c3.924 0 6.374 1.105 7.907 2.477-.63-3.107-1.941-6.434-4.692-6.434a.99.99 0 010-1.978c2.728 0 4.425 1.9 5.487 4.284.652-12.974 2.667-13.023 3.414-13.023a.99.99 0 01.989.989c0 .476-.332.87-.779.966-.413.494-.767 2.158-1.054 4.465 1.28-2.718 3.14-4.689 5.871-4.689a.99.99 0 010 1.978c-2.701 0-4.36 3.295-5.35 7.254 1.898-2.707 4.762-4.696 8.975-4.696a.99.99 0 010 1.978c-4.376 0-6.887 2.524-8.335 5.441 1.697-1.437 4.117-2.474 7.594-2.474a.99.99 0 010 1.978c-9.411 0-9.559 8.855-9.56 9.234 0 .143-.098.245-.153.369-.05.108-.052.242-.135.324l-.002.003a.985.985 0 01-.698.29h-.002c-.102-.001-.168-.079-.26-.108a.9.9 0 01-.61-.598c-.033-.097-.116-.167-.117-.275-.003-.236-.17-5.777-8.49-5.777a.989.989 0 110-1.978z" fill="#73af00"/><path d="M240.733 271.041c1.764 6.814 7.901 11.869 15.266 11.869s13.501-5.055 15.266-11.869z" fill="#ff4b55"/><path d="M255.999 282.91c7.366 0 13.501-5.055 15.266-11.869h-15.266zM255.999 289.091c7.636 0 13.847 6.211 13.847 13.847s-6.212 13.847-13.847 13.847-13.847-6.211-13.847-13.847c0-7.634 6.213-13.847 13.847-13.847m0-1.976c-8.74 0-15.826 7.085-15.826 15.826 0 8.74 7.085 15.826 15.826 15.826s15.826-7.085 15.826-15.826c0-8.742-7.085-15.826-15.826-15.826z" fill="#ffe15a"/><path d="M253.61 301.826c-3.924 0-6.374 1.105-7.907 2.477.63-3.107 1.941-6.434 4.692-6.434a.99.99 0 000-1.978c-2.728 0-4.425 1.9-5.487 4.284-.652-12.974-2.667-13.023-3.414-13.023a.99.99 0 00-.989.989c0 .476.332.87.779.966.413.494.767 2.158 1.054 4.465-1.28-2.718-3.14-4.689-5.871-4.689a.99.99 0 000 1.978c2.701 0 4.36 3.295 5.35 7.254-1.898-2.707-4.762-4.696-8.975-4.696a.99.99 0 000 1.978c4.376 0 6.887 2.524 8.335 5.441-1.697-1.437-4.117-2.474-7.594-2.474a.99.99 0 000 1.978c9.411 0 9.559 8.855 9.56 9.234 0 .143.098.245.153.367.05.108.052.242.135.324l.002.003c.179.179.426.29.698.29h.002c.102-.001.168-.079.26-.108a.9.9 0 00.61-.598c.033-.097.116-.167.117-.275.004-.236.17-5.777 8.49-5.777a.99.99 0 00.989-.989.99.99 0 00-.989-.987zM258.473 301.826c3.924 0 6.374 1.105 7.907 2.477-.63-3.107-1.941-6.434-4.692-6.434a.99.99 0 010-1.978c2.728 0 4.425 1.9 5.487 4.284.652-12.974 2.667-13.023 3.414-13.023a.99.99 0 01.989.989c0 .476-.332.87-.779.966-.413.494-.767 2.158-1.054 4.465 1.28-2.718 3.14-4.689 5.871-4.689a.99.99 0 010 1.978c-2.701 0-4.36 3.295-5.35 7.254 1.898-2.707 4.762-4.696 8.975-4.696a.99.99 0 010 1.978c-4.376 0-6.887 2.524-8.335 5.441 1.697-1.437 4.117-2.474 7.594-2.474a.99.99 0 010 1.978c-9.411 0-9.559 8.855-9.56 9.234 0 .143-.098.245-.153.367-.05.108-.052.242-.135.324l-.002.003a.985.985 0 01-.698.29h-.002c-.102-.001-.168-.079-.26-.108a.9.9 0 01-.61-.598c-.033-.097-.116-.167-.117-.275-.003-.236-.17-5.777-8.49-5.777a.99.99 0 01-.989-.989.99.99 0 01.989-.987z" fill="#73af00"/><path d="M240.733 306.895c1.764 6.814 7.901 11.869 15.266 11.869s13.501-5.055 15.266-11.869z" fill="#ff4b55"/><path d="M255.999 318.764c7.366 0 13.501-5.055 15.266-11.869h-15.266z" fill="#ffe15a"/><path d="M200.611 237.782v-7.912h-19.782v7.912h3.956v87.041h-3.956v7.912h19.782v-7.912h-3.957v-87.041zM331.171 237.782v-7.912h-19.782v7.912h3.956v87.041h-3.956v7.912h19.782v-7.912h-3.957v-87.041z" fill="#f5f5f5"/><path d="M299.519 225.913h-87.04a7.913 7.913 0 010-15.826h87.04a7.913 7.913 0 010 15.826z" fill="#ffe15a"/><path d="M258.967 220.968h-5.934a2.967 2.967 0 010-5.934h5.934a2.967 2.967 0 010 5.934z" fill="#ff4b55"/><path d="M288.639 220.968h-5.934a2.967 2.967 0 010-5.934h5.934a2.967 2.967 0 010 5.934zM229.294 220.968h-5.934a2.967 2.967 0 010-5.934h5.934a2.967 2.967 0 010 5.934z" fill="#73af00"/><path d="M311.555 193.685l-5.77 1.978.556 5.504c-6.372 7.241-9.57 7.708-10.887 7.25-1.63-.563-2.381-2.886-2.684-4.666l2.381 2.381c11.869-11.869 5.069-29.302 5.069-29.302-3.338.618-4.822 3.709-4.822 3.709-3.091-.247-6.305 0-6.305 0-.247 2.72.742 6.552.742 6.552-6.785 1.399-9.578 5.076-9.578 5.076 1.164 3.258 4.881 6.051 4.881 6.051-1.112 2.72.247 5.934.247 5.934 1.698 0 3.167-.512 4.206-1.014-4.431 5.524-6.517 5.656-7.224 5.39-2.141-.794-2.684-7.117-2.383-11.353a.99.99 0 00-.631-.993 1.001 1.001 0 00-1.134.313l-3.412 4.35c-14.238-18.969-2.98-30.322-2.98-30.322v-7.913h-3.956v3.956h-3.391v-3.956h-3.391v3.956h-3.391v-3.956h-3.391v3.956h-3.391v-3.956h-3.391v3.956h-3.391v-3.956h-3.956v7.913s11.257 11.351-2.98 30.322l-3.412-4.35a.99.99 0 00-1.765.68c.301 4.236-.239 10.558-2.383 11.353-.71.257-2.799.13-7.239-5.409 1.041.51 2.522 1.034 4.243 1.034 0 0 1.361-3.214.247-5.934 0 0 3.716-2.793 4.881-6.051 0 0-2.793-3.677-9.578-5.076 0 0 .989-3.832.742-6.552 0 0-3.214-.247-6.305 0 0 0-1.484-3.091-4.822-3.709 0 0-6.801 17.432 5.069 29.302l2.354-2.354c-.306 1.778-1.057 4.079-2.679 4.64-1.324.459-4.511-.008-10.867-7.226l.558-5.527-5.77-1.978c-2.967-8.984-10.056-7.913-10.056-7.913 4.698 4.039 5.687 14.341 5.687 14.341l12.199 11.869.66-1.896c-.273-1.585-.697-2.825-1.154-3.829 3.827 3.535 6.934 4.888 9.393 4.026 2.414-.836 3.438-3.564 3.871-5.623 3.245 4.01 5.852 5.94 8.029 5.94a3.46 3.46 0 001.225-.221c3.111-1.151 3.711-6.639 3.755-10.306l2.143 2.732v7.281h15.826a3.956 3.956 0 117.912 0h15.826v-7.281l2.143-2.732c.044 3.667.646 9.155 3.755 10.306.392.147.8.221 1.225.221 2.177 0 4.783-1.932 8.029-5.94.433 2.059 1.457 4.787 3.871 5.623 2.471.862 5.588-.499 9.429-4.057-.461 1.01-.893 2.259-1.169 3.861l.66 1.896 12.199-11.869s.989-10.303 5.687-14.341c-.007-.004-7.095-1.075-10.062 7.909z" fill="#ffe15a"/><path d="M241.164 220.968a2.967 2.967 0 110-5.934 2.967 2.967 0 010 5.934zM270.836 220.968a2.967 2.967 0 110-5.934 2.967 2.967 0 010 5.934z" fill="#f5f5f5"/><path d="M300.509 220.968a2.967 2.967 0 110-5.934 2.967 2.967 0 010 5.934zM211.491 220.968a2.967 2.967 0 110-5.934 2.967 2.967 0 010 5.934z" fill="#ff4b55"/><circle cx="256" cy="186.35" fill="#f5f5f5" r="3.956"/><ellipse cx="216.291" cy="192.855" fill="#f5f5f5" rx="2.556" ry="2.967" transform="rotate(165.836 216.291 192.855)"/><ellipse cx="295.745" cy="192.855" fill="#f5f5f5" rx="2.556" ry="2.967" transform="rotate(14.164 295.744 192.856)"/><path d="M208.524 264.188c-3.737-.707-8.716-1.223-14.181-.646-5.353.564-11.605 2.228-17.47 6.212v25.061c8.189-19.793 26.451-15.967 31.651-14.397zM303.476 264.188c3.737-.707 8.716-1.223 14.181-.646 5.353.564 11.605 2.228 17.47 6.212v25.061c-8.189-19.793-26.451-15.967-31.651-14.397z" fill="#f5f5f5"/><path d="M234.413 331.147s-4.263 6.69-6.421 7.338c0 0-2.925 2.131-3.519 1.916l10.264-11.897z" fill="#ff4b55"/><path d="M234.038 335.009c-2.006-.215-3.583.931-4.586 2.293s-3.705 1.81-3.985.041c-.252-1.591 5.353-6.563 5.353-6.563s-.931-1.676-3.491-1.024c-2.434.62-4.828 4.536-4.828 4.536s-2.433-.952-4.388.676l-8.367 9.571s10.277 8.78 23.361-4.157l-2.221-.717c.715-2.721 3.152-4.656 3.152-4.656z" fill="#73af00"/><circle cx="221.69" cy="337.48" fill="#f5f5f5" r=".971"/><path d="M180.829 168.186a101.646 101.646 0 0135.607 6.295v-12.397a101.596 101.596 0 00-35.607-5.519zM279.738 154.699a101.688 101.688 0 00-47.476 0V142.83a101.688 101.688 0 0147.476 0z" fill="#f5f5f5"/><path d="M236.218 145.657a101.64 101.64 0 00-28.301 6.795l1.707 11.746c8.552-3.415 17.503-5.598 26.594-6.599zM176.872 181.735c5.39-1.505 10.878-2.614 16.433-3.224v-11.943c-5.548.515-11.036 1.534-16.433 2.946zM331.171 168.186a101.646 101.646 0 00-35.607 6.295v-12.397a101.596 101.596 0 0135.607-5.519z" fill="#f5f5f5"/><path d="M275.782 145.657a101.64 101.64 0 0128.301 6.795l-1.707 11.746c-8.552-3.415-17.503-5.598-26.594-6.599zM335.126 181.735c-5.39-1.505-10.878-2.614-16.433-3.224v-11.943c5.548.515 11.036 1.534 16.433 2.946z" fill="#f5f5f5"/></svg>