<svg viewBox="0 0 512.001 512.001" xmlns="http://www.w3.org/2000/svg"><path d="M503.172 423.725H8.828A8.829 8.829 0 010 414.897V97.104a8.829 8.829 0 018.828-8.828h494.345a8.829 8.829 0 018.828 8.828v317.793a8.83 8.83 0 01-8.829 8.828z" fill="#82afff"/><g fill="#f5f5f5"><path d="M254.837 136.57l-6.801 20.392-21.495.167c-1.178.009-1.667 1.513-.719 2.214l17.292 12.769-6.484 20.494c-.355 1.123.924 2.054 1.882 1.368l17.487-12.5 17.489 12.5c.959.685 2.238-.244 1.882-1.368l-6.484-20.494 17.292-12.769c.948-.7.459-2.204-.719-2.214l-21.495-.167-6.801-20.392c-.372-1.117-1.954-1.117-2.326 0zM254.837 318.633l-6.801 20.392-21.495.167c-1.178.009-1.667 1.513-.719 2.214l17.292 12.769-6.484 20.494c-.355 1.123.924 2.054 1.882 1.368l17.487-12.5 17.489 12.5c.959.685 2.238-.244 1.882-1.368l-6.484-20.494 17.292-12.769c.948-.7.459-2.204-.719-2.214l-21.495-.167-6.801-20.392c-.372-1.118-1.954-1.118-2.326 0zM375.431 254.838l-20.392-6.801-.167-21.495c-.009-1.178-1.513-1.667-2.214-.719l-12.769 17.292-20.494-6.484c-1.123-.355-2.053.924-1.368 1.882l12.5 17.487-12.5 17.489c-.685.959.244 2.238 1.368 1.882l20.494-6.484 12.769 17.292c.7.948 2.204.459 2.214-.719l.167-21.495 20.392-6.801c1.117-.372 1.117-1.954 0-2.326zM136.569 254.838l20.392-6.801.167-21.495c.009-1.178 1.513-1.667 2.214-.719l12.769 17.292 20.494-6.484c1.123-.355 2.054.924 1.368 1.882l-12.5 17.488 12.5 17.489c.685.959-.244 2.238-1.368 1.882l-20.494-6.484-12.769 17.292c-.7.948-2.204.459-2.214-.719l-.167-21.495-20.392-6.801c-1.117-.373-1.117-1.955 0-2.327z"/></g></svg>