<svg enable-background="new 0 0 512.001 512.001" viewBox="0 0 512.001 512.001" xmlns="http://www.w3.org/2000/svg"><path d="m503.172 423.725h-494.344c-4.875 0-8.828-3.953-8.828-8.828v-317.793c0-4.875 3.953-8.828 8.828-8.828h494.345c4.875 0 8.828 3.953 8.828 8.828v317.793c-.001 4.876-3.954 8.828-8.829 8.828z" fill="#41479b"/><path d="m247.172 88.277h-15.334l-81.77 53.574v-53.574h-44.138v53.574l-81.77-53.574h-15.332c-4.875 0-8.828 3.952-8.828 8.827v7.002l70.155 45.963h-70.155v44.138h70.155l-70.155 45.964v7.002c0 4.875 3.953 8.828 8.828 8.828h15.334l81.77-53.574v53.574h44.138v-53.574l81.769 53.574h15.334c4.875 0 8.828-3.953 8.828-8.828v-7.002l-70.155-45.963h70.154v-44.138h-70.155l70.155-45.963v-7.002c0-4.876-3.953-8.828-8.828-8.828z" fill="#f5f5f5"/><path d="m256 158.898h-114.759v-70.621h-26.482v70.621h-114.759v26.482h114.759v70.621h26.482v-70.621h114.759z" fill="#ff4b55"/><path d="m97.103 150.07-92.896-60.301c-2.472 1.564-4.207 4.193-4.207 7.335v.458l80.889 52.508z" fill="#ff4b55"/><path d="m166.283 150.07 88.374-57.366c-1.536-2.599-4.246-4.427-7.485-4.427h-1.909l-95.194 61.793z" fill="#ff4b55"/><path d="m89.474 194.208-88.205 57.256c1.521 2.662 4.273 4.537 7.559 4.537h1.665l95.196-61.793z" fill="#ff4b55"/><path d="m255.86 247.866-82.666-53.658h-16.214l93.874 60.935c2.812-1.305 4.741-4.04 5.006-7.277z" fill="#ff4b55"/><path d="m325.36 187.241h117.27v90.63h-117.27z" fill="#82afff"/><path d="m325.362 277.869c0 30.913 34.649 55.972 58.638 55.972 21.323 0 58.638-25.06 58.638-55.972z" fill="#c86464"/><path d="m399.659 220.342c1.888.333 5.109.778 5.442 5.331s-1.333 20.768-2.998 22.766c0 0 5.442 12.328 5.664 19.657.222 7.33-.777 29.263-.111 32.761.667 3.498 3.165 10.662 3.165 10.662s-7.663-4.498-10.661-1.666c-2.998 2.831-13.993 6.664-18.325 2.166 0 0 5.164-14.659 5.164-31.318s0-57.805 0-57.805 2.166-1.721 4.997-1.777c2.832-.055 7.663-.777 7.663-.777z" fill="#73af00"/><path d="m400.769 308.41c.333 2.11 1.221 3.665.777 4.442-.445.778-3.331 7.885-1.666 7.885s4.553-.888 5.331-2.443c.777-1.555 1.11-3.887 1.555-4.553s-.778-3.998-1.777-4.553c-.999-.556-4.22-.778-4.22-.778z" fill="#fff5e1"/><path d="m381.557 225.006-6.108.778s.777-3.998.888-6.775c.111-2.776.333-7.885.333-7.885s4.331-2.665 4.442-3.11c.055-.222.569-1.61.167-2.332s-1.721-.778-1.721-.778-5.109 2.665-5.109 3.11 0 3.11-.555 4.109c-.555 1-3.665 9.329-3.887 11.55s-.555 6.886.333 7.108 10.106 1.222 11.106.777c.999-.444.111-6.552.111-6.552z" fill="#fff5e1"/><path d="m409.229 203.072h-22.231v-10.495h-7.662v10.495h-22.231v7.663h22.231v100.785h7.662v-100.785h22.231z" fill="#464655"/><path d="m396.105 216.676s7.441 2.143 8.44-.333c1.166-2.888-2.721-3.276-3.443-6.33-.081-.342-.777-4.442-3.776-5.219-2.998-.778-5.775 0-5.886 1.999-.11 1.999 4.665 9.883 4.665 9.883z" fill="#963c3c"/><path d="m392.107 226.116c-.22.036-.555-2.221-.111-4.998.445-2.776 0-3.665 0-3.665s-3.109.333-3.109-.888.666-6.886 2.554-9.773c0 0 1.333 1.666 3.776 1.666 0 0-.111 1.999 1.222 3.331 0 0-1.666 1.443-.888 2.443s2.221 2.221 2.221 2.221.111 2.333 1.888 3.887c-.001.002-2.222 4.888-7.553 5.776z" fill="#fff5e1"/><g fill="#464655"><path d="m361.68 274.321h.666v13.215h-.666z"/><path d="m364.36 271.761h.666v18.333h-.666z"/><path d="m367.04 269.421h.666v23.01h-.666z"/><path d="m369.72 266.071h.666v29.688h-.666z"/><path d="m372.4 261.701h.666v38.424h-.666z"/><path d="m375.08 261.701h.666v40.22h-.666z"/></g><path d="m387.109 282.755c-2.945-15.315-11.106-24.211-13.993-24.654-2.888-.444-4.997 1.888-5.219 3.554s-1.777 6.664-4.998 8.995c-3.221 2.333-9.218 3.665-10.55 7.996-1.333 4.331 2.221 6.219 4.331 5.774.158-.033.313-.095.471-.147l22.703 27.927c.824 1.014 2.43.849 3.005-.327 2.333-4.768 6.762-16.06 4.25-29.118zm-28.052.31c.89-.956 1.266-2.273.289-3.641-1.666-2.333-3.554 1-3.554 1s-.555-2.888 3.776-4.331 9.218-3.886 11.439-9.107c2.221-5.219 2.11-4.221 2.11-4.221s8.885 4.998 10.106 20.657c1.222 15.659-3.109 21.99-3.109 21.99z" fill="#ffe15a"/><path d="m379.336 249.25c-1.02.652-1.939 1.214-2.582 1.549-2.082 1.082-4.582 2.166-4.831 3.165-.249 1-1.666 1.833-1.582 2.998.084 1.166 0 4.664 0 4.664 1.249-.249 3.748-.667 4.582-2.166.833-1.5 1.582-4.415 4.248-5.664.047-.022.117-.045.167-.067v-4.479z" fill="#fff5e1"/><path d="m401.408 227.977c-1.249.583-4.997 5.081-5.58 7.164-.583 2.082-2.415 6.997-2.415 6.997s-3.785.494-6.413 1.965v7.274c1.457-.422 2.745-.838 3.498-1.242 2.166-1.166 5.247-3.331 6.83-3.748 1.582-.416 2.915-3.082 3.498-4.664s2.415-6.247 2.665-9.412c.25-3.168-.834-4.917-2.083-4.334z" fill="#fff5e1"/><path d="m384 335.732-.291-.046c-59.529-9.399-60.213-60.958-60.213-63.146v-87.159h121.009v87.158c0 2.189-.684 53.747-60.213 63.146zm-56.771-146.619v83.425c0 2.057.644 50.387 56.771 59.414 56.128-9.027 56.771-57.357 56.771-59.414v-83.425z" fill="#f5f5f5"/></svg>