<svg enable-background="new 0 0 512.001 512.001" viewBox="0 0 512.001 512.001" xmlns="http://www.w3.org/2000/svg"><path d="m503.172 423.725h-494.344c-4.875 0-8.828-3.953-8.828-8.828v-317.793c0-4.875 3.953-8.828 8.828-8.828h494.345c4.875 0 8.828 3.953 8.828 8.828v317.793c-.001 4.876-3.954 8.828-8.829 8.828z" fill="#ff4b55"/><path d="m297.951 277.962 67.433-49.478h-83.509l-25.875-79.638-25.875 79.638h-83.509l67.433 49.478-25.675 79.022 67.56-48.289.066.047.066-.047 67.56 48.289zm13.527-31.823-19.273 14.141-4.595-14.141zm-76.694 25.139 8.169-25.14h26.094l8.169 25.14-21.216 15.568zm21.216-65.294 7.31 22.5h-14.622zm-55.478 40.155h23.868l-4.595 14.141zm21.215 65.293 7.302-22.472 11.911 8.739zm61.225-22.472 7.302 22.472-19.212-13.732z" fill="#5a8250"/></svg>