<svg enable-background="new 0 0 512 512" viewBox="0 0 512 512" xmlns="http://www.w3.org/2000/svg"><path d="m0 344.276v-247.173c0-4.875 3.953-8.828 8.828-8.828h379.586z" fill="#41479b"/><path d="m512 167.724v247.172c0 4.875-3.953 8.828-8.828 8.828h-379.586z" fill="#73af00"/><path d="m512 172.702v-75.599c0-4.875-3.953-8.828-8.828-8.828h-120.033l-383.139 251.023v75.598c0 4.875 3.953 8.828 8.828 8.828h120.033z" fill="#f5f5f5"/><path d="m512 141.047v-43.944c0-4.875-3.953-8.828-8.828-8.828h-71.718l-431.454 282.678v43.944c0 4.875 3.953 8.828 8.828 8.828h71.718z" fill="#ff4b55"/><g fill="#ffe15a"><path d="m90.207 145.894c8.691 0 16.557 3.521 22.254 9.214l3.125-21.686-17.235 13.561-8.145-20.362-8.145 20.362-17.235-13.561 3.125 21.686c5.699-5.694 13.565-9.214 22.256-9.214z"/><path d="m67.935 199.634c-5.693-5.697-9.214-13.565-9.214-22.254 0-8.691 3.521-16.557 9.214-22.254l-21.686-3.126 13.561 17.235-20.362 8.145 20.362 8.145-13.561 17.235z"/><path d="m140.966 177.379-20.362-8.145 13.561-17.234-21.686 3.125c5.693 5.697 9.214 13.565 9.214 22.254 0 8.69-3.521 16.557-9.214 22.254l21.686 3.125-13.561-17.235z"/><path d="m90.207 208.865c-8.691 0-16.557-3.521-22.254-9.214l-3.125 21.686 17.235-13.561 8.145 20.362 8.145-20.362 17.235 13.561-3.125-21.686c-5.699 5.694-13.565 9.214-22.256 9.214z"/><circle cx="90.21" cy="177.38" r="25.709"/></g></svg>