<svg enable-background="new 0 0 512.001 512.001" viewBox="0 0 512.001 512.001" xmlns="http://www.w3.org/2000/svg"><path d="m503.172 423.725h-494.344c-4.875 0-8.828-3.953-8.828-8.828v-317.793c0-4.875 3.953-8.828 8.828-8.828h494.345c4.875 0 8.828 3.953 8.828 8.828v317.793c-.001 4.876-3.954 8.828-8.829 8.828z" fill="#f5f5f5"/><path d="m11.476 110.877 182.888 133.649h-115.22-25.702l17.156 19.137 133.217 148.587h-192.339zm-8.395-20.348c-1.853 1.619-3.081 3.923-3.081 6.575v317.793c0 4.875 3.953 8.828 8.828 8.828h220.69l-150.374-167.724h150.374z" fill="#41479b"/><path d="m11.476 110.877 182.888 133.648h-115.22-25.702l17.158 19.136 133.216 148.588h-192.34z" fill="#ff4b55"/><g fill="#f5f5f5"><path d="m67.345 296.399 7.066 14.583 13.411-9.096c.591-.402 1.386.057 1.334.77l-1.171 16.162 16.162-1.171c.713-.052 1.172.743.77 1.334l-9.096 13.411 14.583 7.066c.643.312.643 1.228 0 1.54l-14.583 7.066 9.096 13.411c.402.591-.057 1.386-.77 1.334l-16.162-1.171 1.171 16.162c.052.713-.743 1.172-1.334.77l-13.411-9.096-7.066 14.583c-.312.643-1.228.643-1.54 0l-7.066-14.583-13.411 9.096c-.591.402-1.386-.057-1.334-.77l1.171-16.162-16.162 1.171c-.713.052-1.172-.743-.77-1.334l9.096-13.411-14.586-7.063c-.643-.312-.643-1.228 0-1.54l14.583-7.066-9.096-13.411c-.402-.591.057-1.386.77-1.334l16.162 1.171-1.171-16.162c-.052-.713.743-1.172 1.334-.77l13.411 9.096 7.066-14.583c.314-.646 1.231-.646 1.543-.003z"/><path d="m85.694 212.062-6.135-4.191 5.401-5.661-7.697-1.405 2.632-7.367-7.603 1.847-.593-7.8-6.194 4.779-3.713-6.884-3.714 6.886-6.194-4.779-.593 7.8-7.603-1.847 2.632 7.367-7.697 1.405 5.401 5.661-6.135 4.191c-7.741-3.614-14.547-8.895-19.903-15.427 3.598 20.961 21.815 36.929 43.804 36.929s40.205-15.968 43.804-36.929c-5.353 6.531-12.16 11.811-19.9 15.425z"/></g></svg>