<svg viewBox="0 0 512.001 512.001" xmlns="http://www.w3.org/2000/svg"><path d="M503.172 423.725H8.828A8.829 8.829 0 010 414.897V97.104a8.829 8.829 0 018.828-8.828h494.345a8.829 8.829 0 018.828 8.828v317.793a8.83 8.83 0 01-8.829 8.828z" fill="#41479b"/><path d="M247.172 88.277h-15.334l-81.77 53.574V88.277H105.93v53.574L24.16 88.277H8.828A8.828 8.828 0 000 97.104v7.002l70.155 45.963H0v44.138h70.155L0 240.171v7.002a8.829 8.829 0 008.828 8.828h15.334l81.77-53.574v53.574h44.138v-53.574l81.769 53.574h15.334a8.829 8.829 0 008.828-8.828v-7.002l-70.155-45.963H256V150.07h-70.155L256 104.107v-7.002a8.828 8.828 0 00-8.828-8.828z" fill="#f5f5f5"/><g fill="#ff4b55"><path d="M256 158.898H141.241V88.277h-26.482v70.621H0v26.482h114.759v70.621h26.482V185.38H256z"/><path d="M97.103 150.07L4.207 89.769C1.735 91.333 0 93.962 0 97.104v.458l80.889 52.508zM166.283 150.07l88.374-57.366c-1.536-2.599-4.246-4.427-7.485-4.427h-1.909l-95.194 61.793zM89.474 194.208L1.269 251.464c1.521 2.662 4.273 4.537 7.559 4.537h1.665l95.196-61.793zM255.86 247.866l-82.666-53.658H156.98l93.874 60.935c2.812-1.305 4.741-4.04 5.006-7.277zM395.474 368.114c-.358 0-.719-.113-1.026-.328L384 360.32l-10.449 7.466a1.767 1.767 0 01-2.711-1.974l3.875-12.242-10.327-7.62a1.77 1.77 0 01-.633-1.965 1.773 1.773 0 011.668-1.224l12.841-.104 4.061-12.181c.242-.715.918-1.207 1.677-1.207s1.436.491 1.677 1.207l4.061 12.181 12.841.104c.763.009 1.431.5 1.668 1.224a1.77 1.77 0 01-.633 1.965l-10.327 7.62 3.875 12.242a1.778 1.778 0 01-.647 1.965c-.314.224-.68.337-1.043.337z"/></g><path d="M384 331.035l4.461 13.378 14.102.109-11.345 8.377 4.254 13.445L384 358.145l-11.473 8.201 4.254-13.445-11.345-8.377 14.102-.109zm0-3.531a3.532 3.532 0 00-3.35 2.414l-3.663 10.984-11.578.09a3.53 3.53 0 00-2.071 6.372l9.314 6.878-3.492 11.039a3.532 3.532 0 005.421 3.937l9.42-6.733 9.42 6.733a3.536 3.536 0 004.129-.015 3.533 3.533 0 001.291-3.922l-3.492-11.039 9.314-6.878a3.53 3.53 0 00-2.071-6.372l-11.578-.09-3.663-10.984a3.535 3.535 0 00-3.351-2.414z" fill="#f5f5f5"/><path d="M395.474 225.794c-.362 0-.719-.113-1.026-.328L384 217.993l-10.449 7.474a1.794 1.794 0 01-1.026.328c-.362 0-.728-.113-1.038-.337a1.78 1.78 0 01-.647-1.965l3.875-12.242-10.327-7.629a1.774 1.774 0 01-.633-1.965 1.776 1.776 0 011.668-1.224l12.841-.095 4.061-12.181c.242-.715.918-1.207 1.677-1.207s1.436.491 1.677 1.207l4.061 12.181 12.841.095c.759.009 1.431.5 1.668 1.224a1.775 1.775 0 01-.633 1.965l-10.327 7.629 3.875 12.242a1.778 1.778 0 01-.647 1.965c-.314.224-.68.336-1.043.336z" fill="#ff4b55"/><path d="M384 188.714l4.461 13.378 14.102.109-11.345 8.377 4.254 13.446L384 215.823l-11.473 8.201 4.254-13.446-11.345-8.377 14.102-.109zm0-3.531a3.532 3.532 0 00-3.35 2.414l-3.663 10.984-11.578.09a3.53 3.53 0 00-2.071 6.372l9.314 6.878-3.492 11.039a3.532 3.532 0 005.421 3.937l9.42-6.733 9.42 6.733a3.536 3.536 0 004.129-.015 3.533 3.533 0 001.291-3.922l-3.492-11.039 9.314-6.878c1.223-.903 1.73-2.486 1.26-3.932s-1.811-2.429-3.331-2.44l-11.578-.09-3.663-10.984a3.534 3.534 0 00-3.351-2.414z" fill="#f5f5f5"/><path d="M457.267 269.932c-.362 0-.719-.113-1.026-.328l-10.447-7.474-10.449 7.474a1.794 1.794 0 01-1.026.328c-.362 0-.728-.113-1.038-.337a1.78 1.78 0 01-.647-1.965l3.875-12.242-10.327-7.629a1.774 1.774 0 01-.633-1.965 1.776 1.776 0 011.668-1.224l12.841-.095 4.061-12.181c.242-.715.918-1.207 1.677-1.207s1.436.491 1.677 1.207l4.061 12.181 12.841.095c.759.009 1.431.5 1.668 1.224a1.775 1.775 0 01-.633 1.965l-10.327 7.629 3.875 12.242a1.778 1.778 0 01-.647 1.965 1.802 1.802 0 01-1.044.337z" fill="#ff4b55"/><path d="M445.793 232.852l4.461 13.378 14.102.109-11.345 8.377 4.254 13.446-11.473-8.201-11.473 8.201 4.254-13.445-11.345-8.377 14.102-.109zm0-3.531a3.532 3.532 0 00-3.35 2.414l-3.663 10.984-11.578.09a3.53 3.53 0 00-2.071 6.372l9.314 6.878-3.492 11.039a3.532 3.532 0 003.367 4.596c.719 0 1.439-.22 2.053-.659l9.42-6.733 9.42 6.733a3.537 3.537 0 004.13-.015 3.533 3.533 0 001.291-3.922l-3.492-11.039 9.314-6.878c1.223-.903 1.73-2.486 1.26-3.932s-1.811-2.429-3.331-2.44l-11.578-.09-3.663-10.984a3.533 3.533 0 00-3.351-2.414z" fill="#f5f5f5"/><path d="M333.681 287.587c-.362 0-.719-.113-1.026-.328l-10.447-7.474-10.449 7.474a1.794 1.794 0 01-1.026.328c-.362 0-.728-.113-1.038-.337a1.78 1.78 0 01-.647-1.965l3.875-12.242-10.327-7.629a1.774 1.774 0 01-.633-1.965 1.776 1.776 0 011.668-1.224l12.841-.095 4.061-12.181c.242-.715.918-1.207 1.677-1.207s1.436.491 1.677 1.207l4.061 12.181 12.841.095c.759.009 1.431.5 1.668 1.224a1.775 1.775 0 01-.633 1.965l-10.327 7.629 3.875 12.242a1.778 1.778 0 01-.647 1.965 1.795 1.795 0 01-1.044.337z" fill="#ff4b55"/><path d="M322.207 250.507l4.461 13.378 14.102.109-11.345 8.377 4.254 13.446-11.473-8.201-11.473 8.201 4.254-13.446-11.345-8.377 14.102-.109zm0-3.531a3.532 3.532 0 00-3.35 2.414l-3.663 10.984-11.578.09a3.53 3.53 0 00-2.071 6.372l9.314 6.878-3.492 11.039a3.532 3.532 0 003.367 4.596c.719 0 1.439-.22 2.053-.659l9.42-6.733 9.42 6.733a3.536 3.536 0 004.129-.015 3.533 3.533 0 001.291-3.922l-3.492-11.039 9.314-6.878c1.223-.903 1.73-2.486 1.26-3.932s-1.811-2.429-3.331-2.44l-11.578-.09-3.663-10.984a3.532 3.532 0 00-3.35-2.414z" fill="#f5f5f5"/></svg>