<svg enable-background="new 0 0 512.001 512.001" viewBox="0 0 512.001 512.001" xmlns="http://www.w3.org/2000/svg"><path d="m512 200.093h-512v-102.989c0-4.875 3.953-8.828 8.828-8.828h494.345c4.875 0 8.828 3.953 8.828 8.828z" fill="#41479b"/><path d="m503.172 423.725h-494.344c-4.875 0-8.828-3.953-8.828-8.828v-102.988h512v102.988c0 4.876-3.953 8.828-8.828 8.828z" fill="#41479b"/><path d="m0 200.091h512v111.81h-512z" fill="#f5f5f5"/><path d="m256 223.678-26.927 39.599h53.854z" fill="#afebff"/><path d="m229.073 263.277-17.424 25.344h88.702l-17.424-25.344z" fill="#557de6"/><g fill="#73af00"><path d="m262.891 261.064c.107-.221.22-.438.317-.664-.096.224-.21.443-.317.664z"/><path d="m263.633 259.239c.066-.199.146-.392.203-.594-.058.201-.138.394-.203.594z"/><path d="m261.975 262.725c.136-.217.27-.433.397-.655-.126.223-.262.439-.397.655z"/><path d="m266.091 255.348c-.241 0-.472.04-.685.111.213-.072.444-.111.685-.111z"/><path d="m264.83 255.766c-.335.262-.565.627-.617 1.043v.002-.002c.053-.416.281-.782.617-1.043z"/><path d="m264.013 267.585c.377.358.751.698 1.127 1.024 2.01-1.74 4.108-3.951 5.58-6.538-.106.185-.22.365-.332.547-1.375-2.528-2.101-4.715-2.453-6.012-.201-.74-.967-1.256-1.842-1.257.337 2.954 1.061 8.383-2.08 12.236z"/><path d="m271.98 259.239c.066-.199.146-.392.203-.594-.057.201-.137.394-.203.594z"/><path d="m273.178 255.766c-.335.262-.565.627-.617 1.043v.002-.002c.053-.416.281-.782.617-1.043z"/><path d="m271.24 261.064c.107-.221.22-.438.317-.664-.098.224-.21.443-.317.664z"/><path d="m288.339 269.613c-3.053 0-5.942-1.465-7.706-3.957-2.657-3.754-3.862-7.254-4.349-9.049-.201-.742-.969-1.258-1.845-1.258l.003.001c.402 3.526 1.358 10.575-4.371 14.264h-3.73c-.153-.121-.302-.237-.459-.365.003.003.007.006.01.009-1.044 1.363-3.132 1.745-4.751.91-6.778-3.492-5.726-11.109-5.303-14.818-.875.001-1.641.516-1.842 1.257-.352 1.297-1.078 3.484-2.453 6.012-.111-.182-.226-.361-.332-.547 1.656 2.91 4.113 5.366 6.333 7.186-1.044 1.363-3.132 1.745-4.751.91-6.778-3.492-5.726-11.11-5.303-14.818-.875.001-1.641.516-1.842 1.257-.352 1.297-1.078 3.484-2.453 6.012-.111-.182-.226-.361-.332-.547 1.656 2.91 4.113 5.366 6.333 7.186-1.044 1.363-3.132 1.745-4.751.91-6.778-3.492-5.726-11.109-5.303-14.818l.003-.001c-.876 0-1.644.515-1.845 1.258-.487 1.795-1.692 5.295-4.349 9.049-1.763 2.493-4.652 3.957-7.706 3.957h-2.508v3.168h64.943 1.583v-3.168z"/><path d="m258.724 260.399c.097.226.21.444.317.664-.107-.22-.221-.439-.317-.664z"/><path d="m258.098 258.644c.056.202.137.395.203.594-.067-.199-.147-.392-.203-.594z"/><path d="m257.719 256.812v-.002c-.052-.416-.28-.781-.617-1.043.335.262.565.627.617 1.043z"/><path d="m259.56 262.071c.127.223.262.438.397.655-.135-.217-.27-.433-.397-.655z"/><path d="m261.015 264.267c-.017-.021-.031-.043-.047-.065.136-.181.266-.363.397-.548-.13.184-.264.366-.399.546-.136-.18-.269-.361-.398-.546.146.207.294.41.447.613z"/><path d="m261.711 265.143c.154.185.308.37.466.548-.158-.178-.312-.363-.466-.548z"/><path d="m263.403 267.001c-.148-.148-.292-.303-.438-.456.147.154.29.308.438.456z"/></g><path d="m274.442 255.349-.003-.001c-.481 0-.925.157-1.261.418-.335.262-.565.627-.617 1.043v.002c-.078.625-.211 1.234-.378 1.833-.056.202-.137.395-.203.594-.129.392-.262.782-.424 1.161-.097.226-.21.444-.317.664-.164.34-.332.679-.519 1.007-1.472 2.586-3.57 4.798-5.58 6.538-.375-.324-.749-.665-1.127-1.024 3.14-3.853 2.417-9.282 2.081-12.236l-.003-.001c-.241 0-.472.04-.685.111-.213.072-.408.177-.576.307-.335.262-.565.627-.617 1.043v.002c-.078.625-.211 1.234-.379 1.833-.056.202-.137.395-.203.594-.129.392-.262.782-.424 1.161-.097.226-.21.444-.317.664-.164.34-.332.679-.519 1.007-.127.223-.262.438-.397.655-.196.314-.397.625-.61.927-.13.185-.262.369-.397.548-.136-.181-.27-.363-.401-.548-.213-.302-.414-.612-.61-.927-.136-.217-.27-.433-.397-.655-.188-.329-.354-.668-.519-1.007-.107-.221-.22-.438-.317-.664-.162-.378-.295-.769-.424-1.161-.066-.199-.146-.392-.203-.594-.168-.598-.3-1.208-.378-1.833v-.002c-.052-.416-.28-.781-.617-1.043-.335-.262-.779-.418-1.26-.418l-.003.001c-.422 3.709-1.475 11.326 5.303 14.818 1.143.589 2.515.566 3.591.024.687-.346 1.425-.578 2.194-.578h3.146c5.728-3.688 4.772-10.738 4.37-14.263z" fill="#ffe15a"/><path d="m249.749 258.644c.056.202.137.395.203.594-.066-.199-.146-.392-.203-.594z" fill="#73af00"/><path d="m249.37 256.812v-.002c-.052-.416-.28-.781-.617-1.043.335.262.565.627.617 1.043z" fill="#73af00"/><path d="m250.376 260.399c.097.226.21.444.317.664-.108-.22-.22-.439-.317-.664z" fill="#73af00"/><path d="m247.494 255.348c.241 0 .472.04.685.111-.214-.072-.445-.111-.685-.111z" fill="#73af00"/><path d="m252.793 270.167c1.62.834 3.708.452 4.751-.91-2.22-1.82-4.676-4.275-6.333-7.186-.188-.329-.354-.668-.519-1.007-.107-.221-.22-.438-.317-.664-.162-.378-.295-.769-.424-1.161-.066-.199-.146-.392-.203-.594-.168-.598-.3-1.208-.378-1.833v-.002c-.052-.416-.28-.781-.617-1.043-.168-.13-.363-.235-.576-.307s-.444-.111-.685-.111l-.003.001c-.421 3.708-1.474 11.324 5.304 14.817z" fill="#ffe15a"/><path d="m241.401 258.644c.056.202.137.395.203.594-.066-.199-.146-.392-.203-.594z" fill="#73af00"/><path d="m242.028 260.399c.097.226.21.444.317.664-.107-.22-.221-.439-.317-.664z" fill="#73af00"/><path d="m241.023 256.812v-.002c-.052-.416-.28-.781-.617-1.043.335.262.565.627.617 1.043z" fill="#73af00"/><path d="m244.446 270.167c1.62.834 3.708.452 4.751-.91-2.22-1.82-4.676-4.275-6.333-7.186-.188-.329-.354-.668-.519-1.007-.107-.221-.22-.438-.317-.664-.162-.378-.295-.769-.424-1.161-.066-.199-.146-.392-.203-.594-.168-.598-.3-1.208-.378-1.833v-.002c-.052-.416-.28-.781-.617-1.043-.335-.262-.779-.418-1.261-.418l-.003.001c-.422 3.708-1.476 11.324 5.304 14.817z" fill="#ffe15a"/><path d="m242.655 242.753c-.131.505-.264 1.011-.395 1.516 4.324-1.297 9.096-2.076 14.274-2.076 5.178.003 9.95.776 14.274 2.076-.131-.505-.264-1.011-.395-1.516-4.301-1.11-8.93-1.748-13.879-1.746-4.948-.001-9.577.636-13.879 1.746z" fill="#41479b"/><path d="m242.827 242.094c-.131.505-.264 1.011-.395 1.516 4.276-1.3 8.99-2.08 14.102-2.082 5.113.002 9.826.781 14.102 2.082-.131-.505-.264-1.011-.395-1.516-4.253-1.118-8.823-1.751-13.707-1.752-4.885.001-9.454.637-13.707 1.752z" fill="#5aa0e6"/><path d="m242.986 241.485c-.131.505-.264 1.011-.395 1.516 4.234-1.304 8.892-2.09 13.943-2.088 5.053 0 9.71.783 13.943 2.088-.131-.505-.264-1.011-.395-1.516-4.207-1.118-8.723-1.759-13.548-1.759-4.825-.001-9.34.641-13.548 1.759z" fill="#9bc800"/><path d="m243.167 240.789c-.131.505-.264 1.011-.395 1.516 4.184-1.309 8.78-2.095 13.762-2.095 4.982.002 9.578.786 13.762 2.095-.131-.505-.264-1.011-.395-1.516-4.158-1.122-8.609-1.764-13.367-1.766-4.758.001-9.21.644-13.367 1.766z" fill="#ffe14e"/><path d="m243.346 240.105c-.131.505-.264 1.011-.395 1.516 4.136-1.312 8.668-2.101 13.583-2.102 4.915.003 9.448.788 13.583 2.102-.131-.505-.264-1.011-.395-1.516-4.106-1.124-8.497-1.772-13.188-1.772-4.691.002-9.081.645-13.188 1.772z" fill="#ffb14e"/><path d="m243.421 239.813c-.093.354-.184.707-.277 1.062 4.082-1.314 8.55-2.111 13.389-2.11 4.841-.002 9.308.793 13.389 2.11-.093-.354-.184-.707-.277-1.062-4.085-1.127-8.45-1.774-13.113-1.775-4.661-.003-9.025.647-13.111 1.775z" fill="#ff4b55"/><path d="m300.352 290.158h-88.703c-.585 0-1.121-.322-1.397-.835-.276-.516-.244-1.142.079-1.628l44.352-66.527c.588-.878 2.048-.878 2.636 0l44.352 66.527c.323.486.354 1.111.078 1.628-.276.514-.812.835-1.397.835zm-85.745-3.168h82.785l-41.392-62.087z" fill="#ffe15a"/><path d="m259.029 248.933c0-1.394-1.412-3.512-3.673-3.512-1.321 0-2.392.808-2.392 1.803 0 .498.267.947.698 1.273-.002.018-.003.038-.004.055-.54.331-.892.829-.892 1.394 0 .95.979 1.72 2.216 1.79l1.018 2.036.919-1.838c1.207-.307 2.11-1.531 2.11-3.001z" fill="#ff4b55"/></svg>