<svg enable-background="new 0 0 512.001 512.001" viewBox="0 0 512.001 512.001" xmlns="http://www.w3.org/2000/svg"><path d="m503.172 423.724h-494.344c-4.875 0-8.828-3.953-8.828-8.828v-317.792c0-4.875 3.953-8.828 8.828-8.828h494.345c4.875 0 8.828 3.953 8.828 8.828v317.792c-.001 4.876-3.954 8.828-8.829 8.828z" fill="#ffe15a"/><path d="m247.172 256h-238.344c-4.875 0-8.828-3.953-8.828-8.828v-150.068c0-4.875 3.953-8.828 8.828-8.828h238.344c4.875 0 8.828 3.953 8.828 8.828v150.069c-.001 4.876-3.952 8.827-8.828 8.827z" fill="#41479b"/><path d="m247.172 88.276h-15.333l-81.77 53.573v-53.573h-44.138v53.573l-81.77-53.573h-15.333c-4.875 0-8.828 3.953-8.828 8.828v7.002l70.155 45.963h-70.155v44.138h70.155l-70.155 45.964v7.001c0 4.875 3.953 8.828 8.828 8.828h15.333l81.77-53.573v53.573h44.138v-53.573l81.769 53.573h15.333c4.875 0 8.828-3.953 8.828-8.828v-7.002l-70.154-45.963h70.154v-44.138h-70.155l70.155-45.963v-7.002c0-4.875-3.951-8.828-8.827-8.828z" fill="#f5f5f5"/><path d="m255.999 158.897h-114.758v-70.621h-26.483v70.621h-114.758v26.482h114.758v70.621h26.483v-70.621h114.758z" fill="#ff4b55"/><path d="m97.103 150.069-92.896-60.301c-2.472 1.565-4.207 4.193-4.207 7.336v.458l80.889 52.507z" fill="#ff4b55"/><path d="m166.283 150.069 88.374-57.366c-1.536-2.599-4.246-4.427-7.485-4.427h-1.909l-95.194 61.793z" fill="#ff4b55"/><path d="m89.474 194.207-88.205 57.256c1.521 2.662 4.273 4.537 7.559 4.537h1.665l95.195-61.793z" fill="#ff4b55"/><path d="m255.859 247.867-82.666-53.659h-16.213l93.873 60.934c2.813-1.305 4.741-4.04 5.006-7.275z" fill="#ff4b55"/><circle cx="128" cy="172.14" fill="#41479b" r="26.483"/><g fill="#ffe15a"><path d="m129.787 150.668 4.425 13.266 13.984.108c1.811.014 2.561 2.325 1.105 3.4l-11.25 8.307 4.218 13.333c.546 1.726-1.419 3.154-2.892 2.101l-11.377-8.131-11.377 8.131c-1.473 1.053-3.438-.375-2.892-2.101l4.218-13.333-11.25-8.307c-1.457-1.076-.706-3.386 1.105-3.4l13.984-.108 4.425-13.266c.572-1.718 3.002-1.718 3.574 0z"/><path d="m56.501 161.474 2.379 7.133 7.519.058c.973.008 1.377 1.25.594 1.828l-6.048 4.467 2.268 7.168c.294.928-.764 1.696-1.555 1.13l-6.116-4.372-6.116 4.372c-.792.566-1.848-.202-1.555-1.13l2.268-7.168-6.048-4.467c-.783-.578-.38-1.821.594-1.828l7.519-.058 2.379-7.133c.305-.923 1.61-.923 1.918 0z"/><path d="m202.085 161.474 2.379 7.133 7.519.058c.973.008 1.377 1.25.594 1.828l-6.048 4.467 2.268 7.168c.294.928-.764 1.696-1.555 1.13l-6.116-4.372-6.116 4.372c-.792.566-1.848-.202-1.555-1.13l2.268-7.168-6.048-4.467c-.783-.578-.38-1.821.594-1.828l7.519-.058 2.379-7.133c.305-.923 1.61-.923 1.918 0z"/><path d="m129.074 107.894 2.379 7.133 7.519.058c.973.008 1.377 1.25.594 1.828l-6.049 4.466 2.268 7.168c.294.928-.764 1.696-1.555 1.13l-6.116-4.372-6.116 4.372c-.792.566-1.848-.202-1.555-1.13l2.268-7.168-6.048-4.467c-.783-.578-.38-1.821.594-1.828l7.519-.058 2.379-7.133c.305-.922 1.612-.922 1.919.001z"/><path d="m129.074 216.316 2.379 7.133 7.519.058c.973.008 1.377 1.25.594 1.828l-6.049 4.466 2.268 7.168c.294.928-.764 1.696-1.555 1.13l-6.116-4.372-6.116 4.372c-.792.566-1.848-.202-1.555-1.13l2.268-7.168-6.048-4.467c-.783-.578-.38-1.821.594-1.828l7.519-.058 2.379-7.133c.305-.922 1.612-.922 1.919.001z"/></g></svg>