<svg enable-background="new 0 0 512 512" viewBox="0 0 512 512" xmlns="http://www.w3.org/2000/svg"><path d="m170.667 423.721h-161.839c-4.875 0-8.828-3.953-8.828-8.828v-317.792c0-4.875 3.953-8.828 8.828-8.828h161.839z" fill="#73af00"/><path d="m170.67 88.277h170.67v335.45h-170.67z" fill="#f5f5f5"/><g fill="#73af00"><path d="m503.172 423.721h-161.839v-335.448h161.839c4.875 0 8.828 3.953 8.828 8.828v317.792c0 4.876-3.953 8.828-8.828 8.828z"/><path d="m314.959 342.595-27.396-159.812c-1.046-6.102-3.217-11.957-6.402-17.266l-25.161-41.934-25.161 41.935c-3.186 5.309-5.356 11.164-6.402 17.266l-27.397 159.813c-.523 3.052 1.827 5.841 4.925 5.841h44.041v39.973h19.987v-39.974h44.041c3.097 0 5.449-2.788 4.925-5.842z"/></g></svg>