<svg enable-background="new 0 0 512.001 512.001" viewBox="0 0 512.001 512.001" xmlns="http://www.w3.org/2000/svg"><path d="m503.172 423.725h-494.344c-4.875 0-8.828-3.953-8.828-8.828v-317.793c0-4.875 3.953-8.828 8.828-8.828h494.345c4.875 0 8.828 3.953 8.828 8.828v317.793c-.001 4.876-3.954 8.828-8.829 8.828z" fill="#f5f5f5"/><g fill="#ff4b55"><path d="m0 123.591h512v35.31h-512z"/><path d="m0 353.101h512v35.31h-512z"/><path d="m248.503 228.834 12.427 16.256 19.403-6.495c1.085-.363 2.008.864 1.358 1.805l-11.62 16.842 12.173 16.447c.681.919-.201 2.176-1.298 1.849l-19.608-5.847-11.88 16.66c-.664.931-2.132.481-2.159-.662l-.498-20.456-19.516-6.151c-1.091-.344-1.117-1.879-.038-2.259l19.3-6.795-.181-20.461c-.01-1.143 1.442-1.642 2.137-.733z"/><path d="m184.489 319.597c-35.095 0-63.564-28.469-63.564-63.596 0-35.062 28.469-63.595 63.564-63.595 13.057 0 25.099 4.015 35.134 10.813 1.537 1.041 3.29-.979 2.004-2.316-14.997-15.593-36.224-25.105-59.758-24.301-40.434 1.379-73.906 33.798-76.49 74.172-2.959 46.244 33.658 84.676 79.25 84.676 22.457 0 42.641-9.389 57.054-24.401 1.273-1.326-.484-3.315-2.006-2.283-10.047 6.81-22.108 10.831-35.188 10.831z"/></g></svg>