<svg enable-background="new 0 0 512.001 512.001" viewBox="0 0 512.001 512.001" xmlns="http://www.w3.org/2000/svg"><path d="m503.172 423.725h-494.344c-4.875 0-8.828-3.953-8.828-8.828v-317.793c0-4.875 3.953-8.828 8.828-8.828h494.345c4.875 0 8.828 3.953 8.828 8.828v317.793c-.001 4.876-3.954 8.828-8.829 8.828z" fill="#41479b"/><path d="m0 132.411h512v17.655h-512z" fill="#f5f5f5"/><path d="m0 361.931h512v17.655h-512z" fill="#f5f5f5"/><path d="m0 150.071h512v211.86h-512z" fill="#ff4b55"/><circle cx="141.24" cy="256.001" fill="#f5f5f5" r="70.62"/><path d="m143.122 191.706 14.167 42.478 44.777.348c1.905.014 2.695 2.445 1.162 3.577l-36.021 26.6 13.506 42.692c.575 1.816-1.493 3.318-3.043 2.211l-36.428-26.039-36.429 26.038c-1.549 1.108-3.617-.395-3.043-2.211l13.506-42.692-36.021-26.6c-1.533-1.131-.743-3.562 1.162-3.577l44.777-.348 14.167-42.478c.603-1.806 3.158-1.806 3.761.001z" fill="#ff4b55"/></svg>