<svg viewBox="0 0 512 512" xmlns="http://www.w3.org/2000/svg"><path d="M3.256 421.59L256 256 3.256 90.41C1.311 92.029 0 94.375 0 97.103v317.793c0 2.729 1.311 5.075 3.256 6.694z" fill="#f5f5f5"/><path d="M3.256 421.59c1.53 1.274 3.425 2.134 5.571 2.134h494.345a8.829 8.829 0 008.828-8.828V256H256z" fill="#ff4b55"/><path d="M3.256 90.41c1.53-1.274 3.425-2.134 5.571-2.134h494.345A8.829 8.829 0 01512 97.104V256H256z" fill="#41479b"/><g fill="#ffe15a"><circle cx="92.69" cy="256" r="28.69"/><path d="M92.69 256l-10.759-43.034 10.759-14.345 10.758 14.345zM92.69 256l10.758 43.034-10.758 14.345-10.759-14.345zM92.69 256l-43.035 10.759L35.31 256l14.345-10.759zM92.69 256l43.034-10.759L150.069 256l-14.345 10.759zM92.69 256l22.822-38.037 17.751-2.537-2.536 17.751zM92.69 256l-22.823 38.037-17.751 2.537 2.537-17.751zM92.69 256l-38.037-22.823-2.537-17.751 17.751 2.537zM92.69 256l38.037 22.823 2.536 17.751-17.751-2.537zM23.658 131.694l1.496 11.16-10.076 5.028c-1.304.651-1.03 2.588.405 2.85l11.076 2.026 1.668 11.136c.216 1.442 2.143 1.779 2.836.495l5.35-9.908 11.106 1.854c1.438.241 2.354-1.489 1.348-2.543l-7.77-8.15 5.195-9.99c.673-1.293-.689-2.699-2.003-2.068l-10.152 4.872-7.895-8.029c-1.02-1.038-2.777-.177-2.584 1.267zM28.102 348.906l-1.89 11.101-11.114 1.805c-1.439.234-1.752 2.165-.461 2.841l9.973 5.227-1.717 11.128c-.222 1.441 1.517 2.335 2.56 1.316l8.053-7.87 10.054 5.073c1.302.657 2.69-.722 2.044-2.028l-4.996-10.091 7.93-7.993c1.026-1.035.146-2.781-1.298-2.57l-11.142 1.633-5.152-10.013c-.667-1.295-2.601-.997-2.844.441zM202.734 239.555l-6.481 9.208-10.81-3.15c-1.399-.408-2.513 1.201-1.639 2.367l6.755 9.009-6.337 9.308c-.82 1.205.365 2.761 1.745 2.29l10.655-3.64 6.894 8.903c.893 1.153 2.739.505 2.717-.952l-.17-11.258 10.598-3.806c1.372-.493 1.327-2.449-.066-2.878l-10.761-3.318-.344-11.255c-.042-1.459-1.917-2.021-2.756-.828z"/></g></svg>