<svg viewBox="0 0 512.001 512.001" xmlns="http://www.w3.org/2000/svg"><path d="M512 256H0V97.103a8.829 8.829 0 018.828-8.828h494.345a8.829 8.829 0 018.828 8.828zM0 256h512v158.897a8.829 8.829 0 01-8.828 8.828H8.828A8.829 8.829 0 010 414.897z" fill="#4173cd"/><path d="M0 256h512v83.86H0z" fill="#ffe15a"/><path d="M8.828 423.724h494.345a8.829 8.829 0 008.828-8.828v-75.034H0v75.034a8.828 8.828 0 008.828 8.828z" fill="#73af00"/><g fill="#ffe15a"><path d="M458.211 178.12l36.134-5.982-36.134-5.982 31.094-19.354-35.672 8.301 21.321-29.78-29.78 21.321 8.301-35.672-19.354 31.094-5.983-36.135-5.982 36.134-19.354-31.094 8.301 35.672-29.78-21.321 21.321 29.78-35.672-8.301 31.094 19.354-36.135 5.983 36.134 5.982-31.094 19.354 35.672-8.301-21.321 29.78 29.78-21.321-8.301 35.672 19.354-31.094 5.983 36.135 5.982-36.134 19.354 31.094-8.301-35.672 29.78 21.321-21.321-29.78 35.672 8.301zm-30.073 16.087c-12.189 0-22.069-9.88-22.069-22.069s9.88-22.069 22.069-22.069 22.069 9.88 22.069 22.069-9.88 22.069-22.069 22.069z"/><circle cx="428.14" cy="172.14" r="16.552"/></g></svg>