<svg viewBox="0 0 512.001 512.001" xmlns="http://www.w3.org/2000/svg"><path d="M503.172 423.724H8.828A8.829 8.829 0 010 414.896V256h512v158.896a8.828 8.828 0 01-8.828 8.828z" fill="#41479b"/><path d="M8.828 88.276h494.345a8.829 8.829 0 018.828 8.828V256H0V97.104a8.829 8.829 0 018.828-8.828z" fill="#ff4b55"/><path d="M255.999 88.276L0 256l255.999 167.724L512 256z" fill="#f5f5f5"/><path d="M258.647 158.704l21.191 60.962 64.526 1.315c2.656.054 3.753 3.43 1.636 5.035l-51.431 38.991 18.689 61.775c.769 2.543-2.102 4.63-4.284 3.112l-52.975-36.865-52.976 36.864c-2.182 1.517-5.053-.568-4.284-3.112l18.689-61.775-51.431-38.991c-2.118-1.606-1.021-4.981 1.636-5.035l64.526-1.315 21.191-60.962c.875-2.51 4.425-2.51 5.297.001z" fill="#ffe15a"/></svg>