<svg viewBox="0 0 512.001 512.001" xmlns="http://www.w3.org/2000/svg"><path d="M512 200.093H0V97.104a8.829 8.829 0 018.828-8.828h494.345a8.829 8.829 0 018.828 8.828z" fill="#464655"/><path d="M503.172 423.725H8.828A8.829 8.829 0 010 414.897V311.909h512v102.988a8.828 8.828 0 01-8.828 8.828z" fill="#73af00"/><path d="M0 200.091h512v111.81H0z" fill="#f5f5f5"/><g fill="#ff4b55"><path d="M3.256 421.591l202.841-161.015c2.946-2.338 2.946-6.812 0-9.151L3.256 90.411C1.311 92.03 0 94.376 0 97.104v317.793c0 2.729 1.311 5.075 3.256 6.694zM264.957 256.001c0-20.136 13.151-37.194 31.33-43.068 1.045-.338.908-1.867-.184-1.974a45.472 45.472 0 00-10.778.227c-21.354 2.997-37.828 21.055-38.858 42.593-1.242 26.005 19.474 47.48 45.206 47.48 1.489 0 2.959-.074 4.41-.215 1.097-.107 1.24-1.641.191-1.98-18.172-5.878-31.317-22.933-31.317-43.063z"/><path d="M303.384 226.265l-5.946 17.83-18.795.146c-2.433.019-3.443 3.124-1.485 4.569l15.119 11.165-5.67 17.92c-.734 2.321 1.908 4.239 3.887 2.824l15.29-10.93 15.29 10.93c1.98 1.415 4.621-.504 3.887-2.824l-5.67-17.92 15.119-11.165c1.958-1.446.949-4.551-1.485-4.569l-18.795-.146-5.946-17.83c-.764-2.308-4.029-2.308-4.8 0z"/></g></svg>