<svg viewBox="0 0 512.001 512.001" xmlns="http://www.w3.org/2000/svg"><path d="M503.172 423.725H8.828A8.829 8.829 0 010 414.897V97.104a8.829 8.829 0 018.828-8.828h494.345a8.829 8.829 0 018.828 8.828v317.793a8.83 8.83 0 01-8.829 8.828z" fill="#ff4b55"/><path d="M8.828 88.277h238.345a8.829 8.829 0 018.828 8.828v150.069a8.829 8.829 0 01-8.828 8.828H8.828A8.83 8.83 0 010 247.173V97.104a8.828 8.828 0 018.828-8.827z" fill="#41479b"/><g fill="#f5f5f5"><path d="M125.766 197.597l-4.053 12.151-12.809.099c-1.658.013-2.346 2.13-1.012 3.114l10.304 7.609-3.863 12.212c-.5 1.581 1.3 2.889 2.649 1.924l10.421-7.448 10.421 7.448c1.35.964 3.149-.343 2.649-1.924l-3.863-12.212 10.304-7.609c1.334-.985.647-3.102-1.012-3.114l-12.809-.099-4.053-12.151c-.525-1.574-2.749-1.574-3.274 0zM126.079 102.853l-3.278 9.83-10.361.081c-1.342.01-1.898 1.722-.819 2.519l8.335 6.155-3.125 9.879c-.405 1.279 1.052 2.337 2.143 1.557l8.429-6.025 8.429 6.025c1.091.78 2.548-.278 2.143-1.557l-3.125-9.879 8.335-6.155c1.079-.797.523-2.509-.819-2.519l-10.361-.081-3.278-9.83c-.424-1.273-2.223-1.273-2.648 0zM178.493 132.095l-3.278 9.83-10.361.081c-1.342.01-1.898 1.722-.819 2.519l8.335 6.155-3.125 9.879c-.405 1.279 1.052 2.337 2.143 1.557l8.429-6.025 8.429 6.025c1.091.78 2.548-.278 2.143-1.557l-3.125-9.879 8.335-6.155c1.079-.797.523-2.509-.819-2.519l-10.361-.081-3.278-9.83c-.424-1.274-2.223-1.274-2.648 0zM74.769 143.681l-3.278 9.83-10.361.081c-1.342.01-1.898 1.722-.819 2.519l8.335 6.155-3.125 9.879c-.405 1.279 1.052 2.337 2.143 1.557l8.429-6.025 8.429 6.025c1.091.78 2.548-.278 2.143-1.557l-3.125-9.879 8.335-6.155c1.079-.797.523-2.509-.819-2.519l-10.361-.081-3.278-9.83c-.424-1.273-2.224-1.273-2.648 0zM155.901 175.769l-1.841 5.518-5.816.045c-.753.006-1.065.967-.459 1.415l4.679 3.455-1.754 5.546c-.227.718.59 1.312 1.203.874l4.732-3.382 4.732 3.382c.612.438 1.43-.156 1.203-.874l-1.754-5.546 4.679-3.455c.606-.447.294-1.408-.459-1.415l-5.816-.045-1.841-5.518c-.239-.715-1.25-.715-1.488 0z"/></g></svg>