<svg viewBox="0 0 512.001 512.001" xmlns="http://www.w3.org/2000/svg"><path d="M503.172 423.724H8.828A8.829 8.829 0 010 414.896V97.104a8.829 8.829 0 018.828-8.828h494.345a8.829 8.829 0 018.828 8.828v317.792a8.83 8.83 0 01-8.829 8.828z" fill="#41479b"/><path d="M503.172 88.276H8.828A8.829 8.829 0 000 97.104v317.792a8.829 8.829 0 008.828 8.828h494.345a8.829 8.829 0 008.828-8.828V97.104a8.83 8.83 0 00-8.829-8.828zm-8.828 158.896H408.26l-143.432-75.934v-65.307h229.517v141.241zm-238.345 78.29L124.798 256 256 186.539 387.202 256zm-8.827-219.531v65.307l-143.433 75.934H17.655V105.931zM17.655 264.828h86.084l143.433 75.935v65.306H17.655zm247.172 141.241v-65.307l143.434-75.934h86.083v141.241z" fill="#ff4b55"/><path d="M255.999 186.539L124.798 256l131.201 69.462L387.202 256z" fill="#f5f5f5"/><path d="M211.861 302.093h88.277l61.461-32.538-27.649-27.648h-9.652l-7.125 7.125-5.083-5.083h-10.165l-38.994 38.993h-48.95l-11.116-16.459h-14.107l-5.558 7.788h-6.247l-3.752 7.355z" fill="#73af00"/><path d="M257.182 213.708l3.509 10.52 11.09.086c1.436.011 2.031 1.844.876 2.697l-8.921 6.588 3.346 10.573c.433 1.369-1.126 2.502-2.294 1.666l-9.022-6.449-9.022 6.449c-1.169.835-2.727-.298-2.294-1.666l3.346-10.573-8.921-6.588c-1.155-.853-.559-2.685.876-2.697l11.09-.086 3.509-10.52c.451-1.361 2.378-1.361 2.832 0z" fill="#ffe15a"/></svg>