<svg viewBox="0 0 512.001 512.001" xmlns="http://www.w3.org/2000/svg"><path d="M503.172 423.724H8.828A8.829 8.829 0 010 414.896V97.103a8.829 8.829 0 018.828-8.828h494.345a8.829 8.829 0 018.828 8.828v317.793a8.83 8.83 0 01-8.829 8.828z" fill="#41479b"/><path d="M508.744 90.41L3.256 421.59c1.53 1.274 3.425 2.134 5.571 2.134h494.345a8.829 8.829 0 008.828-8.828V97.103c0-2.728-1.311-5.075-3.256-6.693z" fill="#73af00"/><path d="M512 97.103a8.829 8.829 0 00-8.828-8.828h-15.339L0 407.891v7.006a8.829 8.829 0 008.828 8.828h15.339L512 104.109z" fill="#ffe15a"/><g fill="#f5f5f5"><path d="M44.429 115.778l-4.726 14.169-14.936.116c-1.432.011-2.026 1.839-.874 2.69l12.015 8.873-4.505 14.241c-.433 1.366 1.123 2.495 2.289 1.663l12.152-8.685 12.152 8.685c1.165.833 2.72-.297 2.289-1.663l-4.505-14.241 12.015-8.873c1.152-.851.558-2.679-.874-2.69l-14.936-.116-4.726-14.169c-.454-1.359-2.376-1.359-2.83 0zM158.21 115.778l-4.726 14.169-14.936.116c-1.432.011-2.026 1.839-.874 2.69l12.015 8.873-4.505 14.241c-.433 1.366 1.123 2.495 2.289 1.663l12.152-8.685 12.152 8.685c1.165.833 2.72-.297 2.289-1.663l-4.505-14.241 12.015-8.873c1.152-.851.558-2.679-.874-2.69l-14.936-.116-4.726-14.169c-.455-1.359-2.377-1.359-2.83 0zM101.32 166.476l-4.726 14.169-14.936.116c-1.432.011-2.026 1.839-.874 2.69l12.015 8.873-4.505 14.241c-.433 1.366 1.123 2.495 2.289 1.663l12.152-8.685 12.152 8.685c1.165.833 2.72-.297 2.289-1.663l-4.505-14.241 12.015-8.873c1.152-.851.558-2.679-.874-2.69l-14.936-.116-4.726-14.169c-.456-1.359-2.377-1.359-2.83 0zM44.429 217.174l-4.726 14.169-14.936.116c-1.432.011-2.026 1.839-.874 2.69l12.015 8.873-4.505 14.241c-.433 1.366 1.123 2.495 2.289 1.663l12.152-8.685 12.152 8.685c1.165.833 2.72-.297 2.289-1.663l-4.505-14.241 12.015-8.873c1.152-.851.558-2.679-.874-2.69l-14.936-.116-4.726-14.169c-.454-1.359-2.376-1.359-2.83 0zM158.21 217.174l-4.726 14.169-14.936.116c-1.432.011-2.026 1.839-.874 2.69l12.015 8.873-4.505 14.241c-.433 1.366 1.123 2.495 2.289 1.663l12.152-8.685 12.152 8.685c1.165.833 2.72-.297 2.289-1.663l-4.505-14.241 12.015-8.873c1.152-.851.558-2.679-.874-2.69l-14.936-.116-4.726-14.169c-.455-1.359-2.377-1.359-2.83 0z"/></g></svg>