<svg viewBox="0 0 512 512" xmlns="http://www.w3.org/2000/svg"><path d="M0 150.069v211.862L141.241 256z" fill="#464655"/><path d="M70.621 88.276l158.897 123.586H512V97.103a8.829 8.829 0 00-8.828-8.828H70.621z" fill="#ff4b55"/><path d="M70.621 423.724l158.897-123.586H512v114.759a8.829 8.829 0 01-8.828 8.828H70.621z" fill="#41479b"/><path d="M56.889 88.276H8.828A8.828 8.828 0 000 97.103v36.21L154.974 256 0 378.69v36.206a8.829 8.829 0 008.828 8.828h48.056L224.147 291.31H512v-70.62H224.148z" fill="#73af00"/><path d="M85.333 88.276H56.889L224.148 220.69H512v-17.656H230.291z" fill="#f5f5f5"/><path d="M0 133.313v22.518L126.53 256 0 356.173v22.517L154.974 256z" fill="#ffe15a"/><path d="M224.147 291.31L56.884 423.724h28.445l144.96-114.758H512V291.31z" fill="#f5f5f5"/></svg>