<svg viewBox="0 0 512.001 512.001" xmlns="http://www.w3.org/2000/svg"><path d="M8.828 423.725h494.345a8.829 8.829 0 008.828-8.828V97.104a8.829 8.829 0 00-8.828-8.828H8.828A8.83 8.83 0 000 97.104v317.793a8.828 8.828 0 008.828 8.828z" fill="#c8414b"/><path d="M0 158.901h512v194.21H0z" fill="#ffd250"/><path d="M216.276 256.001l7.485-33.681c.69-3.102-1.671-6.044-4.849-6.044h-5.272c-3.177 0-5.537 2.942-4.849 6.044z" fill="#c8414b"/><path d="M207.45 238.341h17.655v75.03H207.45z" fill="#f5f5f5"/><path d="M203.03 229.521h26.483v8.828H203.03z" fill="#fab446"/><path d="M185.38 256.001h44.14v8.828h-44.14zM229.517 291.311l-26.483-8.827v-8.828l26.483 8.828zM83.862 256.001l7.485-33.681c.69-3.102-1.671-6.044-4.849-6.044h-5.272c-3.177 0-5.537 2.942-4.849 6.044z" fill="#c8414b"/><path d="M114.759 229.518a8.829 8.829 0 00-8.828 8.828v57.379c0 10.725 10.01 30.897 44.138 30.897s44.138-20.171 44.138-30.897v-57.379a8.829 8.829 0 00-8.828-8.828z" fill="#f5f5f5"/><path d="M150.069 273.656h-44.138v-35.31a8.829 8.829 0 018.828-8.828h35.31zM150.069 273.656h44.138v22.069c0 12.189-9.88 22.069-22.069 22.069-12.189 0-22.069-9.88-22.069-22.069z" fill="#c8414b"/><path d="M105.931 273.656h44.138v22.069c0 12.189-9.88 22.069-22.069 22.069-12.189 0-22.069-9.88-22.069-22.069z" fill="#fab446"/><path d="M141.241 313.281v-39.625h-8.828v43.693c3.284-.666 6.251-2.12 8.828-4.068zM123.586 317.349v-43.693h-8.828v39.625c2.578 1.948 5.545 3.402 8.828 4.068z" fill="#c8414b"/><path d="M114.76 256.001h26.483v8.828H114.76z" fill="#ffb441"/><path d="M114.76 238.341h26.483v8.828H114.76z" fill="#fab446"/><path d="M119.17 243.591h17.655v15.992H119.17z" fill="#fab446"/><path d="M75.03 238.341h17.655v75.03H75.03z" fill="#f5f5f5"/><path d="M70.62 308.971h26.483v8.828H70.62zM70.62 229.521h26.483v8.828H70.62z" fill="#fab446"/><path d="M66.21 317.791h35.31v8.828H66.21z" fill="#5064aa"/><path d="M207.45 308.971h26.483v8.828H207.45z" fill="#fab446"/><path d="M198.62 317.791h35.31v8.828h-35.31z" fill="#5064aa"/><path d="M123.59 220.691h52.966v8.828H123.59z" fill="#fab446"/><path d="M145.66 194.211h8.828v26.483h-8.828z" fill="#ffb441"/><g fill="#f5f5f5"><path d="M141.241 207.449c-7.302 0-13.241-5.94-13.241-13.241 0-7.302 5.94-13.241 13.241-13.241 7.302 0 13.241 5.94 13.241 13.241.001 7.301-5.939 13.241-13.241 13.241zm0-17.655a4.417 4.417 0 00-4.414 4.414c0 2.435 1.978 4.414 4.414 4.414s4.414-1.978 4.414-4.414a4.417 4.417 0 00-4.414-4.414z"/><path d="M158.897 207.449c-7.302 0-13.241-5.94-13.241-13.241 0-7.302 5.94-13.241 13.241-13.241 7.302 0 13.241 5.94 13.241 13.241s-5.94 13.241-13.241 13.241zm0-17.655a4.417 4.417 0 00-4.414 4.414 4.417 4.417 0 004.414 4.414 4.417 4.417 0 004.414-4.414 4.418 4.418 0 00-4.414-4.414z"/><path d="M176.552 216.277c-7.302 0-13.241-5.94-13.241-13.241 0-7.302 5.94-13.241 13.241-13.241 7.302 0 13.241 5.94 13.241 13.241s-5.94 13.241-13.241 13.241zm0-17.655a4.417 4.417 0 00-4.414 4.414 4.417 4.417 0 004.414 4.414c2.435 0 4.414-1.978 4.414-4.414s-1.979-4.414-4.414-4.414zM123.586 216.277c-7.302 0-13.241-5.94-13.241-13.241 0-7.302 5.94-13.241 13.241-13.241 7.302 0 13.241 5.94 13.241 13.241.001 7.301-5.939 13.241-13.241 13.241zm0-17.655a4.417 4.417 0 00-4.414 4.414c0 2.435 1.978 4.414 4.414 4.414s4.414-1.979 4.414-4.415a4.416 4.416 0 00-4.414-4.413z"/></g><path d="M176.552 291.311v4.414c0 2.434-1.98 4.414-4.414 4.414s-4.414-1.98-4.414-4.414v-4.414zm8.827-8.827h-26.483v13.241c0 7.302 5.94 13.241 13.241 13.241 7.302 0 13.241-5.94 13.241-13.241v-13.241z" fill="#fab446"/><path d="M172.138 264.829a8.829 8.829 0 01-8.828-8.828v-8.828a8.829 8.829 0 0117.656 0v8.828a8.829 8.829 0 01-8.828 8.828z" fill="#ffa0d2"/><circle cx="150.07" cy="273.651" fill="#5064aa" r="13.241"/><path d="M145.66 176.551h8.828v26.483h-8.828z" fill="#fab446"/><path d="M123.586 220.691l-8.828-8.828 5.171-5.171a42.625 42.625 0 0160.28 0l5.171 5.171-8.828 8.828z" fill="#c8414b"/><circle cx="150.07" cy="211.861" fill="#ffd250" r="4.414"/><circle cx="132.41" cy="211.861" fill="#ffd250" r="4.414"/><circle cx="167.72" cy="211.861" fill="#ffd250" r="4.414"/><path d="M70.62 256.001h44.14v8.828H70.62zM70.621 291.311l26.482-8.827v-8.828l-26.482 8.828z" fill="#c8414b"/></svg>