<svg viewBox="0 0 512.001 512.001" xmlns="http://www.w3.org/2000/svg"><path d="M503.172 423.725H8.828A8.829 8.829 0 010 414.897V97.104a8.829 8.829 0 018.828-8.828h494.345a8.829 8.829 0 018.828 8.828v317.793a8.83 8.83 0 01-8.829 8.828z" fill="#ff4b55"/><path d="M353.103 220.691H291.31v-61.793a8.829 8.829 0 00-8.828-8.828h-52.966a8.829 8.829 0 00-8.828 8.828v61.793h-61.793a8.829 8.829 0 00-8.828 8.828v52.966a8.829 8.829 0 008.828 8.828h61.793v61.793a8.829 8.829 0 008.828 8.828h52.966a8.829 8.829 0 008.828-8.828v-61.795h61.793a8.829 8.829 0 008.828-8.828v-52.966c0-4.874-3.953-8.826-8.828-8.826z" fill="#f5f5f5"/></svg>