<svg viewBox="0 0 512.003 512.003" xmlns="http://www.w3.org/2000/svg"><path d="M503.172 423.726H8.828A8.829 8.829 0 010 414.898V97.105a8.829 8.829 0 018.828-8.828h494.345a8.829 8.829 0 018.828 8.828v317.793a8.83 8.83 0 01-8.829 8.828z" fill="#ffe15a"/><path d="M26.483 114.762h485.52v282.48H26.483z" fill="#41479b"/><path d="M26.483 114.761l242.758 141.241-121.378-141.24zM269.241 256.002V114.761l121.381.001zM512 114.761L269.241 256.002 512 185.381zM269.241 256.002H512v70.621zM269.241 256.002l-242.756-70.62v70.621zM26.485 326.624l242.756-70.622L26.485 397.244z" fill="#ff4b55"/><path d="M273.303 230.167l31.654-73.004-23.372 76.061z" fill="#ffe15a"/><path d="M314.986 272.147c.69-1.953 1.292-3.944 1.729-6.002l52.757 4.679-51.897-10.491c.127-1.429.218-2.869.218-4.331 0-1.408-.093-2.793-.211-4.17l51.474-10.84-52.29 5.066c-.458-2.199-1.109-4.321-1.853-6.4l46.726-24.428-49.02 19.054a48.67 48.67 0 00-4.345-7.069l38.744-35.724-42.489 31.232c-4.505-4.776-9.943-8.655-16.056-11.296l15.432-50.217-20.919 48.246a48.422 48.422 0 00-13.743-2.006 48.49 48.49 0 00-13.849 2.031l-20.931-48.273 15.447 50.266c-6.092 2.649-11.512 6.527-16 11.298l-42.56-31.284 38.815 35.789a48.525 48.525 0 00-4.317 7.043l-49.119-19.093 46.826 24.481c-.736 2.067-1.383 4.174-1.837 6.358l-52.406-5.077 51.59 10.866c-.117 1.368-.21 2.745-.21 4.145 0 1.454.092 2.886.217 4.307l-52.013 10.514 52.872-4.69c.435 2.044 1.031 4.022 1.714 5.962l-46.628 23.827 48.881-18.478c7.924 16.046 24.405 27.111 43.51 27.111 19.091 0 35.561-11.046 43.492-27.071l48.781 18.44z" fill="#ffe15a"/><path d="M512 397.243L274.791 259.231a11.033 11.033 0 00-11.098 0L26.483 397.243z" fill="#f5f5f5"/><circle cx="269.29" cy="325.262" fill="#ff4b55" r="1.837"/><path d="M266.482 263.726c5.511 6.813-3.406 10.22-2.304 16.733 0 0-1.803-2.706-1.102-6.513s-1.704-5.01-1.704-5.01 1.102 4.308-1.603 6.713c-2.706 2.404-1.903 7.915-1.903 7.915s-3.406-2.304-2.706-5.811c0 0-4.609 4.008-.501 10.721 0 0-2.706-.201-3.708-1.903 0 0-2.399 7.063 7.267 12.449s11.069-7.439 11.069-7.439l6.913 8.617s8.282-.234 12.224-9.118l-4.743.868c.3-2.505 6.646-3.172 4.141-10.687 0 0-.201 1.603-2.004 2.706 0 0 .067-5.176-3.673-8.584 0 0-.134 2.772-1.336 3.774 0 0 .401-3.574-1.803-6.379-2.106-2.68-2.304-5.143-2.304-5.143s-2.505 4.609-1.603 6.913c0 0-2.089-.508-2.304-3.306-.468-6.08-6.313-7.516-6.313-7.516z" fill="#ff4b55"/><ellipse cx="269.29" cy="318.402" fill="#ffe15a" rx="15.637" ry="6.702"/><ellipse cx="269.29" cy="316.942" fill="#ff4b55" rx="13.522" ry="6.06"/><path d="M272.118 317.731h-5.67c-.1 1.768.701 4.332 2.83 5.262v.006l.002-.002.006.002v-.006c2.131-.93 2.932-3.494 2.832-5.262z" fill="#ff82aa"/><path d="M276.626 316.64l-5.143 1.207c.313 1.742 1.625 4.069 3.771 4.521l.001.006.003-.004.003.002v-.006c1.719-1.359 1.859-4.026 1.365-5.726z" fill="#ff82aa"/><path d="M279.287 314.794l-3.581 2.346c.906 1.521 2.817 3.335 4.672 3.231l.003.004.001-.004.004.001-.003-.004c.836-1.661-.063-4.138-1.096-5.574z" fill="#ff82aa"/><path d="M279.182 311.169l-1.409 3.556c1.91 2.43 5.041 2.179 5.041 2.179.126-1.978-2.343-4.524-3.632-5.735zM261.895 316.64l5.143 1.207c-.313 1.742-1.625 4.069-3.77 4.521l-.001.006-.003-.004-.004.002.001-.006c-1.721-1.359-1.862-4.026-1.366-5.726z" fill="#ff82aa"/><path d="M259.233 314.794l3.581 2.346c-.906 1.521-2.817 3.335-4.672 3.231l-.003.004-.001-.004-.004.001.003-.004c-.836-1.661.063-4.138 1.096-5.574z" fill="#ff82aa"/><path d="M259.338 311.169l1.409 3.556c-1.91 2.43-5.041 2.179-5.041 2.179-.125-1.978 2.343-4.524 3.632-5.735z" fill="#ff82aa"/><ellipse cx="269.29" cy="313.272" fill="#ffe15a" rx="10.975" ry="4.918"/><ellipse cx="269.29" cy="313.272" fill="#ff4b55" rx="8.166" ry="3.196"/><path d="M270.112 368.526c-5.337.454-10.026-3.514-10.482-8.844-.234-2.664 1.752-5.016 4.42-5.242a4.844 4.844 0 015.238 4.42 4.854 4.854 0 005.24 4.421 4.847 4.847 0 004.419-5.244c.455 5.339-3.501 10.033-8.835 10.489" fill="#41479b"/><path d="M259.63 359.682c-.234-2.664 1.752-5.016 4.42-5.242a4.844 4.844 0 015.238 4.42 4.854 4.854 0 005.24 4.421 4.847 4.847 0 004.419-5.244c-.447-5.343-5.141-9.295-10.478-8.842-5.334.457-9.293 5.15-8.839 10.487" fill="#ff9b55"/><path d="M269.288 342.988c-8.765 0-15.87 7.105-15.87 15.87s7.105 15.87 15.87 15.87 15.87-7.106 15.87-15.87c0-8.765-7.106-15.87-15.87-15.87zm0 28.435c-6.938 0-12.564-5.625-12.564-12.564s5.625-12.564 12.564-12.564 12.564 5.625 12.564 12.564-5.626 12.564-12.564 12.564z" fill="#ffe15a"/><path d="M269.288 346.295c-6.938 0-12.564 5.625-12.564 12.564s5.625 12.564 12.564 12.564 12.564-5.625 12.564-12.564-5.626-12.564-12.564-12.564zm0 22.187c-5.315 0-9.624-4.309-9.624-9.624s4.309-9.624 9.624-9.624 9.624 4.309 9.624 9.624c-.001 5.316-4.309 9.624-9.624 9.624z" fill="#ff4b55"/><circle cx="264.41" cy="358.852" fill="#ff9b55" r="1.212"/><circle cx="274.11" cy="358.852" fill="#41479b" r="1.212"/><circle cx="269.29" cy="339.092" fill="#ff4b55" r="1.469"/><circle cx="270.75" cy="341.652" fill="#ff4b55" r="1.469"/><circle cx="267.82" cy="341.652" fill="#ff4b55" r="1.469"/><circle cx="269.29" cy="378.672" fill="#ff4b55" r="1.469"/><circle cx="267.82" cy="376.112" fill="#ff4b55" r="1.469"/><circle cx="270.75" cy="376.112" fill="#ff4b55" r="1.469"/><path d="M266.602 297.517c-1.009-5.629-3.703-9.855-6.018-9.44s-3.374 5.314-2.365 10.942c.728 4.062 2.339 7.327 4.046 8.711-.705 1.209-1.134 3.053-1.143 5.337 1.268.108 2.574.102 3.916-.138 1.341-.241 2.569-.689 3.72-1.23-.802-2.138-1.845-3.719-2.926-4.608 1.12-1.891 1.498-5.512.77-9.574z" fill="#ff9b55"/><path d="M271.942 297.517c1.009-5.629 3.703-9.855 6.018-9.44s3.373 5.314 2.365 10.942c-.728 4.062-2.339 7.327-4.046 8.711.705 1.209 1.134 3.053 1.143 5.337-1.268.108-2.574.102-3.916-.138-1.342-.239-2.569-.689-3.72-1.23.802-2.138 1.845-3.719 2.926-4.608-1.12-1.891-1.499-5.512-.77-9.574z" fill="#41479b"/><path d="M273.592 297.387c0-6.2-1.907-11.227-4.258-11.227s-4.258 5.026-4.258 11.227c0 4.474 1.011 8.267 2.446 10.071-.907 1.156-1.655 3.041-2.067 5.478 1.229.359 2.516.601 3.879.601s2.65-.243 3.879-.601c-.413-2.436-1.16-4.322-2.067-5.478 1.437-1.804 2.446-5.598 2.446-10.071z" fill="#f5f5f5"/><path d="M269.288 309.112c-2.774 0-5.319-.258-6.974-.715a1.057 1.057 0 01-.748-1.305c.158-.566.757-.94 1.305-.74 2.927.781 9.906.781 12.833 0 .569-.207 1.152.174 1.305.74a1.057 1.057 0 01-.748 1.305c-1.655.458-4.199.715-6.973.715zM260.17 325.947c1.152-.15 2.605-.501 2.706-2.254 0 0-2.605-.25-2.605-.05s-.101 2.304-.101 2.304z" fill="#ffe15a"/><path d="M234.019 319.435c1.302.367 2.572.634 2.973 2.238 0 0 1.336-2.671-.534-4.275-.341-.293-2.439 2.037-2.439 2.037zM239.563 314.959c1.302.367 2.572.634 2.973 2.238 0 0 1.336-2.671-.534-4.275-.341-.292-2.439 2.037-2.439 2.037z" fill="#ff4b55"/><path d="M234.42 324.244c-.801-.201-2.205-2.004-.401-4.809s-6.112 1.402-6.412 3.708c-.3 2.304-.601 6.412 1.203 5.311 1.803-1.104 5.61-4.21 5.61-4.21z" fill="#ffe15a"/><path d="M243.004 324.545c.267-1.47 0-2.472 1.87-3.807s2.137-2.071 2.137-2.94c0 0-1.018 1.086-2.823 1.536-1.103.276-2.053 1.069-2.053 1.069s-.468-1.67 1.203-2.605c0 0-2.94 0-3.406 2.671-.468 2.671 1.069 3.073-1.135 3.34-2.205.267-7.348-.801-9.151 3.273-1.803 4.075 3.673 1.135 5.143.601s6.145.601 6.88-.401c.734-1 1.335-2.737 1.335-2.737z" fill="#ff4b55"/><path d="M223.75 331.859l7.915-13.025s7.865-3.039 7.932-3.441c.067-.401 2.605-3.673 2.605-4.141s-.267-2.739-1.269-3.139c-1.002-.401-4.192.946-5.578 1.3s-3.573-2.234-3.573-2.234-12.758 2.404-13.694 3.941c-.935 1.536-5.344 12.557-5.544 13.694-.201 1.135 0 8.951.267 8.818.267-.137 10.939-1.773 10.939-1.773z" fill="#fff5e6"/><path d="M242.669 309.315c-1.203-1.737-3.406-1.737-4.342-.333-.935 1.402-2.938 1.402-3.406 3.139-.37 1.372 1.87 3.874 3.207 3.406s3.807-2.004 3.807-2.004 1.937-2.472.734-4.208zm-3.658 3.536c-.548.701-1.924-.171-1.933-.949s1.14-.821 1.711-.417c.372.263.67.795.222 1.366zm2.059-1.731c-.802.386-1.652-1.003-1.316-1.705.335-.702 1.385-.234 1.719.381.219.401.251 1.01-.403 1.324z" fill="#ff4b55"/><path d="M245.202 359.845c1.331.134 3.093-.049 3.459-3.061.42-3.452 1.464-4.658 3.193-3.859s1.301 2.178 1.301 2.178 1.903 5.01.902 7.013c-1.002 2.004-3.306 4.408-5.01 4.809s-5.21-1.903-5.21-1.903z" fill="#fff5e6"/><path d="M235.588 348.191c1.135-.534 15.162-10.286 16.833-13.961 1.67-3.673.735-6.346 2.94-6.479 2.205-.134 5.945-.267 5.611-3.006s-4.008-1.002-5.01-1.536-4.141-2.004-4.743.134 0 4.075-.868 5.143c-.868 1.069-4.743 2.94-5.41 2.805-.668-.134-2.094-.308-3.185.381s-1.692 1.623-1.692 1.623-4.108.167-4.693.718-2.788 3.49-2.788 3.49z" fill="#ffe6d7"/><path d="M237.058 345.986s2.671-1.002 4.576-4.71c1.903-3.708 3.807-2.205 6.613-4.209 2.805-2.004 1.002-5.01.201-6.212-.801-1.203-.25-4.308 2.505-4.209 1.813.066 7.615 5.711 5.01 11.322 0 0-.401-1.002-1.402-2.205 0 0 1.503 3.708-2.004 7.815 0 0 .1-2.104-1.002-3.507 0 0-.1 5.211-4.108 8.516 0 0 .501-3.406-.1-4.809 0 0-.601 4.509-6.513 8.617 0 0 .902-1.603.702-4.209l-5.01 2.605z" fill="#5aa587"/><path d="M198.951 363.119s-1.803 5.511 3.106 7.114 7.615-.501 9.418 0 1.402 3.708-1.102 6.412c-2.505 2.706-5.01 3.006-7.816 1.002-2.805-2.004-3.006-3.807-5.911-3.106-2.905.702-6.913-2.104-6.913-2.104s2.605-11.322 2.905-11.222c.301.101 6.313 1.904 6.313 1.904z" fill="#f5dcd2"/><path d="M173.476 349.333s3.459-3.327 16.9-7.452c13.44-4.125 20.626-5.855 20.626-5.855l10.513-3.327s4.948-.019 8.195-.941l3.249-.922s8.65 12.243 2.13 24.618l2.262 2.13s2.378.726 4.183 1.361c1.805.636.474 4.095.474 4.095l-6.92 3.193-20.227-.931s-.399-.931-7.053 1.197c-6.654 2.13-9.581-2.661-22.356-3.061-12.774-.398-11.976-14.105-11.976-14.105z" fill="#fff5e6"/><g fill="#5aa587"><path d="M230.979 301.567s2.037 2.037.935 4.207c0 0-2.271-2.337-4.141-2.872-2.879-.822-3.474.751-9.836 1.052-4.003.189-5.62 4.025-9.535 3.09-4.191-1.002-7.648.918-7.648.918s2.404-.3 4.359 1.554c1.953 1.853 5.41 1.452 5.41 1.452s-3.156 2.205-5.811 1.152-6.463.902-6.463.902c.701-.05 2.254.2 4.008 2.053s5.662 1.402 5.662 1.402c-.701.852-2.655 1.803-4.501 1.45-4.184-.802-8.65 1.065-8.65 1.065s2.662-.931 6.254 1.73c3.593 2.661 7.719 1.065 7.719 1.065 0 1.73-3.601 8.394-9.99 8.168-7.955-.281-9.971 4.341-9.971 4.341s3.193-1.065 7.319-.399c7.991 1.289 13.44-3.327 13.44-3.327s-1.331 6.254-6.786 5.988-12.375 5.323-12.375 5.323 6.147-1.108 14.086-1.205c2.611-.032 4.734-1.062 6.549-2.286 4.774-3.224 9.182-3.224 9.182-3.224-5.21 1.203-7.915 6.913-7.915 6.913s4.008-3.507 9.818-3.507c5.812 0 7.615-6.813 7.615-6.813-5.41.099-6.212-4.309-6.212-4.309s-1.603.501-3.106 2.305c-.951 1.141-2.558 1.528-3.658 1.682-.401-3.513 2.252-6.721 2.252-6.721s-3.593-5.455 1.065-11.311c4.658-5.855 15.303-3.992 15.303-3.992 1.1-4.908-3.041-7.98-4.378-7.846z"/><path d="M220.159 320.938c1.737-.267 9.82-2.94 9.685-6.546-.134-3.607-4.943-2.338-4.675-.401.267 1.937 2.004 1.536 2.004 1.536s-.168.873-3.741 1.603c-2.939.601-3.273 3.808-3.273 3.808zM241.534 358.945s5.01-.801 4.809 2.805c-.201 3.607-3.073 7.414-9.017 9.085 0 0 2.205-1.903 1.704-3.006-.501-1.102-3.006-1.402-4.308.501s-3.507 2.706-5.41 2.404c0 0 3.406-2.505 1.002-3.406-2.166-.812-1.336 2.706-6.513 3.306 0 0 3.807-3.006 1.603-3.807s-3.406 4.408-7.315 4.008c0 0 3.273-3.273 1.503-3.807-2.788-.842-3.507 4.008-8.516 1.903 0 0 2.505-1.102.501-3.807-2.004-2.706.801-6.112 2.205-7.514s2.404-2.304 2.004-3.708c0 0 3.574 2.238 1.77 6.178-1.694 3.701 5.162 1.657 10.487 1.203 5.478-.468 8.727 2.674 12.224 1.603 3.271-1.003 1.267-3.941 1.267-3.941zM144.6 360.644s6.572 3.031 10.298-.03 4.738.562 9.13-2.1c4.392-2.661 4.125-1.197 7.585-1.197 3.459 0 5.988-5.589 3.859-9.448 0 0 7.226-2.802 5.743-8.596-1.102-4.308-6.542-2.98-6.542-2.98s-5.74-3.608-9.714 1.065c-3.247 3.82-1.464 6.388-6.92 7.053-5.455.665-6.254 6.254-12.109 5.589 0 0 3.992 5.19 10.113 1.863.001-.001-.142 5.011-11.443 8.781zM202.759 370.434s5.611 5.01-5.41 8.015c0 0 .702-.902 1.503-2.505 0 0-3.406 2.505-7.816 2.304 0 0 1.302-1.002 1.603-2.205 0 0-4.008 1.102-6.913-.801 0 0 3.507-.201 5.711-3.507 0 0 1.002 2.004 3.106 1.002s3.31.439 5.21.501c1.552.051 2.905-.75 3.006-2.804zM199.987 339.507s-4.008 1.87-2.137 5.41c1.247 2.36 5.153 2.927 6.679.735 1.302-1.87.269-3.686-1.102-3.942-1.436-.267-2.304.334-2.973 1.536 0 .001-2.472-.933-.467-3.739z"/><path d="M217.988 345.736s8.703.331 8.266 6.362c-.192 2.654-3.782 4.507-6.046 3.115-1.932-1.187-1.619-3.165-.611-4.042 1.11-.966 2.208-.618 3.298.214 0-.001.553-3.295-4.907-5.649zM235.372 334.012s4.697-3.151 6.527.6c.804 1.651-.696 4-2.53 3.954-1.565-.04-2.062-1.329-1.766-2.201.328-.961 1.105-1.133 2.042-1.015.001.001.285-2.44-4.273-1.338zM241.756 331.671s4.333-2.908 6.02.554c.742 1.523-.642 3.69-2.334 3.647-1.443-.036-1.902-1.225-1.628-2.03.302-.886 1.018-1.046 1.885-.937-.001.001.262-2.25-3.943-1.234z"/><path d="M225.525 350.891s7.489.285 7.113 5.475c-.166 2.283-3.254 3.878-5.203 2.68-1.663-1.022-1.752-2.897-1.031-3.791 1.252-1.553 2.755-.852 2.755-.852s1.064-1.486-3.634-3.512z"/><path d="M231.014 355.003s8.266-.801 7.652 4.778c-.16 1.455-2.081 2.481-3.328 1.715-1.064-.653-1.121-1.853-.659-2.425.801-.993 1.762-.545 1.762-.545s-.518-2.47-5.427-3.523z"/></g><path d="M178.001 381.537s1.131 2.296 1.863 4.524c.627 1.907 3.859 3.193 5.589 1.996s4.651-4.777 3.454-5.575c-1.197-.799-6.381-.147-7.179-2.942-.799-2.795-.532-4.658-.532-4.658s6.935 2.063 10.242-3.147 2.834-10.297 4.13-12.822c1.013-1.974 2.795-2.927 2.795-2.927-2.037-8.066-26.88-13.839-23.997 7.097l-3.903 8.872z" fill="#ffe6d7"/><path d="M169.193 381.188c1.704 1.102 7.949 4.275 11.823 1.87 3.168-1.966 3.207-4.209 1.203-4.71s-3.106.902-4.209 0c-1.102-.901-7.315-6.012-5.01-7.615s3.552-2.9 3.507-5.711c-.033-2.071-1.837-4.075-3.975-4.275-2.665-.249-4.743.868-7.548.868l3.273 1.67c-2.104 1.002-2.271 3.841-4.776 4.342 0 0 1.704 1.937 3.841 1.336 0 0-.735 2.004-2.739 2.271 0 0 1.87 2.137 3.607 2.739 0 0-1.135.801-2.905.468 0 0 2.772 4.075 6.913 5.11z" fill="#5aa587"/><path d="M181.263 373.558s1.113-.193 1.208-1.548c.055-.781-.725-1.794-2.052-1.718-1.555.089-2.61 2.154-1.865 3.523 1.907 3.501 9.007 2.095 9.875.826.001 0-5.676.267-7.166-1.083z" fill="#5aa587"/><path d="M184.589 390.206c.309-.434.559-1.611-.042-2.338 0 0 .326-1.678 1.603-1.077 0 0 .543 1.344.108 2.28-.433.934-1.669 1.135-1.669 1.135z" fill="#ffe15a"/><path d="M187.196 389.264c-.022-1.21-.294-1.873-1.27-1.973 0 0-.25-1.753 1.203-1.753 0 0 1.077.951 1.087 1.983.009 1.03-1.02 1.743-1.02 1.743z" fill="#ffe15a"/><path d="M188.807 388.09c-.238-1.187-.463-2.013-1.55-2.093 0 0-.578-1.436 1.024-1.636 0 0 1.022.82 1.217 1.832.194 1.012-.691 1.897-.691 1.897z" fill="#ffe15a"/><path d="M190.418 386.25c-.493-1.106-.984-1.548-2.062-1.388 0 0-.927-1.302.351-2.004 0 0 1.556.444 1.967 1.389.412.945-.256 2.003-.256 2.003zM209.438 379.473c.227-.482.265-1.685-.456-2.293 0 0 .022-1.709 1.386-1.345 0 0 .772 1.227.511 2.223-.261.998-1.441 1.415-1.441 1.415z" fill="#ffe15a"/><path d="M211.836 378.084c-.236-1.187-.621-1.791-1.6-1.716 0 0-.557-1.681.872-1.939 0 0 1.228.745 1.421 1.758s-.693 1.897-.693 1.897z" fill="#ffe15a"/><path d="M213.212 376.644c-.445-1.126-.813-1.899-1.898-1.785 0 0-.824-1.311.717-1.792 0 0 1.151.626 1.523 1.587.372.962-.342 1.99-.342 1.99z" fill="#ffe15a"/><path d="M214.472 374.545c-.682-1.001-1.244-1.349-2.276-1 0 0-1.143-1.118-.011-2.035 0 0 1.61.161 2.184 1.017.573.859.103 2.018.103 2.018z" fill="#ffe15a"/><path d="M242.735 312.855c.217 1.085-.334 2.271-2.938 3.406s-2.538.668-4.275 2.872c-1.737 2.205-1.937 2.271-4.075 2.671-2.137.401-3.139 7.013-.601 6.012 2.538-1.002 2.872-3.073 5.677-2.404s4.275 1.603 6.479-.868c0 0 2.137 2.872-1.87 4.075-4.008 1.203-6.195 1.295-8.173 2.217-1.98.922-9 3.177-9.461-3.386-.134-1.903 1.269-2.638 2.071-4.041.801-1.402 1.603-2.338 3.54-3.874s.735-2.805 3.874-3.273 5.745-.401 6.679-2.671c.936-2.272 2.806-2.072 3.073-.736z" fill="#ffe6d7"/><path d="M190.134 344.7s-.602-2.393 2.189-3.407c-.655.199-1.258.377-1.946.589-.587.18-1.053.349-1.602.526-.214.289-.502.442-.647.847-.849 2.378 1.251 5.463 3.756 5.127 2.136-.288 2.742-2.168 2.044-3.287-.733-1.172-2.342-1.447-3.794-.395zM190.998 370.108c-3.029.678-4.392-.492-4.392-.492s1.113-.193 1.208-1.548c.055-.781-.725-1.794-2.052-1.718-1.555.089-2.61 2.154-1.864 3.523 1.641 3.011 6.302 2.3 8.356.165.108-.22.22-.438.317-.657-.449.285-1.023.605-1.573.727zM194.059 365.046c.077-.343.186-.689.252-1.016-3.56 1.44-4.598-.373-4.598-.373s1.113-.193 1.208-1.548c.055-.781-.725-1.794-2.052-1.717-1.555.089-2.61 2.154-1.864 3.523 1.74 3.191 4.839 2.302 7.054 1.131zM202.068 366.74c-2.069 1.854-3.65 1.752-3.65 1.752s.826-.769.167-1.956c-.381-.685-1.587-1.107-2.657-.319-1.255.924-1.011 3.23.361 3.97 3.378 1.821 5.57-.995 6.742-3.262-.32-.044-.643-.119-.963-.185z" fill="#5aa587"/><path d="M255.392 364.947c-.149-.738-.922-2.143-1.874-2.24 0 0-1.122-1.97.153-2.686 0 0 1.402.759 1.869 2.114.468 1.356-.148 2.812-.148 2.812z" fill="#ffe15a"/><path d="M256.281 361.371c-.97-1.16-1.664-1.528-2.356-.63 0 0-1.543-1.457-.632-2.937 0 0 1.427-.169 2.249.826.822.997.739 2.741.739 2.741z" fill="#ffe15a"/><path d="M256.364 358.584c-1.088-.916-1.881-1.493-2.626-.462 0 0-1.497-.812-.651-2.642 0 0 1.289-.242 2.21.548.923.789 1.067 2.556 1.067 2.556z" fill="#ffe15a"/><path d="M255.919 355.145c-1.183-.576-1.841-.509-2.39.747 0 0-1.61-.327-1.364-2.314 0 0 1.326-1.152 2.332-.651 1.005.501 1.422 2.218 1.422 2.218z" fill="#ffe15a"/><circle cx="230.11" cy="316.592" fill="#f5f5f5" r="1.87"/><circle cx="230.11" cy="316.592" fill="#41479b" r=".678"/><circle cx="233.96" cy="309.762" fill="#f5f5f5" r="1.519"/><circle cx="233.96" cy="309.762" fill="#41479b" r=".551"/><path d="M180.014 346.487c-1.73 1.331-7.715-1.603-11.923-.201-5.439 1.813-5.394 5.309-5.394 5.309s3.39-4.206 9.034-2.136c3.123 1.145 4.939 1.205 4.939 1.205z" fill="#fff5e6"/><path d="M278.31 325.947c-1.152-.15-2.605-.501-2.706-2.254 0 0 2.605-.25 2.605-.05s.101 2.304.101 2.304z" fill="#ffe15a"/><path d="M304.46 319.435c-1.302.367-2.572.634-2.973 2.238 0 0-1.336-2.671.534-4.275.341-.293 2.439 2.037 2.439 2.037zM298.916 314.959c-1.302.367-2.572.634-2.973 2.238 0 0-1.336-2.671.534-4.275.341-.292 2.439 2.037 2.439 2.037z" fill="#ff4b55"/><path d="M304.06 324.244c.801-.201 2.205-2.004.401-4.809s6.112 1.402 6.412 3.708.601 6.412-1.203 5.311c-1.804-1.104-5.61-4.21-5.61-4.21z" fill="#ffe15a"/><path d="M295.476 324.545c-.267-1.47 0-2.472-1.87-3.807-1.87-1.336-2.137-2.071-2.137-2.94 0 0 1.018 1.086 2.823 1.536 1.103.276 2.054 1.069 2.054 1.069s.468-1.67-1.203-2.605c0 0 2.94 0 3.406 2.671.468 2.671-1.069 3.073 1.135 3.34s7.348-.801 9.151 3.273-3.673 1.135-5.143.601-6.145.601-6.88-.401c-.735-1.001-1.336-2.737-1.336-2.737z" fill="#ff4b55"/><path d="M314.73 331.859l-7.915-13.025s-7.865-3.039-7.932-3.441c-.067-.401-2.605-3.673-2.605-4.141s.267-2.739 1.269-3.139c1.002-.401 4.192.946 5.578 1.3s3.573-2.234 3.573-2.234 12.758 2.404 13.694 3.941c.935 1.536 5.344 12.557 5.544 13.694.201 1.135 0 8.951-.267 8.818-.268-.137-10.939-1.773-10.939-1.773z" fill="#fff5e6"/><path d="M296.545 313.523s2.472 1.536 3.807 2.004c1.336.467 3.576-2.036 3.207-3.406-.467-1.737-2.472-1.737-3.406-3.139-.935-1.402-3.139-1.402-4.342.333-1.204 1.736.734 4.208.734 4.208zm3.145-2.039c.572-.404 1.72-.36 1.711.417-.009.778-1.385 1.65-1.933.949-.448-.57-.15-1.102.222-1.366zm-2.685-1.689c.334-.615 1.384-1.082 1.719-.381s-.514 2.091-1.316 1.705c-.652-.313-.621-.922-.403-1.324z" fill="#ff4b55"/><path d="M293.278 359.845c-1.331.134-3.093-.049-3.459-3.061-.42-3.452-1.464-4.658-3.193-3.859s-1.301 2.178-1.301 2.178-1.903 5.01-.902 7.013c1.002 2.004 3.306 4.408 5.01 4.809s5.211-1.903 5.211-1.903z" fill="#fff5e6"/><path d="M302.89 348.191c-1.135-.534-15.162-10.286-16.833-13.961-1.671-3.674-.735-6.346-2.94-6.479-2.205-.134-5.945-.267-5.611-3.006s4.008-1.002 5.01-1.536 4.141-2.004 4.743.134c.601 2.137 0 4.075.868 5.143.868 1.069 4.743 2.94 5.41 2.805.668-.135 2.094-.308 3.185.381 1.09.689 1.692 1.623 1.692 1.623s4.108.167 4.693.718 2.788 3.49 2.788 3.49z" fill="#ffe6d7"/><path d="M301.421 345.986s-2.671-1.002-4.576-4.71c-1.903-3.708-3.807-2.205-6.613-4.209-2.805-2.004-1.002-5.01-.201-6.212.801-1.203.25-4.308-2.505-4.209-1.813.066-7.615 5.711-5.01 11.322 0 0 .401-1.002 1.402-2.205 0 0-1.503 3.708 2.004 7.815 0 0-.1-2.104 1.002-3.507 0 0 .1 5.211 4.108 8.516 0 0-.501-3.406.1-4.809 0 0 .601 4.509 6.513 8.617 0 0-.901-1.603-.702-4.209l5.01 2.605z" fill="#5aa587"/><path d="M339.529 363.119s1.803 5.511-3.106 7.114-7.615-.501-9.418 0-1.402 3.708 1.102 6.412c2.505 2.706 5.01 3.006 7.816 1.002 2.805-2.004 3.006-3.807 5.911-3.106 2.905.702 6.913-2.104 6.913-2.104s-2.605-11.322-2.905-11.222c-.302.101-6.313 1.904-6.313 1.904z" fill="#f5dcd2"/><path d="M365.003 349.333s-3.459-3.327-16.9-7.452c-13.44-4.125-20.626-5.855-20.626-5.855l-10.513-3.327s-4.948-.019-8.195-.941l-3.249-.922s-8.65 12.243-2.13 24.618l-2.262 2.13s-2.378.726-4.183 1.361c-1.805.636-.474 4.095-.474 4.095l6.92 3.193 20.227-.931s.399-.931 7.053 1.197c6.654 2.129 9.581-2.661 22.356-3.061 12.774-.398 11.976-14.105 11.976-14.105z" fill="#fff5e6"/><path d="M307.499 301.567s-2.037 2.037-.935 4.207c0 0 2.271-2.337 4.141-2.872 2.879-.822 3.474.751 9.836 1.052 4.003.189 5.62 4.025 9.535 3.09 4.191-1.002 7.648.918 7.648.918s-2.404-.3-4.359 1.554c-1.953 1.853-5.41 1.452-5.41 1.452s3.156 2.205 5.811 1.152c2.655-1.052 6.463.902 6.463.902-.701-.05-2.254.2-4.008 2.053-1.753 1.854-5.662 1.402-5.662 1.402.701.852 2.655 1.803 4.501 1.45 4.184-.802 8.65 1.065 8.65 1.065s-2.661-.931-6.254 1.73-7.719 1.065-7.719 1.065c0 1.73 3.601 8.394 9.99 8.168 7.955-.281 9.971 4.341 9.971 4.341s-3.193-1.065-7.319-.399c-7.991 1.289-13.44-3.327-13.44-3.327s1.331 6.254 6.786 5.988 12.375 5.323 12.375 5.323-6.147-1.108-14.086-1.205c-2.611-.032-4.734-1.062-6.549-2.286-4.773-3.224-9.182-3.224-9.182-3.224 5.21 1.203 7.915 6.913 7.915 6.913s-4.008-3.507-9.819-3.507c-5.812 0-7.615-6.813-7.615-6.813 5.41.099 6.212-4.309 6.212-4.309s1.603.501 3.106 2.305c.951 1.141 2.558 1.528 3.658 1.682.401-3.513-2.252-6.721-2.252-6.721s3.593-5.455-1.065-11.311-15.304-3.992-15.304-3.992c-1.096-4.908 3.045-7.98 4.38-7.846z" fill="#5aa587"/><path d="M318.321 320.938c-1.737-.267-9.82-2.94-9.685-6.546s4.943-2.338 4.675-.401c-.267 1.937-2.004 1.536-2.004 1.536s.168.873 3.741 1.603c2.938.601 3.273 3.808 3.273 3.808zM296.946 358.945s-5.01-.801-4.809 2.805c.201 3.607 3.073 7.414 9.017 9.085 0 0-2.205-1.903-1.704-3.006.501-1.102 3.006-1.402 4.308.501s3.507 2.706 5.41 2.404c0 0-3.406-2.505-1.002-3.406 2.166-.812 1.336 2.706 6.513 3.306 0 0-3.807-3.006-1.603-3.807 2.205-.801 3.406 4.408 7.315 4.008 0 0-3.273-3.273-1.503-3.807 2.788-.842 3.507 4.008 8.516 1.903 0 0-2.505-1.102-.501-3.807 2.004-2.706-.801-6.112-2.205-7.514-1.402-1.402-2.404-2.304-2.004-3.708 0 0-3.574 2.238-1.77 6.178 1.694 3.701-5.162 1.657-10.487 1.203-5.478-.468-8.727 2.674-12.224 1.603-3.271-1.003-1.267-3.941-1.267-3.941zM393.879 360.644s-6.572 3.031-10.298-.03-4.738.562-9.13-2.1c-4.392-2.661-4.125-1.197-7.585-1.197-3.459 0-5.988-5.589-3.859-9.448 0 0-7.227-2.802-5.743-8.596 1.102-4.308 6.542-2.98 6.542-2.98s5.74-3.608 9.714 1.065c3.247 3.82 1.464 6.388 6.92 7.053 5.455.665 6.254 6.254 12.109 5.589 0 0-3.992 5.19-10.113 1.863-.001-.001.143 5.011 11.443 8.781zM335.721 370.434s-5.611 5.01 5.41 8.015c0 0-.702-.902-1.503-2.505 0 0 3.406 2.505 7.816 2.304 0 0-1.302-1.002-1.603-2.205 0 0 4.008 1.102 6.913-.801 0 0-3.507-.201-5.711-3.507 0 0-1.002 2.004-3.106 1.002s-3.31.439-5.211.501c-1.552.051-2.905-.75-3.005-2.804zM338.493 339.507s4.008 1.87 2.137 5.41c-1.247 2.36-5.153 2.927-6.679.735-1.302-1.87-.269-3.686 1.102-3.942 1.437-.267 2.304.334 2.973 1.536-.001.001 2.471-.933.467-3.739z" fill="#5aa587"/><path d="M320.491 345.736s-8.703.331-8.266 6.362c.192 2.654 3.781 4.507 6.046 3.115 1.932-1.187 1.619-3.165.611-4.042-1.11-.966-2.208-.618-3.298.214 0-.001-.553-3.295 4.907-5.649zM303.107 334.012s-4.697-3.151-6.527.6c-.804 1.651.696 4 2.53 3.954 1.565-.04 2.062-1.329 1.766-2.201-.328-.961-1.105-1.133-2.042-1.015 0 .001-.285-2.44 4.273-1.338zM296.724 331.671s-4.333-2.908-6.02.554c-.742 1.523.642 3.69 2.334 3.647 1.443-.036 1.902-1.225 1.628-2.03-.302-.886-1.018-1.046-1.885-.937 0 .001-.262-2.25 3.943-1.234z" fill="#5aa587"/><path d="M312.954 350.891s-7.489.285-7.113 5.475c.166 2.283 3.254 3.878 5.203 2.68 1.663-1.022 1.752-2.897 1.031-3.791-1.252-1.553-2.755-.852-2.755-.852s-1.064-1.486 3.634-3.512z" fill="#5aa587"/><path d="M307.466 355.003s-8.266-.801-7.652 4.778c.16 1.455 2.081 2.481 3.328 1.715 1.064-.653 1.121-1.853.659-2.425-.801-.993-1.762-.545-1.762-.545s.518-2.47 5.427-3.523z" fill="#5aa587"/><path d="M360.479 381.537s-1.131 2.296-1.863 4.524c-.627 1.907-3.859 3.193-5.589 1.996s-4.651-4.777-3.454-5.575 6.381-.147 7.18-2.942.532-4.658.532-4.658-6.935 2.063-10.242-3.147c-3.306-5.211-2.834-10.297-4.13-12.822-1.013-1.974-2.795-2.927-2.795-2.927 2.037-8.066 26.88-13.839 23.997 7.097l3.903 8.872z" fill="#ffe6d7"/><path d="M369.287 381.188c-1.704 1.102-7.949 4.275-11.823 1.87-3.168-1.966-3.207-4.209-1.203-4.71s3.106.902 4.209 0c1.102-.901 7.315-6.012 5.01-7.615s-3.552-2.9-3.507-5.711c.033-2.071 1.837-4.075 3.975-4.275 2.665-.249 4.743.868 7.548.868l-3.273 1.67c2.104 1.002 2.271 3.841 4.776 4.342 0 0-1.704 1.937-3.841 1.336 0 0 .735 2.004 2.739 2.271 0 0-1.87 2.137-3.607 2.739 0 0 1.135.801 2.905.468 0 0-2.772 4.075-6.913 5.11z" fill="#5aa587"/><path d="M357.216 373.558s-1.113-.193-1.208-1.548c-.055-.781.725-1.794 2.052-1.718 1.555.089 2.61 2.154 1.865 3.523-1.907 3.501-9.007 2.095-9.875.826-.001 0 5.676.267 7.166-1.083z" fill="#5aa587"/><path d="M353.889 390.206c-.309-.434-.559-1.611.042-2.338 0 0-.326-1.678-1.603-1.077 0 0-.543 1.344-.108 2.28.433.934 1.669 1.135 1.669 1.135z" fill="#ffe15a"/><path d="M351.283 389.264c.022-1.21.293-1.873 1.27-1.973 0 0 .25-1.753-1.203-1.753 0 0-1.077.951-1.087 1.983-.009 1.03 1.02 1.743 1.02 1.743z" fill="#ffe15a"/><path d="M349.673 388.09c.238-1.187.463-2.013 1.55-2.093 0 0 .578-1.436-1.024-1.636 0 0-1.022.82-1.217 1.832-.195 1.011.691 1.897.691 1.897z" fill="#ffe15a"/><path d="M348.062 386.25c.493-1.106.984-1.548 2.062-1.388 0 0 .927-1.302-.351-2.004 0 0-1.556.444-1.969 1.389-.411.945.258 2.003.258 2.003zM329.042 379.473c-.227-.482-.265-1.685.456-2.293 0 0-.022-1.709-1.387-1.345 0 0-.772 1.227-.512 2.223.262.998 1.443 1.415 1.443 1.415z" fill="#ffe15a"/><path d="M326.644 378.084c.236-1.187.621-1.791 1.6-1.716 0 0 .557-1.681-.872-1.939 0 0-1.228.745-1.421 1.758-.194 1.013.693 1.897.693 1.897z" fill="#ffe15a"/><path d="M325.267 376.644c.445-1.126.813-1.899 1.898-1.785 0 0 .824-1.311-.717-1.792 0 0-1.151.626-1.523 1.587-.372.962.342 1.99.342 1.99z" fill="#ffe15a"/><path d="M324.008 374.545c.682-1.001 1.244-1.349 2.276-1 0 0 1.143-1.118.011-2.035 0 0-1.61.161-2.184 1.017-.573.859-.103 2.018-.103 2.018z" fill="#ffe15a"/><path d="M295.743 312.855c-.217 1.085.334 2.271 2.94 3.406 2.605 1.135 2.538.668 4.275 2.872 1.737 2.205 1.937 2.271 4.075 2.671 2.137.401 3.139 7.013.601 6.012-2.538-1.002-2.872-3.073-5.677-2.404s-4.275 1.603-6.479-.868c0 0-2.137 2.872 1.87 4.075 4.008 1.203 6.195 1.295 8.173 2.217 1.98.922 9 3.177 9.461-3.386.134-1.903-1.269-2.638-2.071-4.041-.801-1.402-1.603-2.338-3.54-3.874-1.938-1.536-.735-2.805-3.874-3.273s-5.745-.401-6.679-2.671c-.938-2.272-2.808-2.072-3.075-.736z" fill="#ffe6d7"/><path d="M348.345 344.7s.602-2.393-2.189-3.407c.655.199 1.258.377 1.946.589.587.18 1.053.349 1.602.526.214.289.502.442.647.847.849 2.378-1.251 5.463-3.756 5.127-2.136-.288-2.742-2.168-2.044-3.287.732-1.172 2.341-1.447 3.794-.395zM347.48 370.108c3.029.678 4.392-.492 4.392-.492s-1.113-.193-1.208-1.548c-.055-.781.725-1.794 2.052-1.718 1.555.089 2.61 2.154 1.864 3.523-1.641 3.011-6.302 2.3-8.356.165-.108-.22-.22-.438-.317-.657.45.285 1.025.605 1.573.727zM344.42 365.046c-.077-.343-.186-.689-.252-1.016 3.56 1.44 4.598-.373 4.598-.373s-1.113-.193-1.208-1.548c-.055-.781.725-1.794 2.052-1.717 1.555.089 2.61 2.154 1.864 3.523-1.739 3.191-4.84 2.302-7.054 1.131zM336.412 366.74c2.069 1.854 3.65 1.752 3.65 1.752s-.826-.769-.167-1.956c.381-.685 1.587-1.107 2.657-.319 1.255.924 1.011 3.23-.361 3.97-3.378 1.821-5.57-.995-6.742-3.262.318-.044.641-.119.963-.185z" fill="#5aa587"/><path d="M283.087 364.947c.149-.738.922-2.143 1.874-2.24 0 0 1.122-1.97-.153-2.686 0 0-1.402.759-1.869 2.114-.468 1.356.148 2.812.148 2.812z" fill="#ffe15a"/><path d="M282.198 361.371c.97-1.16 1.664-1.528 2.356-.63 0 0 1.543-1.457.632-2.937 0 0-1.427-.169-2.249.826-.822.996-.739 2.741-.739 2.741z" fill="#ffe15a"/><path d="M282.115 358.584c1.088-.916 1.881-1.493 2.626-.462 0 0 1.497-.812.651-2.642 0 0-1.289-.242-2.211.548-.921.789-1.066 2.556-1.066 2.556z" fill="#ffe15a"/><path d="M282.56 355.145c1.183-.576 1.841-.509 2.39.747 0 0 1.611-.327 1.364-2.314 0 0-1.326-1.152-2.332-.651-1.005.503-1.422 2.218-1.422 2.218z" fill="#ffe15a"/><circle cx="308.37" cy="316.592" fill="#f5f5f5" r="1.87"/><circle cx="308.37" cy="316.592" fill="#41479b" r=".678"/><circle cx="304.51" cy="309.762" fill="#f5f5f5" r="1.519"/><circle cx="304.51" cy="309.762" fill="#41479b" r=".551"/><path d="M358.465 346.487c1.73 1.331 7.715-1.603 11.923-.201 5.439 1.813 5.394 5.309 5.394 5.309s-3.39-4.206-9.034-2.136c-3.123 1.145-4.939 1.205-4.939 1.205z" fill="#fff5e6"/></svg>