<svg viewBox="0 0 512.001 512.001" xmlns="http://www.w3.org/2000/svg"><path d="M512 155.367H0V97.104a8.829 8.829 0 018.828-8.828h494.345a8.829 8.829 0 018.828 8.828zM0 222.461h512v67.09H0z" fill="#73af00"/><path d="M0 155.371h512v67.09H0z" fill="#ffe15a"/><path d="M503.172 423.725H8.828A8.829 8.829 0 010 414.897v-58.262h512v58.262a8.828 8.828 0 01-8.828 8.828z" fill="#73af00"/><path d="M0 289.551h512v67.09H0z" fill="#ffe15a"/><path d="M194.207 289.546H8.828A8.829 8.829 0 010 280.718V97.104a8.829 8.829 0 018.828-8.828h185.379a8.829 8.829 0 018.828 8.828v183.614a8.83 8.83 0 01-8.828 8.828z" fill="#ff4b55"/><path d="M99.335 135.638L86.577 173.89l-40.322.312c-2.21.018-3.127 2.838-1.348 4.151l32.438 23.954-12.163 38.446c-.666 2.108 1.734 3.851 3.531 2.566l32.806-23.448 32.806 23.448c1.799 1.286 4.199-.458 3.531-2.566l-12.163-38.445 32.438-23.954c1.779-1.313.862-4.135-1.348-4.151l-40.322-.312-12.761-38.252c-.7-2.099-3.666-2.099-4.365-.001z" fill="#f5f5f5"/></svg>