<svg viewBox="0 0 512.001 512.001" xmlns="http://www.w3.org/2000/svg"><path d="M503.172 423.724H8.828A8.829 8.829 0 010 414.896V97.104a8.829 8.829 0 018.828-8.828h494.345a8.829 8.829 0 018.828 8.828v317.792a8.83 8.83 0 01-8.829 8.828z" fill="#3cc8ff"/><path d="M247.172 256H8.828A8.829 8.829 0 010 247.172V97.104a8.829 8.829 0 018.828-8.828h238.344A8.829 8.829 0 01256 97.104v150.069a8.827 8.827 0 01-8.828 8.827z" fill="#41479b"/><path d="M247.172 88.276h-15.333l-81.77 53.573V88.276h-44.138v53.573l-81.77-53.573H8.828A8.829 8.829 0 000 97.104v7.002l70.155 45.963H0v44.138h70.155L0 240.171v7.001A8.829 8.829 0 008.828 256h15.333l81.77-53.573V256h44.138v-53.573L231.838 256h15.333a8.829 8.829 0 008.828-8.828v-7.002l-70.154-45.963h70.154v-44.138h-70.155l70.155-45.963v-7.002a8.827 8.827 0 00-8.827-8.828z" fill="#f5f5f5"/><path d="M255.999 158.897H141.241V88.276h-26.483v70.621H0v26.482h114.758V256h26.483v-70.621h114.758z" fill="#ff4b55"/><path d="M97.103 150.069L4.207 89.768C1.735 91.333 0 93.961 0 97.104v.458l80.889 52.507zM166.283 150.069l88.374-57.366c-1.536-2.599-4.246-4.427-7.485-4.427h-1.909l-95.194 61.793zM89.474 194.207L1.269 251.463C2.79 254.125 5.542 256 8.828 256h1.665l95.195-61.793zM255.859 247.867l-82.666-53.659H156.98l93.873 60.934c2.813-1.305 4.741-4.04 5.006-7.275z" fill="#ff4b55"/><g fill="#ffe15a"><path d="M284.332 362.783l4.297 12.884 13.581.105c1.758.013 2.487 2.258 1.073 3.302l-10.925 8.067 4.097 12.949c.531 1.676-1.378 3.063-2.809 2.04l-11.049-7.897-11.049 7.897c-1.43 1.023-3.339-.364-2.809-2.04l4.097-12.949-10.925-8.067c-1.415-1.045-.685-3.288 1.073-3.302l13.581-.105 4.297-12.884c.553-1.668 2.913-1.668 3.47 0zM409.33 265.572l4.297 12.884 13.581.105c1.758.013 2.487 2.258 1.073 3.302l-10.925 8.067 4.097 12.949c.531 1.676-1.378 3.063-2.809 2.04l-11.049-7.897-11.049 7.897c-1.43 1.023-3.339-.364-2.809-2.04l4.097-12.949-10.925-8.067c-1.415-1.045-.685-3.288 1.073-3.302l13.581-.105 4.297-12.884c.555-1.668 2.914-1.668 3.47 0zM468.27 229.447l4.297 12.884 13.581.105c1.758.013 2.487 2.258 1.073 3.302l-10.925 8.067 4.097 12.949c.531 1.676-1.378 3.063-2.809 2.04l-11.049-7.897-11.049 7.897c-1.43 1.023-3.339-.364-2.809-2.04l4.097-12.949-10.925-8.067c-1.415-1.045-.685-3.288 1.073-3.302l13.581-.105 4.297-12.884c.554-1.669 2.914-1.669 3.47 0zM454.209 105.498l4.297 12.884 13.581.105c1.758.013 2.487 2.258 1.073 3.302l-10.925 8.067 4.097 12.949c.531 1.676-1.378 3.063-2.809 2.04l-11.049-7.897-11.049 7.897c-1.43 1.023-3.339-.364-2.809-2.04l4.097-12.949-10.925-8.067c-1.415-1.045-.685-3.288 1.073-3.302l13.581-.105 4.297-12.884c.554-1.668 2.913-1.668 3.47 0zM336.584 394.979l-4.297-12.884-13.581-.105c-1.758-.013-2.487-2.258-1.073-3.302l10.925-8.067-4.097-12.949c-.531-1.676 1.378-3.063 2.809-2.04l11.049 7.897 11.049-7.897c1.43-1.023 3.339.364 2.809 2.04l-4.097 12.949 10.925 8.067c1.415 1.045.685 3.288-1.073 3.302l-13.581.105-4.297 12.884c-.555 1.668-2.914 1.668-3.47 0zM377.205 358.523l-4.297-12.884-13.581-.105c-1.758-.013-2.487-2.258-1.073-3.302l10.925-8.067-4.097-12.949c-.531-1.676 1.378-3.063 2.809-2.04l11.049 7.897 11.049-7.897c1.43-1.023 3.339.364 2.809 2.04l-4.097 12.949 10.925 8.067c1.415 1.045.685 3.288-1.073 3.302l-13.581.105-4.297 12.884c-.554 1.669-2.914 1.669-3.47 0zM413.76 199.525l-4.297-12.884-13.581-.105c-1.758-.013-2.487-2.258-1.073-3.302l10.925-8.067-4.097-12.949c-.531-1.676 1.378-3.063 2.809-2.04l11.049 7.897 11.049-7.897c1.43-1.023 3.339.364 2.809 2.04l-4.097 12.949 10.925 8.067c1.415 1.045.685 3.288-1.073 3.302l-13.581.105-4.297 12.884c-.553 1.667-2.913 1.667-3.47 0zM371.577 213.065l-4.297-12.884-13.581-.105c-1.758-.013-2.487-2.258-1.073-3.302l10.925-8.067-4.097-12.949c-.531-1.676 1.378-3.063 2.809-2.04l11.049 7.897 11.049-7.897c1.43-1.023 3.339.364 2.809 2.04l-4.097 12.949 10.925 8.067c1.415 1.045.685 3.288-1.073 3.302l-13.581.105-4.297 12.884c-.555 1.668-2.914 1.668-3.47 0zM344.569 318.249l-4.297-12.884-13.581-.105c-1.758-.013-2.487-2.258-1.073-3.302l10.925-8.067-4.097-12.949c-.531-1.676 1.378-3.063 2.809-2.04l11.049 7.897 11.049-7.897c1.43-1.023 3.339.364 2.809 2.04l-4.097 12.949 10.925 8.067c1.415 1.045.685 3.288-1.073 3.302l-13.581.105-4.297 12.884c-.554 1.668-2.913 1.668-3.47 0z"/></g></svg>