<svg viewBox="0 0 512.001 512.001" xmlns="http://www.w3.org/2000/svg"><path d="M503.172 423.725H8.828A8.829 8.829 0 010 414.897V97.104a8.829 8.829 0 018.828-8.828h494.345a8.829 8.829 0 018.828 8.828v317.793a8.83 8.83 0 01-8.829 8.828z" fill="#82afff"/><path d="M247.172 256.001H8.828A8.829 8.829 0 010 247.173V97.104a8.829 8.829 0 018.828-8.828h238.345a8.829 8.829 0 018.828 8.828v150.069a8.83 8.83 0 01-8.829 8.828z" fill="#41479b"/><path d="M247.172 88.277h-15.334l-81.77 53.574V88.277H105.93v53.574L24.16 88.277H8.828A8.828 8.828 0 000 97.104v7.002l70.155 45.963H0v44.138h70.155L0 240.171v7.002a8.829 8.829 0 008.828 8.828h15.334l81.77-53.574v53.574h44.138v-53.574l81.769 53.574h15.334a8.829 8.829 0 008.828-8.828v-7.002l-70.155-45.963H256V150.07h-70.155L256 104.107v-7.002a8.828 8.828 0 00-8.828-8.828z" fill="#f5f5f5"/><path d="M256 158.898H141.241V88.277h-26.482v70.621H0v26.482h114.759v70.621h26.482V185.38H256z" fill="#ff4b55"/><path d="M97.103 150.07L4.207 89.769C1.735 91.333 0 93.962 0 97.104v.458l80.889 52.508zM166.283 150.07l88.374-57.366c-1.536-2.599-4.246-4.427-7.485-4.427h-1.909l-95.194 61.793zM89.474 194.208L1.269 251.464c1.521 2.662 4.273 4.537 7.559 4.537h1.665l95.196-61.793zM255.86 247.866l-82.666-53.658H156.98l93.874 60.935c2.812-1.305 4.741-4.04 5.006-7.277z" fill="#ff4b55"/><g fill="#ffe15a"><path d="M218.666 353.364l-4.726 14.169-14.936.116c-1.432.011-2.026 1.839-.874 2.69l12.015 8.873-4.505 14.241c-.433 1.366 1.123 2.495 2.289 1.663l12.152-8.685 12.152 8.685c1.165.833 2.72-.297 2.289-1.663l-4.505-14.241 12.015-8.873c1.152-.851.558-2.679-.874-2.69l-14.936-.116-4.726-14.169c-.454-1.36-2.377-1.36-2.83 0zM448.735 243.019l-4.726 14.169-14.936.116c-1.432.011-2.026 1.839-.874 2.69l12.015 8.873-4.505 14.241c-.433 1.366 1.123 2.495 2.289 1.663l12.152-8.685 12.152 8.685c1.165.833 2.72-.297 2.289-1.663l-4.505-14.241 12.015-8.873c1.152-.851.558-2.679-.874-2.69l-14.936-.116-4.726-14.169c-.454-1.36-2.377-1.36-2.83 0zM448.735 123.847l-4.726 14.169-14.936.116c-1.432.011-2.026 1.839-.874 2.69l12.015 8.873-4.505 14.241c-.433 1.366 1.123 2.495 2.289 1.663l12.152-8.685 12.152 8.685c1.165.833 2.72-.297 2.289-1.663l-4.505-14.241 12.015-8.873c1.152-.851.558-2.679-.874-2.69l-14.936-.116-4.726-14.169c-.454-1.36-2.377-1.36-2.83 0zM277.812 278.817l4.665 14.189-11.915 9.007c-1.142.864-.529 2.685.904 2.68l14.936-.052 4.885 14.115c.469 1.354 2.39 1.332 2.828-.032l4.566-14.222 14.934-.284c1.432-.028 2.005-1.862.844-2.699l-12.115-8.738 4.345-14.291c.417-1.37-1.151-2.483-2.306-1.636l-12.053 8.822-12.248-8.548c-1.176-.819-2.718.328-2.27 1.689zM276.708 340.058l4.665 14.189-11.915 9.007c-1.142.864-.529 2.685.904 2.68l14.936-.052 4.885 14.115c.469 1.354 2.39 1.332 2.828-.032l4.566-14.222 14.934-.284c1.432-.028 2.005-1.862.844-2.699l-12.115-8.738 4.345-14.291c.417-1.37-1.151-2.483-2.306-1.636l-12.053 8.822-12.248-8.548c-1.175-.819-2.718.329-2.27 1.689zM341.26 324.61l4.665 14.189-11.915 9.007c-1.142.864-.529 2.685.904 2.68l14.936-.052 4.885 14.115c.469 1.354 2.39 1.332 2.828-.032l4.566-14.222 14.934-.284c1.432-.028 2.005-1.862.844-2.699l-12.115-8.737 4.345-14.291c.417-1.371-1.151-2.483-2.306-1.636l-12.053 8.822-12.248-8.548c-1.175-.82-2.718.328-2.27 1.688zM340.157 191.093l4.665 14.189-11.915 9.007c-1.142.864-.529 2.685.904 2.68l14.936-.052 4.885 14.115c.469 1.354 2.39 1.332 2.828-.032l4.566-14.222 14.934-.284c1.432-.028 2.005-1.862.844-2.699l-12.115-8.737 4.345-14.291c.417-1.37-1.151-2.483-2.306-1.636l-12.053 8.822-12.248-8.548c-1.176-.82-2.718.327-2.27 1.688zM394.777 172.886l4.665 14.189-11.915 9.007c-1.142.864-.529 2.685.904 2.68l14.936-.052 4.885 14.115c.469 1.354 2.39 1.332 2.828-.032l4.566-14.222 14.934-.284c1.432-.028 2.005-1.862.844-2.699l-12.115-8.738 4.345-14.291c.417-1.37-1.151-2.483-2.306-1.636l-12.053 8.822-12.248-8.548c-1.175-.819-2.718.328-2.27 1.689z"/></g></svg>