<svg viewBox="0 0 512.001 512.001" xmlns="http://www.w3.org/2000/svg"><path d="M503.172 88.276H8.828A8.828 8.828 0 000 97.103v317.793a8.829 8.829 0 008.828 8.828h494.345a8.829 8.829 0 008.828-8.828V97.103a8.83 8.83 0 00-8.829-8.827z" fill="#f5f5f5"/><path d="M185.38 125.55H512v37.27H185.38z" fill="#4173cd"/><path d="M0 162.82h512v37.27H0z" fill="#f5f5f5"/><path d="M185.38 200.09H512v37.27H185.38z" fill="#4173cd"/><path d="M0 237.36h512v37.27H0z" fill="#f5f5f5"/><path d="M0 274.641h512v37.27H0z" fill="#4173cd"/><path d="M0 311.91h512v37.27H0z" fill="#f5f5f5"/><path d="M0 349.18h512v37.27H0z" fill="#4173cd"/><path d="M63.976 111.642l14.767 68.333 23.107-9.572z" fill="#ffe15a"/><path d="M63.976 111.642l26.32 63.547-11.553 4.786z" fill="#ffcd5a"/><path d="M121.404 250.289l-14.768-68.333-23.107 9.572z" fill="#ffe15a"/><path d="M121.404 250.289l-26.321-63.547 11.553-4.786z" fill="#ffcd5a"/><path d="M162.013 152.252l-68.332 14.767 9.571 23.107z" fill="#ffe15a"/><path d="M162.013 152.252l-63.547 26.32-4.785-11.553z" fill="#ffcd5a"/><path d="M23.367 209.679l68.332-14.767-9.572-23.107z" fill="#ffe15a"/><path d="M23.367 209.679l63.546-26.32 4.786 11.553z" fill="#ffcd5a"/><path d="M121.404 111.642l-37.875 58.761 23.107 9.572z" fill="#ffe15a"/><path d="M121.404 111.642l-26.321 63.547-11.554-4.786z" fill="#ffcd5a"/><path d="M63.976 250.289l37.874-58.761-23.107-9.572z" fill="#ffe15a"/><path d="M63.976 250.289l26.32-63.547 11.554 4.786z" fill="#ffcd5a"/><path d="M162.013 209.679l-58.761-37.874-9.571 23.107z" fill="#ffe15a"/><path d="M162.013 209.679l-63.547-26.32 4.786-11.554z" fill="#ffcd5a"/><path d="M23.367 152.252l58.76 37.874 9.572-23.107z" fill="#ffe15a"/><path d="M23.367 152.252l63.546 26.32-4.786 11.554z" fill="#ffcd5a"/><path d="M92.69 105.931l-12.506 68.781h25.011z" fill="#ffe15a"/><path d="M92.69 105.931v68.781H80.184z" fill="#ffcd5a"/><path d="M92.69 256l12.505-68.781H80.184z" fill="#ffe15a"/><path d="M92.69 256v-68.781h12.505z" fill="#ffcd5a"/><path d="M167.724 180.966L98.943 168.46v25.011z" fill="#ffe15a"/><path d="M167.724 180.966H98.943V168.46z" fill="#ffcd5a"/><path d="M17.655 180.966l68.781 12.505V168.46z" fill="#ffe15a"/><path d="M17.655 180.966h68.781v12.505z" fill="#ffcd5a"/><path d="M145.747 127.908l-57.479 39.793 17.686 17.686z" fill="#ffe15a"/><path d="M145.747 127.908l-48.636 48.636-8.843-8.843z" fill="#ffcd5a"/><path d="M39.633 234.023l57.478-39.793-17.686-17.686z" fill="#ffe15a"/><path d="M39.633 234.023l48.635-48.636 8.843 8.843z" fill="#ffcd5a"/><path d="M145.747 234.023l-39.793-57.479-17.686 17.686z" fill="#ffe15a"/><path d="M145.747 234.023l-48.636-48.636 8.843-8.843z" fill="#ffcd5a"/><path d="M39.633 127.908l39.792 57.479 17.686-17.686z" fill="#ffe15a"/><path d="M39.633 127.908l48.635 48.636-8.843 8.843z" fill="#ffcd5a"/><circle cx="92.69" cy="180.97" fill="#ffe15a" r="25.01"/></svg>