<svg viewBox="0 0 512.001 512.001" xmlns="http://www.w3.org/2000/svg"><path d="M503.172 423.725H8.828A8.829 8.829 0 010 414.897V97.104a8.829 8.829 0 018.828-8.828h494.345a8.829 8.829 0 018.828 8.828v317.793a8.83 8.83 0 01-8.829 8.828z" fill="#f5f5f5"/><path d="M512 114.081H0V97.104a8.829 8.829 0 018.828-8.828h494.345a8.829 8.829 0 018.828 8.828zM0 191.491h512v25.804H0zM0 139.881h512v25.804H0zM512 268.903H8.828A8.829 8.829 0 010 260.075v-16.977h512zM0 346.321h512v25.804H0zM503.172 423.725H8.828A8.829 8.829 0 010 414.897v-16.976h512v16.977a8.828 8.828 0 01-8.828 8.827zM0 294.711h512v25.804H0z" fill="#ff4b55"/><path d="M229.517 88.277H8.828A8.828 8.828 0 000 97.104v162.97a8.829 8.829 0 008.828 8.828h220.69a8.829 8.829 0 008.828-8.828V97.104a8.83 8.83 0 00-8.829-8.827z" fill="#41479b"/><g fill="#f5f5f5"><path d="M24.789 108.538l1.954 5.86 6.177.047c.8.007 1.131 1.027.488 1.502l-4.969 3.67 1.864 5.889c.242.762-.627 1.394-1.278.928L24 122.843l-5.025 3.592c-.651.465-1.518-.166-1.278-.928l1.864-5.889-4.969-3.67c-.643-.476-.312-1.495.488-1.502l6.177-.047 1.954-5.86c.252-.76 1.324-.76 1.578-.001zM24.789 139.192l1.954 5.86 6.177.047c.8.007 1.131 1.027.488 1.502l-4.969 3.67 1.864 5.889c.242.762-.627 1.394-1.278.928L24 153.497l-5.025 3.592c-.651.465-1.518-.166-1.278-.928l1.864-5.889-4.969-3.67c-.643-.476-.312-1.495.488-1.502l6.177-.047 1.954-5.86c.252-.759 1.324-.759 1.578-.001zM24.789 169.846l1.954 5.86 6.177.047c.8.007 1.131 1.027.488 1.502l-4.969 3.67 1.864 5.889c.242.762-.627 1.394-1.278.928L24 184.151l-5.025 3.592c-.651.465-1.518-.166-1.278-.928l1.864-5.889-4.969-3.67c-.643-.476-.312-1.495.488-1.502l6.177-.047 1.954-5.86c.252-.759 1.324-.759 1.578-.001zM24.789 200.501l1.954 5.86 6.177.047c.8.007 1.131 1.027.488 1.502l-4.969 3.67 1.864 5.889c.242.762-.627 1.394-1.278.928L24 214.806l-5.025 3.592c-.651.465-1.518-.166-1.278-.928l1.864-5.889-4.969-3.67c-.643-.476-.312-1.495.488-1.502l6.177-.047 1.954-5.86c.252-.76 1.324-.76 1.578-.001zM24.789 231.155l1.954 5.86 6.177.047c.8.007 1.131 1.027.488 1.502l-4.969 3.67 1.864 5.889c.242.762-.627 1.394-1.278.928L24 245.46l-5.025 3.592c-.651.465-1.518-.166-1.278-.928l1.864-5.889-4.969-3.67c-.643-.476-.312-1.495.488-1.502l6.177-.047 1.954-5.86c.252-.761 1.324-.761 1.578-.001zM48.582 123.567l1.954 5.86 6.177.047c.8.007 1.131 1.027.488 1.502l-4.969 3.67 1.864 5.889c.242.762-.627 1.394-1.278.928l-5.025-3.592-5.025 3.592c-.651.465-1.518-.166-1.278-.928l1.864-5.889-4.969-3.67c-.643-.476-.312-1.495.488-1.502l6.177-.047 1.954-5.86c.251-.758 1.325-.758 1.578 0zM48.582 154.222l1.954 5.86 6.177.047c.8.007 1.131 1.027.488 1.502l-4.969 3.67 1.864 5.889c.242.762-.627 1.394-1.278.928l-5.025-3.592-5.025 3.592c-.651.465-1.518-.165-1.278-.928l1.864-5.889-4.969-3.67c-.643-.476-.312-1.495.488-1.502l6.177-.047 1.954-5.86c.251-.759 1.325-.759 1.578 0zM48.582 184.876l1.954 5.86 6.177.047c.8.007 1.131 1.027.488 1.502l-4.969 3.67 1.864 5.889c.242.762-.627 1.394-1.278.928l-5.025-3.592-5.025 3.592c-.651.465-1.518-.166-1.278-.928l1.864-5.889-4.969-3.67c-.643-.476-.312-1.495.488-1.502l6.177-.047 1.954-5.86c.251-.759 1.325-.759 1.578 0zM48.582 215.53l1.954 5.86 6.177.047c.8.007 1.131 1.027.488 1.502l-4.969 3.67 1.864 5.889c.242.762-.627 1.394-1.278.928l-5.025-3.592-5.025 3.592c-.651.465-1.518-.166-1.278-.928l1.864-5.889-4.969-3.67c-.643-.476-.312-1.495.488-1.502l6.177-.047 1.954-5.86c.251-.758 1.325-.758 1.578 0zM72.375 108.538l1.954 5.86 6.177.047c.8.007 1.131 1.027.488 1.502l-4.969 3.67 1.864 5.889c.242.762-.627 1.394-1.278.928l-5.025-3.592-5.025 3.592c-.651.465-1.518-.166-1.278-.928l1.864-5.889-4.969-3.67c-.643-.476-.312-1.495.488-1.502l6.177-.047 1.954-5.86c.252-.759 1.325-.759 1.578 0zM72.375 139.192l1.954 5.86 6.177.047c.8.007 1.131 1.027.488 1.502l-4.969 3.67 1.864 5.889c.242.762-.627 1.394-1.278.928l-5.025-3.592-5.025 3.592c-.651.465-1.518-.166-1.278-.928l1.864-5.889-4.969-3.67c-.643-.476-.312-1.495.488-1.502l6.177-.047 1.954-5.86c.252-.758 1.325-.758 1.578 0zM72.375 169.846l1.954 5.86 6.177.047c.8.007 1.131 1.027.488 1.502l-4.969 3.67 1.864 5.889c.242.762-.627 1.394-1.278.928l-5.025-3.592-5.025 3.592c-.651.465-1.518-.166-1.278-.928l1.864-5.889-4.969-3.67c-.643-.476-.312-1.495.488-1.502l6.177-.047 1.954-5.86c.252-.758 1.325-.758 1.578 0zM72.375 200.501l1.954 5.86 6.177.047c.8.007 1.131 1.027.488 1.502l-4.969 3.67 1.864 5.889c.242.762-.627 1.394-1.278.928l-5.025-3.592-5.025 3.592c-.651.465-1.518-.166-1.278-.928l1.864-5.889-4.969-3.67c-.643-.476-.312-1.495.488-1.502l6.177-.047 1.954-5.86c.252-.759 1.325-.759 1.578 0zM72.375 231.155l1.954 5.86 6.177.047c.8.007 1.131 1.027.488 1.502l-4.969 3.67 1.864 5.889c.242.762-.627 1.394-1.278.928l-5.025-3.592-5.025 3.592c-.651.465-1.518-.166-1.278-.928l1.864-5.889-4.969-3.67c-.643-.476-.312-1.495.488-1.502l6.177-.047 1.954-5.86c.252-.76 1.325-.76 1.578 0zM96.169 123.567l1.954 5.86 6.177.047c.8.007 1.131 1.027.488 1.502l-4.969 3.67 1.864 5.889c.242.762-.627 1.394-1.278.928l-5.025-3.592-5.025 3.592c-.651.465-1.518-.166-1.278-.928l1.864-5.889-4.969-3.67c-.643-.476-.312-1.495.488-1.502l6.177-.047 1.954-5.86c.251-.758 1.325-.758 1.578 0zM96.169 154.222l1.954 5.86 6.177.047c.8.007 1.131 1.027.488 1.502l-4.969 3.67 1.864 5.889c.242.762-.627 1.394-1.278.928l-5.025-3.592-5.025 3.592c-.651.465-1.518-.165-1.278-.928l1.864-5.889-4.969-3.67c-.643-.476-.312-1.495.488-1.502l6.177-.047 1.954-5.86c.251-.759 1.325-.759 1.578 0zM96.169 184.876l1.954 5.86 6.177.047c.8.007 1.131 1.027.488 1.502l-4.969 3.67 1.864 5.889c.242.762-.627 1.394-1.278.928l-5.025-3.592-5.025 3.592c-.651.465-1.518-.166-1.278-.928l1.864-5.889-4.969-3.67c-.643-.476-.312-1.495.488-1.502l6.177-.047 1.954-5.86c.251-.759 1.325-.759 1.578 0zM96.169 215.53l1.954 5.86 6.177.047c.8.007 1.131 1.027.488 1.502l-4.969 3.67 1.864 5.889c.242.762-.627 1.394-1.278.928l-5.025-3.592-5.025 3.592c-.651.465-1.518-.166-1.278-.928l1.864-5.889-4.969-3.67c-.643-.476-.312-1.495.488-1.502l6.177-.047 1.954-5.86c.251-.758 1.325-.758 1.578 0zM119.962 108.538l1.954 5.86 6.177.047c.8.007 1.131 1.027.488 1.502l-4.969 3.67 1.864 5.889c.242.762-.627 1.394-1.278.928l-5.026-3.592-5.025 3.592c-.651.465-1.518-.166-1.278-.928l1.864-5.889-4.969-3.67c-.643-.476-.312-1.495.488-1.502l6.177-.047 1.954-5.86c.253-.759 1.326-.759 1.579 0zM119.962 139.192l1.954 5.86 6.177.047c.8.007 1.131 1.027.488 1.502l-4.969 3.67 1.864 5.889c.242.762-.627 1.394-1.278.928l-5.026-3.592-5.025 3.592c-.651.465-1.518-.166-1.278-.928l1.864-5.889-4.969-3.67c-.643-.476-.312-1.495.488-1.502l6.177-.047 1.954-5.86c.253-.758 1.326-.758 1.579 0zM119.962 169.846l1.954 5.86 6.177.047c.8.007 1.131 1.027.488 1.502l-4.969 3.67 1.864 5.889c.242.762-.627 1.394-1.278.928l-5.026-3.592-5.025 3.592c-.651.465-1.518-.166-1.278-.928l1.864-5.889-4.969-3.67c-.643-.476-.312-1.495.488-1.502l6.177-.047 1.954-5.86c.253-.758 1.326-.758 1.579 0zM119.962 200.501l1.954 5.86 6.177.047c.8.007 1.131 1.027.488 1.502l-4.969 3.67 1.864 5.889c.242.762-.627 1.394-1.278.928l-5.026-3.592-5.025 3.592c-.651.465-1.518-.166-1.278-.928l1.864-5.889-4.969-3.67c-.643-.476-.312-1.495.488-1.502l6.177-.047 1.954-5.86c.253-.759 1.326-.759 1.579 0zM119.962 231.155l1.954 5.86 6.177.047c.8.007 1.131 1.027.488 1.502l-4.969 3.67 1.864 5.889c.242.762-.627 1.394-1.278.928l-5.026-3.592-5.025 3.592c-.651.465-1.518-.166-1.278-.928l1.864-5.889-4.969-3.67c-.643-.476-.312-1.495.488-1.502l6.177-.047 1.954-5.86c.253-.76 1.326-.76 1.579 0zM143.755 123.567l1.954 5.86 6.177.047c.8.007 1.131 1.027.488 1.502l-4.969 3.67 1.864 5.889c.242.762-.627 1.394-1.278.928l-5.025-3.592-5.025 3.592c-.651.465-1.518-.166-1.278-.928l1.864-5.889-4.969-3.67c-.643-.476-.312-1.495.488-1.502l6.177-.047 1.954-5.86c.253-.758 1.325-.758 1.578 0zM143.755 154.222l1.954 5.86 6.177.047c.8.007 1.131 1.027.488 1.502l-4.969 3.67 1.864 5.889c.242.762-.627 1.394-1.278.928l-5.025-3.592-5.025 3.592c-.651.465-1.518-.165-1.278-.928l1.864-5.889-4.969-3.67c-.643-.476-.312-1.495.488-1.502l6.177-.047 1.954-5.86c.253-.759 1.325-.759 1.578 0zM143.755 184.876l1.954 5.86 6.177.047c.8.007 1.131 1.027.488 1.502l-4.969 3.67 1.864 5.889c.242.762-.627 1.394-1.278.928l-5.025-3.592-5.025 3.592c-.651.465-1.518-.166-1.278-.928l1.864-5.889-4.969-3.67c-.643-.476-.312-1.495.488-1.502l6.177-.047 1.954-5.86c.253-.759 1.325-.759 1.578 0zM143.755 215.53l1.954 5.86 6.177.047c.8.007 1.131 1.027.488 1.502l-4.969 3.67 1.864 5.889c.242.762-.627 1.394-1.278.928l-5.025-3.592-5.025 3.592c-.651.465-1.518-.166-1.278-.928l1.864-5.889-4.969-3.67c-.643-.476-.312-1.495.488-1.502l6.177-.047 1.954-5.86c.253-.758 1.325-.758 1.578 0zM167.549 108.538l1.954 5.86 6.177.047c.8.007 1.131 1.027.488 1.502l-4.969 3.67 1.864 5.889c.242.762-.627 1.394-1.278.928l-5.025-3.592-5.025 3.592c-.651.465-1.518-.166-1.278-.928l1.864-5.889-4.969-3.67c-.643-.476-.312-1.495.488-1.502l6.177-.047 1.954-5.86c.251-.759 1.325-.759 1.578 0zM167.549 139.192l1.954 5.86 6.177.047c.8.007 1.131 1.027.488 1.502l-4.969 3.67 1.864 5.889c.242.762-.627 1.394-1.278.928l-5.025-3.592-5.025 3.592c-.651.465-1.518-.166-1.278-.928l1.864-5.889-4.969-3.67c-.643-.476-.312-1.495.488-1.502l6.177-.047 1.954-5.86c.251-.758 1.325-.758 1.578 0zM167.549 169.846l1.954 5.86 6.177.047c.8.007 1.131 1.027.488 1.502l-4.969 3.67 1.864 5.889c.242.762-.627 1.394-1.278.928l-5.025-3.592-5.025 3.592c-.651.465-1.518-.166-1.278-.928l1.864-5.889-4.969-3.67c-.643-.476-.312-1.495.488-1.502l6.177-.047 1.954-5.86c.251-.758 1.325-.758 1.578 0zM167.549 200.501l1.954 5.86 6.177.047c.8.007 1.131 1.027.488 1.502l-4.969 3.67 1.864 5.889c.242.762-.627 1.394-1.278.928l-5.025-3.592-5.025 3.592c-.651.465-1.518-.166-1.278-.928l1.864-5.889-4.969-3.67c-.643-.476-.312-1.495.488-1.502l6.177-.047 1.954-5.86c.251-.759 1.325-.759 1.578 0zM167.549 231.155l1.954 5.86 6.177.047c.8.007 1.131 1.027.488 1.502l-4.969 3.67 1.864 5.889c.242.762-.627 1.394-1.278.928l-5.025-3.592-5.025 3.592c-.651.465-1.518-.166-1.278-.928l1.864-5.889-4.969-3.67c-.643-.476-.312-1.495.488-1.502l6.177-.047 1.954-5.86c.251-.76 1.325-.76 1.578 0zM191.342 123.567l1.954 5.86 6.177.047c.8.007 1.131 1.027.488 1.502l-4.969 3.67 1.864 5.889c.242.762-.627 1.394-1.278.928l-5.025-3.592-5.025 3.592c-.651.465-1.518-.166-1.278-.928l1.864-5.889-4.969-3.67c-.643-.476-.312-1.495.488-1.502l6.177-.047 1.954-5.86c.252-.758 1.326-.758 1.578 0zM191.342 154.222l1.954 5.86 6.177.047c.8.007 1.131 1.027.488 1.502l-4.969 3.67 1.864 5.889c.242.762-.627 1.394-1.278.928l-5.025-3.592-5.025 3.592c-.651.465-1.518-.165-1.278-.928l1.864-5.889-4.969-3.67c-.643-.476-.312-1.495.488-1.502l6.177-.047 1.954-5.86c.252-.759 1.326-.759 1.578 0zM191.342 184.876l1.954 5.86 6.177.047c.8.007 1.131 1.027.488 1.502l-4.969 3.67 1.864 5.889c.242.762-.627 1.394-1.278.928l-5.025-3.592-5.025 3.592c-.651.465-1.518-.166-1.278-.928l1.864-5.889-4.969-3.67c-.643-.476-.312-1.495.488-1.502l6.177-.047 1.954-5.86c.252-.759 1.326-.759 1.578 0zM191.342 215.53l1.954 5.86 6.177.047c.8.007 1.131 1.027.488 1.502l-4.969 3.67 1.864 5.889c.242.762-.627 1.394-1.278.928l-5.025-3.592-5.025 3.592c-.651.465-1.518-.166-1.278-.928l1.864-5.889-4.969-3.67c-.643-.476-.312-1.495.488-1.502l6.177-.047 1.954-5.86c.252-.758 1.326-.758 1.578 0zM215.136 108.538l1.954 5.86 6.177.047c.8.007 1.131 1.027.488 1.502l-4.969 3.67 1.864 5.889c.242.762-.627 1.394-1.278.928l-5.025-3.592-5.025 3.592c-.651.465-1.518-.166-1.278-.928l1.864-5.889-4.969-3.67c-.643-.476-.312-1.495.488-1.502l6.177-.047 1.954-5.86c.252-.759 1.324-.759 1.578 0zM215.136 139.192l1.954 5.86 6.177.047c.8.007 1.131 1.027.488 1.502l-4.969 3.67 1.864 5.889c.242.762-.627 1.394-1.278.928l-5.025-3.592-5.025 3.592c-.651.465-1.518-.166-1.278-.928l1.864-5.889-4.969-3.67c-.643-.476-.312-1.495.488-1.502l6.177-.047 1.954-5.86c.252-.758 1.324-.758 1.578 0zM215.136 169.846l1.954 5.86 6.177.047c.8.007 1.131 1.027.488 1.502l-4.969 3.67 1.864 5.889c.242.762-.627 1.394-1.278.928l-5.025-3.592-5.025 3.592c-.651.465-1.518-.166-1.278-.928l1.864-5.889-4.969-3.67c-.643-.476-.312-1.495.488-1.502l6.177-.047 1.954-5.86c.252-.758 1.324-.758 1.578 0zM215.136 200.501l1.954 5.86 6.177.047c.8.007 1.131 1.027.488 1.502l-4.969 3.67 1.864 5.889c.242.762-.627 1.394-1.278.928l-5.025-3.592-5.025 3.592c-.651.465-1.518-.166-1.278-.928l1.864-5.889-4.969-3.67c-.643-.476-.312-1.495.488-1.502l6.177-.047 1.954-5.86c.252-.759 1.324-.759 1.578 0zM215.136 231.155l1.954 5.86 6.177.047c.8.007 1.131 1.027.488 1.502l-4.969 3.67 1.864 5.889c.242.762-.627 1.394-1.278.928l-5.025-3.592-5.025 3.592c-.651.465-1.518-.166-1.278-.928l1.864-5.889-4.969-3.67c-.643-.476-.312-1.495.488-1.502l6.177-.047 1.954-5.86c.252-.76 1.324-.76 1.578 0z"/></g></svg>