<svg viewBox="0 0 512.001 512.001" xmlns="http://www.w3.org/2000/svg"><path d="M512 200.093H0V97.104a8.829 8.829 0 018.828-8.828h494.345a8.829 8.829 0 018.828 8.828z" fill="#82afff"/><path d="M503.172 423.725H8.828A8.829 8.829 0 010 414.897V311.909h512v102.988a8.828 8.828 0 01-8.828 8.828z" fill="#73af00"/><path d="M0 200.091h512v111.81H0z" fill="#f5f5f5"/><path d="M0 190.161h512v13.942H0zM0 307.891h512v13.942H0z" fill="#ff4b55"/><g fill="#f5f5f5"><path d="M113.491 172.072c-18.072 0-32.721-14.614-32.721-32.621 0-18.073 14.648-32.753 32.721-32.753l.206.001c1.064.014 1.437-1.399.499-1.902a38.783 38.783 0 00-18.668-4.622c-21.624.154-39.189 18.073-38.959 39.697.226 21.401 17.722 38.724 39.242 38.724a38.898 38.898 0 0018.417-4.627c.935-.501.557-1.914-.503-1.899-.08.002-.157.002-.234.002zM139.113 163.051l-1.461 4.382-4.619.035c-.598.004-.846.768-.365 1.123l3.716 2.744-1.394 4.404c-.18.57.469 1.042.956.694l3.758-2.686 3.758 2.686c.487.348 1.135-.124.956-.694l-1.394-4.404 3.715-2.744c.481-.355.233-1.119-.365-1.123l-4.619-.035-1.461-4.382c-.189-.567-.991-.567-1.181 0zM171.656 163.051l-1.461 4.382-4.619.035c-.598.004-.846.768-.365 1.123l3.715 2.744-1.394 4.404c-.18.57.469 1.042.956.694l3.758-2.686 3.758 2.686c.487.348 1.135-.124.956-.694l-1.394-4.404 3.715-2.744c.481-.355.233-1.119-.365-1.123l-4.619-.035-1.461-4.382c-.189-.567-.992-.567-1.18 0zM204.198 163.051l-1.461 4.382-4.619.035c-.598.004-.846.768-.365 1.123l3.716 2.744-1.394 4.404c-.18.57.469 1.042.956.694l3.758-2.686 3.758 2.686c.487.348 1.135-.124.956-.694l-1.394-4.404 3.715-2.744c.481-.355.233-1.119-.365-1.123l-4.619-.035-1.461-4.382c-.189-.567-.992-.567-1.181 0zM236.74 163.051l-1.461 4.382-4.619.035c-.598.004-.846.768-.365 1.123l3.715 2.744-1.394 4.404c-.18.57.469 1.042.956.694l3.758-2.686 3.758 2.686c.487.348 1.135-.124.956-.694l-1.394-4.404 3.715-2.744c.481-.355.233-1.119-.365-1.123l-4.619-.035-1.461-4.382c-.188-.567-.991-.567-1.18 0zM269.283 163.051l-1.461 4.382-4.619.035c-.598.004-.846.768-.365 1.123l3.716 2.744-1.394 4.404c-.18.57.469 1.042.956.694l3.758-2.686 3.758 2.686c.487.348 1.135-.124.956-.694l-1.394-4.404 3.716-2.744c.481-.355.233-1.119-.365-1.123l-4.619-.035-1.461-4.382c-.191-.567-.993-.567-1.182 0zM171.656 132.679l-1.461 4.382-4.619.035c-.598.004-.846.768-.365 1.123l3.715 2.744-1.394 4.404c-.18.57.469 1.042.956.694l3.758-2.686 3.758 2.686c.487.348 1.135-.124.956-.694l-1.394-4.404 3.715-2.744c.481-.355.233-1.119-.365-1.123l-4.619-.035-1.461-4.382c-.189-.569-.992-.569-1.18 0zM204.198 132.679l-1.461 4.382-4.619.035c-.598.004-.846.768-.365 1.123l3.716 2.744-1.394 4.404c-.18.57.469 1.042.956.694l3.758-2.686 3.758 2.686c.487.348 1.135-.124.956-.694l-1.394-4.404 3.715-2.744c.481-.355.233-1.119-.365-1.123l-4.619-.035-1.461-4.382c-.189-.569-.992-.569-1.181 0zM236.74 132.679l-1.461 4.382-4.619.035c-.598.004-.846.768-.365 1.123l3.715 2.744-1.394 4.404c-.18.57.469 1.042.956.694l3.758-2.686 3.758 2.686c.487.348 1.135-.124.956-.694l-1.394-4.404 3.715-2.744c.481-.355.233-1.119-.365-1.123l-4.619-.035-1.461-4.382c-.188-.569-.991-.569-1.18 0zM269.283 132.679l-1.461 4.382-4.619.035c-.598.004-.846.768-.365 1.123l3.716 2.744-1.394 4.404c-.18.57.469 1.042.956.694l3.758-2.686 3.758 2.686c.487.348 1.135-.124.956-.694l-1.394-4.404 3.716-2.744c.481-.355.233-1.119-.365-1.123l-4.619-.035-1.461-4.382c-.191-.569-.993-.569-1.182 0z"/><path d="M204.198 163.051l-1.461 4.382-4.619.035c-.598.004-.846.768-.365 1.123l3.716 2.744-1.394 4.404c-.18.57.469 1.042.956.694l3.758-2.686 3.758 2.686c.487.348 1.135-.124.956-.694l-1.394-4.404 3.715-2.744c.481-.355.233-1.119-.365-1.123l-4.619-.035-1.461-4.382c-.189-.567-.992-.567-1.181 0zM204.198 102.305l-1.461 4.382-4.619.035c-.598.004-.846.768-.365 1.123l3.716 2.744-1.394 4.404c-.18.57.469 1.042.956.694l3.758-2.686 3.758 2.686c.487.348 1.135-.124.956-.694l-1.394-4.404 3.715-2.744c.481-.355.233-1.119-.365-1.123l-4.619-.035-1.461-4.382c-.189-.567-.992-.567-1.181 0zM236.74 163.051l-1.461 4.382-4.619.035c-.598.004-.846.768-.365 1.123l3.715 2.744-1.394 4.404c-.18.57.469 1.042.956.694l3.758-2.686 3.758 2.686c.487.348 1.135-.124.956-.694l-1.394-4.404 3.715-2.744c.481-.355.233-1.119-.365-1.123l-4.619-.035-1.461-4.382c-.188-.567-.991-.567-1.18 0zM269.283 163.051l-1.461 4.382-4.619.035c-.598.004-.846.768-.365 1.123l3.716 2.744-1.394 4.404c-.18.57.469 1.042.956.694l3.758-2.686 3.758 2.686c.487.348 1.135-.124.956-.694l-1.394-4.404 3.716-2.744c.481-.355.233-1.119-.365-1.123l-4.619-.035-1.461-4.382c-.191-.567-.993-.567-1.182 0zM236.74 102.305l-1.461 4.382-4.619.035c-.598.004-.846.768-.365 1.123l3.715 2.744-1.394 4.404c-.18.57.469 1.042.956.694l3.758-2.686 3.758 2.686c.487.348 1.135-.124.956-.694l-1.394-4.404 3.715-2.744c.481-.355.233-1.119-.365-1.123l-4.619-.035-1.461-4.382c-.188-.567-.991-.567-1.18 0zM269.283 102.305l-1.461 4.382-4.619.035c-.598.004-.846.768-.365 1.123l3.716 2.744-1.394 4.404c-.18.57.469 1.042.956.694l3.758-2.686 3.758 2.686c.487.348 1.135-.124.956-.694l-1.394-4.404 3.716-2.744c.481-.355.233-1.119-.365-1.123l-4.619-.035-1.461-4.382c-.191-.567-.993-.567-1.182 0z"/></g></svg>