<?xml version="1.0" encoding="UTF-8"?>
<svg width="202px" height="202px" viewBox="0 0 202 202" version="1.1" xmlns="http://www.w3.org/2000/svg" xmlns:xlink="http://www.w3.org/1999/xlink">
    <!-- Generator: Sketch 63.1 (92452) - https://sketch.com -->
    <title>Logo Author round</title>
    <desc>Created with Sketch.</desc>
    <g id="Logo-Author-round" stroke="none" stroke-width="1" fill="none" fill-rule="evenodd">
        <circle id="Oval" fill="#385361" cx="101" cy="101" r="101"></circle>
        <g id="Group" transform="translate(26.000000, 26.000000)" fill-rule="nonzero">
            <g id="Sitecore-Logo" transform="translate(30.000000, 58.000000)" fill="#EE3524">
                <path d="M47.5425532,71.1666667 C54.1124792,70.3354966 60.4533004,68.3823295 66.2011432,65.2443732 C80.3972373,57.4961495 88.5978526,44.177599 89.2919065,27.7392689 L89.3525518,26.3165304 L109,26.3165304 C107.761822,16.5688717 103.995064,7.58298118 98.3735657,0 L78.2729612,12.6542754 C84.3880464,22.0565772 85.1764372,32.4784256 80.5336895,42.888707 C75.0334824,55.219107 62.0688281,66.0243181 47.5425532,71.1666667" id="Fill-3"></path>
                <path d="M108.839284,30.3333333 L92.3975319,30.3333333 C91.2903761,46.7717374 82.7188467,60.6051485 68.7267992,68.438093 C60.7413156,72.9082283 51.651923,75.13268 42.3709696,75.13268 C35.1793268,75.13268 27.8724225,73.7918028 20.8723404,71.1329134 C29.2864002,76.4147612 38.7410571,79.3039353 48.5350031,79.3333333 L48.6843556,79.3333333 C66.371252,79.3333333 82.2480619,69.9210608 91.1783618,54.13268 L91.9348643,52.7967024 L102.936617,59.8130347 C106.805169,52.1728107 109,43.537953 109,34.3918961 C109,33.0248872 108.935064,31.6758438 108.839284,30.3333333" id="Fill-5"></path>
                <path d="M47.0072422,82.3314111 L46.8467402,82.3314111 C28.8854033,82.277137 12.009524,73.162483 0,57.4721845 C9.12545116,77.2669607 28.7877784,91 51.5261193,91 C72.6064904,91 91.0344413,79.1919946 100.882979,61.6970828 L92.1149344,56 C82.3458204,72.5264586 65.6056231,82.3314111 47.0072422,82.3314111" id="Fill-7"></path>
            </g>
            <g id="rocket">
                <path d="M40.0902276,88.0748554 C45.6702299,93.6548272 45.6702299,102.822122 40.0902276,108.402347 C34.5102254,113.982319 18.0687632,121.256396 12.4887609,115.676424 C6.90875862,110.096452 14.1826224,93.6550802 19.7628777,88.0751084 C25.34288,82.4948837 34.4105418,82.4948837 40.0902276,88.0748554 Z" id="Path" fill="#FFCE44"></path>
                <path d="M24.4678899,85.3211252 L24.4678899,85.8865259 C24.4678899,95.6871246 32.5277137,103.697248 42.3891226,103.697248 L42.7683149,103.697248 C45.4233837,98.6084017 44.5699,92.2004468 40.2081044,87.8655482 C36.0360255,83.6249229 29.5883109,82.7767022 24.4678899,85.3211252 Z" id="Path" fill="#DEB957"></path>
                <path d="M69.1064846,57.8996409 C86.1836512,74.9839286 89.5789006,99.2613337 73.4006257,115.446355 L65.7109816,123.139206 C49.5327067,139.324227 60.7177589,100.460187 43.6405923,83.3758988 C26.5634258,66.291611 -12.38432,77.5812741 3.89385993,61.2963061 L11.5835041,53.6034554 C27.7620325,37.4186878 52.0293181,40.8156068 69.1064846,57.8996409 L69.1064846,57.8996409 Z" id="Path" fill="#EE3524"></path>
                <path d="M96.5635127,70.6699443 C76.2390575,90.8777886 63.4385211,98.0042971 63.4385211,98.0042971 C55.6200948,103.286677 50.132959,103.458026 45.2436945,101.013597 C41.6392452,99.2115225 38.3597324,95.987801 34.7106281,92.3422042 C26.1116865,83.751528 19.7605423,77.2107361 29.043251,63.6410965 C29.043251,63.6410965 36.2741622,50.7548343 56.5008655,30.4493292 C87.6713155,-0.692057991 119.819284,-3.03492462 124.900398,2.13886454 C129.981512,7.21524082 127.734211,39.4306484 96.5635127,70.6699443 Z" id="Path" fill="#EAEAEA"></path>
                <path d="M68.1661742,94.6646071 C53.8846317,104.299424 46.9901888,97.7437233 38.0273381,88.7048563 C28.965956,79.5666223 22.366857,72.7130728 32.1177084,58.3104049 L33.5951783,55.9266055 C29.7539566,61.1910394 28.0796741,64.1707887 28.0796741,64.1707887 C18.722948,77.9775067 25.1249843,84.6323221 33.792241,93.3733403 C42.4594978,102.114359 49.0585967,108.371958 62.7492012,99.1343571 C62.7492012,99.1343571 68.8556435,95.6577727 79.3944955,86.8176397 C72.2044586,92.3801746 68.1661742,94.6646071 68.1661742,94.6646071 Z" id="Path" fill="#FFCE44"></path>
                <path d="M90.6156852,36.3844811 C95.629634,41.3983918 95.629634,49.4822771 90.6156852,54.4964477 C85.6017363,59.5103584 77.5177896,59.5103584 72.5035809,54.4964477 C67.4896321,49.482537 67.4896321,41.3986517 72.5035809,36.3844811 C77.5175297,31.3703106 85.7041042,31.3703106 90.6156852,36.3844811 Z" id="Path" fill="#4989F4"></path>
                <path d="M63.4339115,64.7755305 C65.9613061,67.304078 61.1087906,76.3057683 48.7747147,88.64547 C36.4406389,100.985172 28.959592,104.322669 26.4321974,101.692939 C23.9048028,99.1643916 27.1398986,91.6796755 39.4737178,79.3402307 C51.9086738,67.0007858 60.80538,62.1458002 63.4339115,64.7755305 Z" id="Path" fill="#EE3524"></path>
                <path d="M81.559633,35.6874739 C84.1280748,35.6874739 86.5937371,36.7085943 88.4432447,38.547026 C90.2924914,40.3851984 91.3200246,42.8363542 91.3200246,45.3894147 C91.3200246,47.9424751 90.2927523,50.3933716 88.4432447,52.2318033 C86.5939979,54.0699757 84.1280748,55.0913555 81.559633,55.0913555 C78.9911913,55.0913555 76.525529,54.070235 74.6760214,52.2318033 C72.8267747,50.3936309 71.7992414,47.9424751 71.7992414,45.3894147 C71.7992414,42.8363542 72.8265138,40.3854577 74.6760214,38.547026 C76.5252681,36.7085943 78.9911913,35.6874739 81.559633,35.6874739 M81.559633,32.6238532 C78.2719963,32.6238532 74.9843596,33.8493015 72.5186973,36.4023619 C67.4845933,41.4063189 67.4845933,49.4741558 72.5186973,54.478372 C74.9843596,56.9292686 78.2719963,58.2568807 81.559633,58.2568807 C84.8472697,58.2568807 88.1349064,57.0314325 90.6005688,54.478372 C95.6346728,49.4744151 95.6346728,41.4065782 90.6005688,36.4023619 C88.1349064,33.8493015 84.8472697,32.6238532 81.559633,32.6238532 Z" id="Shape" fill="#2C62BB"></path>
                <path d="M94.3761468,4.60229128 C95.2736694,11.2087867 98.8632537,18.2095988 104.746394,24.0272104 C109.931518,29.0559381 115.914412,32.4085067 121.797552,33.7889908 C128.378457,17.6177482 127.879946,5.19389158 124.888625,2.13699796 C121.996805,-0.821003526 110.031271,-1.31396205 94.3761468,4.60229128 Z" id="Path" fill="#EE3524"></path>
            </g>
        </g>
    </g>
</svg>